<?xml version="1.0" encoding="UTF-8" standalone="no"?>
<!-- Generator: Adobe Illustrator 15.1.0, SVG Export Plug-In . SVG Version: 6.00 Build 0)  -->

<svg
   xmlns:dc="http://purl.org/dc/elements/1.1/"
   xmlns:cc="http://creativecommons.org/ns#"
   xmlns:rdf="http://www.w3.org/1999/02/22-rdf-syntax-ns#"
   xmlns:svg="http://www.w3.org/2000/svg"
   xmlns="http://www.w3.org/2000/svg"
   xmlns:sodipodi="http://sodipodi.sourceforge.net/DTD/sodipodi-0.dtd"
   xmlns:inkscape="http://www.inkscape.org/namespaces/inkscape"
   version="1.1"
   id="Layer_1"
   x="0px"
   y="0px"
   width="104.76126"
   height="300"
   viewBox="0 0 104.76125 300"
   enable-background="new 0 0 595.28 841.89"
   xml:space="preserve"
   inkscape:version="0.91 r13725"
   sodipodi:docname="16-cell.svg"
   class="wt-16C"><metadata
     id="metadata4229"><rdf:RDF><cc:Work
         rdf:about=""><dc:format>image/svg+xml</dc:format><dc:type
           rdf:resource="http://purl.org/dc/dcmitype/StillImage" /></cc:Work></rdf:RDF></metadata><defs
     id="defs174" /><sodipodi:namedview
     pagecolor="#ffffff"
     bordercolor="#666666"
     borderopacity="1"
     objecttolerance="10"
     gridtolerance="10"
     guidetolerance="10"
     inkscape:pageopacity="0"
     inkscape:pageshadow="2"
     inkscape:window-width="1680"
     inkscape:window-height="1001"
     id="namedview172"
     showgrid="false"
     inkscape:zoom="6.3429549"
     inkscape:cx="66.943795"
     inkscape:cy="223.82751"
     inkscape:window-x="0"
     inkscape:window-y="25"
     inkscape:window-maximized="1"
     inkscape:current-layer="Layer_1"
     fit-margin-top="0"
     fit-margin-left="0"
     fit-margin-right="0"
     fit-margin-bottom="0" /><g
     transform="matrix(0.94432051,0,0,0.94432051,-173.55747,-171.48922)"
     id="g4139"><g
       id="g4"><path
         d="m 274.788,198.697 c -7.629,-9.664 -19.488,-15.087 -36.079,-15.789 28.751,-6.115 55.687,11.508 53.372,41.342 -2.938,-0.731 -4.351,1.674 -6.015,0 -2.295,-0.551 -2.215,1.293 -4.511,0.752 0,-0.25 0,-0.501 0,-0.752 2.405,-10.486 -1.815,-20 -6.767,-25.553 z"
         id="path8"
         inkscape:connector-curvature="0"
         style="fill:#ffffff" /><g
         id="g3701"
         class="suspensor"
         style="fill:#c59d72"><path
           inkscape:connector-curvature="0"
           id="path14"
           d="m 218.409,386.64 c -0.251,0 -0.491,0 -0.762,0 -3.438,-14.656 -6.155,-41.031 -1.483,-56.389 3.499,0 6.997,0 10.526,0 1.494,0 3.007,0 4.501,0 8.411,-1.664 22.125,-0.641 28.581,0 3.458,15.298 7.138,40.781 2.255,57.141 0,0.25 0,0.501 0,0.742 -3.428,-0.932 -2.957,2.065 -6.015,1.504 -7.649,-1.644 -17.333,-1.213 -25.563,-2.246 -4.111,-0.171 -9.053,0.511 -12.04,-0.752 z" /><path
           inkscape:connector-curvature="0"
           id="path16"
           d="m 225.176,447.51 c 0.14,-1.624 -2.667,-0.341 -3.759,-0.742 -3.238,-16.922 -5.303,-42.665 -3.007,-60.128 2.987,1.263 7.929,0.582 12.04,0.752 8.23,1.032 17.914,0.602 25.563,2.246 3.058,0.561 2.586,-2.436 6.015,-1.504 0,-0.241 0,-0.491 0,-0.742 5.313,15.468 2.907,44.219 -1.524,59.376 -1.403,0.11 -2.496,0.491 -2.997,1.494 -2.155,0.1 -4.932,-0.401 -6.015,0.752 -5.644,-1.364 -12.441,-1.574 -19.548,-1.504 -2.247,0 -4.503,0 -6.768,0 z" /><path
           inkscape:connector-curvature="0"
           id="path18"
           d="m 213.146,299.415 c 0.892,-0.852 2.657,-0.842 4.501,-0.742 11.067,-0.551 23.548,-1.163 32.34,0 4.501,1.183 6.707,-0.942 11.268,-1.503 -0.611,10.004 2.155,24.871 -1.483,33.081 -6.456,-0.641 -20.17,-1.664 -28.581,0 -1.494,0 -3.007,0 -4.501,0 -3.529,0 -7.027,0 -10.526,0 -5.224,-5.754 -4.081,-21.203 -3.018,-30.836 z" /><path
           inkscape:connector-curvature="0"
           id="path20"
           d="m 217.647,298.673 c -1.844,-0.1 -3.609,-0.11 -4.501,0.742 -3.529,-7.478 -4.14,-17.904 -9.012,-24.039 4.531,0.261 5.313,-3.218 8.26,-4.521 7.549,-1.464 15.548,-2.496 21.062,-5.995 4.411,2.827 9.674,4.842 16.531,5.243 0.752,0 1.504,0 2.255,0 1.143,2.626 4.501,3.007 6.777,4.521 0.611,-0.14 0.702,0.291 0.752,0.752 1.935,1.734 4.972,-0.03 6.736,-0.752 0.982,0.05 1.063,0.953 2.266,0.752 -0.481,9.263 -5.363,14.165 -7.519,21.794 -4.561,0.561 -6.767,2.687 -11.268,1.503 -8.791,-1.163 -21.272,-0.551 -32.339,0 z" /><path
           inkscape:connector-curvature="0"
           id="path22"
           d="m 221.417,446.768 c 1.093,0.401 3.899,-0.882 3.759,0.742 2.266,0 4.521,0 6.767,0 7.107,-0.07 13.904,0.14 19.548,1.504 1.083,-1.153 3.859,-0.652 6.015,-0.752 0.501,-1.003 1.594,-1.384 2.997,-1.494 2.266,14.767 1.705,34.274 -0.731,48.118 -11.057,10.315 -29.533,-0.872 -43.607,-3.017 -0.663,-14.557 3.076,-30.887 5.252,-45.101 z" /></g><g
         id="g5205"
         class="inner-upper"
         style="fill:#22984f"><path
           inkscape:connector-curvature="0"
           id="path24"
           d="m 231.942,230.265 c 0,-10.035 0,-20.049 0,-30.084 14.205,6.025 24.129,19.729 35.317,26.305 -1.704,0.19 -5.253,2.656 -7.488,4.531 -8.722,-1.755 -20.08,2.235 -27.829,-0.752 z" /><path
           inkscape:connector-curvature="0"
           id="path28"
           d="m 231.19,231.758 c -10.656,-0.371 -19.889,-2.155 -30.826,-2.246 -2.717,-0.782 -4.652,-2.346 -5.995,-4.511 10.967,-9.814 24.149,-17.423 36.079,-26.305 0.15,0.852 0.822,1.163 1.494,1.483 0,10.035 0,20.05 0,30.084 0,0.753 -0.611,0.894 -0.752,1.495 z" /></g><g
         id="g3708"
         class="inner-lower-tier"
         style="fill:#6fbf44"><path
           inkscape:connector-curvature="0"
           id="path26"
           d="m 233.456,264.86 c -5.514,3.499 -13.513,4.531 -21.062,5.995 -0.14,-1.143 0.271,-2.777 -0.742,-3.018 0.631,-3.138 -1.474,-3.539 -1.524,-5.995 -2.586,-4.922 -3.579,-11.458 -5.243,-17.303 -0.441,-2.055 -1.865,-3.118 -2.266,-5.243 -1.303,-2.717 -2.195,-5.845 -2.255,-9.784 10.937,0.09 20.169,1.875 30.826,2.246 -0.17,1.443 0.832,1.664 0.752,3.007 1.033,7.749 1.033,16.531 1.514,24.811 0,1.765 0,3.519 0,5.284 z" /><path
           inkscape:connector-curvature="0"
           id="path30"
           d="m 233.456,264.86 c 0,-1.765 0,-3.519 0,-5.283 -0.481,-8.28 -0.481,-17.062 -1.514,-24.811 0.08,-1.343 -0.922,-1.564 -0.752,-3.007 0.141,-0.602 0.752,-0.742 0.752,-1.494 7.749,2.987 19.107,-1.002 27.829,0.751 -1.464,14.095 -5.123,25.954 -7.529,39.086 -0.751,0 -1.503,0 -2.255,0 -6.857,-0.4 -12.12,-2.415 -16.531,-5.242 z" /></g></g><g
       id="g36"><g
         id="g5197"
         class="protoderm"
         style="fill:#d8e037"><path
           inkscape:connector-curvature="0"
           id="path10"
           d="m 259.019,274.624 c -2.275,-1.514 -5.634,-1.895 -6.777,-4.521 2.406,-13.132 6.065,-24.992 7.529,-39.086 2.235,-1.875 5.784,-4.34 7.488,-4.531 l 0.01,0 c 6.175,0.671 10.115,-0.913 14.285,-2.236 0,0.251 0,0.501 0,0.752 0,0.251 0,0.491 0,0.742 11.628,15.238 -2.657,41.171 -15.047,48.88 -1.764,0.722 -4.802,2.486 -6.736,0.752 -0.05,-0.461 -0.141,-0.893 -0.752,-0.752 z"
           transform="translate(-4.0396213e-6,0)" /><path
           inkscape:connector-curvature="0"
           id="path12"
           d="m 231.19,185.915 c 1.343,-1.664 4.18,-1.844 6.015,-3.007 0.501,0 1.003,0 1.504,0 16.591,0.702 28.45,6.125 36.079,15.789 4.952,5.554 9.172,15.067 6.767,25.553 -4.17,1.323 -8.11,2.907 -14.285,2.236 l -0.01,0 c -11.188,-6.576 -21.112,-20.28 -35.317,-26.305 -0.672,-0.32 -1.343,-0.631 -1.494,-1.483 0,-1.995 0,-4.01 0,-6.025 0.882,-0.11 0.631,-1.374 0.742,-2.255 -0.001,-1.495 -0.001,-2.999 -0.001,-4.503 z"
           transform="translate(-4.0396213e-6,0)" /><path
           inkscape:connector-curvature="0"
           id="path32"
           d="m 211.652,267.837 c 1.013,0.241 0.602,1.875 0.742,3.018 -2.947,1.303 -3.729,4.782 -8.26,4.521 -16.3,-6.897 -22.455,-29.803 -19.548,-51.126 0.581,0.15 1.463,0.01 1.503,0.752 2.757,0 5.494,0 8.28,0 1.343,2.166 3.278,3.729 5.995,4.511 0.06,3.939 0.952,7.067 2.255,9.784 0.401,2.125 1.825,3.188 2.266,5.243 1.664,5.845 2.657,12.38 5.243,17.303 0.051,2.455 2.156,2.856 1.524,5.994 z"
           transform="translate(-4.0396213e-6,0)" /><path
           inkscape:connector-curvature="0"
           id="path34"
           d="m 230.449,198.697 c -11.93,8.882 -25.112,16.491 -36.079,26.305 -2.787,0 -5.523,0 -8.28,0 -0.04,-0.742 -0.922,-0.602 -1.503,-0.752 -0.331,-31.327 23.026,-44.67 52.619,-41.342 -1.834,1.163 -4.671,1.343 -6.015,3.007 0,1.504 0,3.008 0,4.501 -0.11,0.882 0.141,2.145 -0.742,2.255 0,2.016 0,4.031 0,6.026 z"
           transform="translate(-4.0396213e-6,0)" /><path
           inkscape:connector-curvature="0"
           id="path80"
           d="m 238.709,182.908 c 28.19231,-5.99617 54.80642,12.37635 53.64097,41.161 -0.0109,0.27014 -2.78992,0.28848 -5.21658,0.89333 -1.81247,0.45177 -5.37967,-0.43319 -5.40335,-0.128"
           style="stroke:#000000;stroke-width:0.73280203;stroke-linecap:round;stroke-linejoin:round;stroke-miterlimit:4;stroke-dasharray:none"
           sodipodi:nodetypes="cssc" /><path
           inkscape:connector-curvature="0"
           id="path128"
           d="m 281.65068,224.75976 c 0.40934,0.50213 1.52647,0.2294 2.61044,-0.3266 0.0924,-0.0474 0.007,0.25409 0.45744,-0.15515 0.55094,-0.50007 1.64699,0.9334 2.73189,0.65743 2.17614,-0.55356 4.69689,-1.29174 4.81322,-0.65623 3.47861,19.00295 -6.1786,48.81146 -23.50466,51.15424 -0.77862,0.10528 -1.15767,-0.71009 -1.84533,-0.6182"
           style="stroke:#000000;stroke-width:0.73280203;stroke-linecap:round;stroke-linejoin:round;stroke-miterlimit:4;stroke-dasharray:none"
           sodipodi:nodetypes="csssssc" /></g><path
         d="m 281.555,225.001 c 0,-0.25 0,-0.501 0,-0.752"
         id="path38"
         inkscape:connector-curvature="0"
         style="fill:none;stroke:#000000;stroke-width:0.73280203;stroke-linecap:round;stroke-linejoin:round;stroke-miterlimit:4;stroke-dasharray:none" /><path
         d="m 231.19,231.758 c -10.656,-0.371 -19.889,-2.155 -30.826,-2.246"
         id="path40"
         inkscape:connector-curvature="0"
         style="fill:none;stroke:#000000;stroke-width:0.73280203;stroke-linecap:round;stroke-linejoin:round;stroke-miterlimit:4;stroke-dasharray:none" /><path
         d="m 216.164,491.869 c -0.662,-14.557 3.078,-30.887 5.253,-45.102"
         id="path42"
         inkscape:connector-curvature="0"
         style="fill:none;stroke:#000000;stroke-width:0.73280203;stroke-linecap:round;stroke-linejoin:round;stroke-miterlimit:4;stroke-dasharray:none" /><path
         d="m 259.771,494.886 c -11.057,10.315 -29.533,-0.872 -43.607,-3.017"
         id="path44"
         inkscape:connector-curvature="0"
         style="fill:none;stroke:#000000;stroke-width:0.73280203;stroke-linecap:round;stroke-linejoin:round;stroke-miterlimit:4;stroke-dasharray:none" /><path
         d="m 260.502,446.768 c 2.266,14.767 1.705,34.274 -0.731,48.118"
         id="path46"
         inkscape:connector-curvature="0"
         style="fill:none;stroke:#000000;stroke-width:0.73280203;stroke-linecap:round;stroke-linejoin:round;stroke-miterlimit:4;stroke-dasharray:none" /><path
         d="m 260.502,446.768 c -1.403,0.11 -2.496,0.491 -2.997,1.494"
         id="path48"
         inkscape:connector-curvature="0"
         style="fill:none;stroke:#000000;stroke-width:0.73280203;stroke-linecap:round;stroke-linejoin:round;stroke-miterlimit:4;stroke-dasharray:none" /><path
         d="m 262.026,387.392 c 5.313,15.468 2.907,44.219 -1.524,59.376"
         id="path50"
         inkscape:connector-curvature="0"
         style="fill:none;stroke:#000000;stroke-width:0.73280203;stroke-linecap:round;stroke-linejoin:round;stroke-miterlimit:4;stroke-dasharray:none" /><path
         d="m 221.417,446.768 c -3.238,-16.922 -5.303,-42.665 -3.007,-60.128"
         id="path52"
         inkscape:connector-curvature="0"
         style="fill:none;stroke:#000000;stroke-width:0.73280203;stroke-linecap:round;stroke-linejoin:round;stroke-miterlimit:4;stroke-dasharray:none" /><path
         d="m 225.176,447.51 c 0.14,-1.624 -2.667,-0.341 -3.759,-0.742"
         id="path54"
         inkscape:connector-curvature="0"
         style="fill:none;stroke:#000000;stroke-width:0.73280203;stroke-linecap:round;stroke-linejoin:round;stroke-miterlimit:4;stroke-dasharray:none" /><path
         d="m 231.942,447.51 c -2.246,0 -4.501,0 -6.767,0"
         id="path56"
         inkscape:connector-curvature="0"
         style="fill:none;stroke:#000000;stroke-width:0.73280203;stroke-linecap:round;stroke-linejoin:round;stroke-miterlimit:4;stroke-dasharray:none" /><path
         d="M 251.491,449.014 C 245.847,447.65 239.05,447.44 231.943,447.51"
         id="path58"
         inkscape:connector-curvature="0"
         style="fill:none;stroke:#000000;stroke-width:0.73280203;stroke-linecap:round;stroke-linejoin:round;stroke-miterlimit:4;stroke-dasharray:none" /><path
         d="m 259.771,330.25 c 3.458,15.298 7.138,40.781 2.255,57.141"
         id="path60"
         inkscape:connector-curvature="0"
         style="fill:none;stroke:#000000;stroke-width:0.73280203;stroke-linecap:round;stroke-linejoin:round;stroke-miterlimit:4;stroke-dasharray:none" /><path
         d="m 218.409,386.64 c -0.251,0 -0.491,0 -0.762,0 -3.438,-14.656 -6.155,-41.031 -1.483,-56.389"
         id="path62"
         inkscape:connector-curvature="0"
         style="fill:none;stroke:#000000;stroke-width:0.73280203;stroke-linecap:round;stroke-linejoin:round;stroke-miterlimit:4;stroke-dasharray:none" /><path
         d="m 230.449,387.392 c -4.11,-0.17 -9.052,0.511 -12.04,-0.752"
         id="path64"
         inkscape:connector-curvature="0"
         style="fill:none;stroke:#000000;stroke-width:0.73280203;stroke-linecap:round;stroke-linejoin:round;stroke-miterlimit:4;stroke-dasharray:none" /><path
         d="m 256.012,389.637 c -7.649,-1.644 -17.333,-1.213 -25.563,-2.246"
         id="path66"
         inkscape:connector-curvature="0"
         style="fill:none;stroke:#000000;stroke-width:0.73280203;stroke-linecap:round;stroke-linejoin:round;stroke-miterlimit:4;stroke-dasharray:none" /><path
         d="m 262.026,387.392 c 0,0.25 0,0.501 0,0.742 -3.428,-0.932 -2.957,2.065 -6.015,1.504"
         id="path68"
         inkscape:connector-curvature="0"
         style="fill:none;stroke:#000000;stroke-width:0.73280203;stroke-linecap:round;stroke-linejoin:round;stroke-miterlimit:4;stroke-dasharray:none" /><path
         d="m 216.164,330.25 c -5.223,-5.754 -4.08,-21.202 -3.018,-30.836"
         id="path70"
         inkscape:connector-curvature="0"
         style="fill:none;stroke:#000000;stroke-width:0.73280203;stroke-linecap:round;stroke-linejoin:round;stroke-miterlimit:4;stroke-dasharray:none" /><path
         d="m 226.689,330.25 c -3.529,0 -7.027,0 -10.526,0"
         id="path72"
         inkscape:connector-curvature="0"
         style="fill:none;stroke:#000000;stroke-width:0.73280203;stroke-linecap:round;stroke-linejoin:round;stroke-miterlimit:4;stroke-dasharray:none" /><path
         d="m 231.19,330.25 c -1.494,0 -3.007,0 -4.501,0"
         id="path74"
         inkscape:connector-curvature="0"
         style="fill:none;stroke:#000000;stroke-width:0.73280203;stroke-linecap:round;stroke-linejoin:round;stroke-miterlimit:4;stroke-dasharray:none" /><path
         d="m 259.771,330.25 c -6.456,-0.641 -20.17,-1.664 -28.581,0"
         id="path76"
         inkscape:connector-curvature="0"
         style="fill:none;stroke:#000000;stroke-width:0.73280203;stroke-linecap:round;stroke-linejoin:round;stroke-miterlimit:4;stroke-dasharray:none" /><path
         d="m 261.254,297.169 c -0.611,10.004 2.155,24.871 -1.483,33.081"
         id="path78"
         inkscape:connector-curvature="0"
         style="fill:none;stroke:#000000;stroke-width:0.73280203;stroke-linecap:round;stroke-linejoin:round;stroke-miterlimit:4;stroke-dasharray:none" /><path
         d="m 251.491,449.014 c 1.083,-1.153 3.859,-0.652 6.015,-0.752"
         id="path82"
         inkscape:connector-curvature="0"
         style="fill:none;stroke:#000000;stroke-width:0.73280203;stroke-linecap:round;stroke-linejoin:round;stroke-miterlimit:4;stroke-dasharray:none" /><path
         d="m 252.242,270.103 c 1.143,2.626 4.501,3.007 6.777,4.521"
         id="path84"
         inkscape:connector-curvature="0"
         style="fill:none;stroke:#000000;stroke-width:0.73280203;stroke-linecap:round;stroke-linejoin:round;stroke-miterlimit:4;stroke-dasharray:none" /><path
         d="m 204.886,244.54 c 1.664,5.845 2.657,12.38 5.243,17.303"
         id="path86"
         inkscape:connector-curvature="0"
         style="fill:none;stroke:#000000;stroke-width:0.73280203;stroke-linecap:round;stroke-linejoin:round;stroke-miterlimit:4;stroke-dasharray:none" /><path
         d="m 210.128,261.842 c 0.05,2.456 2.155,2.857 1.524,5.995"
         id="path88"
         inkscape:connector-curvature="0"
         style="fill:none;stroke:#000000;stroke-width:0.73280203;stroke-linecap:round;stroke-linejoin:round;stroke-miterlimit:4;stroke-dasharray:none" /><path
         d="m 202.62,239.297 c 0.401,2.125 1.825,3.188 2.266,5.243"
         id="path90"
         inkscape:connector-curvature="0"
         style="fill:none;stroke:#000000;stroke-width:0.73280203;stroke-linecap:round;stroke-linejoin:round;stroke-miterlimit:4;stroke-dasharray:none" /><path
         d="m 200.365,229.513 c 0.06,3.939 0.952,7.067 2.255,9.784"
         id="path92"
         inkscape:connector-curvature="0"
         style="fill:none;stroke:#000000;stroke-width:0.73280203;stroke-linecap:round;stroke-linejoin:round;stroke-miterlimit:4;stroke-dasharray:none" /><path
         d="m 194.37,225.001 c 1.343,2.166 3.278,3.729 5.995,4.511"
         id="path94"
         inkscape:connector-curvature="0"
         style="fill:none;stroke:#000000;stroke-width:0.73280203;stroke-linecap:round;stroke-linejoin:round;stroke-miterlimit:4;stroke-dasharray:none" /><path
         d="m 231.19,231.758 c 0.141,-0.602 0.752,-0.742 0.752,-1.494"
         id="path96"
         inkscape:connector-curvature="0"
         style="fill:none;stroke:#000000;stroke-width:0.73280203;stroke-linecap:round;stroke-linejoin:round;stroke-miterlimit:4;stroke-dasharray:none" /><path
         d="m 231.942,234.766 c 0.08,-1.343 -0.922,-1.564 -0.752,-3.007"
         id="path98"
         inkscape:connector-curvature="0"
         style="fill:none;stroke:#000000;stroke-width:0.73280203;stroke-linecap:round;stroke-linejoin:round;stroke-miterlimit:4;stroke-dasharray:none" /><path
         d="m 233.456,259.577 c -0.481,-8.28 -0.481,-17.062 -1.514,-24.811"
         id="path100"
         inkscape:connector-curvature="0"
         style="fill:none;stroke:#000000;stroke-width:0.73280203;stroke-linecap:round;stroke-linejoin:round;stroke-miterlimit:4;stroke-dasharray:none" /><path
         d="m 233.456,264.86 c 0,-1.765 0,-3.519 0,-5.283"
         id="path102"
         inkscape:connector-curvature="0"
         style="fill:none;stroke:#000000;stroke-width:0.73280203;stroke-linecap:round;stroke-linejoin:round;stroke-miterlimit:4;stroke-dasharray:none" /><path
         d="m 252.242,270.103 c -0.751,0 -1.503,0 -2.255,0"
         id="path104"
         inkscape:connector-curvature="0"
         style="fill:none;stroke:#000000;stroke-width:0.73280203;stroke-linecap:round;stroke-linejoin:round;stroke-miterlimit:4;stroke-dasharray:none" /><path
         d="m 259.771,231.016 c -1.464,14.095 -5.123,25.954 -7.529,39.086"
         id="path106"
         inkscape:connector-curvature="0"
         style="fill:none;stroke:#000000;stroke-width:0.73280203;stroke-linecap:round;stroke-linejoin:round;stroke-miterlimit:4;stroke-dasharray:none" /><path
         d="m 233.456,264.86 c 4.411,2.827 9.674,4.842 16.531,5.243"
         id="path108"
         inkscape:connector-curvature="0"
         style="fill:none;stroke:#000000;stroke-width:0.73280203;stroke-linecap:round;stroke-linejoin:round;stroke-miterlimit:4;stroke-dasharray:none" /><path
         d="m 212.394,270.854 c 7.549,-1.464 15.548,-2.496 21.062,-5.995"
         id="path110"
         inkscape:connector-curvature="0"
         style="fill:none;stroke:#000000;stroke-width:0.73280203;stroke-linecap:round;stroke-linejoin:round;stroke-miterlimit:4;stroke-dasharray:none" /><path
         d="m 213.146,299.415 c -3.529,-7.478 -4.14,-17.904 -9.012,-24.039"
         id="path112"
         inkscape:connector-curvature="0"
         style="fill:none;stroke:#000000;stroke-width:0.73280203;stroke-linecap:round;stroke-linejoin:round;stroke-miterlimit:4;stroke-dasharray:none" /><path
         d="m 217.647,298.673 c -1.844,-0.1 -3.609,-0.11 -4.501,0.742"
         id="path114"
         inkscape:connector-curvature="0"
         style="fill:none;stroke:#000000;stroke-width:0.73280203;stroke-linecap:round;stroke-linejoin:round;stroke-miterlimit:4;stroke-dasharray:none" /><path
         d="m 249.987,298.673 c -8.792,-1.163 -21.272,-0.551 -32.34,0"
         id="path116"
         inkscape:connector-curvature="0"
         style="fill:none;stroke:#000000;stroke-width:0.73280203;stroke-linecap:round;stroke-linejoin:round;stroke-miterlimit:4;stroke-dasharray:none" /><path
         d="m 261.254,297.169 c -4.561,0.561 -6.767,2.687 -11.268,1.503"
         id="path118"
         inkscape:connector-curvature="0"
         style="fill:none;stroke:#000000;stroke-width:0.73280203;stroke-linecap:round;stroke-linejoin:round;stroke-miterlimit:4;stroke-dasharray:none" /><path
         d="m 268.773,275.375 c -0.481,9.263 -5.363,14.165 -7.519,21.794"
         id="path120"
         inkscape:connector-curvature="0"
         style="fill:none;stroke:#000000;stroke-width:0.73280203;stroke-linecap:round;stroke-linejoin:round;stroke-miterlimit:4;stroke-dasharray:none" /><path
         d="m 259.019,274.624 c 0.611,-0.14 0.702,0.291 0.752,0.752 1.935,1.734 4.972,-0.03 6.736,-0.752"
         id="path122"
         inkscape:connector-curvature="0"
         style="fill:none;stroke:#000000;stroke-width:0.73280203;stroke-linecap:round;stroke-linejoin:round;stroke-miterlimit:4;stroke-dasharray:none" /><path
         d="m 266.507,274.624 c 12.391,-7.709 26.676,-33.643 15.047,-48.88 0,-0.25 0,-0.491 0,-0.742"
         id="path124"
         inkscape:connector-curvature="0"
         style="fill:none;stroke:#000000;stroke-width:0.73280203;stroke-linecap:round;stroke-linejoin:round;stroke-miterlimit:4;stroke-dasharray:none" /><path
         d="m 268.773,275.375 c -1.203,0.201 -1.283,-0.702 -2.266,-0.752"
         id="path126"
         inkscape:connector-curvature="0"
         style="fill:none;stroke:#000000;stroke-width:0.73280203;stroke-linecap:round;stroke-linejoin:round;stroke-miterlimit:4;stroke-dasharray:none" /><path
         d="m 286.065,224.25 c 1.664,1.674 3.078,-0.731 6.015,0"
         id="path130"
         inkscape:connector-curvature="0"
         style="fill:none;stroke:#000000;stroke-width:0.73280203;stroke-linecap:round;stroke-linejoin:round;stroke-miterlimit:4;stroke-dasharray:none" /><path
         d="m 281.555,225.001 c 2.295,0.542 2.215,-1.303 4.511,-0.752"
         id="path132"
         inkscape:connector-curvature="0"
         style="fill:none;stroke:#000000;stroke-width:0.73280203;stroke-linecap:round;stroke-linejoin:round;stroke-miterlimit:4;stroke-dasharray:none" /><path
         d="m 211.652,267.837 c 1.013,0.241 0.602,1.875 0.742,3.018"
         id="path134"
         inkscape:connector-curvature="0"
         style="fill:none;stroke:#000000;stroke-width:0.73280203;stroke-linecap:round;stroke-linejoin:round;stroke-miterlimit:4;stroke-dasharray:none" /><path
         d="m 204.134,275.375 c -16.3,-6.897 -22.455,-29.803 -19.548,-51.126"
         id="path136"
         inkscape:connector-curvature="0"
         style="fill:none;stroke:#000000;stroke-width:0.73280203;stroke-linecap:round;stroke-linejoin:round;stroke-miterlimit:4;stroke-dasharray:none" /><path
         d="m 212.394,270.854 c -2.947,1.303 -3.729,4.782 -8.26,4.521"
         id="path138"
         inkscape:connector-curvature="0"
         style="fill:none;stroke:#000000;stroke-width:0.73280203;stroke-linecap:round;stroke-linejoin:round;stroke-miterlimit:4;stroke-dasharray:none" /><path
         d="m 231.942,230.265 c 0,-10.035 0,-20.049 0,-30.084"
         id="path140"
         inkscape:connector-curvature="0"
         style="fill:none;stroke:#000000;stroke-width:0.73280203;stroke-linecap:round;stroke-linejoin:round;stroke-miterlimit:4;stroke-dasharray:none" /><path
         d="m 259.771,231.016 c -8.722,-1.754 -20.08,2.236 -27.829,-0.751"
         id="path142"
         inkscape:connector-curvature="0"
         style="fill:none;stroke:#000000;stroke-width:0.73280203;stroke-linecap:round;stroke-linejoin:round;stroke-miterlimit:4;stroke-dasharray:none" /><path
         d="m 267.259,226.485 c -1.704,0.19 -5.253,2.656 -7.488,4.531"
         id="path144"
         inkscape:connector-curvature="0"
         style="fill:none;stroke:#000000;stroke-width:0.73280203;stroke-linecap:round;stroke-linejoin:round;stroke-miterlimit:4;stroke-dasharray:none" /><path
         d="m 267.27,226.485 -0.01,0 c -11.188,-6.576 -21.112,-20.28 -35.317,-26.305"
         id="path146"
         inkscape:connector-curvature="0"
         style="fill:none;stroke:#000000;stroke-width:0.73280203;stroke-linecap:round;stroke-linejoin:round;stroke-miterlimit:4;stroke-dasharray:none" /><path
         d="m 281.555,224.25 c -4.17,1.323 -8.11,2.907 -14.285,2.236"
         id="path148"
         inkscape:connector-curvature="0"
         style="fill:none;stroke:#000000;stroke-width:0.73280203;stroke-linecap:round;stroke-linejoin:round;stroke-miterlimit:4;stroke-dasharray:none" /><path
         d="m 274.788,198.697 c 4.952,5.554 9.172,15.067 6.767,25.553"
         id="path150"
         inkscape:connector-curvature="0"
         style="fill:none;stroke:#000000;stroke-width:0.73280203;stroke-linecap:round;stroke-linejoin:round;stroke-miterlimit:4;stroke-dasharray:none" /><path
         d="m 238.709,182.908 c 16.591,0.702 28.45,6.125 36.079,15.789"
         id="path152"
         inkscape:connector-curvature="0"
         style="fill:none;stroke:#000000;stroke-width:0.73280203;stroke-linecap:round;stroke-linejoin:round;stroke-miterlimit:4;stroke-dasharray:none" /><path
         d="m 237.205,182.908 c 0.501,0 1.003,0 1.504,0"
         id="path154"
         inkscape:connector-curvature="0"
         style="fill:none;stroke:#000000;stroke-width:0.73280203;stroke-linecap:round;stroke-linejoin:round;stroke-miterlimit:4;stroke-dasharray:none" /><path
         d="m 230.449,192.672 c 0.882,-0.11 0.631,-1.374 0.742,-2.255"
         id="path156"
         inkscape:connector-curvature="0"
         style="fill:none;stroke:#000000;stroke-width:0.73280203;stroke-linecap:round;stroke-linejoin:round;stroke-miterlimit:4;stroke-dasharray:none" /><path
         d="m 231.942,200.18 c -0.672,-0.32 -1.343,-0.631 -1.494,-1.483"
         id="path158"
         inkscape:connector-curvature="0"
         style="fill:none;stroke:#000000;stroke-width:0.73280203;stroke-linecap:round;stroke-linejoin:round;stroke-miterlimit:4;stroke-dasharray:none" /><path
         d="m 237.205,182.908 c -1.834,1.163 -4.671,1.343 -6.015,3.007 0,1.504 0,3.008 0,4.501"
         id="path160"
         inkscape:connector-curvature="0"
         style="fill:none;stroke:#000000;stroke-width:0.73280203;stroke-linecap:round;stroke-linejoin:round;stroke-miterlimit:4;stroke-dasharray:none" /><path
         d="m 184.586,224.25 c -0.331,-31.327 23.026,-44.67 52.619,-41.342"
         id="path162"
         inkscape:connector-curvature="0"
         style="fill:none;stroke:#000000;stroke-width:0.73280203;stroke-linecap:round;stroke-linejoin:round;stroke-miterlimit:4;stroke-dasharray:none" /><path
         d="m 186.089,225.001 c -0.04,-0.742 -0.922,-0.602 -1.503,-0.752"
         id="path164"
         inkscape:connector-curvature="0"
         style="fill:none;stroke:#000000;stroke-width:0.73280203;stroke-linecap:round;stroke-linejoin:round;stroke-miterlimit:4;stroke-dasharray:none" /><path
         d="m 194.37,225.001 c -2.787,0 -5.523,0 -8.28,0"
         id="path166"
         inkscape:connector-curvature="0"
         style="fill:none;stroke:#000000;stroke-width:0.73280203;stroke-linecap:round;stroke-linejoin:round;stroke-miterlimit:4;stroke-dasharray:none" /><path
         d="m 230.449,198.697 c -11.93,8.882 -25.112,16.491 -36.079,26.305"
         id="path168"
         inkscape:connector-curvature="0"
         style="fill:none;stroke:#000000;stroke-width:0.73280203;stroke-linecap:round;stroke-linejoin:round;stroke-miterlimit:4;stroke-dasharray:none" /><path
         d="m 230.449,192.672 c 0,2.015 0,4.03 0,6.025"
         id="path170"
         inkscape:connector-curvature="0"
         style="fill:none;stroke:#000000;stroke-width:0.73280203;stroke-linecap:round;stroke-linejoin:round;stroke-miterlimit:4;stroke-dasharray:none" /></g></g></svg>