<?xml version="1.0" encoding="UTF-8" standalone="no"?>
<!-- Created with Inkscape (http://www.inkscape.org/) -->

<svg
   xmlns:dc="http://purl.org/dc/elements/1.1/"
   xmlns:cc="http://creativecommons.org/ns#"
   xmlns:rdf="http://www.w3.org/1999/02/22-rdf-syntax-ns#"
   xmlns:svg="http://www.w3.org/2000/svg"
   xmlns="http://www.w3.org/2000/svg"
   xmlns:sodipodi="http://sodipodi.sourceforge.net/DTD/sodipodi-0.dtd"
   xmlns:inkscape="http://www.inkscape.org/namespaces/inkscape"
   version="1.1"
   inkscape:version="0.91+devel r"
   xml:space="preserve"
   width="58.473106"
   height="299.51901"
   viewBox="0 0 58.473107 299"
   sodipodi:docname="8-cell-RPS5A.svg"
   class="8c-rps5a"
   id="svg2"><metadata
     id="metadata8"><rdf:RDF><cc:Work
         rdf:about=""><dc:format>image/svg+xml</dc:format><dc:type
           rdf:resource="http://purl.org/dc/dcmitype/StillImage" /><dc:title /></cc:Work></rdf:RDF></metadata><defs
     id="defs6" /><sodipodi:namedview
     pagecolor="#ffffff"
     bordercolor="#666666"
     borderopacity="1"
     objecttolerance="10"
     gridtolerance="10"
     guidetolerance="10"
     inkscape:pageopacity="0"
     inkscape:pageshadow="2"
     inkscape:window-width="1680"
     inkscape:window-height="998"
     id="namedview4"
     showgrid="false"
     fit-margin-top="0"
     fit-margin-left="0"
     fit-margin-right="0"
     fit-margin-bottom="0"
     inkscape:zoom="1.7878788"
     inkscape:cx="-20.926816"
     inkscape:cy="69.706318"
     inkscape:window-x="0"
     inkscape:window-y="0"
     inkscape:window-maximized="1"
     inkscape:current-layer="g10" /><g
     id="g10"
     inkscape:groupmode="layer"
     inkscape:label="8-cell_RPS5A"
     transform="matrix(1.3333333,0,0,-1.3333333,-391.72383,615.38749)"
     class="eight-rps5a"><g
       id="g12"
       transform="matrix(1.6817426,0,0,1.6817426,-199.18855,-314.65448)"><g
         id="g14"
         clip-path="none"><g
           id="g20"><g
             id="g22" /><g
             id="g28"><g
               clip-path="none"
               id="g30"><g
                 transform="translate(316.5801,453.5098)"
                 id="g32" /><g
                 transform="translate(306.8501,450.7002)"
                 id="g36" /><g
                 transform="translate(305.25,451.0498)"
                 id="g40"><g
                   id="g3651"
                   class="upper-tier"><path
                     inkscape:connector-curvature="0"
                     id="path34"
                     style="fill:#90c84b;fill-opacity:1;fill-rule:nonzero;stroke:none"
                     d="m 0,0 c -0.68,5.11 -3.76,7.25 -9.021,7.86 l 0,0.01 C -3.34,8.59 1.7,5.03 1.05,0.19 L 0.939,0.2 C 0.66,0.22 0.439,0.17 0.29,0.06 0.29,0.07 0.28,0.08 0.28,0.09 l -0.01,0 C 0.18,0.09 0.09,0.05 0,0"
                     transform="translate(11.3301,2.4600001)" /><path
                     inkscape:connector-curvature="0"
                     id="path38"
                     style="fill:#90c84b;fill-opacity:1;fill-rule:nonzero;stroke:none"
                     d="m 0,0 c -0.6,0.14 -0.98,-0.04 -1.6,0.35 -0.25,0.11 -0.03,0.69 -0.36,0.71 -0.38,2.29 -0.08,5.25 -0.18,7.83 0.09,1.1 1.16,1.22 1.96,1.6 0.41,-0.05 0.68,0.03 0.889,0.18 C 5.97,10.06 9.05,7.92 9.73,2.81 9.68,2.79 9.63,2.76 9.58,2.75 7.63,1.92 4.91,1.01 2.669,0.53 1.95,0.3 1.15,0.15 0.18,0.17 0.02,0.21 0.01,0.1 0,0"
                     transform="translate(1.6000998,-0.3496)" /><path
                     inkscape:connector-curvature="0"
                     id="path42"
                     style="fill:#90c84b;fill-opacity:1;fill-rule:nonzero;stroke:none"
                     d="m 0,0 c 0.47,-0.46 -0.34,-0.25 -0.36,-0.71 -0.73,0 -0.47,-0.47 -1.21,-0.51 -1,-0.06 -2.43,1.36 -3.24,1.67 -0.95,0.37 -3,1.94 -3.54,2.48 0.01,0.01 0.03,0.02 0.04,0.03 -0.03,0 -0.07,0.02 -0.12,0.06 -0.02,0.01 -0.02,0.02 -0.03,0.03 -0.13,0.12 -0.31,0.36 -0.34,0.53 -0.07,0.34 -0.17,0.65 -0.1,0.87 1.22,3.91 5.97,6.26 10.32,5.69 C 0.62,9.76 -0.45,9.64 -0.54,8.54 -0.44,5.96 -0.74,3 -0.36,0.71 -0.03,0.69 -0.25,0.11 0,0" /></g></g><g
                 transform="translate(315.0303,441.98)"
                 id="g44" /><g
                 transform="translate(305.25,451.0498)"
                 id="g48" /><g
                 transform="translate(305.0698,442.8701)"
                 id="g52"><g
                   id="g3645"
                   class="lower-tier"><path
                     d="m 9.92136,-0.9259936 c 2.13,1.23 3.56,7.78 1.84,11.5899996 0.149,0.11 0.37,0.16 0.649,0.14 l 0.111,-0.01 0,-0.03 c 3.37,-2.6199996 0.62,-11.5099996 -2.42,-11.8699996 -0.111,0.01 -0.21,0.03 -0.18,0.18"
                     style="fill:#d8e037;fill-opacity:1;fill-rule:nonzero;stroke:none"
                     id="path46"
                     inkscape:connector-curvature="0" /><path
                     inkscape:connector-curvature="0"
                     id="path50"
                     style="fill:#d8e037;fill-opacity:1;fill-rule:nonzero;stroke:none"
                     d="m 0,0 c 0.62,-0.39 1,-0.21 1.6,-0.35 0.01,0.1 0.02,0.21 0.18,0.17 0.97,-0.02 1.77,0.13 2.49,0.36 2.24,0.48 4.96,1.39 6.91,2.22 0.05,0.01 0.1,0.04 0.15,0.06 0.09,0.05 0.18,0.09 0.27,0.09 l 0.01,0 c 0,-0.01 0.01,-0.02 0.01,-0.03 1.72,-3.81 0.29,-10.36 -1.84,-11.59 l -0.35,0 C 8.41,-9.6 7.18,-9.91 5.87,-10.14 3.51,-9.95 1.16,-9.75 0,-8.36 c -0.01,0.11 -0.03,0.21 -0.18,0.18 0.03,0.2 -0.04,0.31 -0.18,0.35 -0.04,2.23 -0.46,4.98 0,7.12 C -0.34,-0.25 0.47,-0.46 0,0"
                     transform="translate(0.18020012,8.1796999)" /><path
                     inkscape:connector-curvature="0"
                     id="path54"
                     style="fill:#d8e037;fill-opacity:1;fill-rule:nonzero;stroke:none"
                     d="M 0,0 C 0.15,0.03 0.17,-0.07 0.18,-0.18 -0.17,-0.9 -1.41,-0.73 -1.96,-1.25 l -0.18,0 c -0.96,-0.16 -1.87,-0.38 -2.49,-0.89 -3.54,1.66 -5.87,6.93 -4.79,11.75 0.05,0.19 0.34,0.63 0.44,0.81 0.04,0.07 0.5,0.48 0.81,0.69 C -7.63,10.57 -5.58,9 -4.63,8.63 -3.82,8.32 -2.39,6.9 -1.39,6.96 -0.65,7 -0.91,7.47 -0.18,7.47 -0.64,5.33 -0.22,2.58 -0.18,0.35 -0.04,0.31 0.03,0.2 0,0" /></g></g><g
                 transform="translate(302.9302,441.6201)"
                 id="g56" /><g
                 transform="translate(302.04,428.6299)"
                 id="g60" /><g
                 transform="translate(311.4697,410.8398)"
                 id="g64" /><g
                 transform="translate(299.3799,385.75)"
                 id="g68"><g
                   id="g3638"
                   class="suspensor"><path
                     inkscape:connector-curvature="0"
                     id="path58"
                     style="fill:#c59d72;fill-opacity:1;fill-rule:nonzero;stroke:none"
                     d="m 0,0 0.18,0 c 0.55,0.52 1.79,0.35 2.14,1.07 1.16,-1.39 3.51,-1.59 5.87,-1.78 1.31,0.23 2.54,0.54 3.56,1.07 l 0.35,0 c -0.03,-0.15 0.069,-0.17 0.18,-0.18 -1.571,-3.96 -0.03,-9.76 -1.96,-13.7 -0.83,-0.31 -2.26,0.19 -3.55,0 l -0.181,0 C 4.4,-13.75 0.79,-13.86 -0.89,-12.99 -2.2,-9.73 -1.27,-4.24 -2.49,-0.89 -1.87,-0.38 -0.96,-0.16 0,0"
                     transform="translate(3.5503001,55.8701)" /><path
                     inkscape:connector-curvature="0"
                     id="path62"
                     style="fill:#c59d72;fill-opacity:1;fill-rule:nonzero;stroke:none"
                     d="m 0,0 c 1.68,-0.87 5.29,-0.76 7.479,-0.53 l 0.181,0 c 1.29,0.19 2.72,-0.31 3.55,0 -0.03,-0.15 0.07,-0.17 0.18,-0.18 1.28,-4.87 1.04,-13.81 -1.6,-17.08 l -0.36,0 c -2.57,-0.87 -5.47,0.26 -8,0.53 C -1.7,-14 -0.99,-3.74 0,0"
                     transform="translate(2.6601002,42.8799)" /><path
                     inkscape:connector-curvature="0"
                     id="path66"
                     style="fill:#c59d72;fill-opacity:1;fill-rule:nonzero;stroke:none"
                     d="m 0,0 c 3.15,-6.38 4.19,-20.21 -1.239,-24.91 -1.151,0.32 -0.891,-0.77 -1.421,-1.069 -0.23,1.609 -4.26,0.719 -4.99,0.719 -1.04,0.49 -2.76,0.321 -3.56,1.06 -3.34,7.27 0.31,18.68 3.21,24.73 2.53,-0.27 5.431,-1.4 8,-0.53"
                     transform="translate(12.0898,25.089798)" /><path
                     inkscape:connector-curvature="0"
                     id="path70"
                     style="fill:#c59d72;fill-opacity:1;fill-rule:nonzero;stroke:none"
                     d="M 0,0 C -0.05,0.41 0.04,0.67 0.35,0.71 0.38,0.92 0.68,0.87 0.88,0.89 1.68,0.15 3.4,0.32 4.44,-0.17 5.17,-0.17 9.2,0.72 9.43,-0.89 9.96,-0.59 9.7,0.5 10.851,0.18 13.3,-7.69 8.04,-13.97 6.04,-22.42 4.3,-29.8 3.91,-37.04 3.02,-44.83 c -0.26,-2.29 -2.19,-9.2 -3.2,-10.86 -0.55,-0.89 -2.18,-2.1 -3.21,-1.95 -3.04,0.43 -2.68,7.84 -2.66,11.92 0.01,3.97 -0.27,9.12 0.71,12.81 0.91,3.44 2.88,6.3 3.2,9.61 0.72,7.46 1.56,15.13 1.96,22.59 C -0.26,-0.34 -0.06,-0.24 0,0" /></g></g></g></g></g><g
           id="g72"
           transform="translate(304.8901,443.2202)"><path
             d="M 0,0 C -0.04,2.23 -0.46,4.98 0,7.12"
             style="fill:none;stroke:#373535;stroke-width:0.2;stroke-linecap:round;stroke-linejoin:round;stroke-miterlimit:4;stroke-dasharray:none;stroke-opacity:1"
             id="path74"
             inkscape:connector-curvature="0" /></g><g
           id="g76"
           transform="translate(305.0698,442.8701)"><path
             d="M 0,0 C 0.03,0.2 -0.04,0.31 -0.18,0.35"
             style="fill:none;stroke:#373535;stroke-width:0.2;stroke-linecap:round;stroke-linejoin:round;stroke-miterlimit:4;stroke-dasharray:none;stroke-opacity:1"
             id="path78"
             inkscape:connector-curvature="0" /></g><g
           id="g80"
           transform="translate(311.1201,440.9102)"><path
             d="M 0,0 C -2.36,0.19 -4.71,0.39 -5.87,1.78"
             style="fill:none;stroke:#373535;stroke-width:0.2;stroke-linecap:round;stroke-linejoin:round;stroke-miterlimit:4;stroke-dasharray:none;stroke-opacity:1"
             id="path82"
             inkscape:connector-curvature="0" /></g><g
           id="g84"
           transform="translate(314.6797,441.98)"><path
             d="M 0,0 C -1.02,-0.53 -2.25,-0.84 -3.56,-1.07"
             style="fill:none;stroke:#373535;stroke-width:0.2;stroke-linecap:round;stroke-linejoin:round;stroke-miterlimit:4;stroke-dasharray:none;stroke-opacity:1"
             id="path86"
             inkscape:connector-curvature="0" /></g><g
           id="g88"
           transform="translate(307.0303,450.8701)"><path
             d="M 0,0 C 0.97,-0.02 1.77,0.13 2.489,0.36"
             style="fill:none;stroke:#373535;stroke-width:0.2;stroke-linecap:round;stroke-linejoin:round;stroke-miterlimit:4;stroke-dasharray:none;stroke-opacity:1"
             id="path90"
             inkscape:connector-curvature="0" /></g><g
           id="g92"
           transform="translate(299.3799,385.75)"><path
             d="M 0,0 C -0.05,0.41 0.04,0.67 0.35,0.71"
             style="fill:none;stroke:#373535;stroke-width:0.2;stroke-linecap:round;stroke-linejoin:round;stroke-miterlimit:4;stroke-dasharray:none;stroke-opacity:1"
             id="path94"
             inkscape:connector-curvature="0" /></g><g
           id="g96"
           transform="translate(299.73,386.46)"><path
             d="M 0,0 C 0.03,0.21 0.33,0.16 0.53,0.18"
             style="fill:none;stroke:#373535;stroke-width:0.2;stroke-linecap:round;stroke-linejoin:round;stroke-miterlimit:4;stroke-dasharray:none;stroke-opacity:1"
             id="path98"
             inkscape:connector-curvature="0" /></g><g
           id="g100"
           transform="translate(299.2002,385.04)"><path
             d="M 0,0 C -0.08,0.37 0.12,0.47 0.18,0.71"
             style="fill:none;stroke:#373535;stroke-width:0.2;stroke-linecap:round;stroke-linejoin:round;stroke-miterlimit:4;stroke-dasharray:none;stroke-opacity:1"
             id="path102"
             inkscape:connector-curvature="0" /></g><g
           id="g104"
           transform="translate(302.04,428.6299)"><path
             d="M 0,0 C -1.31,3.26 -0.38,8.75 -1.6,12.1"
             style="fill:none;stroke:#373535;stroke-width:0.2;stroke-linecap:round;stroke-linejoin:round;stroke-miterlimit:4;stroke-dasharray:none;stroke-opacity:1"
             id="path106"
             inkscape:connector-curvature="0" /></g><g
           id="g108"
           transform="translate(305.25,442.6899)"><path
             d="M 0,0 C -0.35,-0.72 -1.59,-0.55 -2.14,-1.07"
             style="fill:none;stroke:#373535;stroke-width:0.2;stroke-linecap:round;stroke-linejoin:round;stroke-miterlimit:4;stroke-dasharray:none;stroke-opacity:1"
             id="path110"
             inkscape:connector-curvature="0" /></g><g
           id="g112"
           transform="translate(305.0698,442.8701)"><path
             d="M 0,0 C 0.15,0.03 0.17,-0.07 0.18,-0.18"
             style="fill:none;stroke:#373535;stroke-width:0.2;stroke-linecap:round;stroke-linejoin:round;stroke-miterlimit:4;stroke-dasharray:none;stroke-opacity:1"
             id="path114"
             inkscape:connector-curvature="0" /></g><g
           id="g116"
           transform="translate(300.4399,440.73)"><path
             d="m 0,0 c -3.54,1.66 -5.87,6.93 -4.79,11.75 0.05,0.19 0.34,0.63 0.44,0.81 0.04,0.07 0.5,0.48 0.81,0.69 0.01,0.01 0.03,0.02 0.04,0.03"
             style="fill:none;stroke:#373535;stroke-width:0.2;stroke-linecap:round;stroke-linejoin:round;stroke-miterlimit:4;stroke-dasharray:none;stroke-opacity:1"
             id="path118"
             inkscape:connector-curvature="0" /></g><g
           id="g120"
           transform="translate(302.9302,441.6201)"><path
             d="M 0,0 C -0.96,-0.16 -1.87,-0.38 -2.49,-0.89"
             style="fill:none;stroke:#373535;stroke-width:0.2;stroke-linecap:round;stroke-linejoin:round;stroke-miterlimit:4;stroke-dasharray:none;stroke-opacity:1"
             id="path122"
             inkscape:connector-curvature="0" /></g><g
           id="g124"
           transform="translate(303.1099,441.6201)"><path
             d="M 0,0 -0.18,0"
             style="fill:none;stroke:#373535;stroke-width:0.2;stroke-linecap:round;stroke-linejoin:round;stroke-miterlimit:4;stroke-dasharray:none;stroke-opacity:1"
             id="path126"
             inkscape:connector-curvature="0" /></g><g
           id="g128"
           transform="translate(304.8901,451.7598)"><path
             d="M 0,0 C -0.38,2.29 -0.08,5.25 -0.18,7.83"
             style="fill:none;stroke:#373535;stroke-width:0.2;stroke-linecap:round;stroke-linejoin:round;stroke-miterlimit:4;stroke-dasharray:none;stroke-opacity:1"
             id="path130"
             inkscape:connector-curvature="0" /></g><g
           id="g132"
           transform="translate(307.0303,450.8701)"><path
             d="m 0,0 c -0.16,0.04 -0.17,-0.07 -0.18,-0.17 -0.6,0.14 -0.98,-0.04 -1.6,0.35"
             style="fill:none;stroke:#373535;stroke-width:0.2;stroke-linecap:round;stroke-linejoin:round;stroke-miterlimit:4;stroke-dasharray:none;stroke-opacity:1"
             id="path134"
             inkscape:connector-curvature="0" /></g><g
           id="g136"
           transform="translate(316.4297,453.4502)"><path
             d="M 0,0 C -1.949,-0.83 -4.67,-1.74 -6.91,-2.22"
             style="fill:none;stroke:#373535;stroke-width:0.2;stroke-linecap:round;stroke-linejoin:round;stroke-miterlimit:4;stroke-dasharray:none;stroke-opacity:1"
             id="path138"
             inkscape:connector-curvature="0" /></g><g
           id="g140"
           transform="translate(306.6699,461.1899)"><path
             d="M 0,0 C 0.41,-0.05 0.68,0.03 0.89,0.18"
             style="fill:none;stroke:#373535;stroke-width:0.2;stroke-linecap:round;stroke-linejoin:round;stroke-miterlimit:4;stroke-dasharray:none;stroke-opacity:1"
             id="path142"
             inkscape:connector-curvature="0" /></g><g
           id="g144"
           transform="translate(307.5596,461.3799)"><path
             d="m 0,0 c 5.681,0.72 10.721,-2.84 10.07,-7.68 l 0,-0.03"
             style="fill:none;stroke:#373535;stroke-width:0.2;stroke-linecap:round;stroke-linejoin:round;stroke-miterlimit:4;stroke-dasharray:none;stroke-opacity:1"
             id="path146"
             inkscape:connector-curvature="0" /></g><g
           id="g148"
           transform="translate(316.5801,453.5098)"><path
             d="M 0,0 C -0.68,5.11 -3.76,7.25 -9.021,7.86"
             style="fill:none;stroke:#373535;stroke-width:0.2;stroke-linecap:round;stroke-linejoin:round;stroke-miterlimit:4;stroke-dasharray:none;stroke-opacity:1"
             id="path150"
             inkscape:connector-curvature="0" /></g><g
           id="g152"
           transform="translate(316.8496,453.6001)"><path
             d="M 0,0 C -0.09,0 -0.18,-0.04 -0.27,-0.09 -0.319,-0.11 -0.369,-0.14 -0.42,-0.15 -0.46,-0.17 -0.5,-0.18 -0.54,-0.18"
             style="fill:none;stroke:#373535;stroke-width:0.2;stroke-linecap:round;stroke-linejoin:round;stroke-miterlimit:4;stroke-dasharray:none;stroke-opacity:1"
             id="path154"
             inkscape:connector-curvature="0" /></g><g
           id="g156"
           transform="translate(316.8096,453.54)"><path
             d="M 0,0 C 0.021,0.01 0.04,0.03 0.061,0.03 0.21,0.14 0.431,0.19 0.71,0.17"
             style="fill:none;stroke:#373535;stroke-width:0.2;stroke-linecap:round;stroke-linejoin:round;stroke-miterlimit:4;stroke-dasharray:none;stroke-opacity:1"
             id="path158"
             inkscape:connector-curvature="0" /></g><g
           id="g160"
           transform="translate(315.0303,441.98)"><path
             d="m 0,0 c 2.13,1.23 3.56,7.78 1.84,11.59 0,0.01 -0.01,0.02 -0.01,0.03 0,0.01 -0.011,0.01 -0.011,0.02"
             style="fill:none;stroke:#373535;stroke-width:0.2;stroke-linecap:round;stroke-linejoin:round;stroke-miterlimit:4;stroke-dasharray:none;stroke-opacity:1"
             id="path162"
             inkscape:connector-curvature="0" /></g><g
           id="g164"
           transform="translate(317.6299,453.6699)"><path
             d="M 0,0 C 3.37,-2.62 0.62,-11.51 -2.42,-11.87"
             style="fill:none;stroke:#373535;stroke-width:0.2;stroke-linecap:round;stroke-linejoin:round;stroke-miterlimit:4;stroke-dasharray:none;stroke-opacity:1"
             id="path166"
             inkscape:connector-curvature="0" /></g><g
           id="g168"
           transform="translate(314.6797,441.98)"><path
             d="M 0,0 0.351,0"
             style="fill:none;stroke:#373535;stroke-width:0.2;stroke-linecap:round;stroke-linejoin:round;stroke-miterlimit:4;stroke-dasharray:none;stroke-opacity:1"
             id="path170"
             inkscape:connector-curvature="0" /></g><g
           id="g172"
           transform="translate(315.21,441.7998)"><path
             d="M 0,0 C -1.57,-3.96 -0.03,-9.76 -1.96,-13.7"
             style="fill:none;stroke:#373535;stroke-width:0.2;stroke-linecap:round;stroke-linejoin:round;stroke-miterlimit:4;stroke-dasharray:none;stroke-opacity:1"
             id="path174"
             inkscape:connector-curvature="0" /></g><g
           id="g176"
           transform="translate(315.0303,441.98)"><path
             d="M 0,0 C -0.03,-0.15 0.069,-0.17 0.18,-0.18"
             style="fill:none;stroke:#373535;stroke-width:0.2;stroke-linecap:round;stroke-linejoin:round;stroke-miterlimit:4;stroke-dasharray:none;stroke-opacity:1"
             id="path178"
             inkscape:connector-curvature="0" /></g><g
           id="g180"
           transform="translate(302.04,428.6299)"><path
             d="M 0,0 C 1.68,-0.87 5.29,-0.76 7.479,-0.53"
             style="fill:none;stroke:#373535;stroke-width:0.2;stroke-linecap:round;stroke-linejoin:round;stroke-miterlimit:4;stroke-dasharray:none;stroke-opacity:1"
             id="path182"
             inkscape:connector-curvature="0" /></g><g
           id="g184"
           transform="translate(303.4702,411.3701)"><path
             d="M 0,0 C -3.13,3.26 -2.42,13.52 -1.43,17.26"
             style="fill:none;stroke:#373535;stroke-width:0.2;stroke-linecap:round;stroke-linejoin:round;stroke-miterlimit:4;stroke-dasharray:none;stroke-opacity:1"
             id="path186"
             inkscape:connector-curvature="0" /></g><g
           id="g188"
           transform="translate(313.25,428.1001)"><path
             d="m 0,0 c -0.03,-0.15 0.07,-0.17 0.18,-0.18 1.28,-4.87 1.04,-13.81 -1.6,-17.08 l -0.36,0"
             style="fill:none;stroke:#373535;stroke-width:0.2;stroke-linecap:round;stroke-linejoin:round;stroke-miterlimit:4;stroke-dasharray:none;stroke-opacity:1"
             id="path190"
             inkscape:connector-curvature="0" /></g><g
           id="g192"
           transform="translate(309.7002,428.1001)"><path
             d="M 0,0 C 1.29,0.19 2.72,-0.31 3.55,0"
             style="fill:none;stroke:#373535;stroke-width:0.2;stroke-linecap:round;stroke-linejoin:round;stroke-miterlimit:4;stroke-dasharray:none;stroke-opacity:1"
             id="path194"
             inkscape:connector-curvature="0" /></g><g
           id="g196"
           transform="translate(309.5195,428.1001)"><path
             d="M 0,0 0.181,0"
             style="fill:none;stroke:#373535;stroke-width:0.2;stroke-linecap:round;stroke-linejoin:round;stroke-miterlimit:4;stroke-dasharray:none;stroke-opacity:1"
             id="path198"
             inkscape:connector-curvature="0" /></g><g
           id="g200"
           transform="translate(311.4697,410.8398)"><path
             d="M 0,0 C 3.15,-6.38 4.19,-20.21 -1.239,-24.91"
             style="fill:none;stroke:#373535;stroke-width:0.2;stroke-linecap:round;stroke-linejoin:round;stroke-miterlimit:4;stroke-dasharray:none;stroke-opacity:1"
             id="path202"
             inkscape:connector-curvature="0" /></g><g
           id="g204"
           transform="translate(303.4702,411.3701)"><path
             d="M 0,0 C 2.53,-0.27 5.43,-1.4 8,-0.53"
             style="fill:none;stroke:#373535;stroke-width:0.2;stroke-linecap:round;stroke-linejoin:round;stroke-miterlimit:4;stroke-dasharray:none;stroke-opacity:1"
             id="path206"
             inkscape:connector-curvature="0" /></g><g
           id="g208"
           transform="translate(300.2598,386.6396)"><path
             d="M 0,0 C -3.34,7.271 0.31,18.68 3.21,24.73"
             style="fill:none;stroke:#373535;stroke-width:0.2;stroke-linecap:round;stroke-linejoin:round;stroke-miterlimit:4;stroke-dasharray:none;stroke-opacity:1"
             id="path210"
             inkscape:connector-curvature="0" /></g><g
           id="g212"
           transform="translate(303.8198,385.5801)"><path
             d="M 0,0 C -1.04,0.49 -2.76,0.32 -3.56,1.06"
             style="fill:none;stroke:#373535;stroke-width:0.2;stroke-linecap:round;stroke-linejoin:round;stroke-miterlimit:4;stroke-dasharray:none;stroke-opacity:1"
             id="path214"
             inkscape:connector-curvature="0" /></g><g
           id="g216"
           transform="translate(310.2305,385.9297)"><path
             d="m 0,0 c 2.449,-7.87 -2.811,-14.149 -4.811,-22.6 -1.739,-7.379 -2.129,-14.62 -3.02,-22.41 -0.259,-2.29 -2.19,-9.2 -3.199,-10.86 -0.551,-0.89 -2.18,-2.1 -3.21,-1.949 -3.04,0.429 -2.68,7.84 -2.66,11.92 0.009,3.969 -0.27,9.12 0.71,12.809 0.91,3.441 2.879,6.3 3.2,9.611 0.719,7.459 1.559,15.129 1.96,22.589"
             style="fill:none;stroke:#373535;stroke-width:0.2;stroke-linecap:round;stroke-linejoin:round;stroke-miterlimit:4;stroke-dasharray:none;stroke-opacity:1"
             id="path218"
             inkscape:connector-curvature="0" /></g><g
           id="g220"
           transform="translate(303.8198,385.5801)"><path
             d="m 0,0 c 0.73,0 4.76,0.89 4.99,-0.72 0.53,0.3 0.27,1.39 1.421,1.07"
             style="fill:none;stroke:#373535;stroke-width:0.2;stroke-linecap:round;stroke-linejoin:round;stroke-miterlimit:4;stroke-dasharray:none;stroke-opacity:1"
             id="path222"
             inkscape:connector-curvature="0" /></g><g
           id="g224"
           transform="translate(296.79,454.1001)"><path
             d="M 0,0 C -0.13,0.12 -0.31,0.36 -0.34,0.53 -0.41,0.87 -0.51,1.18 -0.44,1.4 0.78,5.31 5.53,7.66 9.88,7.09"
             style="fill:none;stroke:#373535;stroke-width:0.2;stroke-linecap:round;stroke-linejoin:round;stroke-miterlimit:4;stroke-dasharray:none;stroke-opacity:1"
             id="path226"
             inkscape:connector-curvature="0" /></g><g
           id="g228"
           transform="translate(296.9399,454.0098)"><path
             d="M 0,0 C -0.03,0 -0.07,0.02 -0.12,0.06"
             style="fill:none;stroke:#373535;stroke-width:0.2;stroke-linecap:round;stroke-linejoin:round;stroke-miterlimit:4;stroke-dasharray:none;stroke-opacity:1"
             id="path230"
             inkscape:connector-curvature="0" /></g><g
           id="g232"
           transform="translate(304.8901,450.3398)"><path
             d="m 0,0 c -0.73,0 -0.47,-0.47 -1.21,-0.51 -1,-0.06 -2.43,1.36 -3.24,1.67 -0.95,0.37 -3,1.94 -3.54,2.48 -0.04,0.04 -0.07,0.07 -0.08,0.09 -0.02,0.01 -0.02,0.02 -0.03,0.03"
             style="fill:none;stroke:#373535;stroke-width:0.2;stroke-linecap:round;stroke-linejoin:round;stroke-miterlimit:4;stroke-dasharray:none;stroke-opacity:1"
             id="path234"
             inkscape:connector-curvature="0" /></g><g
           id="g236"
           transform="translate(305.25,451.0498)"><path
             d="M 0,0 C 0.47,-0.46 -0.34,-0.25 -0.36,-0.71"
             style="fill:none;stroke:#373535;stroke-width:0.2;stroke-linecap:round;stroke-linejoin:round;stroke-miterlimit:4;stroke-dasharray:none;stroke-opacity:1"
             id="path238"
             inkscape:connector-curvature="0" /></g><g
           id="g240"
           transform="translate(304.8901,451.7598)"><path
             d="M 0,0 C 0.33,-0.02 0.11,-0.6 0.36,-0.71"
             style="fill:none;stroke:#373535;stroke-width:0.2;stroke-linecap:round;stroke-linejoin:round;stroke-miterlimit:4;stroke-dasharray:none;stroke-opacity:1"
             id="path242"
             inkscape:connector-curvature="0" /></g><g
           id="g244"
           transform="translate(304.8901,451.23)"><path
             d="M 0,0 0,0.53"
             style="fill:none;stroke:#373535;stroke-width:0.2;stroke-linecap:round;stroke-linejoin:round;stroke-miterlimit:4;stroke-dasharray:none;stroke-opacity:1"
             id="path246"
             inkscape:connector-curvature="0" /></g><g
           id="g248"
           transform="translate(306.6699,461.1899)"><path
             d="M 0,0 C -0.8,-0.38 -1.87,-0.5 -1.96,-1.6"
             style="fill:none;stroke:#373535;stroke-width:0.2;stroke-linecap:round;stroke-linejoin:round;stroke-miterlimit:4;stroke-dasharray:none;stroke-opacity:1"
             id="path250"
             inkscape:connector-curvature="0" /></g></g></g></g></svg>