<?xml version="1.0" encoding="UTF-8" standalone="no"?>
<!-- Created with Inkscape (http://www.inkscape.org/) -->

<svg
   xmlns:dc="http://purl.org/dc/elements/1.1/"
   xmlns:cc="http://creativecommons.org/ns#"
   xmlns:rdf="http://www.w3.org/1999/02/22-rdf-syntax-ns#"
   xmlns:svg="http://www.w3.org/2000/svg"
   xmlns="http://www.w3.org/2000/svg"
   xmlns:sodipodi="http://sodipodi.sourceforge.net/DTD/sodipodi-0.dtd"
   xmlns:inkscape="http://www.inkscape.org/namespaces/inkscape"
   version="1.1"
   inkscape:version="0.91+devel r"
   xml:space="preserve"
   width="58.39135"
   height="299.39932"
   viewBox="0 0 58.39135 299"
   sodipodi:docname="8-cell-wt.svg"
   class="eight-wt"
   id="svg2"><metadata
     id="metadata8"><rdf:RDF><cc:Work
         rdf:about=""><dc:format>image/svg+xml</dc:format><dc:type
           rdf:resource="http://purl.org/dc/dcmitype/StillImage" /><dc:title /></cc:Work></rdf:RDF></metadata><defs
     id="defs6" /><sodipodi:namedview
     pagecolor="#ffffff"
     bordercolor="#666666"
     borderopacity="1"
     objecttolerance="10"
     gridtolerance="10"
     guidetolerance="10"
     inkscape:pageopacity="0"
     inkscape:pageshadow="2"
     inkscape:window-width="1680"
     inkscape:window-height="998"
     id="namedview4"
     showgrid="false"
     inkscape:zoom="3.5757575"
     inkscape:cx="54.923225"
     inkscape:cy="27.748061"
     inkscape:window-x="0"
     inkscape:window-y="0"
     inkscape:window-maximized="1"
     fit-margin-top="0"
     fit-margin-left="0"
     fit-margin-right="0"
     fit-margin-bottom="0"
     inkscape:current-layer="g10" /><g
     id="g10"
     inkscape:groupmode="layer"
     inkscape:label="8-cell_WT"
     transform="matrix(2.2423584,0,0,-2.2423584,-657.45703,973.89153)"><g
       id="g12"
       transform="translate(-0.18641016,-27.348465)"><g
         id="g14"
         clip-path="none"><g
           id="g20"><g
             id="g22" /><g
             id="g28"><g
               clip-path="none"
               id="g30"><g
                 transform="translate(317.8779,452.6528)"
                 id="g32" /><g
                 transform="translate(307.5596,461.3721)"
                 id="g36" /><g
                 transform="translate(317.166,452.4746)"
                 id="g40" /><g
                 transform="translate(315.0312,441.978)"
                 id="g44" /><g
                 transform="translate(307.5596,461.3721)"
                 id="g48" /><g
                 transform="translate(313.4297,427.9204)"
                 id="g52" /><g
                 transform="translate(311.4746,410.8398)"
                 id="g56" /><g
                 transform="translate(310.2285,385.9316)"
                 id="g60"><g
                   id="g3604"
                   class="suspensor"><path
                     inkscape:connector-curvature="0"
                     id="path46"
                     style="fill:#c59d72;fill-opacity:1;fill-rule:nonzero;stroke:none"
                     d="m 0,0 c -0.031,-0.152 0.073,-0.168 0.178,-0.178 -1.564,-3.96 -0.032,-9.765 -1.957,-13.702 -0.833,-0.304 -2.262,0.188 -3.557,0 l -0.178,0 c -2.185,-0.225 -5.794,-0.337 -7.474,0.534 -1.312,3.255 -0.382,8.753 -1.601,12.1 0.616,0.511 1.523,0.731 2.491,0.891 l 0.178,0 c 0.55,0.517 1.786,0.346 2.135,1.067 1.16,-1.39 3.512,-1.589 5.872,-1.779 1.308,0.232 2.542,0.541 3.557,1.067 L 0,0 Z"
                     transform="translate(4.8027002,56.0464)" /><path
                     inkscape:connector-curvature="0"
                     id="path54"
                     style="fill:#c59d72;fill-opacity:1;fill-rule:nonzero;stroke:none"
                     d="m 0,0 c 1.276,-4.874 1.039,-13.809 -1.6,-17.081 l -0.355,0 c -2.579,-0.873 -5.474,0.261 -8.008,0.534 -3.132,3.253 -2.42,13.515 -1.423,17.259 1.679,-0.871 5.288,-0.759 7.474,-0.534 l 0.178,0 c 1.295,0.187 2.723,-0.304 3.556,0 C -0.209,0.028 -0.104,0.012 0,0"
                     transform="translate(3.2012002,41.9888)" /><path
                     inkscape:connector-curvature="0"
                     id="path58"
                     style="fill:#c59d72;fill-opacity:1;fill-rule:nonzero;stroke:none"
                     d="m 0,0 c 3.144,-6.385 4.183,-20.21 -1.246,-24.908 -1.146,0.313 -0.887,-0.776 -1.421,-1.068 -0.23,1.607 -4.259,0.714 -4.985,0.712 -1.044,0.498 -2.759,0.326 -3.559,1.066 -3.345,7.266 0.301,18.675 3.203,24.732 C -5.474,0.261 -2.579,-0.873 0,0"
                     transform="translate(1.2461001,24.908201)" /><path
                     inkscape:connector-curvature="0"
                     id="path62"
                     style="fill:#c59d72;fill-opacity:1;fill-rule:nonzero;stroke:none"
                     d="m 0,0 c 2.451,-7.87 -2.807,-14.147 -4.804,-22.597 -1.746,-7.383 -2.135,-14.627 -3.025,-22.419 -0.261,-2.282 -2.188,-9.196 -3.203,-10.854 -0.544,-0.888 -2.176,-2.105 -3.203,-1.955 -3.042,0.438 -2.684,7.841 -2.667,11.92 0.014,3.978 -0.266,9.127 0.712,12.809 0.913,3.446 2.88,6.302 3.2,9.61 0.724,7.462 1.561,15.13 1.958,22.596 -0.076,0.37 0.123,0.47 0.178,0.712 -0.05,0.404 0.042,0.667 0.355,0.709 0.029,0.209 0.326,0.153 0.534,0.179 0.8,-0.74 2.515,-0.567 3.559,-1.065 0.726,0.001 4.755,0.894 4.985,-0.712 C -0.887,-0.775 -1.146,0.313 0,0" /></g></g><g
                 transform="translate(304.8906,451.7632)"
                 id="g64"><g
                   id="g3619"
                   class="upper-tier"><path
                     inkscape:connector-curvature="0"
                     id="path38"
                     style="fill:#90c84b;fill-opacity:1;fill-rule:nonzero;stroke:none"
                     d="M 0,0 C 5.892,0.475 11.014,-3.201 10.318,-8.719 10.01,-8.705 9.766,-8.76 9.606,-8.897 l -0.533,0 C 9.052,-3.637 5.26,-0.614 0,0"
                     transform="translate(2.6690002,9.6089)" /><path
                     inkscape:connector-curvature="0"
                     id="path50"
                     style="fill:#90c84b;fill-opacity:1;fill-rule:nonzero;stroke:none"
                     d="M 0,0 C 5.26,-0.614 9.052,-3.637 9.073,-8.897 7.12,-9.732 4.257,-9.654 1.958,-10.143 c -0.72,-0.23 -1.517,-0.379 -2.492,-0.356 -0.152,0.033 -0.168,-0.069 -0.178,-0.178 -0.595,0.15 -0.977,-0.031 -1.601,0.356 -0.247,0.109 -0.026,0.686 -0.356,0.712 -0.38,2.29 -0.085,5.251 -0.178,7.83 0.088,1.096 1.158,1.212 1.957,1.601 C -0.475,-0.235 -0.206,-0.149 0,0"
                     transform="translate(2.6690002,9.6089)" /><path
                     inkscape:connector-curvature="0"
                     id="path66"
                     style="fill:#90c84b;fill-opacity:1;fill-rule:nonzero;stroke:none"
                     d="M 0,0 C 0.33,-0.026 0.109,-0.603 0.356,-0.712 0.828,-1.17 0.014,-0.966 0,-1.424 c -2.52,-0.005 -5.298,-0.5 -7.474,0.178 l -0.178,0 c -0.427,-0.073 -0.387,0.325 -0.89,0.178 -2.206,6.19 4.397,11.275 10.321,10.499 C 0.979,9.042 -0.09,8.926 -0.178,7.83 -0.085,5.25 -0.38,2.29 0,0" /></g></g><g
                 transform="translate(305.0684,442.8682)"
                 id="g68"><g
                   id="g3612"
                   class="lower-tier"><path
                     inkscape:connector-curvature="0"
                     id="path34"
                     style="fill:#d8e037;fill-opacity:1;fill-rule:nonzero;stroke:none"
                     d="m 0,0 c 2.843,-3.087 0.408,-9.75 -2.669,-10.853 -0.104,0.01 -0.209,0.026 -0.178,0.178 2.178,1.832 3.414,6.924 2.135,10.497 C -0.553,-0.041 -0.309,0.014 0,0"
                     transform="translate(12.8095,9.7846002)" /><path
                     inkscape:connector-curvature="0"
                     id="path42"
                     style="fill:#d8e037;fill-opacity:1;fill-rule:nonzero;stroke:none"
                     d="m 0,0 c 1.279,-3.573 0.043,-8.665 -2.135,-10.497 l -0.356,0 c -1.015,-0.526 -2.249,-0.835 -3.557,-1.067 -2.36,0.19 -4.711,0.389 -5.871,1.779 -0.01,0.107 -0.027,0.209 -0.179,0.179 0.029,0.206 -0.04,0.315 -0.177,0.353 -0.038,2.23 -0.461,4.98 0,7.118 0.014,0.458 0.828,0.254 0.356,0.712 0.623,-0.387 1.005,-0.207 1.601,-0.356 0.009,0.109 0.026,0.211 0.177,0.177 0.976,-0.023 1.773,0.126 2.493,0.356 2.298,0.489 5.162,0.411 7.115,1.246 L 0,0 Z"
                     transform="translate(12.0976,9.6063999)" /><path
                     inkscape:connector-curvature="0"
                     id="path70"
                     style="fill:#d8e037;fill-opacity:1;fill-rule:nonzero;stroke:none"
                     d="m 0,0 c 0.152,0.031 0.168,-0.071 0.178,-0.178 -0.349,-0.721 -1.585,-0.551 -2.136,-1.068 l -0.177,0 c -0.969,-0.159 -1.875,-0.379 -2.491,-0.89 -3.057,1.248 -6.706,6.468 -4.093,9.963 0.503,0.147 0.462,-0.251 0.889,-0.178 l 0.178,0 c 2.176,-0.678 4.954,-0.183 7.474,-0.178 -0.46,-2.138 -0.038,-4.888 0,-7.117 C -0.041,0.315 0.028,0.206 0,0" /></g></g></g></g></g><g
           id="g72"
           transform="translate(304.8906,443.2217)"><path
             d="M 0,0 C -0.038,2.23 -0.46,4.98 0,7.118"
             style="fill:none;stroke:#373535;stroke-width:0.2;stroke-linecap:round;stroke-linejoin:round;stroke-miterlimit:4;stroke-dasharray:none;stroke-opacity:1"
             id="path74"
             inkscape:connector-curvature="0" /></g><g
           id="g76"
           transform="translate(305.0684,442.8682)"><path
             d="M 0,0 C 0.028,0.206 -0.041,0.315 -0.178,0.354"
             style="fill:none;stroke:#373535;stroke-width:0.2;stroke-linecap:round;stroke-linejoin:round;stroke-miterlimit:4;stroke-dasharray:none;stroke-opacity:1"
             id="path78"
             inkscape:connector-curvature="0" /></g><g
           id="g80"
           transform="translate(311.1182,440.9106)"><path
             d="M 0,0 C -2.36,0.19 -4.711,0.389 -5.872,1.779"
             style="fill:none;stroke:#373535;stroke-width:0.2;stroke-linecap:round;stroke-linejoin:round;stroke-miterlimit:4;stroke-dasharray:none;stroke-opacity:1"
             id="path82"
             inkscape:connector-curvature="0" /></g><g
           id="g84"
           transform="translate(314.6748,441.978)"><path
             d="M 0,0 C -1.015,-0.526 -2.249,-0.835 -3.557,-1.067"
             style="fill:none;stroke:#373535;stroke-width:0.2;stroke-linecap:round;stroke-linejoin:round;stroke-miterlimit:4;stroke-dasharray:none;stroke-opacity:1"
             id="path86"
             inkscape:connector-curvature="0" /></g><g
           id="g88"
           transform="translate(307.0254,450.873)"><path
             d="M 0,0 C 0.976,-0.023 1.772,0.126 2.492,0.356"
             style="fill:none;stroke:#373535;stroke-width:0.2;stroke-linecap:round;stroke-linejoin:round;stroke-miterlimit:4;stroke-dasharray:none;stroke-opacity:1"
             id="path90"
             inkscape:connector-curvature="0" /></g><g
           id="g92"
           transform="translate(299.374,385.7539)"><path
             d="M 0,0 C -0.05,0.403 0.043,0.667 0.356,0.709"
             style="fill:none;stroke:#373535;stroke-width:0.2;stroke-linecap:round;stroke-linejoin:round;stroke-miterlimit:4;stroke-dasharray:none;stroke-opacity:1"
             id="path94"
             inkscape:connector-curvature="0" /></g><g
           id="g96"
           transform="translate(299.73,386.4629)"><path
             d="M 0,0 C 0.028,0.209 0.325,0.152 0.534,0.179"
             style="fill:none;stroke:#373535;stroke-width:0.2;stroke-linecap:round;stroke-linejoin:round;stroke-miterlimit:4;stroke-dasharray:none;stroke-opacity:1"
             id="path98"
             inkscape:connector-curvature="0" /></g><g
           id="g100"
           transform="translate(299.1963,385.042)"><path
             d="M 0,0 C -0.076,0.37 0.123,0.47 0.178,0.712"
             style="fill:none;stroke:#373535;stroke-width:0.2;stroke-linecap:round;stroke-linejoin:round;stroke-miterlimit:4;stroke-dasharray:none;stroke-opacity:1"
             id="path102"
             inkscape:connector-curvature="0" /></g><g
           id="g104"
           transform="translate(302.0435,428.6323)"><path
             d="M 0,0 C -1.312,3.255 -0.382,8.752 -1.602,12.1"
             style="fill:none;stroke:#373535;stroke-width:0.2;stroke-linecap:round;stroke-linejoin:round;stroke-miterlimit:4;stroke-dasharray:none;stroke-opacity:1"
             id="path106"
             inkscape:connector-curvature="0" /></g><g
           id="g108"
           transform="translate(305.2466,442.6899)"><path
             d="M 0,0 C -0.349,-0.721 -1.585,-0.55 -2.136,-1.067"
             style="fill:none;stroke:#373535;stroke-width:0.2;stroke-linecap:round;stroke-linejoin:round;stroke-miterlimit:4;stroke-dasharray:none;stroke-opacity:1"
             id="path110"
             inkscape:connector-curvature="0" /></g><g
           id="g112"
           transform="translate(305.0684,442.8682)"><path
             d="M 0,0 C 0.152,0.031 0.168,-0.071 0.178,-0.178"
             style="fill:none;stroke:#373535;stroke-width:0.2;stroke-linecap:round;stroke-linejoin:round;stroke-miterlimit:4;stroke-dasharray:none;stroke-opacity:1"
             id="path114"
             inkscape:connector-curvature="0" /></g><g
           id="g116"
           transform="translate(300.4419,440.7324)"><path
             d="M 0,0 C -3.056,1.248 -6.705,6.468 -4.093,9.963"
             style="fill:none;stroke:#373535;stroke-width:0.2;stroke-linecap:round;stroke-linejoin:round;stroke-miterlimit:4;stroke-dasharray:none;stroke-opacity:1"
             id="path118"
             inkscape:connector-curvature="0" /></g><g
           id="g120"
           transform="translate(302.9331,441.6226)"><path
             d="M 0,0 C -0.968,-0.159 -1.875,-0.38 -2.491,-0.89"
             style="fill:none;stroke:#373535;stroke-width:0.2;stroke-linecap:round;stroke-linejoin:round;stroke-miterlimit:4;stroke-dasharray:none;stroke-opacity:1"
             id="path122"
             inkscape:connector-curvature="0" /></g><g
           id="g124"
           transform="translate(303.1108,441.6226)"><path
             d="M 0,0 -0.178,0"
             style="fill:none;stroke:#373535;stroke-width:0.2;stroke-linecap:round;stroke-linejoin:round;stroke-miterlimit:4;stroke-dasharray:none;stroke-opacity:1"
             id="path126"
             inkscape:connector-curvature="0" /></g><g
           id="g128"
           transform="translate(304.8906,451.7632)"><path
             d="M 0,0 C -0.38,2.29 -0.085,5.25 -0.178,7.83"
             style="fill:none;stroke:#373535;stroke-width:0.2;stroke-linecap:round;stroke-linejoin:round;stroke-miterlimit:4;stroke-dasharray:none;stroke-opacity:1"
             id="path130"
             inkscape:connector-curvature="0" /></g><g
           id="g132"
           transform="translate(307.0254,450.873)"><path
             d="m 0,0 c -0.151,0.033 -0.168,-0.069 -0.178,-0.178 -0.595,0.15 -0.977,-0.03 -1.601,0.356"
             style="fill:none;stroke:#373535;stroke-width:0.2;stroke-linecap:round;stroke-linejoin:round;stroke-miterlimit:4;stroke-dasharray:none;stroke-opacity:1"
             id="path134"
             inkscape:connector-curvature="0" /></g><g
           id="g136"
           transform="translate(316.6328,452.4746)"><path
             d="M 0,0 C -1.953,-0.835 -4.816,-0.757 -7.115,-1.246"
             style="fill:none;stroke:#373535;stroke-width:0.2;stroke-linecap:round;stroke-linejoin:round;stroke-miterlimit:4;stroke-dasharray:none;stroke-opacity:1"
             id="path138"
             inkscape:connector-curvature="0" /></g><g
           id="g140"
           transform="translate(306.6699,461.1943)"><path
             d="M 0,0 C 0.415,-0.057 0.684,0.028 0.89,0.178"
             style="fill:none;stroke:#373535;stroke-width:0.2;stroke-linecap:round;stroke-linejoin:round;stroke-miterlimit:4;stroke-dasharray:none;stroke-opacity:1"
             id="path142"
             inkscape:connector-curvature="0" /></g><g
           id="g144"
           transform="translate(307.5596,461.3721)"><path
             d="M 0,0 C 5.892,0.475 11.014,-3.201 10.318,-8.719"
             style="fill:none;stroke:#373535;stroke-width:0.2;stroke-linecap:round;stroke-linejoin:round;stroke-miterlimit:4;stroke-dasharray:none;stroke-opacity:1"
             id="path146"
             inkscape:connector-curvature="0" /></g><g
           id="g148"
           transform="translate(316.6328,452.4746)"><path
             d="M 0,0 C -0.021,5.26 -3.813,8.283 -9.073,8.897"
             style="fill:none;stroke:#373535;stroke-width:0.2;stroke-linecap:round;stroke-linejoin:round;stroke-miterlimit:4;stroke-dasharray:none;stroke-opacity:1"
             id="path150"
             inkscape:connector-curvature="0" /></g><g
           id="g152"
           transform="translate(317.166,452.4746)"><path
             d="M 0,0 -0.533,0"
             style="fill:none;stroke:#373535;stroke-width:0.2;stroke-linecap:round;stroke-linejoin:round;stroke-miterlimit:4;stroke-dasharray:none;stroke-opacity:1"
             id="path154"
             inkscape:connector-curvature="0" /></g><g
           id="g156"
           transform="translate(317.166,452.4746)"><path
             d="M 0,0 C 0.159,0.138 0.403,0.192 0.712,0.178"
             style="fill:none;stroke:#373535;stroke-width:0.2;stroke-linecap:round;stroke-linejoin:round;stroke-miterlimit:4;stroke-dasharray:none;stroke-opacity:1"
             id="path158"
             inkscape:connector-curvature="0" /></g><g
           id="g160"
           transform="translate(315.0312,441.978)"><path
             d="M 0,0 C 2.178,1.832 3.414,6.923 2.135,10.497"
             style="fill:none;stroke:#373535;stroke-width:0.2;stroke-linecap:round;stroke-linejoin:round;stroke-miterlimit:4;stroke-dasharray:none;stroke-opacity:1"
             id="path162"
             inkscape:connector-curvature="0" /></g><g
           id="g164"
           transform="translate(317.8779,452.6528)"><path
             d="M 0,0 C 2.843,-3.087 0.408,-9.75 -2.669,-10.853"
             style="fill:none;stroke:#373535;stroke-width:0.2;stroke-linecap:round;stroke-linejoin:round;stroke-miterlimit:4;stroke-dasharray:none;stroke-opacity:1"
             id="path166"
             inkscape:connector-curvature="0" /></g><g
           id="g168"
           transform="translate(314.6748,441.978)"><path
             d="M 0,0 0.356,0"
             style="fill:none;stroke:#373535;stroke-width:0.2;stroke-linecap:round;stroke-linejoin:round;stroke-miterlimit:4;stroke-dasharray:none;stroke-opacity:1"
             id="path170"
             inkscape:connector-curvature="0" /></g><g
           id="g172"
           transform="translate(315.209,441.8003)"><path
             d="M 0,0 C -1.563,-3.96 -0.031,-9.766 -1.957,-13.702"
             style="fill:none;stroke:#373535;stroke-width:0.2;stroke-linecap:round;stroke-linejoin:round;stroke-miterlimit:4;stroke-dasharray:none;stroke-opacity:1"
             id="path174"
             inkscape:connector-curvature="0" /></g><g
           id="g176"
           transform="translate(315.0312,441.978)"><path
             d="M 0,0 C -0.031,-0.152 0.073,-0.168 0.178,-0.178"
             style="fill:none;stroke:#373535;stroke-width:0.2;stroke-linecap:round;stroke-linejoin:round;stroke-miterlimit:4;stroke-dasharray:none;stroke-opacity:1"
             id="path178"
             inkscape:connector-curvature="0" /></g><g
           id="g180"
           transform="translate(302.0435,428.6323)"><path
             d="M 0,0 C 1.68,-0.871 5.289,-0.759 7.474,-0.534"
             style="fill:none;stroke:#373535;stroke-width:0.2;stroke-linecap:round;stroke-linejoin:round;stroke-miterlimit:4;stroke-dasharray:none;stroke-opacity:1"
             id="path182"
             inkscape:connector-curvature="0" /></g><g
           id="g184"
           transform="translate(303.4668,411.3735)"><path
             d="M 0,0 C -3.132,3.253 -2.42,13.515 -1.423,17.259"
             style="fill:none;stroke:#373535;stroke-width:0.2;stroke-linecap:round;stroke-linejoin:round;stroke-miterlimit:4;stroke-dasharray:none;stroke-opacity:1"
             id="path186"
             inkscape:connector-curvature="0" /></g><g
           id="g188"
           transform="translate(313.252,428.0981)"><path
             d="m 0,0 c -0.031,-0.149 0.073,-0.166 0.178,-0.178 1.276,-4.873 1.039,-13.808 -1.6,-17.08 l -0.355,0"
             style="fill:none;stroke:#373535;stroke-width:0.2;stroke-linecap:round;stroke-linejoin:round;stroke-miterlimit:4;stroke-dasharray:none;stroke-opacity:1"
             id="path190"
             inkscape:connector-curvature="0" /></g><g
           id="g192"
           transform="translate(309.6953,428.0981)"><path
             d="M 0,0 C 1.295,0.187 2.724,-0.304 3.557,0"
             style="fill:none;stroke:#373535;stroke-width:0.2;stroke-linecap:round;stroke-linejoin:round;stroke-miterlimit:4;stroke-dasharray:none;stroke-opacity:1"
             id="path194"
             inkscape:connector-curvature="0" /></g><g
           id="g196"
           transform="translate(309.5176,428.0981)"><path
             d="M 0,0 0.178,0"
             style="fill:none;stroke:#373535;stroke-width:0.2;stroke-linecap:round;stroke-linejoin:round;stroke-miterlimit:4;stroke-dasharray:none;stroke-opacity:1"
             id="path198"
             inkscape:connector-curvature="0" /></g><g
           id="g200"
           transform="translate(311.4746,410.8398)"><path
             d="M 0,0 C 3.144,-6.385 4.183,-20.21 -1.246,-24.908"
             style="fill:none;stroke:#373535;stroke-width:0.2;stroke-linecap:round;stroke-linejoin:round;stroke-miterlimit:4;stroke-dasharray:none;stroke-opacity:1"
             id="path202"
             inkscape:connector-curvature="0" /></g><g
           id="g204"
           transform="translate(303.4668,411.3735)"><path
             d="M 0,0 C 2.534,-0.273 5.429,-1.407 8.008,-0.534"
             style="fill:none;stroke:#373535;stroke-width:0.2;stroke-linecap:round;stroke-linejoin:round;stroke-miterlimit:4;stroke-dasharray:none;stroke-opacity:1"
             id="path206"
             inkscape:connector-curvature="0" /></g><g
           id="g208"
           transform="translate(300.2637,386.6416)"><path
             d="M 0,0 C -3.345,7.267 0.301,18.675 3.203,24.732"
             style="fill:none;stroke:#373535;stroke-width:0.2;stroke-linecap:round;stroke-linejoin:round;stroke-miterlimit:4;stroke-dasharray:none;stroke-opacity:1"
             id="path210"
             inkscape:connector-curvature="0" /></g><g
           id="g212"
           transform="translate(303.8228,385.5762)"><path
             d="M 0,0 C -1.044,0.498 -2.759,0.325 -3.559,1.065"
             style="fill:none;stroke:#373535;stroke-width:0.2;stroke-linecap:round;stroke-linejoin:round;stroke-miterlimit:4;stroke-dasharray:none;stroke-opacity:1"
             id="path214"
             inkscape:connector-curvature="0" /></g><g
           id="g216"
           transform="translate(310.2285,385.9316)"><path
             d="m 0,0 c 2.451,-7.87 -2.807,-14.147 -4.804,-22.597 -1.746,-7.383 -2.135,-14.627 -3.025,-22.419 -0.261,-2.282 -2.188,-9.196 -3.203,-10.854 -0.544,-0.888 -2.176,-2.105 -3.203,-1.955 -3.042,0.438 -2.684,7.841 -2.667,11.92 0.014,3.978 -0.266,9.127 0.712,12.809 0.913,3.446 2.88,6.302 3.2,9.61 0.724,7.462 1.561,15.13 1.958,22.596"
             style="fill:none;stroke:#373535;stroke-width:0.2;stroke-linecap:round;stroke-linejoin:round;stroke-miterlimit:4;stroke-dasharray:none;stroke-opacity:1"
             id="path218"
             inkscape:connector-curvature="0" /></g><g
           id="g220"
           transform="translate(303.8228,385.5762)"><path
             d="M 0,0 C 0.726,0.002 4.754,0.895 4.985,-0.712 5.519,-0.42 5.26,0.669 6.406,0.355"
             style="fill:none;stroke:#373535;stroke-width:0.2;stroke-linecap:round;stroke-linejoin:round;stroke-miterlimit:4;stroke-dasharray:none;stroke-opacity:1"
             id="path222"
             inkscape:connector-curvature="0" /></g><g
           id="g224"
           transform="translate(296.3491,450.6953)"><path
             d="M 0,0 C -2.207,6.19 4.396,11.275 10.321,10.499"
             style="fill:none;stroke:#373535;stroke-width:0.2;stroke-linecap:round;stroke-linejoin:round;stroke-miterlimit:4;stroke-dasharray:none;stroke-opacity:1"
             id="path226"
             inkscape:connector-curvature="0" /></g><g
           id="g228"
           transform="translate(297.2388,450.5176)"><path
             d="M 0,0 C -0.427,-0.074 -0.387,0.325 -0.89,0.178"
             style="fill:none;stroke:#373535;stroke-width:0.2;stroke-linecap:round;stroke-linejoin:round;stroke-miterlimit:4;stroke-dasharray:none;stroke-opacity:1"
             id="path230"
             inkscape:connector-curvature="0" /></g><g
           id="g232"
           transform="translate(297.4165,450.5176)"><path
             d="M 0,0 -0.178,0"
             style="fill:none;stroke:#373535;stroke-width:0.2;stroke-linecap:round;stroke-linejoin:round;stroke-miterlimit:4;stroke-dasharray:none;stroke-opacity:1"
             id="path234"
             inkscape:connector-curvature="0" /></g><g
           id="g236"
           transform="translate(304.8906,450.3394)"><path
             d="M 0,0 C -2.52,-0.005 -5.298,-0.5 -7.474,0.178"
             style="fill:none;stroke:#373535;stroke-width:0.2;stroke-linecap:round;stroke-linejoin:round;stroke-miterlimit:4;stroke-dasharray:none;stroke-opacity:1"
             id="path238"
             inkscape:connector-curvature="0" /></g><g
           id="g240"
           transform="translate(305.2466,451.0513)"><path
             d="M 0,0 C 0.472,-0.458 -0.342,-0.254 -0.356,-0.712"
             style="fill:none;stroke:#373535;stroke-width:0.2;stroke-linecap:round;stroke-linejoin:round;stroke-miterlimit:4;stroke-dasharray:none;stroke-opacity:1"
             id="path242"
             inkscape:connector-curvature="0" /></g><g
           id="g244"
           transform="translate(304.8906,451.7632)"><path
             d="M 0,0 C 0.33,-0.026 0.109,-0.603 0.356,-0.712"
             style="fill:none;stroke:#373535;stroke-width:0.2;stroke-linecap:round;stroke-linejoin:round;stroke-miterlimit:4;stroke-dasharray:none;stroke-opacity:1"
             id="path246"
             inkscape:connector-curvature="0" /></g><g
           id="g248"
           transform="translate(304.8906,451.229)"><path
             d="M 0,0 0,0.534"
             style="fill:none;stroke:#373535;stroke-width:0.2;stroke-linecap:round;stroke-linejoin:round;stroke-miterlimit:4;stroke-dasharray:none;stroke-opacity:1"
             id="path250"
             inkscape:connector-curvature="0" /></g><g
           id="g252"
           transform="translate(306.6699,461.1943)"><path
             d="M 0,0 C -0.8,-0.389 -1.87,-0.505 -1.958,-1.602"
             style="fill:none;stroke:#373535;stroke-width:0.2;stroke-linecap:round;stroke-linejoin:round;stroke-miterlimit:4;stroke-dasharray:none;stroke-opacity:1"
             id="path254"
             inkscape:connector-curvature="0" /></g></g></g></g></svg>