<svg xmlns="http://www.w3.org/2000/svg" xmlns:xlink="http://www.w3.org/1999/xlink" height="108.24" width="41.111">
    <defs id="defs21154">
        <clipPath id="clipPath12928">
            <path d="M315.827 314.168h38V163.17h-38V314.17z" id="path12930"/>
        </clipPath>
        <clipPath id="clipPath3574">
            <use xlink:href="#g3568" id="use3576" width="100%" height="100%"/>
        </clipPath>
    </defs>
    <g id="layer1">
        <g id="g12924">
            <g id="g12932">
                <g clip-path="url(#clipPath12928)" id="g12934" transform="matrix(1.25 0 0 -1.25 -401.299 392.836)">
                    <g id="eg-hypophysis" class="hypophysis" fill="#1baaa1">
                        <path d="M344.446 283.49h1.717c-.47-1.245-1.122-2.313-1.932-3.22-.85-.363-1.392-1.04-2.572-1.073-2.226.707-4.152 1.717-7.297 1.502-1.596.165-2.348-.513-3.647-.645-.974 1.125-2.536 2.725-2.36 4.293.554.733 1.197 1.376 1.93 1.932 1.148.21 2.126.592 2.79 1.287 1.188-.283 2.885.655 3.864 1.288.45-.845 1.842-1.382 2.79-1.073.664-.947 2.272-1.97 3.434-1.717.096-1.193.88-1.697 1.286-2.576" id="path12962"/>
                    </g>
                    <g id="g12980">
                        <g id="eg-suspensor" class="suspensor" fill="#c59d72">
                            <path id="path12966" d="M344.23 280.27c.585-1.222.007-2.96-.425-3.863h-.215c-.346-1.37-1.932-1.503-3.65-1.503-1.947.34-3.936.64-6.008.858-.888.187-2.038.11-2.79.43-.85.76-.682 2.564-.43 3.863 1.3.132 2.052.81 3.65.644 3.144.214 5.07-.796 7.296-1.503 1.18.034 1.72.71 2.573 1.073"/>
                            <path id="path12970" d="M343.805 255.376c.904-4.224.535-10.43-1.717-12.877-.61-.322-.993-.868-1.932-.856-3.42-.56-5.786.588-8.37 1.07-1.29 2.852-1.648 9.36-.43 12.662 2.957-1.594 7.96-1.806 11.16-.644.373.272.562.724 1.29.644"/>
                            <path id="path12974" d="M343.805 276.407c1-2.464 1.076-8.34-.215-10.514-3.093-2.06-8.88-1.036-12.233.214-1.214 2.2-1.222 7.62-.215 10.085.752-.32 1.903-.243 2.79-.43 2.072-.216 4.06-.517 6.01-.858 1.717 0 3.302.132 3.648 1.503h.215z"/>
                            <path id="path12978" d="M343.59 265.894c1.096-2.382.804-7.805.215-10.518-.727.08-.916-.372-1.288-.643-3.202-1.162-8.204-.95-11.16.643-1.04 2.614-1.41 8.217 0 10.732 3.353-1.25 9.14-2.275 12.233-.214"/>
                            <path id="path12982" d="M342.087 242.5c1.016-3.8 1.45-10.7 0-14.38-4.436-.817-10.5-.26-13.092 2.577-.275 4.412 1.674 8.296 2.79 12.016 2.584-.48 4.95-1.628 8.37-1.07.94-.01 1.323.535 1.932.856"/>
                        </g>
                    </g>
                    <g id="g13000">
                        <g id="eg-vascular-initials" class="vascular-initials" fill="#eabd92">
                            <path id="path12990" d="M342.946 298.082c-.753-3.754-1.674-7.34-3.22-10.3-.947-.308-2.34.23-2.79 1.074-.306 2.815-.53 6.007-.644 9.87.46.54 1.168.833 1.503 1.502 2.01-.423 3.62-1.242 5.15-2.146"/>
                            <path id="path13002" d="M336.293 298.726c.115-3.863.338-7.055.644-9.87-.978-.633-2.676-1.57-3.863-1.288-1.434 3.43-2.324 7.403-4.078 10.514 1.545 1.124 4.68-.09 5.58 1.288.335-.453.796-.78 1.717-.644"/>
                        </g>
                    </g>
                    <g id="g13008">
                        <g id="eg-inner-upper" class="inner-upper" fill="#22984f">
                            <path id="path12954" d="M347.88 298.296c-.713-.217-.673-1.188-1.717-1.073-.845.375-2.284 1.285-3.217.86-1.53.903-3.142 1.72-5.15 2.145-.74 1.145-.02 2.512-.215 4.293v.86c.14 1.075-.28 2.712.215 3.433 2.742-.98 4.187-3.254 6.865-4.292v-.214c.744-2.335 2.34-3.815 3.22-6.01"/>
                            <path id="path12998" d="M337.366 309.457c.052-.306.352-.363.43-.644-.496-.72-.075-2.357-.215-3.434v-.86c.195-1.78-.523-3.147.215-4.292-.334-.67-1.04-.96-1.502-1.502-.922-.135-1.382.19-1.717.644 0 .214-.175.254-.215.43-.808.55-1.418 1.298-1.93 2.145-.212 1.786-1.102 4.01-1.288 5.58h.43c2.043.53 4.47.682 5.794 1.932"/>
                            <path id="path13010" d="M334.36 299.798c.04-.174.216-.214.216-.43-.902-1.376-4.035-.162-5.58-1.287-1.105.342-1.72.508-2.79 0-.787 0-.822.754-1.288 1.074.918 1.943 2.023 3.7 3.005 5.58-.227.942.726.705.643 1.503.684.175.3 1.416 1.288 1.288-.04.18.083.2.215.214-.04-.467.76-.098 1.072-.215.186-1.57 1.076-3.795 1.287-5.58.512-.848 1.12-1.597 1.93-2.147"/>
                        </g>
                    </g>
                    <g id="g13012">
                        <g id="eg-ground-initials" class="ground-initials" fill="#f89734">
                            <path id="path12958" d="M346.163 297.223c.278-3.308-2.184-7.52-3.002-11.158-1.16-.252-2.77.77-3.433 1.717 1.545 2.96 2.467 6.545 3.22 10.3.932.426 2.372-.484 3.216-.86"/>
                            <path id="path13014" d="M333.073 287.567c-.664-.695-1.643-1.078-2.79-1.287-2.212 3.08-3.257 7.33-4.078 11.8 1.07.508 1.685.34 2.79 0 1.754-3.11 2.644-7.08 4.078-10.513"/>
                        </g>
                    </g>
                    <g id="g13020">
                        <g id="eg-protoderm" class="protoderm" fill="#d8e037">
                            <path id="path12938" d="M352.602 300.228c2.24-3.17 1.13-9.613-1.073-12.016 1.22 2.675 2.792 7.946.428 10.514.378.337.28 1.15.644 1.502"/>
                            <path id="path12942" d="M351.958 304.306c.455-1.17 1.127-2.607.644-4.078-.363-.352-.266-1.165-.644-1.502-.784-.876-3.293-.126-4.078-.43-.88 2.196-2.475 3.675-3.22 6.01v.215c.015.275.278.298.215.644.842.733 1.148 2 1.932 2.79.05.307.355.36.43.644 2.5-.506 3.505-2.503 4.72-4.292"/>
                            <path id="path12946" d="M351.958 298.726c2.364-2.567.793-7.84-.43-10.514-1.104-2.257-3.04-3.683-5.365-4.722h-1.717c-.406.88-1.19 1.382-1.285 2.576.82 3.637 3.28 7.85 3.003 11.158 1.045-.115 1.004.855 1.717 1.072.785.304 3.294-.446 4.078.43"/>
                            <path id="path12950" d="M351.958 304.306c-1.216 1.79-2.22 3.786-4.722 4.292-.074-.283-.378-.337-.43-.643-.783-.79-1.09-2.058-1.93-2.79.062-.347-.2-.37-.215-.644-2.678 1.04-4.123 3.314-6.865 4.293-.077.28-.377.338-.43.644v3.217c.748.398 1.584.71 2.79.644 6.4-.535 10.006-3.87 11.803-9.012"/>
                            <path id="path12994" d="M340.156 313.317c-1.208.065-2.043-.246-2.79-.644v-3.217c-1.325-1.25-3.752-1.402-5.795-1.93h-.428c-.312.116-1.11-.253-1.073.213-.502 1.287-1.584 1.99-1.504 3.863v.214c2.1 2.275 8.153 3.146 11.59 1.5"/>
                            <path id="path13018" d="M325.99 309.242c.533 1.113 1.42 1.87 2.576 2.36-.08-1.87 1.002-2.575 1.503-3.862-.133-.015-.256-.035-.216-.215-.987.13-.604-1.113-1.288-1.288.083-.798-.87-.56-.643-1.502-.982-1.88-2.087-3.638-3.005-5.58-.88-.656-2.107.174-3.22 0-1.193 4.338 1.042 8.782 4.293 10.087"/>
                            <path id="path13022" d="M330.283 286.28c-.733-.556-1.376-1.2-1.932-1.932-6.358.463-8.3 9.097-6.652 14.807 1.113.174 2.34-.656 3.22 0 .466-.32.5-1.074 1.287-1.074.82-4.47 1.866-8.72 4.078-11.8"/>
                        </g>
                    </g>
                </g>
            </g>
        </g>
        <g id="g13024">
            <path d="M31.404 21.307c-1.055-.47-2.855-1.606-4.02-1.073" id="path13026" fill="none" stroke="#373535" stroke-width=".25" stroke-linecap="round" stroke-linejoin="round"/>
        </g>
        <g id="g13028">
            <path d="M20.944 17.55c2.51.53 4.525 1.553 6.44 2.683" id="path13030" fill="none" stroke="#373535" stroke-width=".25" stroke-linecap="round" stroke-linejoin="round"/>
        </g>
        <g id="g13032">
            <path d="M27.383 20.234c-.94 4.692-2.092 9.175-4.025 12.874" id="path13034" fill="none" stroke="#373535" stroke-width=".25" stroke-linecap="round" stroke-linejoin="round"/>
        </g>
        <g id="g13036">
            <path d="M20.676 12.186c.242 2.225-.655 3.935.268 5.365" id="path13038" fill="none" stroke="#373535" stroke-width=".25" stroke-linecap="round" stroke-linejoin="round"/>
        </g>
        <g id="g13040">
            <path d="M20.944 17.55c-.418.838-1.302 1.203-1.877 1.878" id="path13042" fill="none" stroke="#373535" stroke-width=".25" stroke-linecap="round" stroke-linejoin="round"/>
        </g>
        <g id="g13044">
            <path d="M29.526 12.454v-.27" id="path13046" fill="none" stroke="#373535" stroke-width=".25" stroke-linecap="round" stroke-linejoin="round"/>
        </g>
        <g id="g13060">
            <path d="M12.627 47.596c-1.063-.95-.85-3.205-.536-4.83" id="path13062" fill="none" stroke="#373535" stroke-width=".25" stroke-linecap="round" stroke-linejoin="round"/>
        </g>
        <g id="g13064">
            <path d="M23.627 49.206c-2.436-.426-4.923-.802-7.512-1.073" id="path13066" fill="none" stroke="#373535" stroke-width=".25" stroke-linecap="round" stroke-linejoin="round"/>
        </g>
        <g id="g13068">
            <path d="M28.99 42.498c.73 1.527.007 3.7-.533 4.83" id="path13070" fill="none" stroke="#373535" stroke-width=".25" stroke-linecap="round" stroke-linejoin="round"/>
        </g>
        <g id="g13072">
            <path d="M19.87 31.767c.562 1.056 2.305 1.727 3.488 1.34" id="path13074" fill="none" stroke="#373535" stroke-width=".25" stroke-linecap="round" stroke-linejoin="round"/>
        </g>
        <g id="g13076">
            <path d="M11.554 34.986c1.434-.26 2.657-.74 3.487-1.61" id="path13078" fill="none" stroke="#373535" stroke-width=".25" stroke-linecap="round" stroke-linejoin="round"/>
        </g>
        <g id="g13080">
            <path d="M12.09 42.767C10.876 41.36 8.92 39.36 9.14 37.4" id="path13082" fill="none" stroke="#373535" stroke-width=".25" stroke-linecap="round" stroke-linejoin="round"/>
        </g>
        <g id="g13084">
            <path d="M16.65 41.962c-1.995-.208-2.935.64-4.56.805" id="path13086" fill="none" stroke="#373535" stroke-width=".25" stroke-linecap="round" stroke-linejoin="round"/>
        </g>
        <g id="g13088">
            <path d="M28.99 42.498c-1.067.454-1.743 1.3-3.217 1.34" id="path13090" fill="none" stroke="#373535" stroke-width=".25" stroke-linecap="round" stroke-linejoin="round"/>
        </g>
        <g id="g13092">
            <path d="M31.404 38.475C30.818 40.03 30 41.365 28.99 42.5" id="path13094" fill="none" stroke="#373535" stroke-width=".25" stroke-linecap="round" stroke-linejoin="round"/>
        </g>
        <g id="g13096">
            <path d="M23.36 33.108c.83 1.184 2.84 2.46 4.292 2.146" id="path13098" fill="none" stroke="#373535" stroke-width=".25" stroke-linecap="round" stroke-linejoin="round"/>
        </g>
        <g id="g13100">
            <path d="M.823 18.893C-.667 13.47 2.125 7.916 6.188 6.283" id="path13102" fill="none" stroke="#373535" stroke-width=".25" stroke-linecap="round" stroke-linejoin="round"/>
        </g>
        <g id="g13104">
            <path d="M6.19 6.283c.664-1.39 1.773-2.336 3.218-2.95" id="path13106" fill="none" stroke="#373535" stroke-width=".25" stroke-linecap="round" stroke-linejoin="round"/>
        </g>
        <g id="g13108">
            <path d="M9.944 104.465c-.343-5.515 2.092-10.37 3.49-15.02" id="path13110" fill="none" stroke="#373535" stroke-width=".25" stroke-linecap="round" stroke-linejoin="round"/>
        </g>
        <g id="g13112">
            <path d="M26.31 107.685c-5.545 1.022-13.125.325-16.365-3.22" id="path13114" fill="none" stroke="#373535" stroke-width=".25" stroke-linecap="round" stroke-linejoin="round"/>
        </g>
        <g id="g13116">
            <path d="M26.31 89.712c1.27 4.748 1.814 13.375 0 17.973" id="path13118" fill="none" stroke="#373535" stroke-width=".25" stroke-linecap="round" stroke-linejoin="round"/>
        </g>
        <g id="g13120">
            <path d="M13.432 89.445c-1.614-3.567-2.06-11.7-.536-15.83" id="path13122" fill="none" stroke="#373535" stroke-width=".25" stroke-linecap="round" stroke-linejoin="round"/>
        </g>
        <g id="g13124">
            <path d="M23.895 90.782c-4.274.7-7.232-.736-10.462-1.336" id="path13126" fill="none" stroke="#373535" stroke-width=".25" stroke-linecap="round" stroke-linejoin="round"/>
        </g>
        <g id="g13128">
            <path d="M26.31 89.712c-.76.4-1.24 1.084-2.415 1.07" id="path13130" fill="none" stroke="#373535" stroke-width=".25" stroke-linecap="round" stroke-linejoin="round"/>
        </g>
        <g id="g13132">
            <path d="M28.456 73.616c1.13 5.28.67 13.04-2.146 16.096" id="path13134" fill="none" stroke="#373535" stroke-width=".25" stroke-linecap="round" stroke-linejoin="round"/>
        </g>
        <g id="g13136">
            <path d="M28.456 47.327c1.25 3.08 1.345 10.424-.27 13.142" id="path13138" fill="none" stroke="#373535" stroke-width=".25" stroke-linecap="round" stroke-linejoin="round"/>
        </g>
        <g id="g13140">
            <path d="M23.627 49.206c2.146 0 4.128-.165 4.56-1.88h.27" id="path13142" fill="none" stroke="#373535" stroke-width=".25" stroke-linecap="round" stroke-linejoin="round"/>
        </g>
        <g id="g13144">
            <path d="M12.627 47.596c.94.4 2.38.304 3.487.537" id="path13146" fill="none" stroke="#373535" stroke-width=".25" stroke-linecap="round" stroke-linejoin="round"/>
        </g>
        <g id="g13148">
            <path d="M12.896 60.202c-1.516-2.75-1.527-9.526-.27-12.606" id="path13150" fill="none" stroke="#373535" stroke-width=".25" stroke-linecap="round" stroke-linejoin="round"/>
        </g>
        <g id="g13152">
            <path d="M16.65 41.962c3.932-.27 6.34.994 9.122 1.877" id="path13154" fill="none" stroke="#373535" stroke-width=".25" stroke-linecap="round" stroke-linejoin="round"/>
        </g>
        <g id="g13156">
            <path d="M31.404 21.307c1.305.144 1.255-1.07 2.146-1.34" id="path13158" fill="none" stroke="#373535" stroke-width=".25" stroke-linecap="round" stroke-linejoin="round"/>
        </g>
        <g id="g13160">
            <path d="M27.65 35.254c1.024-4.546 4.1-9.813 3.754-13.947" id="path13162" fill="none" stroke="#373535" stroke-width=".25" stroke-linecap="round" stroke-linejoin="round"/>
        </g>
        <g id="g13164">
            <path d="M31.404 38.475h-2.146c-.508-1.1-1.488-1.73-1.606-3.22" id="path13166" fill="none" stroke="#373535" stroke-width=".25" stroke-linecap="round" stroke-linejoin="round"/>
        </g>
        <g id="g13168">
            <path d="M38.11 32.57c-1.38 2.823-3.802 4.606-6.707 5.905" id="path13170" fill="none" stroke="#373535" stroke-width=".25" stroke-linecap="round" stroke-linejoin="round"/>
        </g>
        <g id="g13172">
            <path d="M15.042 33.377c-1.792-4.29-2.905-9.254-5.098-13.142" id="path13174" fill="none" stroke="#373535" stroke-width=".25" stroke-linecap="round" stroke-linejoin="round"/>
        </g>
        <g id="g13176">
            <path d="M19.87 31.767c-1.223.79-3.344 1.964-4.828 1.61" id="path13178" fill="none" stroke="#373535" stroke-width=".25" stroke-linecap="round" stroke-linejoin="round"/>
        </g>
        <g id="g13180">
            <path d="M19.066 19.43c.144 4.828.423 8.818.805 12.336" id="path13182" fill="none" stroke="#373535" stroke-width=".25" stroke-linecap="round" stroke-linejoin="round"/>
        </g>
        <g id="g13184">
            <path d="M16.92 18.625c.42.565.994.973 2.146.805" id="path13186" fill="none" stroke="#373535" stroke-width=".25" stroke-linecap="round" stroke-linejoin="round"/>
        </g>
        <g id="g13188">
            <path d="M39.452 17.55c2.8 3.965 1.412 12.017-1.34 15.02" id="path13190" fill="none" stroke="#373535" stroke-width=".25" stroke-linecap="round" stroke-linejoin="round"/>
        </g>
        <g id="g13192">
            <path d="M38.11 32.57c1.528-3.343 3.492-9.932.537-13.142" id="path13194" fill="none" stroke="#373535" stroke-width=".25" stroke-linecap="round" stroke-linejoin="round"/>
        </g>
        <g id="g13196">
            <path d="M16.92 18.625c-1.126 1.72-5.044.204-6.976 1.61" id="path13198" fill="none" stroke="#373535" stroke-width=".25" stroke-linecap="round" stroke-linejoin="round"/>
        </g>
        <g id="g13200">
            <path d="M16.65 18.088c.05.217.27.268.27.536" id="path13202" fill="none" stroke="#373535" stroke-width=".25" stroke-linecap="round" stroke-linejoin="round"/>
        </g>
        <g id="g13204">
            <path d="M11.018 8.43c-.05-.226.104-.25.268-.27" id="path13206" fill="none" stroke="#373535" stroke-width=".25" stroke-linecap="round" stroke-linejoin="round"/>
        </g>
        <g id="g13208">
            <path d="M4.847 18.893c1.147-2.43 2.53-4.625 3.756-6.975" id="path13210" fill="none" stroke="#373535" stroke-width=".25" stroke-linecap="round" stroke-linejoin="round"/>
        </g>
        <g id="g13212">
            <path d="M9.944 20.234c-1.38-.425-2.15-.633-3.487 0" id="path13214" fill="none" stroke="#373535" stroke-width=".25" stroke-linecap="round" stroke-linejoin="round"/>
        </g>
        <path d="M16.65 18.088c-1.01-.687-1.772-1.623-2.414-2.682" id="path13218" fill="none" stroke="#373535" stroke-width=".25" stroke-linecap="round" stroke-linejoin="round"/>
        <g id="g13220">
            <path d="M20.676 11.113v1.073" id="path13222" fill="none" stroke="#373535" stroke-width=".25" stroke-linecap="round" stroke-linejoin="round"/>
        </g>
        <g id="g13224">
            <path d="M8.603 11.918c-.283-1.176.91-.88.805-1.877" id="path13226" fill="none" stroke="#373535" stroke-width=".25" stroke-linecap="round" stroke-linejoin="round"/>
        </g>
        <g id="g13228">
            <path d="M9.408 10.04c.855-.22.376-1.77 1.61-1.61" id="path13230" fill="none" stroke="#373535" stroke-width=".25" stroke-linecap="round" stroke-linejoin="round"/>
        </g>
        <g id="g13232">
            <path d="M14.237 15.405c-.264-2.232-1.378-5.01-1.61-6.975" id="path13234" fill="none" stroke="#373535" stroke-width=".25" stroke-linecap="round" stroke-linejoin="round"/>
        </g>
        <g id="g13236">
            <path d="M20.944 6.82c-.62.9-.092 2.948-.268 4.293" id="path13238" fill="none" stroke="#373535" stroke-width=".25" stroke-linecap="round" stroke-linejoin="round"/>
        </g>
        <g id="g13240">
            <path d="M33.55 19.966c-1.1-2.744-3.095-4.594-4.025-7.512" id="path13242" fill="none" stroke="#373535" stroke-width=".25" stroke-linecap="round" stroke-linejoin="round"/>
        </g>
        <g id="g13244">
            <path d="M38.647 19.43c-.98 1.094-4.116.156-5.098.536" id="path13246" fill="none" stroke="#373535" stroke-width=".25" stroke-linecap="round" stroke-linejoin="round"/>
        </g>
        <g id="g13248">
            <path d="M39.452 17.55c-.454.44-.333 1.457-.805 1.878" id="path13250" fill="none" stroke="#373535" stroke-width=".25" stroke-linecap="round" stroke-linejoin="round"/>
        </g>
        <g id="g13252">
            <path d="M38.647 12.454c.57 1.462 1.41 3.26.805 5.098" id="path13254" fill="none" stroke="#373535" stroke-width=".25" stroke-linecap="round" stroke-linejoin="round"/>
        </g>
        <g id="g13256">
            <path d="M32.21 7.893c-.98.988-1.363 2.572-2.416 3.49" id="path13258" fill="none" stroke="#373535" stroke-width=".25" stroke-linecap="round" stroke-linejoin="round"/>
        </g>
        <g id="g13260">
            <path d="M32.745 7.09c-.092.353-.473.42-.536.804" id="path13262" fill="none" stroke="#373535" stroke-width=".25" stroke-linecap="round" stroke-linejoin="round"/>
        </g>
        <g id="g13264">
            <path d="M20.944 6.82c-.096-.35-.47-.42-.536-.805" id="path13266" fill="none" stroke="#373535" stroke-width=".25" stroke-linecap="round" stroke-linejoin="round"/>
        </g>
        <g id="g13268">
            <path d="M29.526 12.186c-3.348-1.3-5.155-4.14-8.58-5.365" id="path13270" fill="none" stroke="#373535" stroke-width=".25" stroke-linecap="round" stroke-linejoin="round"/>
        </g>
        <g id="g13272">
            <path d="M29.794 11.38c.08.433-.25.462-.27.806" id="path13274" fill="none" stroke="#373535" stroke-width=".25" stroke-linecap="round" stroke-linejoin="round"/>
        </g>
        <g id="g13276">
            <path d="M38.647 12.454c-1.52-2.236-2.776-4.732-5.903-5.365" id="path13278" fill="none" stroke="#373535" stroke-width=".25" stroke-linecap="round" stroke-linejoin="round"/>
        </g>
        <g id="g13280">
            <path d="M23.895 1.19c8 .668 12.506 4.835 14.752 11.264" id="path13282" fill="none" stroke="#373535" stroke-width=".25" stroke-linecap="round" stroke-linejoin="round"/>
        </g>
        <g id="g13284">
            <path d="M20.407 6.016c-1.656 1.563-4.69 1.752-7.244 2.415" id="path13286" fill="none" stroke="#373535" stroke-width=".25" stroke-linecap="round" stroke-linejoin="round"/>
        </g>
        <g id="g13288">
            <path d="M23.895 1.19c-1.51-.082-2.554.307-3.487.804v4.02" id="path13290" fill="none" stroke="#373535" stroke-width=".25" stroke-linecap="round" stroke-linejoin="round"/>
        </g>
        <g id="g13292">
            <path d="M9.408 3.332v-.27C12.034.22 19.598-.867 23.896 1.19" id="path13294" fill="none" stroke="#373535" stroke-width=".25" stroke-linecap="round" stroke-linejoin="round"/>
        </g>
        <g id="g13296">
            <path d="M11.286 8.162c-.625-1.61-1.98-2.49-1.877-4.83" id="path13298" fill="none" stroke="#373535" stroke-width=".25" stroke-linecap="round" stroke-linejoin="round"/>
        </g>
        <g id="g13300">
            <path d="M12.627 8.43c-.39-.147-1.388.314-1.34-.27" id="path13302" fill="none" stroke="#373535" stroke-width=".25" stroke-linecap="round" stroke-linejoin="round"/>
        </g>
        <g id="g13304">
            <path d="M13.164 8.43h-.536" id="path13306" fill="none" stroke="#373535" stroke-width=".25" stroke-linecap="round" stroke-linejoin="round"/>
        </g>
        <g id="g13320">
            <path d="M12.896 73.616c-1.3-3.266-1.76-10.27 0-13.414" id="path13322" fill="none" stroke="#373535" stroke-width=".25" stroke-linecap="round" stroke-linejoin="round"/>
        </g>
        <g id="g13324">
            <path d="M26.847 74.42c-4.004 1.454-10.256 1.19-13.95-.804" id="path13326" fill="none" stroke="#373535" stroke-width=".25" stroke-linecap="round" stroke-linejoin="round"/>
        </g>
        <g id="g13328">
            <path d="M28.456 73.616c-.91-.1-1.145.465-1.61.805" id="path13330" fill="none" stroke="#373535" stroke-width=".25" stroke-linecap="round" stroke-linejoin="round"/>
        </g>
        <g id="g13332">
            <path d="M28.188 60.47c1.37 2.977 1.005 9.755.27 13.147" id="path13334" fill="none" stroke="#373535" stroke-width=".25" stroke-linecap="round" stroke-linejoin="round"/>
        </g>
        <g id="g13336">
            <path d="M12.896 60.202c4.192 1.563 11.425 2.843 15.29.268" id="path13338" fill="none" stroke="#373535" stroke-width=".25" stroke-linecap="round" stroke-linejoin="round"/>
        </g>
        <g id="g13340">
            <path d="M9.14 37.4C1.19 36.82-1.237 26.03.824 18.892" id="path13342" fill="none" stroke="#373535" stroke-width=".25" stroke-linecap="round" stroke-linejoin="round"/>
        </g>
        <g id="g13344">
            <path d="M11.554 34.986c-.916.695-1.72 1.5-2.415 2.415" id="path13346" fill="none" stroke="#373535" stroke-width=".25" stroke-linecap="round" stroke-linejoin="round"/>
        </g>
        <g id="g13348">
            <path d="M6.457 20.234c1.026 5.587 2.333 10.902 5.098 14.75" id="path13350" fill="none" stroke="#373535" stroke-width=".25" stroke-linecap="round" stroke-linejoin="round"/>
        </g>
        <g id="g13352">
            <path d="M4.847 18.893c.583.4.626 1.34 1.61 1.34" id="path13354" fill="none" stroke="#373535" stroke-width=".25" stroke-linecap="round" stroke-linejoin="round"/>
        </g>
        <g id="g13356">
            <path d="M.823 18.893c1.39-.217 2.926.82 4.024 0" id="path13358" fill="none" stroke="#373535" stroke-width=".25" stroke-linecap="round" stroke-linejoin="round"/>
        </g>
    </g>
</svg>
