<?xml version="1.0" encoding="UTF-8" standalone="no"?>
<!-- Created with Inkscape (http://www.inkscape.org/) -->

<svg
   xmlns:dc="http://purl.org/dc/elements/1.1/"
   xmlns:cc="http://creativecommons.org/ns#"
   xmlns:rdf="http://www.w3.org/1999/02/22-rdf-syntax-ns#"
   xmlns:svg="http://www.w3.org/2000/svg"
   xmlns="http://www.w3.org/2000/svg"
   xmlns:sodipodi="http://sodipodi.sourceforge.net/DTD/sodipodi-0.dtd"
   xmlns:inkscape="http://www.inkscape.org/namespaces/inkscape"
   version="1.1"
   inkscape:version="0.48.5 r"
   width="229.5504"
   height="292.19073"
   xml:space="preserve"
   sodipodi:docname="hs_Q0990.svg"
   viewBox="0 0 229 292"
   class="embryo"
   id="svg2"><metadata
     id="metadata8"><rdf:RDF><cc:Work
         rdf:about=""><dc:format>image/svg+xml</dc:format><dc:type
           rdf:resource="http://purl.org/dc/dcmitype/StillImage" /><dc:title /></cc:Work></rdf:RDF></metadata><defs
     id="defs6" /><sodipodi:namedview
     pagecolor="#ffffff"
     bordercolor="#666666"
     borderopacity="1"
     objecttolerance="10"
     gridtolerance="10"
     guidetolerance="10"
     inkscape:pageopacity="0"
     inkscape:pageshadow="2"
     inkscape:window-width="1680"
     inkscape:window-height="998"
     id="namedview4"
     showgrid="false"
     fit-margin-top="0"
     fit-margin-left="0"
     fit-margin-right="0"
     fit-margin-bottom="0"
     inkscape:zoom="3.588117"
     inkscape:cx="149.3244"
     inkscape:cy="99.2726"
     inkscape:window-x="0"
     inkscape:window-y="0"
     inkscape:window-maximized="1"
     inkscape:current-layer="g10" /><g
     id="g10"
     inkscape:groupmode="layer"
     inkscape:label="Heart_WT_Q0990"
     transform="matrix(1.25,0,0,-1.25,-252.53309,295.90355)"><g
       id="g12"
       transform="matrix(1.6072551,0,0,1.6072551,-47.095349,-727.58084)"><g
         id="g14"
         clip-path="none"><g
           id="g20"><g
             id="g22" /><g
             id="g70"><g
               clip-path="none"
               id="g72"><g
                 transform="translate(213.0044,504.894)"
                 id="g74" /><g
                 transform="translate(228.4512,485.4189)"
                 id="g78" /><g
                 transform="translate(227.0879,496.5322)"
                 id="g82" /><g
                 id="g86"><g
                   clip-path="none"
                   id="g88"><g
                     id="g90"><g
                       id="g92"
                       class="inner-upper"
                       style="fill:#22984f"><path
                         d="m 217.655,505 c -0.349,10e-4 -0.851,0.098 -1.176,-10e-4 -0.396,-0.117 -0.545,-0.436 -0.895,-0.659 l -0.041,0.007 c 0.061,0.572 0.122,0.998 0.122,0.998 -0.88,0.015 -1.768,-0.401 -2.661,-0.451 -0.992,-0.049 -1.985,-0.045 -2.894,0.242 l -7.101,3.224 -1.996,-5.736 c -0.467,0.032 -5.142,-1.959 -6.022,-1.861 -0.101,-0.035 -0.178,-0.088 -0.237,-0.159 l -0.248,0.06 c -0.291,-0.477 -0.928,-0.085 -1.383,-0.202 -0.456,-0.116 -0.651,-0.269 -1.03,-0.521 -0.759,-0.482 -2.195,-0.5 -2.051,-1.463 0,0 0.018,-0.03 0.047,-0.083 -0.625,0.209 -1.768,10.258 -3.539,13.727 -0.88,1.717 -2.323,4.399 -3.463,5.922 -1.164,1.535 -2.868,2.363 -3.311,4.161 -0.599,2.419 -2.039,1.36 -3.621,7.854 -1.082,4.46 -5.695,9.334 -8.159,13.852 -1.103,2.025 -0.92,3.667 -1.923,5.467 -0.956,1.705 -0.782,0.866 -2.194,2.697 -2.239,2.909 -3.318,8.143 -8.009,8.35 -1.835,12.917 -1.03,27.089 10.298,34.992 9.864,6.887 15.683,5.092 24.519,-0.52 3.736,-2.372 7.467,-6.351 9.562,-10.23 1.807,-3.345 3.608,-6.613 5.213,-10.052 1.389,-2.971 1.906,-6.82 3.608,-12.936 0.827,-2.97 1.898,-5.638 2.205,-8.742 0.188,-1.891 -0.808,-7.358 1.292,-8.341 3.745,-1.752 3.733,5.876 3.906,7.725 0.29,3.142 1.618,5.89 2.669,8.858 1.494,4.225 3.396,8.785 5.444,12.83 1.858,3.686 3.649,7.006 5.5,10.544 2.548,4.858 4.858,6.391 10.087,9.266 3.86,2.124 7.077,2.798 11.526,2.686 5.914,-0.141 11.013,-7.635 13.176,-12.087 1.906,-3.924 3.212,-8.402 3.791,-13.161 0.297,-2.465 0.506,-4.835 0.503,-7.157 l -0.005,0 c -1.513,0 -4.389,0.342 -5.757,-0.456 -0.521,-0.306 -0.315,-0.537 -2.287,-3.242 -1.033,-2.708 -1.436,-7.675 -4.212,-11.871 -1.254,-1.904 -1.095,-3.553 -1.77,-5.618 -0.622,-1.924 -1.924,-5.364 -2.77,-7.157 -1.299,-2.76 -1.794,-4.099 -2.77,-5.85 -0.916,-1.634 -1.48,-2.423 -2.232,-4.163 -0.852,-1.959 -2.222,-3.436 -3.311,-5.311 -0.928,-1.592 -1.538,-6.695 -3.851,-8.771 -3.154,-5.761 -4.7,-11.273 -7.098,-12.659 0,0 -1.19,0.809 -1.898,0.959 -0.644,0.144 -1.135,0.117 -1.641,0.532 -0.477,0.392 -1.956,1.579 -2.056,1.657 -0.33,0.243 -0.668,-0.009 -0.772,0.375 0.708,1.309 1.307,3.587 1.173,5.36 0,0 -0.252,0.557 -0.713,0.724 -0.236,0.083 -0.785,0.027 -1.034,-0.02 -0.674,-0.127 -1.627,-0.567 -1.627,-0.567 0,0 -1.197,-4.036 -1.269,-4.278 -0.055,-0.402 -0.193,-0.974 -0.355,-1.618 -0.666,0.298 -2.743,-0.368 -3.251,-0.366 0.211,1.046 0.593,2.22 0.479,3.154 0,0 -1.678,0.083 -2.487,0.086"
                         id="path94"
                         inkscape:connector-curvature="0" /></g></g></g></g><g
                 transform="translate(235.4512,494.2251)"
                 id="g106" /><g
                 transform="translate(226.418,491.4653)"
                 id="g110" /><g
                 transform="translate(231.5996,489.832)"
                 id="g114" /><g
                 transform="translate(227.9116,507.8853)"
                 id="g118" /><g
                 transform="translate(221.8916,497.4565)"
                 id="g122" /><g
                 transform="translate(222.4102,477.1821)"
                 id="g126" /><g
                 transform="translate(222.0972,477.1597)"
                 id="g130"><g
                   id="g3211"
                   class="hypophysis"><path
                     inkscape:connector-curvature="0"
                     id="path128"
                     style="fill:#00a69c;fill-opacity:1;fill-rule:nonzero;stroke:none"
                     d="m 0,0 0.029,-0.047 c -0.076,-0.047 -0.159,-0.1 -0.237,-0.147 l -0.105,0.172 c -0.631,0.232 -4.39,1.635 -5.01,1.821 -0.519,0.138 -2.218,0.853 -2.849,1.145 -1.374,0.62 -2.737,1.222 -4.099,1.842 -1.357,0.614 -2.572,1.239 -3.898,1.882 -0.661,0.322 -1.044,0.518 -1.575,0.833 -0.53,0.315 -1.209,0.685 -1.858,0.977 0.013,0.053 0.025,0.106 0.037,0.147 l 0,0.018 c 0.543,-0.067 1.057,-0.104 1.464,-0.106 1.088,-0.004 2.14,0.056 3.215,0.07 0.29,0.011 0.579,0.016 0.875,0.015 0.62,-0.003 1.24,10e-4 1.855,0.01 2.051,0.015 4.089,0.067 6.157,0.059 0.461,-0.002 1.04,0.043 1.649,0.123 L -4.344,8.773 C -4.283,7.963 -2.375,2.952 -1.917,2.347 -1.441,1.731 -0.625,0.422 0,0"
                     transform="translate(0.31300059,0.02240105)" /><path
                     inkscape:connector-curvature="0"
                     id="path132"
                     style="fill:#00a69c;fill-opacity:1;fill-rule:nonzero;stroke:none"
                     d="m 0,0 0.105,-0.172 c -0.87,-0.54 -1.741,-1.104 -2.612,-1.739 -0.462,-0.346 -1.202,-0.621 -1.883,-0.932 -0.006,0 -0.017,-0.006 -0.023,-0.006 -0.817,-0.357 -2.848,0.07 -3.734,0.074 -1.66,0.006 -3.221,-0.136 -4.834,-0.129 -1.654,0.006 -4.694,-0.815 -6.471,-0.436 -0.313,0.167 -0.72,0.304 -1.269,0.519 -0.466,0.179 -0.926,0.387 -1.38,0.614 l 0,0.006 c 0.145,0.85 1.321,2.447 1.59,3.208 0.257,0.714 0.343,1.558 0.53,2.409 0.162,0.767 0.277,1.499 0.392,2.226 0.085,0.543 0.15,2.167 0.3,2.858 0.649,-0.292 1.328,-0.661 1.858,-0.976 0.531,-0.316 0.914,-0.512 1.575,-0.834 1.326,-0.643 2.541,-1.268 3.898,-1.881 1.362,-0.621 2.725,-1.223 4.099,-1.842 C -7.228,2.675 -5.529,1.959 -5.01,1.821 -4.39,1.636 -0.631,0.233 0,0" /></g></g><g
                 transform="translate(222.4497,487.4448)"
                 id="g134" /><g
                 transform="translate(217.8345,496.3906)"
                 id="g138" /><g
                 transform="translate(215.0952,500.0703)"
                 id="g142" /><g
                 transform="translate(213.9502,474.3843)"
                 id="g146" /><g
                 transform="translate(215.3862,466.8574)"
                 id="g150"><g
                   id="g3216"
                   class="suspensor"><path
                     inkscape:connector-curvature="0"
                     id="path148"
                     style="fill:#c3996b;fill-opacity:1;fill-rule:nonzero;stroke:none"
                     d="M 0,0 C 0.886,-0.003 2.917,-0.431 3.734,-0.073 3.053,-0.39 2.438,-0.736 2.193,-1.22 1.271,-3.036 1.627,-5.407 1.436,-7.527 0.833,-7.542 0.406,-7.954 -0.25,-7.976 c -0.691,-0.026 -0.555,0.003 -1.885,-0.288 -1.324,-0.071 -2.701,-0.013 -4.049,-0.143 0.007,0.071 -0.023,0.017 -0.035,-0.006 l -0.006,0 c 0,-0.006 0,-0.006 0.006,0 0.012,0 0.024,0.006 0.035,0.006 0,-0.018 0,-0.036 -0.005,-0.066 -0.833,0.021 -3.351,0.037 -3.761,0.765 0.006,0.195 0.007,0.378 0.008,0.556 -10e-4,1.258 0.272,3.266 -0.054,4.437 -0.391,1.379 -0.667,1.817 -1.309,2.15 1.777,-0.379 4.817,0.442 6.471,0.436 C -3.221,-0.135 -1.66,0.007 0,0"
                     transform="translate(-1.4360019,7.5268983)" /><path
                     inkscape:connector-curvature="0"
                     id="path152"
                     style="fill:#c3996b;fill-opacity:1;fill-rule:nonzero;stroke:none"
                     d="m 0,0 c -0.056,-0.656 -0.17,-1.282 -0.385,-1.866 -1.171,-3.156 1.689,-7.752 -2.269,-9.202 -1.775,-0.649 -7.744,-2.588 -8.617,0.807 l -0.292,1.035 c -0.466,3.151 0.09,6.617 0.177,9.045 0.41,-0.728 2.928,-0.744 3.761,-0.765 0.005,0.03 0.005,0.048 0.005,0.066 1.348,0.13 2.725,0.071 4.049,0.143 1.33,0.291 1.194,0.261 1.885,0.288 C -1.03,-0.427 -0.603,-0.016 0,0" /></g></g><g
                 transform="translate(212.8276,494.2651)"
                 id="g154" /><g
                 transform="translate(211.6138,490.5298)"
                 id="g158"><path
                   d="M 0,0 C -0.018,-0.059 -0.03,-0.118 -0.048,-0.177 -0.054,-0.118 -0.042,-0.059 0,0"
                   style="fill:#1b75bb;fill-opacity:1;fill-rule:nonzero;stroke:none"
                   id="path160"
                   inkscape:connector-curvature="0" /></g><g
                 transform="translate(203.0088,508.3599)"
                 id="g162" /><g
                 transform="translate(207.7314,465.9712)"
                 id="g166"><path
                   d="M 0,0 C 0.012,0.023 0.042,0.077 0.035,0.006 0.023,0.006 0.012,0 0,0"
                   style="fill:#1b75bb;fill-opacity:1;fill-rule:nonzero;stroke:none"
                   id="path168"
                   inkscape:connector-curvature="0" /></g><g
                 transform="translate(207.7314,465.9712)"
                 id="g170"><path
                   d="M 0,0 C -0.006,-0.006 -0.006,-0.006 -0.006,0 L 0,0 z"
                   style="fill:#1b75bb;fill-opacity:1;fill-rule:nonzero;stroke:none"
                   id="path172"
                   inkscape:connector-curvature="0" /></g><g
                 transform="translate(207.5249,485.8896)"
                 id="g174" /><g
                 transform="translate(205.1904,488.8413)"
                 id="g178" /><g
                 transform="translate(202.8086,485.6597)"
                 id="g182" /><g
                 transform="translate(197.855,494.2285)"
                 id="g186"><g
                   id="g3222"
                   class="unspecified"><path
                     inkscape:connector-curvature="0"
                     id="path124"
                     style="fill:#d16336;fill-opacity:1;fill-rule:nonzero;stroke:none"
                     d="M 0,0 C -0.274,-0.696 -0.649,-1.386 -0.864,-1.994 -1.199,-2.932 -1.971,-3.88 -2.7,-4.669 c -0.677,0.764 -0.413,3.363 -1.357,3.603 0.161,0.449 0.18,0.738 0.506,1.145 0.665,0.83 1.126,2.229 1.195,3.345 0.019,0.278 0.067,0.573 0.127,0.88 C -1.72,4.302 0.356,4.967 1.022,4.669 0.758,3.601 0.435,2.35 0.372,1.393 0.34,0.938 0.191,0.466 0,0"
                     transform="translate(24.036602,3.2279997)" /><path
                     transform="translate(5.1538,14.1314)"
                     d="m 0,0 7.102,-3.224 c 0,0 -0.513,-2.515 -0.35,-3.125 0,0 0.304,-4.137 0.229,-5.105 -0.025,-0.384 0.104,-0.65 0.328,-0.859 -1.454,0.006 -2.416,0.158 -3.81,0.228 -1.714,0.107 -2.961,-0.071 -4.64,-0.159 -1.796,6.051 -0.98,6.172 -0.855,6.508 L 0,0 z"
                     style="fill:#d16336;fill-opacity:1;fill-rule:nonzero;stroke:none"
                     id="path164"
                     inkscape:connector-curvature="0" /><path
                     transform="translate(30.0566,13.656798)"
                     d="M 0,0 C 0.135,-1.773 -0.465,-4.051 -1.173,-5.36 -1.215,-5.431 -1.25,-5.502 -1.292,-5.567 -2.297,-7.223 -2.09,-8.772 -2.098,-10.722 l -0.006,-0.035 c -0.059,0.012 -0.124,0.024 -0.183,0.036 -0.537,0.096 -1.057,0.222 -1.612,0.225 -0.632,0.008 -1.543,-0.177 -2.121,0.067 0.191,0.466 0.34,0.938 0.372,1.393 0.063,0.957 0.386,2.208 0.65,3.277 0.163,0.643 0.301,1.216 0.355,1.617 0.072,0.243 1.269,4.279 1.269,4.279 0,0 0.954,0.44 1.627,0.567 0.249,0.046 0.799,0.103 1.035,0.02 C -0.252,0.557 0,0 0,0"
                     style="fill:#d16336;fill-opacity:1;fill-rule:nonzero;stroke:none"
                     id="path120"
                     inkscape:connector-curvature="0" /><path
                     transform="translate(29.232901,2.3037024)"
                     d="m 0,0 c 0.229,-0.261 -1.862,-6.244 -0.67,-5.067 l 0.03,-0.03 c -0.119,-0.129 -0.237,-0.258 -0.356,-0.388 -0.611,-0.648 -1.229,-1.301 -1.489,-1.596 -0.303,-0.347 -1.276,-1.324 -2.153,-2.006 -0.806,1.002 -2.196,2.023 -3.437,2.105 -0.572,0.037 -1.696,0.006 -2.101,0.534 -0.276,0.355 -0.562,1.355 -0.673,1.799 l -0.011,0.065 c 1.437,0.295 2.714,0.568 2.964,0.839 0.729,0.789 1.501,1.737 1.835,2.675 0.215,0.608 0.59,1.298 0.865,1.994 C -4.618,0.68 -3.708,0.865 -3.075,0.857 -2.52,0.854 -2,0.729 -1.463,0.632 -1.404,0.62 -1.339,0.608 -1.28,0.596 -0.784,0.5 -0.341,0.397 0,0"
                     style="fill:#d16336;fill-opacity:1;fill-rule:nonzero;stroke:none"
                     id="path84"
                     inkscape:connector-curvature="0" /><path
                     transform="translate(28.562998,-2.7632023)"
                     d="M 0,0 C -1.192,-1.177 0.899,4.806 0.67,5.067 0.329,5.464 -0.114,5.566 -0.61,5.663 l 0.006,0.035 c 0.007,1.95 -0.199,3.499 0.806,5.155 0.041,0.065 0.077,0.136 0.119,0.207 C 0.425,10.675 0.763,10.928 1.093,10.685 1.193,10.607 2.672,9.42 3.149,9.028 3.655,8.612 4.146,8.64 4.79,8.496 5.498,8.345 6.688,7.537 6.688,7.537 6.602,6.687 6.439,5.766 5.798,5.083 5.739,5.018 5.674,4.953 5.603,4.894 5.259,4.588 3.726,3.915 3.359,3.704 2.471,3.187 2.209,2.863 1.835,2.292 1.656,2.014 1.454,1.684 1.146,1.242 0.985,1.019 0.54,0.518 0.03,-0.03 L 0,0 z"
                     style="fill:#d16336;fill-opacity:1;fill-rule:nonzero;stroke:none"
                     id="path112"
                     inkscape:connector-curvature="0" /><path
                     transform="translate(15.149402,10.6655)"
                     d="m 0,0 c 0.893,0.05 1.78,0.466 2.661,0.451 0,0 -0.061,-0.426 -0.122,-0.998 C 2.441,-1.327 2.336,-2.384 2.334,-3.058 2.337,-3.761 2.24,-4.304 2.091,-4.824 1.941,-5.367 1.732,-5.88 1.541,-6.505 c -0.3,-0.98 -0.784,-2.402 -1.236,-3.357 -0.143,-0.301 -0.316,-0.525 -0.482,-0.767 -0.043,1.129 -1.774,1.094 -2.504,1.782 l -0.006,0 c -0.224,0.208 -0.353,0.474 -0.328,0.859 0.075,0.968 -0.228,5.105 -0.228,5.105 -0.163,0.61 0.349,3.125 0.349,3.125 C -1.985,-0.045 -0.993,-0.049 0,0"
                     style="fill:#d16336;fill-opacity:1;fill-rule:nonzero;stroke:none"
                     id="path76"
                     inkscape:connector-curvature="0" /><path
                     transform="translate(14.9726,0.03660002)"
                     d="m 0,0 c 0,0 -0.006,0 0,-0.006 -0.125,-0.171 -0.238,-0.353 -0.328,-0.572 -0.089,-0.235 -0.466,-1.617 -0.886,-3.157 -0.042,-0.059 -0.054,-0.119 -0.048,-0.178 l 0,-0.005 c -0.546,-1.995 -1.145,-4.203 -1.311,-4.527 l -10e-4,-0.006 c -0.614,-0.009 -1.235,-0.013 -1.855,-0.01 -0.295,10e-4 -0.585,-0.004 -0.874,-0.015 l 0,0.101 c -1.149,0.867 -1.476,1.736 -2.076,2.578 -0.094,0.136 -0.188,0.255 -0.276,0.361 l 0.018,0.012 c -1.565,1.873 -2.628,4.95 -3.322,7.275 1.678,0.087 2.925,0.266 4.639,0.159 1.394,-0.071 2.356,-0.222 3.81,-0.228 l 0.006,0 C -1.774,1.094 -0.043,1.129 0,0"
                     style="fill:#d16336;fill-opacity:1;fill-rule:nonzero;stroke:none"
                     id="path156"
                     inkscape:connector-curvature="0" /><path
                     transform="translate(17.2402,5.8417976)"
                     d="m 0,0 c 0.167,0.289 2.417,-4.429 2.649,-3.91 0.037,0.083 0.066,0.16 0.09,0.23 0.945,-0.239 0.68,-2.839 1.357,-3.603 -0.249,-0.271 -1.527,-0.544 -2.964,-0.84 -1.98,-0.399 -4.269,-0.852 -4.613,-1.418 0.419,1.541 0.796,2.922 0.886,3.158 0.09,0.218 0.202,0.401 0.327,0.572 -0.005,0.006 0,0.006 0,0.006 0.166,0.242 0.339,0.466 0.482,0.766 0.453,0.956 0.936,2.378 1.236,3.357 0.191,0.626 0.4,1.139 0.55,1.682"
                     style="fill:#d16336;fill-opacity:1;fill-rule:nonzero;stroke:none"
                     id="path144"
                     inkscape:connector-curvature="0" /><path
                     transform="translate(19.979501,2.1621024)"
                     d="m 0,0 c -0.024,-0.071 -0.054,-0.147 -0.09,-0.23 -0.232,-0.519 -2.483,4.199 -2.649,3.91 0.149,0.519 0.246,1.063 0.243,1.766 0.002,0.673 0.107,1.73 0.204,2.51 L -2.25,7.95 c 0.349,0.223 0.498,0.542 0.895,0.658 0.325,0.1 0.827,0.003 1.175,10e-4 C 0.63,8.606 2.308,8.523 2.308,8.523 2.422,7.589 2.04,6.415 1.829,5.37 1.769,5.063 1.72,4.768 1.701,4.49 1.632,3.374 1.171,1.975 0.506,1.145 0.18,0.738 0.161,0.449 0,0"
                     style="fill:#d16336;fill-opacity:1;fill-rule:nonzero;stroke:none"
                     id="path140"
                     inkscape:connector-curvature="0" /><path
                     transform="translate(24.594701,-6.7836985)"
                     d="m 0,0 c -0.468,-0.364 -0.912,-0.646 -1.208,-0.704 -0.787,-0.31 -2.041,-0.589 -3.182,-0.744 -0.609,-0.08 -1.188,-0.126 -1.649,-0.124 -2.067,0.008 -4.106,-0.043 -6.157,-0.059 l 10e-4,0.006 c 0.166,0.325 0.765,2.532 1.311,4.527 l 0,0.006 c 0.018,0.059 0.03,0.118 0.048,0.177 0.345,0.566 2.633,1.018 4.614,1.418 L -6.21,4.438 C -6.1,3.994 -5.814,2.995 -5.538,2.639 -5.132,2.112 -4.009,2.143 -3.437,2.105 -2.196,2.023 -0.806,1.002 0,0"
                     style="fill:#d16336;fill-opacity:1;fill-rule:nonzero;stroke:none"
                     id="path136"
                     inkscape:connector-curvature="0" /><path
                     inkscape:connector-curvature="0"
                     id="path176"
                     style="fill:#d16336;fill-opacity:1;fill-rule:nonzero;stroke:none"
                     d="m 0,0 0,-0.101 c -1.076,-0.013 -2.128,-0.074 -3.215,-0.07 -0.408,0.002 -0.922,0.039 -1.465,0.107 C -5.696,0.069 -6.8,0.31 -7.46,0.637 -7.483,0.726 -7.519,0.815 -7.565,0.91 -7.293,1.139 -7.044,1.386 -6.854,1.663 -6.099,2.735 -7.861,5.567 -9.67,8.339 -8.716,7.561 -7.59,6.848 -6.789,6.313 -5.958,5.76 -5.145,5.101 -4.308,4.507 -3.448,3.895 -2.946,3.657 -2.353,2.94 -2.264,2.833 -2.17,2.714 -2.076,2.578 -1.477,1.737 -1.149,0.867 0,0"
                     transform="translate(9.6698993,-8.3389011)" /><path
                     inkscape:connector-curvature="0"
                     id="path180"
                     style="fill:#d16336;fill-opacity:1;fill-rule:nonzero;stroke:none"
                     d="m 7.3354017,-5.3872022 -0.018,-0.012 c -0.594,0.717 -1.095,0.955 -1.956,1.568 -0.836,0.593 -1.649,1.253 -2.48,1.805 -0.801,0.535 -1.927,1.248 -2.881,2.026 -1.851,2.832 -3.754,5.598 -3.102,6.376 0.06,0.07 0.137,0.123 0.237,0.158 0.881,-0.098 5.556,1.893 6.023,1.862 -0.126,-0.336 -0.942,-0.457 0.855,-6.509 0.694,-2.324 1.758,-5.401 3.322,-7.274" /><path
                     inkscape:connector-curvature="0"
                     id="path188"
                     style="fill:#d16336;fill-opacity:1;fill-rule:nonzero;stroke:none"
                     d="M 0,0 C 1.809,-2.772 3.571,-5.604 2.816,-6.676 2.626,-6.953 2.377,-7.2 2.104,-7.429 c -0.462,1.024 -1.999,2.495 -2.771,3.048 -0.506,0.368 -0.3,0.355 -0.652,0.923 -0.376,0.628 -0.929,1.251 -1.624,1.803 -0.607,0.487 -0.666,0.464 -1.089,1.145 -0.375,0.598 -0.723,0.942 -1.276,1.423 -0.295,0.255 -0.601,0.605 -0.895,0.972 -0.717,0.907 -1.369,1.967 -1.557,2.275 0,0 0,0.006 -0.006,0.006 -0.029,0.053 -0.046,0.083 -0.046,0.083 -0.145,0.963 1.291,0.981 2.05,1.463 0.379,0.253 0.575,0.406 1.03,0.522 0.455,0.117 1.092,-0.276 1.383,0.202 L -3.101,6.375 C -3.754,5.598 -1.85,2.832 0,0" /></g></g><g
                 transform="translate(199.9595,486.7993)"
                 id="g190" /><g
                 transform="translate(189.4268,495.0942)"
                 id="g194" /><g
                 id="g198"><g
                   clip-path="none"
                   id="g200"><g
                     id="g202"><g
                       id="g204"><g
                         id="g3200"
                         class="protoderm"
                         style="fill:#d6de23;fill-opacity:1;fill-rule:nonzero;stroke:none"><path
                           inkscape:connector-curvature="0"
                           id="path80"
                           d="M 0,0 C 0.281,-0.716 0.452,-2.306 0.669,-2.561 -0.293,-3.898 -1.071,-4.859 -1.61,-5.353 -1.616,-5.359 -1.622,-5.365 -1.634,-5.371 -1.729,-5.447 -1.824,-5.518 -1.918,-5.594 -1.924,-5.6 -1.93,-5.606 -1.942,-5.605 -3.258,-6.611 -4.625,-7.427 -6.012,-8.284 l -0.029,0.047 c -0.625,0.422 -1.441,1.731 -1.917,2.347 -0.459,0.605 -2.366,5.617 -2.427,6.426 l -0.006,0.042 c 1.141,0.155 2.394,0.434 3.182,0.744 0.295,0.058 0.739,0.34 1.208,0.704 0.877,0.682 1.85,1.659 2.152,2.007 0.261,0.294 0.878,0.947 1.49,1.595 0.115,-0.562 0.25,-0.976 0.702,-1.787 C -1.47,3.503 -1.241,3.107 -1.142,2.823 -0.96,2.343 -0.973,2.202 -0.62,1.722 -0.161,1.1 -0.322,0.816 0,0"
                           transform="translate(228.4512,485.4189)" /><path
                           inkscape:connector-curvature="0"
                           id="path104"
                           d="m 269.169,564.1 c -0.005,-1.572 -0.1,-3.12 -0.325,-4.661 -0.843,-5.681 -1.691,-11.131 -3.616,-16.825 -1.339,-3.984 -3.585,-8.832 -6.286,-12.124 -2.957,-3.611 -14.163,-22.983 -22.695,-36.723 -0.147,0.178 -0.619,0.475 -0.796,0.458 0,0.024 -2.329,-0.457 -2.618,1.251 0.006,0.254 -0.545,1.101 -0.617,1.072 0.641,0.683 0.804,1.604 0.89,2.454 2.398,1.386 3.944,6.898 7.098,12.659 2.313,2.076 2.923,7.179 3.851,8.771 1.089,1.875 2.459,3.352 3.311,5.311 0.752,1.74 1.316,2.529 2.232,4.163 0.976,1.751 1.471,3.09 2.77,5.85 0.846,1.793 2.148,5.233 2.77,7.157 0.675,2.065 0.516,3.714 1.77,5.618 2.776,4.196 3.179,9.163 4.212,11.871 1.972,2.705 1.766,2.936 2.287,3.242 1.368,0.798 4.244,0.456 5.757,0.456 l 0.005,0 z"
                           transform="translate(-1.7894926e-6,-2.1952478e-5)" /><path
                           inkscape:connector-curvature="0"
                           id="path108"
                           d="m 0,0 c 0.177,0.017 0.649,-0.28 0.796,-0.458 -1.213,-1.951 -2.372,-3.784 -3.448,-5.446 -0.218,0.219 -0.794,1.031 -1.2,1.511 -0.47,0.558 -0.493,0.652 -0.964,1.156 -0.365,0.391 -0.412,0.463 -0.683,0.782 -0.158,0.19 -0.423,0.487 -0.647,0.736 -0.553,0.622 -0.776,0.895 -1.052,1.251 0.374,0.571 0.636,0.895 1.524,1.412 0.367,0.211 1.9,0.885 2.243,1.19 0.072,0.059 0.137,0.124 0.196,0.189 0.071,0.029 0.623,-0.818 0.616,-1.072 C -2.33,-0.458 0,0.024 0,0"
                           transform="translate(235.4512,494.2251)" /><path
                           inkscape:connector-curvature="0"
                           id="path116"
                           d="m 0,0 c 0.406,-0.48 0.982,-1.292 1.2,-1.511 -1.391,-2.163 -2.639,-4.031 -3.679,-5.463 -0.218,0.255 -0.389,1.845 -0.669,2.561 -0.322,0.816 -0.162,1.1 -0.62,1.722 -0.353,0.48 -0.34,0.621 -0.522,1.101 -0.099,0.284 -0.328,0.68 -0.516,1.018 -0.452,0.811 -0.586,1.225 -0.702,1.787 0.119,0.13 0.237,0.259 0.356,0.389 0.51,0.547 0.955,1.048 1.116,1.271 0.308,0.442 0.511,0.772 0.689,1.05 0.277,-0.356 0.5,-0.629 1.053,-1.251 C -2.07,2.425 -1.806,2.128 -1.647,1.938 -1.376,1.619 -1.33,1.547 -0.964,1.156 -0.494,0.652 -0.471,0.558 0,0"
                           transform="translate(231.5996,489.832)" /><path
                           inkscape:connector-curvature="0"
                           id="path184"
                           style="fill:#d6de23;fill-opacity:1;fill-rule:nonzero;stroke:none"
                           d="m 0,0 c -0.15,-0.691 -0.216,-2.315 -0.3,-2.858 -0.116,-0.727 -0.231,-1.459 -0.393,-2.226 -0.186,-0.851 -0.272,-1.695 -0.529,-2.409 -0.269,-0.761 -1.445,-2.358 -1.591,-3.208 -1.916,0.97 -3.701,2.342 -5.303,3.689 -0.565,0.664 -1.305,1.76 -2.174,3.194 1.032,0.959 4.309,1.85 4.832,2.699 0.565,0.925 1.726,1.517 2.609,2.259 0.047,-0.095 0.082,-0.184 0.105,-0.273 0.661,-0.327 1.765,-0.568 2.78,-0.701 l 0,-0.019 C 0.024,0.106 0.012,0.053 0,0"
                           transform="translate(202.8086,485.6597)" /><path
                           inkscape:connector-curvature="0"
                           id="path192"
                           d="m 0,0 c -0.883,-0.741 -2.044,-1.333 -2.609,-2.259 -0.523,-0.849 -3.8,-1.74 -4.831,-2.699 -1.022,1.682 -2.225,3.825 -3.551,6.276 l 0.006,0 c 0.278,0.088 2.158,0.306 2.512,0.281 0.703,-0.045 0.708,-0.305 1.46,0.005 1.372,0.568 0.99,0.854 1.971,1.086 0.71,0.157 1.543,0.219 2.271,0.358 C -2,2.495 -0.463,1.024 0,0"
                           transform="translate(199.9595,486.7993)" /><path
                           inkscape:connector-curvature="0"
                           id="path196"
                           d="M 0,0 C 0.03,0.023 0.047,0.035 0.059,0.047 0.042,0.035 0.024,0.018 0,0 M 0.065,0.053 C 0.314,0.265 0.309,0.424 0.711,0.488 0.995,0.54 1.226,0.639 1.474,0.762 1.687,0.874 1.954,1.015 2.226,1.02 2.52,0.652 2.826,0.302 3.12,0.047 3.673,-0.434 4.021,-0.778 4.396,-1.376 4.819,-2.057 4.878,-2.034 5.485,-2.521 6.18,-3.073 6.733,-3.695 7.109,-4.323 7.461,-4.892 7.255,-4.879 7.761,-5.247 7.034,-5.386 6.201,-5.448 5.491,-5.605 4.509,-5.837 4.892,-6.123 3.52,-6.69 2.768,-7 2.763,-6.741 2.06,-6.696 1.706,-6.671 -0.174,-6.889 -0.452,-6.977 l -0.006,0 c -1.021,1.89 -2.112,3.962 -3.244,6.146 0.266,0.123 0.503,0.217 0.798,0.186 0.148,-0.012 0.272,-0.089 0.425,-0.096 0.278,-0.025 0.598,0.051 0.864,0.115 0.579,0.14 1.609,0.679 1.68,0.679"
                           transform="translate(189.4268,495.0942)" /><path
                           inkscape:connector-curvature="0"
                           id="path206"
                           d="m 190.095,498.389 c 0.188,-0.308 0.84,-1.368 1.557,-2.275 -0.272,-0.005 -0.538,-0.146 -0.751,-0.258 -0.249,-0.123 -0.48,-0.222 -0.763,-0.274 -0.402,-0.063 -0.397,-0.223 -0.646,-0.435 -0.071,0 -1.101,-0.539 -1.68,-0.679 -0.267,-0.064 -0.586,-0.139 -0.864,-0.114 -0.154,0.006 -0.277,0.083 -0.425,0.096 -0.295,0.03 -0.532,-0.063 -0.798,-0.186 -6.974,13.398 -15.568,30.979 -19.228,36.24 -4.308,6.191 -7.445,13.932 -9.059,21.324 -0.598,2.738 -1.154,5.635 -1.568,8.597 4.691,-0.207 5.77,-5.441 8.009,-8.35 1.412,-1.831 1.238,-0.992 2.194,-2.697 1.003,-1.8 0.82,-3.442 1.923,-5.467 2.464,-4.518 7.077,-9.392 8.159,-13.852 1.582,-6.494 3.022,-5.435 3.621,-7.854 0.443,-1.798 2.147,-2.626 3.311,-4.161 1.14,-1.523 2.583,-4.205 3.463,-5.922 1.771,-3.469 2.914,-13.518 3.539,-13.727 0.006,0 0.006,-0.006 0.006,-0.006" /></g></g></g></g></g><g
                 transform="translate(189.4268,495.0942)"
                 id="g208"><path
                   d="M 0,0 C 0.024,0.018 0.042,0.035 0.059,0.047 0.047,0.035 0.03,0.023 0,0"
                   style="fill:#d6de23;fill-opacity:1;fill-rule:nonzero;stroke:none"
                   id="path210"
                   inkscape:connector-curvature="0" /></g></g></g></g><g
           id="g212"
           transform="translate(199.9961,474.9585)"><path
             d="M 0,0 C -1.917,0.97 -3.701,2.342 -5.303,3.689"
             style="fill:none;stroke:#231f20;stroke-width:0.2;stroke-linecap:butt;stroke-linejoin:miter;stroke-miterlimit:4;stroke-opacity:1;stroke-dasharray:none"
             id="path214"
             inkscape:connector-curvature="0" /></g><g
           id="g216"
           transform="translate(217.6841,474.311)"><path
             d="m 0,0 c -0.681,-0.316 -1.296,-0.663 -1.541,-1.146 -0.922,-1.816 -0.565,-4.187 -0.757,-6.308 -0.056,-0.655 -0.17,-1.281 -0.385,-1.865 -1.171,-3.157 1.689,-7.753 -2.269,-9.203 -1.775,-0.649 -7.744,-2.588 -8.617,0.807 l -0.292,1.035 c -0.466,3.152 0.09,6.617 0.177,9.046 0.006,0.195 0.007,0.378 0.008,0.555 -10e-4,1.259 0.272,3.266 -0.054,4.437 -0.391,1.379 -0.666,1.817 -1.309,2.15 -0.313,0.167 -0.72,0.305 -1.269,0.519 -0.465,0.18 -0.926,0.388 -1.38,0.615"
             style="fill:none;stroke:#231f20;stroke-width:0.2;stroke-linecap:butt;stroke-linejoin:miter;stroke-miterlimit:4;stroke-opacity:1;stroke-dasharray:none"
             id="path218"
             inkscape:connector-curvature="0" /></g><g
           id="g220"
           transform="translate(226.5093,479.8135)"><path
             d="m 0,0 c -1.316,-1.005 -2.684,-1.822 -4.07,-2.679 -0.076,-0.047 -0.159,-0.1 -0.237,-0.147 -0.87,-0.54 -1.741,-1.104 -2.612,-1.738 -0.462,-0.347 -1.202,-0.622 -1.883,-0.933"
             style="fill:none;stroke:#231f20;stroke-width:0.2;stroke-linecap:butt;stroke-linejoin:miter;stroke-miterlimit:4;stroke-opacity:1;stroke-dasharray:none"
             id="path222"
             inkscape:connector-curvature="0" /></g><g
           id="g224"
           transform="translate(226.8174,480.0483)"><path
             d="M 0,0 C -0.095,-0.076 -0.19,-0.147 -0.285,-0.223"
             style="fill:none;stroke:#231f20;stroke-width:0.2;stroke-linecap:butt;stroke-linejoin:miter;stroke-miterlimit:4;stroke-opacity:1;stroke-dasharray:none"
             id="path226"
             inkscape:connector-curvature="0" /></g><g
           id="g228"
           transform="translate(227.4751,480.5835)"><path
             d="M 0,0 C -0.208,-0.176 -0.421,-0.347 -0.634,-0.518"
             style="fill:none;stroke:#231f20;stroke-width:0.2;stroke-linecap:butt;stroke-linejoin:miter;stroke-miterlimit:4;stroke-opacity:1;stroke-dasharray:none"
             id="path230"
             inkscape:connector-curvature="0" /></g><g
           id="g232"
           transform="translate(194.6929,478.6479)"><path
             d="m 0,0 c -0.565,0.664 -1.305,1.76 -2.174,3.193 -1.021,1.682 -2.224,3.826 -3.55,6.277 -1.021,1.889 -2.112,3.961 -3.244,6.146 -6.973,13.398 -15.568,30.979 -19.228,36.24 -4.307,6.191 -7.445,13.932 -9.059,21.324 -0.598,2.738 -1.154,5.635 -1.568,8.597 -1.835,12.917 -1.03,27.089 10.298,34.992 9.864,6.887 15.683,5.092 24.519,-0.52 3.736,-2.372 7.467,-6.351 9.562,-10.229 1.807,-3.346 3.608,-6.614 5.214,-10.053 1.388,-2.971 1.905,-6.82 3.607,-12.936 0.828,-2.969 1.898,-5.638 2.206,-8.741 0.188,-1.892 -0.809,-7.359 1.291,-8.342 3.745,-1.752 3.733,5.876 3.906,7.725 0.29,3.142 1.618,5.89 2.669,8.858 1.494,4.225 3.396,8.785 5.444,12.83 1.858,3.686 3.649,7.006 5.501,10.544 2.547,4.858 4.857,6.391 10.086,9.266 3.86,2.124 7.077,2.798 11.526,2.686 5.914,-0.141 11.014,-7.635 13.177,-12.087 1.905,-3.924 3.211,-8.402 3.79,-13.161 0.297,-2.465 0.506,-4.835 0.504,-7.157 C 74.471,83.88 74.376,82.333 74.151,80.791 73.308,75.11 72.46,69.66 70.535,63.966 69.196,59.982 66.95,55.134 64.249,51.842 61.292,48.231 50.086,28.859 41.554,15.119 40.341,13.168 39.182,11.335 38.106,9.673 36.715,7.51 35.467,5.642 34.428,4.21 33.465,2.873 32.688,1.912 32.148,1.418 32.142,1.412 32.136,1.406 32.125,1.4 32.018,1.306 31.923,1.236 31.84,1.177 31.834,1.171 31.828,1.165 31.816,1.166"
             style="fill:none;stroke:#231f20;stroke-width:0.2;stroke-linecap:butt;stroke-linejoin:miter;stroke-miterlimit:4;stroke-opacity:1;stroke-dasharray:none"
             id="path234"
             inkscape:connector-curvature="0" /></g><g
           id="g236"
           transform="translate(192.519,481.8413)"><path
             d="m 0,0 c 1.032,0.959 4.309,1.85 4.832,2.699 0.564,0.926 1.725,1.518 2.608,2.259 0.273,0.229 0.522,0.477 0.712,0.753 0.755,1.073 -1.007,3.904 -2.816,6.676 -1.85,2.832 -3.754,5.598 -3.101,6.376 0.059,0.07 0.136,0.123 0.237,0.158 0.053,0.024 0.112,0.036 0.177,0.047"
             style="fill:none;stroke:#231f20;stroke-width:0.2;stroke-linecap:butt;stroke-linejoin:miter;stroke-miterlimit:4;stroke-opacity:1;stroke-dasharray:none"
             id="path238"
             inkscape:connector-curvature="0" /></g><g
           id="g240"
           transform="translate(202.645,473.8193)"><path
             d="m 0,0 c 1.777,-0.379 4.817,0.442 6.471,0.436 1.613,-0.006 3.174,0.136 4.834,0.129 0.886,-0.003 2.917,-0.431 3.734,-0.073 0.006,0 0.018,0.006 0.024,0.006"
             style="fill:none;stroke:#231f20;stroke-width:0.2;stroke-linecap:butt;stroke-linejoin:miter;stroke-miterlimit:4;stroke-opacity:1;stroke-dasharray:none"
             id="path242"
             inkscape:connector-curvature="0" /></g><g
           id="g244"
           transform="translate(207.7314,465.9712)"><path
             d="M 0,0 C 0.012,0 0.023,0.006 0.035,0.006 1.383,0.136 2.76,0.078 4.083,0.149 5.414,0.44 5.278,0.411 5.969,0.437 6.625,0.459 7.052,0.871 7.655,0.886 l 0.006,0"
             style="fill:none;stroke:#231f20;stroke-width:0.2;stroke-linecap:butt;stroke-linejoin:miter;stroke-miterlimit:4;stroke-opacity:1;stroke-dasharray:none"
             id="path246"
             inkscape:connector-curvature="0" /></g><g
           id="g248"
           transform="translate(207.7314,465.9712)"><path
             d="M 0,0 C -0.006,-0.006 -0.006,-0.006 -0.006,0 L 0,0 z"
             style="fill:none;stroke:#231f20;stroke-width:0.2;stroke-linecap:butt;stroke-linejoin:miter;stroke-miterlimit:4;stroke-opacity:1;stroke-dasharray:none"
             id="path250"
             inkscape:connector-curvature="0" /></g><g
           id="g252"
           transform="translate(204,466.6768)"><path
             d="m 0,0 c 0.411,-0.729 2.928,-0.744 3.761,-0.765 0.006,0.03 0.006,0.047 0.006,0.065 0.006,0.071 -0.024,0.018 -0.036,-0.006"
             style="fill:none;stroke:#231f20;stroke-width:0.2;stroke-linecap:butt;stroke-linejoin:miter;stroke-miterlimit:4;stroke-opacity:1;stroke-dasharray:none"
             id="path254"
             inkscape:connector-curvature="0" /></g><g
           id="g256"
           transform="translate(200.0645,486.5269)"><path
             d="m 0,0 c 0.661,-0.327 1.765,-0.568 2.78,-0.702 0.544,-0.067 1.057,-0.104 1.465,-0.106 1.088,-0.004 2.139,0.057 3.215,0.07 0.29,0.011 0.579,0.016 0.874,0.015 0.621,-0.003 1.241,0.001 1.855,0.01 2.051,0.016 4.09,0.067 6.158,0.059 0.461,-0.002 1.04,0.044 1.649,0.124 1.141,0.155 2.394,0.434 3.181,0.744"
             style="fill:none;stroke:#231f20;stroke-width:0.2;stroke-linecap:butt;stroke-linejoin:miter;stroke-miterlimit:4;stroke-opacity:1;stroke-dasharray:none"
             id="path258"
             inkscape:connector-curvature="0" /></g><g
           id="g260"
           transform="translate(202.7852,485.6714)"><path
             d="m 0,0 c 0.006,-0.006 0.018,-0.006 0.023,-0.012 0.649,-0.292 1.328,-0.661 1.858,-0.976 0.531,-0.315 0.914,-0.512 1.575,-0.833 1.326,-0.643 2.541,-1.268 3.898,-1.882 1.362,-0.62 2.725,-1.222 4.099,-1.842 0.631,-0.292 2.33,-1.007 2.849,-1.145 0.62,-0.186 4.379,-1.589 5.01,-1.822"
             style="fill:none;stroke:#231f20;stroke-width:0.2;stroke-linecap:butt;stroke-linejoin:miter;stroke-miterlimit:4;stroke-opacity:1;stroke-dasharray:none"
             id="path262"
             inkscape:connector-curvature="0" /></g><g
           id="g264"
           transform="translate(199.9961,474.9526)"><path
             d="m 0,0 0,0.006 c 0.146,0.85 1.321,2.447 1.59,3.208 0.257,0.714 0.343,1.558 0.53,2.409 0.162,0.767 0.277,1.499 0.392,2.226 0.085,0.543 0.15,2.167 0.301,2.858 0.012,0.053 0.024,0.106 0.036,0.147"
             style="fill:none;stroke:#231f20;stroke-width:0.2;stroke-linecap:butt;stroke-linejoin:miter;stroke-miterlimit:4;stroke-opacity:1;stroke-dasharray:none"
             id="path266"
             inkscape:connector-curvature="0" /></g><g
           id="g268"
           transform="translate(222.4102,477.1821)"><path
             d="M 0,0 C -0.625,0.422 -1.441,1.731 -1.917,2.347 -2.375,2.952 -4.283,7.963 -4.344,8.773"
             style="fill:none;stroke:#231f20;stroke-width:0.2;stroke-linecap:butt;stroke-linejoin:miter;stroke-miterlimit:4;stroke-opacity:1;stroke-dasharray:none"
             id="path270"
             inkscape:connector-curvature="0" /></g><g
           id="g272"
           transform="translate(207.5249,485.8896)"><path
             d="M 0,0 C -1.149,0.867 -1.477,1.737 -2.076,2.578 -2.17,2.714 -2.264,2.833 -2.353,2.94 -2.946,3.657 -3.448,3.895 -4.308,4.507 -5.145,5.101 -5.958,5.76 -6.789,6.313 -7.59,6.848 -8.716,7.561 -9.67,8.339 -9.853,8.487 -10.029,8.636 -10.194,8.79"
             style="fill:none;stroke:#231f20;stroke-width:0.2;stroke-linecap:butt;stroke-linejoin:miter;stroke-miterlimit:4;stroke-opacity:1;stroke-dasharray:none"
             id="path274"
             inkscape:connector-curvature="0" /></g><g
           id="g276"
           transform="translate(229.1265,482.8521)"><path
             d="m 0,0 c 0,0 0,0.006 -0.006,0.006 -0.218,0.255 -0.389,1.845 -0.669,2.561 -0.322,0.816 -0.161,1.1 -0.62,1.722 -0.353,0.48 -0.34,0.621 -0.522,1.101 -0.099,0.284 -0.328,0.68 -0.516,1.018 -0.452,0.811 -0.586,1.225 -0.702,1.787 -0.011,0.035 -0.017,0.071 -0.023,0.106"
             style="fill:none;stroke:#231f20;stroke-width:0.2;stroke-linecap:butt;stroke-linejoin:miter;stroke-miterlimit:4;stroke-opacity:1;stroke-dasharray:none"
             id="path278"
             inkscape:connector-curvature="0" /></g><g
           id="g280"
           transform="translate(232.8052,488.3149)"><path
             d="M 0,0 -0.006,0.006 C -0.224,0.226 -0.8,1.037 -1.206,1.517 -1.676,2.075 -1.699,2.169 -2.17,2.673 -2.535,3.064 -2.582,3.136 -2.853,3.456 -3.011,3.646 -3.276,3.942 -3.5,4.191 -4.053,4.813 -4.276,5.086 -4.552,5.442 -4.558,5.454 -4.57,5.471 -4.582,5.483"
             style="fill:none;stroke:#231f20;stroke-width:0.2;stroke-linecap:butt;stroke-linejoin:miter;stroke-miterlimit:4;stroke-opacity:1;stroke-dasharray:none"
             id="path282"
             inkscape:connector-curvature="0" /></g><g
           id="g284"
           transform="translate(188.9746,488.1177)"><path
             d="M 0,0 C 0.278,0.088 2.158,0.305 2.512,0.28 3.215,0.236 3.22,-0.024 3.972,0.286 5.344,0.854 4.961,1.139 5.943,1.372 6.653,1.528 7.486,1.59 8.213,1.729"
             style="fill:none;stroke:#231f20;stroke-width:0.2;stroke-linecap:butt;stroke-linejoin:miter;stroke-miterlimit:4;stroke-opacity:1;stroke-dasharray:none"
             id="path286"
             inkscape:connector-curvature="0" /></g><g
           id="g288"
           transform="translate(189.4922,495.147)"><path
             d="M 0,0 C 0.249,0.212 0.244,0.372 0.646,0.435 0.929,0.487 1.16,0.586 1.409,0.709 1.622,0.821 1.888,0.962 2.16,0.967 2.184,0.967 2.202,0.966 2.219,0.966"
             style="fill:none;stroke:#231f20;stroke-width:0.2;stroke-linecap:butt;stroke-linejoin:miter;stroke-miterlimit:4;stroke-opacity:1;stroke-dasharray:none"
             id="path290"
             inkscape:connector-curvature="0" /></g><g
           id="g292"
           transform="translate(189.4268,495.0942)"><path
             d="M 0,0 C 0.024,0.018 0.042,0.035 0.059,0.047"
             style="fill:none;stroke:#231f20;stroke-width:0.2;stroke-linecap:butt;stroke-linejoin:miter;stroke-miterlimit:4;stroke-opacity:1;stroke-dasharray:none"
             id="path294"
             inkscape:connector-curvature="0" /></g><g
           id="g296"
           transform="translate(189.4858,495.1411)"><path
             d="M 0,0 C -0.012,-0.012 -0.029,-0.023 -0.059,-0.047 -0.071,-0.059 -0.089,-0.07 -0.106,-0.082"
             style="fill:none;stroke:#231f20;stroke-width:0.2;stroke-linecap:butt;stroke-linejoin:miter;stroke-miterlimit:4;stroke-opacity:1;stroke-dasharray:none"
             id="path298"
             inkscape:connector-curvature="0" /></g><g
           id="g300"
           transform="translate(189.4858,495.1411)"><path
             d="M 0,0 C 0.006,0 0.006,0.006 0.006,0.006"
             style="fill:none;stroke:#231f20;stroke-width:0.2;stroke-linecap:butt;stroke-linejoin:miter;stroke-miterlimit:4;stroke-opacity:1;stroke-dasharray:none"
             id="path302"
             inkscape:connector-curvature="0" /></g><g
           id="g304"
           transform="translate(185.7246,494.2637)"><path
             d="M 0,0 C 0.267,0.123 0.503,0.216 0.798,0.186 0.946,0.173 1.07,0.096 1.224,0.09 1.501,0.065 1.821,0.141 2.087,0.205 2.667,0.344 3.696,0.884 3.768,0.883"
             style="fill:none;stroke:#231f20;stroke-width:0.2;stroke-linecap:butt;stroke-linejoin:miter;stroke-miterlimit:4;stroke-opacity:1;stroke-dasharray:none"
             id="path306"
             inkscape:connector-curvature="0" /></g><g
           id="g308"
           transform="translate(190.0952,498.3887)"><path
             d="m 0,0 c 0.188,-0.308 0.84,-1.368 1.557,-2.275 0.294,-0.368 0.6,-0.717 0.895,-0.973 0.553,-0.48 0.901,-0.824 1.276,-1.422 0.423,-0.682 0.482,-0.658 1.089,-1.145 0.695,-0.552 1.248,-1.175 1.623,-1.803 0.353,-0.568 0.146,-0.555 0.653,-0.924 0.772,-0.552 2.308,-2.023 2.771,-3.047 0.047,-0.095 0.082,-0.184 0.105,-0.273"
             style="fill:none;stroke:#231f20;stroke-width:0.2;stroke-linecap:butt;stroke-linejoin:miter;stroke-miterlimit:4;stroke-opacity:1;stroke-dasharray:none"
             id="path310"
             inkscape:connector-curvature="0" /></g><g
           id="g312"
           transform="translate(194.5059,500.6641)"><path
             d="m 0,0 c -0.291,-0.478 -0.928,-0.085 -1.383,-0.202 -0.455,-0.116 -0.651,-0.269 -1.03,-0.521 -0.758,-0.482 -2.194,-0.5 -2.05,-1.464 0,0 0.017,-0.029 0.046,-0.083"
             style="fill:none;stroke:#231f20;stroke-width:0.2;stroke-linecap:butt;stroke-linejoin:miter;stroke-miterlimit:4;stroke-opacity:1;stroke-dasharray:none"
             id="path314"
             inkscape:connector-curvature="0" /></g><g
           id="g316"
           transform="translate(205.1904,488.8413)"><path
             d="m 0,0 c -1.564,1.873 -2.628,4.95 -3.322,7.274 -1.797,6.052 -0.981,6.173 -0.855,6.509"
             style="fill:none;stroke:#231f20;stroke-width:0.2;stroke-linecap:butt;stroke-linejoin:miter;stroke-miterlimit:4;stroke-opacity:1;stroke-dasharray:none"
             id="path318"
             inkscape:connector-curvature="0" /></g><g
           id="g320"
           transform="translate(201.8682,496.1157)"><path
             d="m 0,0 c 1.679,0.088 2.926,0.266 4.639,0.159 1.394,-0.07 2.357,-0.221 3.81,-0.227"
             style="fill:none;stroke:#231f20;stroke-width:0.2;stroke-linecap:butt;stroke-linejoin:miter;stroke-miterlimit:4;stroke-opacity:1;stroke-dasharray:none"
             id="path322"
             inkscape:connector-curvature="0" /></g><g
           id="g324"
           transform="translate(212.8276,494.2651)"><path
             d="m 0,0 c 0.166,0.242 0.338,0.466 0.481,0.767 0.453,0.955 0.937,2.377 1.236,3.357 0.192,0.625 0.401,1.138 0.551,1.681 0.149,0.52 0.246,1.063 0.243,1.766 0.002,0.674 0.107,1.731 0.204,2.511 0.062,0.572 0.122,0.998 0.122,0.998 -0.88,0.015 -1.768,-0.401 -2.66,-0.451 -0.993,-0.049 -1.986,-0.046 -2.894,0.242 0,0 -0.512,-2.516 -0.349,-3.125 0,0 0.303,-4.137 0.228,-5.105 C -2.863,2.256 -2.734,1.99 -2.51,1.782 l 0.006,0 C -1.774,1.094 -0.043,1.129 0,0"
             style="fill:none;stroke:#231f20;stroke-width:0.2;stroke-linecap:butt;stroke-linejoin:miter;stroke-miterlimit:4;stroke-opacity:1;stroke-dasharray:none"
             id="path326"
             inkscape:connector-curvature="0" /></g><g
           id="g328"
           transform="translate(212.8276,494.2651)"><path
             d="M 0,0 C 0,0 -0.006,0 0,-0.006"
             style="fill:none;stroke:#231f20;stroke-width:0.2;stroke-linecap:butt;stroke-linejoin:miter;stroke-miterlimit:4;stroke-opacity:1;stroke-dasharray:none"
             id="path330"
             inkscape:connector-curvature="0" /></g><g
           id="g332"
           transform="translate(211.5654,490.3525)"><path
             d="m 0,0 c 0.018,0.059 0.03,0.118 0.048,0.177 0.42,1.541 0.797,2.922 0.887,3.158 0.089,0.218 0.202,0.401 0.327,0.572"
             style="fill:none;stroke:#231f20;stroke-width:0.2;stroke-linecap:butt;stroke-linejoin:miter;stroke-miterlimit:4;stroke-opacity:1;stroke-dasharray:none"
             id="path334"
             inkscape:connector-curvature="0" /></g><g
           id="g336"
           transform="translate(210.2544,485.8198)"><path
             d="M 0,0 C 0.167,0.325 0.766,2.532 1.311,4.527"
             style="fill:none;stroke:#231f20;stroke-width:0.2;stroke-linecap:butt;stroke-linejoin:miter;stroke-miterlimit:4;stroke-opacity:1;stroke-dasharray:none"
             id="path338"
             inkscape:connector-curvature="0" /></g><g
           id="g340"
           transform="translate(215.5845,504.3403)"><path
             d="M 0,0 C 0.349,0.223 0.498,0.542 0.895,0.659 1.22,0.758 1.722,0.661 2.07,0.66 2.88,0.657 4.558,0.573 4.558,0.573 4.672,-0.36 4.29,-1.535 4.079,-2.58 4.019,-2.887 3.97,-3.182 3.951,-3.46 3.882,-4.576 3.421,-5.975 2.756,-6.805 2.43,-7.212 2.411,-7.501 2.25,-7.95 2.226,-8.021 2.196,-8.097 2.16,-8.18 1.928,-8.699 -0.323,-3.981 -0.489,-4.27 -0.495,-4.282 -0.495,-4.293 -0.496,-4.311"
             style="fill:none;stroke:#231f20;stroke-width:0.2;stroke-linecap:butt;stroke-linejoin:miter;stroke-miterlimit:4;stroke-opacity:1;stroke-dasharray:none"
             id="path342"
             inkscape:connector-curvature="0" /></g><g
           id="g344"
           transform="translate(219.6631,501.7603)"><path
             d="M 0,0 C 0.508,-0.002 2.584,0.664 3.251,0.366"
             style="fill:none;stroke:#231f20;stroke-width:0.2;stroke-linecap:butt;stroke-linejoin:miter;stroke-miterlimit:4;stroke-opacity:1;stroke-dasharray:none"
             id="path346"
             inkscape:connector-curvature="0" /></g><g
           id="g348"
           transform="translate(221.8682,497.4683)"><path
             d="M 0,0 C 0.006,-0.006 0.018,-0.006 0.023,-0.012 0.602,-0.256 1.512,-0.071 2.145,-0.079 2.7,-0.082 3.219,-0.208 3.757,-0.304 3.815,-0.316 3.88,-0.328 3.939,-0.34 4.436,-0.437 4.878,-0.539 5.22,-0.936 5.449,-1.197 3.358,-7.18 4.55,-6.003 c 0.107,0.106 0.238,0.265 0.404,0.495"
             style="fill:none;stroke:#231f20;stroke-width:0.2;stroke-linecap:butt;stroke-linejoin:miter;stroke-miterlimit:4;stroke-opacity:1;stroke-dasharray:none"
             id="path350"
             inkscape:connector-curvature="0" /></g><g
           id="g352"
           transform="translate(216.2393,491.8828)"><path
             d="M 0,0 C 0.111,-0.444 0.396,-1.443 0.672,-1.799 1.078,-2.326 2.201,-2.295 2.774,-2.333 4.015,-2.415 5.405,-3.436 6.21,-4.438"
             style="fill:none;stroke:#231f20;stroke-width:0.2;stroke-linecap:butt;stroke-linejoin:miter;stroke-miterlimit:4;stroke-opacity:1;stroke-dasharray:none"
             id="path354"
             inkscape:connector-curvature="0" /></g><g
           id="g356"
           transform="translate(217.728,496.4087)"><path
             d="m 0,0 c 0.036,0 0.077,-0.006 0.106,-0.018 0.945,-0.24 0.681,-2.839 1.357,-3.604"
             style="fill:none;stroke:#231f20;stroke-width:0.2;stroke-linecap:butt;stroke-linejoin:miter;stroke-miterlimit:4;stroke-opacity:1;stroke-dasharray:none"
             id="path358"
             inkscape:connector-curvature="0" /></g><g
           id="g360"
           transform="translate(194.8672,500.8105)"><path
             d="m 0,0 c 0.023,-0.03 0.064,-0.042 0.124,-0.048 0.88,-0.098 5.555,1.893 6.022,1.861"
             style="fill:none;stroke:#231f20;stroke-width:0.2;stroke-linecap:butt;stroke-linejoin:miter;stroke-miterlimit:4;stroke-opacity:1;stroke-dasharray:none"
             id="path362"
             inkscape:connector-curvature="0" /></g><g
           id="g364"
           transform="translate(232.2163,496.5479)"><path
             d="m 0,0 c 0.071,0.029 0.623,-0.818 0.616,-1.072 0.289,-1.708 2.619,-1.227 2.619,-1.251 0.177,0.017 0.649,-0.28 0.796,-0.458"
             style="fill:none;stroke:#231f20;stroke-width:0.2;stroke-linecap:butt;stroke-linejoin:miter;stroke-miterlimit:4;stroke-opacity:1;stroke-dasharray:none"
             id="path366"
             inkscape:connector-curvature="0" /></g><g
           id="g368"
           transform="translate(226.7388,502.5249)"><path
             d="M 0,0 C 0.104,-0.384 0.442,-0.132 0.772,-0.375 0.873,-0.453 2.351,-1.64 2.828,-2.032 3.334,-2.447 3.825,-2.419 4.469,-2.564 5.177,-2.714 6.368,-3.522 6.368,-3.522 6.281,-4.373 6.118,-5.294 5.478,-5.977 5.418,-6.042 5.353,-6.106 5.282,-6.166 4.938,-6.471 3.405,-7.145 3.038,-7.356 2.15,-7.873 1.889,-8.197 1.514,-8.768 1.335,-9.045 1.133,-9.375 0.825,-9.817 c -0.161,-0.224 -0.606,-0.725 -1.116,-1.272 -0.119,-0.13 -0.237,-0.259 -0.356,-0.389 -0.611,-0.647 -1.228,-1.301 -1.489,-1.595 -0.303,-0.348 -1.276,-1.325 -2.153,-2.007 -0.468,-0.364 -0.912,-0.646 -1.208,-0.704"
             style="fill:none;stroke:#231f20;stroke-width:0.2;stroke-linecap:butt;stroke-linejoin:miter;stroke-miterlimit:4;stroke-opacity:1;stroke-dasharray:none"
             id="path370"
             inkscape:connector-curvature="0" /></g><g
           id="g372"
           transform="translate(225.814,497.1636)"><path
             d="m 0,0 c 0.007,1.95 -0.199,3.499 0.806,5.155 0.041,0.065 0.077,0.136 0.119,0.206 0.708,1.309 1.307,3.588 1.173,5.361 0,0 -0.252,0.556 -0.713,0.723 -0.236,0.084 -0.785,0.027 -1.034,-0.019 -0.674,-0.128 -1.627,-0.567 -1.627,-0.567 0,0 -1.197,-4.037 -1.269,-4.279 C -2.6,6.179 -2.738,5.606 -2.9,4.962 -3.164,3.894 -3.488,2.643 -3.551,1.686 -3.582,1.231 -3.731,0.759 -3.922,0.293 c -0.275,-0.696 -0.65,-1.386 -0.865,-1.994 -0.334,-0.938 -1.106,-1.886 -1.836,-2.675 -0.249,-0.271 -1.526,-0.544 -2.963,-0.84 -1.981,-0.4 -4.269,-0.852 -4.614,-1.418 -0.042,-0.059 -0.054,-0.118 -0.049,-0.177 l 0,-0.006"
             style="fill:none;stroke:#231f20;stroke-width:0.2;stroke-linecap:butt;stroke-linejoin:miter;stroke-miterlimit:4;stroke-opacity:1;stroke-dasharray:none"
             id="path374"
             inkscape:connector-curvature="0" /></g><g
           id="g376"
           transform="translate(201.0132,502.624)"><path
             d="M 0,0 1.996,5.736"
             style="fill:none;stroke:#231f20;stroke-width:0.2;stroke-linecap:butt;stroke-linejoin:miter;stroke-miterlimit:4;stroke-opacity:1;stroke-dasharray:none"
             id="path378"
             inkscape:connector-curvature="0" /></g><g
           id="g380"
           transform="translate(203.0088,508.3599)"><path
             d="M 0,0 7.102,-3.224"
             style="fill:none;stroke:#231f20;stroke-width:0.2;stroke-linecap:butt;stroke-linejoin:miter;stroke-miterlimit:4;stroke-opacity:1;stroke-dasharray:none"
             id="path382"
             inkscape:connector-curvature="0" /></g><g
           id="g384"
           transform="translate(261.1196,560.4023)"><path
             d="M 0,0 C 1.972,2.705 1.766,2.936 2.287,3.241 3.655,4.04 6.531,3.697 8.044,3.697"
             style="fill:none;stroke:#231f20;stroke-width:0.2;stroke-linecap:butt;stroke-linejoin:miter;stroke-miterlimit:4;stroke-opacity:1;stroke-dasharray:none"
             id="path386"
             inkscape:connector-curvature="0" /></g><g
           id="g388"
           transform="translate(233.1064,499.0024)"><path
             d="m 0,0 c 2.398,1.385 3.944,6.898 7.098,12.658 2.312,2.077 2.923,7.18 3.85,8.772 1.089,1.874 2.46,3.352 3.312,5.31 0.751,1.74 1.316,2.53 2.232,4.163 0.975,1.751 1.471,3.091 2.77,5.851 0.846,1.793 2.147,5.232 2.769,7.156 0.676,2.066 0.517,3.715 1.771,5.618 2.775,4.197 3.178,9.164 4.211,11.872"
             style="fill:none;stroke:#231f20;stroke-width:0.2;stroke-linecap:butt;stroke-linejoin:miter;stroke-miterlimit:4;stroke-opacity:1;stroke-dasharray:none"
             id="path390"
             inkscape:connector-curvature="0" /></g><g
           id="g392"
           transform="translate(155.7104,560.4312)"><path
             d="m 0,0 c 0.053,0 0.106,0 0.16,-0.006 4.69,-0.207 5.769,-5.441 8.009,-8.35 1.411,-1.832 1.237,-0.992 2.193,-2.697 1.004,-1.801 0.82,-3.442 1.923,-5.468 2.465,-4.517 7.078,-9.392 8.16,-13.851 1.582,-6.494 3.022,-5.436 3.621,-7.855 0.442,-1.797 2.146,-2.626 3.31,-4.16 1.141,-1.523 2.584,-4.205 3.464,-5.922 1.771,-3.469 2.913,-13.519 3.539,-13.728 0.006,0 0.006,-0.005 0.006,-0.005"
             style="fill:none;stroke:#231f20;stroke-width:0.2;stroke-linecap:butt;stroke-linejoin:miter;stroke-miterlimit:4;stroke-opacity:1;stroke-dasharray:none"
             id="path394"
             inkscape:connector-curvature="0" /></g></g></g></g></svg>