<?xml version="1.0" encoding="UTF-8" standalone="no"?>
<!-- Created with Inkscape (http://www.inkscape.org/) -->

<svg
   xmlns:dc="http://purl.org/dc/elements/1.1/"
   xmlns:cc="http://creativecommons.org/ns#"
   xmlns:rdf="http://www.w3.org/1999/02/22-rdf-syntax-ns#"
   xmlns:svg="http://www.w3.org/2000/svg"
   xmlns="http://www.w3.org/2000/svg"
   xmlns:sodipodi="http://sodipodi.sourceforge.net/DTD/sodipodi-0.dtd"
   xmlns:inkscape="http://www.inkscape.org/namespaces/inkscape"
   version="1.1"
   inkscape:version="0.48.5 r"
   xml:space="preserve"
   width="271.60471"
   height="300"
   viewBox="0 0 271.6047 300"
   sodipodi:docname="root-wendrich-pub25.svg"
   id="svg7137"
   class="root"><metadata
     id="metadata8"><rdf:RDF><cc:Work
         rdf:about=""><dc:format>image/svg+xml</dc:format><dc:type
           rdf:resource="http://purl.org/dc/dcmitype/StillImage" /><dc:title /></cc:Work></rdf:RDF></metadata><defs
     id="defs6" /><sodipodi:namedview
     pagecolor="#ffffff"
     bordercolor="#666666"
     borderopacity="1"
     objecttolerance="10"
     gridtolerance="10"
     guidetolerance="10"
     inkscape:pageopacity="0"
     inkscape:pageshadow="2"
     inkscape:window-width="1680"
     inkscape:window-height="998"
     id="namedview4"
     showgrid="false"
     inkscape:zoom="2.6533333"
     inkscape:cx="135.80235"
     inkscape:cy="165.07538"
     inkscape:window-x="0"
     inkscape:window-y="0"
     inkscape:window-maximized="1"
     inkscape:current-layer="g10"
     fit-margin-left="150"
     fit-margin-top="0"
     fit-margin-right="0"
     fit-margin-bottom="0"
     borderlayer="true" /><g
     id="g10"
     inkscape:groupmode="layer"
     inkscape:label="Root for database 1"
     transform="matrix(0.51051079,0,0,-0.51051079,-18.895771,359.93765)"><g
       id="g12"><g
         id="g14"
         clip-path="none"><g
           id="g20"><g
             id="g22" /><g
             id="g28"><g
               clip-path="none"
               id="g30"
               transform="matrix(2.1495744,0,0,1.3085129,-314.27848,-216.62819)"><g
                 transform="translate(252.1802,375.8096)"
                 id="g32"
                 style="fill:#ef4637;fill-opacity:1;fill-rule:nonzero;stroke:none"
                 class="high"><path
                   d="M 0,0 50.737384,0.60633242 C 48.414743,-21.907212 46.299517,-41.698824 44.57925,-57.289669 43.442874,-67.588687 41.426198,-74.486501 40.559686,-82.061853 39.106861,-94.762956 37.328351,-102.39396 35.812155,-107.45816 l -2.215457,-4.07943 -3.878574,-4.23016 -5.2333,-2.66754 -2.813652,0.43927 -1.9584,1.64459 -2.552195,5.59471 c -1.194411,4.63255 -4.481002,9.71133 -5.285663,14.041514 -4.2208702,22.714086 -5.8188628,29.089034 -12.26884741,78.410333 -0.0886452,0.677847 -2.75569949,17.78592739 -2.83658579,18.47698381"
                   id="path34"
                   inkscape:connector-curvature="0"
                   sodipodi:nodetypes="ccsscccccccssc" /></g><g
                 transform="translate(244.7002,521.1597)"
                 id="g36"
                 style="fill:#fec34b;fill-opacity:1;fill-rule:nonzero;stroke:none"
                 class="medium"><path
                   d="m -4.1907684,-106.75683 64.6383834,0.0715 c 0.115738,-5.97968 -0.607047,-14.22214 -1.457515,-23.59176 -0.412524,-4.54476 -0.462751,-9.25085 -1.087024,-14.62358 l -53.6401948,-0.22668 c -0.8896964,4.30401 -0.982094,9.04099 -1.5961176,13.25544 -0.9850568,6.7611 -1.2738118,13.14203 -2.14099115,18.59864 -0.3817217,2.40193 -0.31128464,4.47579 -0.67931134,6.36118"
                   id="path38"
                   inkscape:connector-curvature="0"
                   sodipodi:nodetypes="ccsccssc"
                   style="stroke-width:0.51243573" /></g><g
                 transform="translate(237.3398,702.1694)"
                 id="g40"
                 style="fill:#fee830;fill-opacity:1;fill-rule:nonzero;stroke:none"
                 class="low"><path
                   d="m 3.2460421,-180.41197 64.6997829,-0.26289 c 0.245964,-18.7361 0.722067,-72.66422 0.492822,-91.95557 -0.04209,-3.01983 -0.137225,-7.278 -0.569924,-15.40916 l -60.5125035,0.1991 c -0.3186725,9.18205 -0.6185295,22.67743 -0.8925578,25.83399 -0.2461832,9.24386 -1.2761167,22.95104 -1.7045259,41.32091 -0.2495272,10.69954 -1.1579244,20.34941 -1.2620183,28.9182 -0.062564,5.15012 -0.099199,7.34342 -0.346989,10.64637"
                   id="path42"
                   inkscape:connector-curvature="0"
                   sodipodi:nodetypes="ccccccssc"
                   style="stroke-width:0.76177394" /></g></g></g></g><g
           id="g44"
           transform="translate(195.2598,702.3599)"><path
             d="m 0,0 c 0,-9.31 -0.41,-18.72 0.01,-28.01 0.82,-18.32 2.49,-38.92 2.46,-57.33 -0.04,-32.91 3.37,-63.54 4.07,-95.94 0.08,-3.62 0.13,-7.26 0.13,-10.93 0.04,-45.05 3.94,-89.57 6.8,-134.42 0.7,-10.89 1.33,-21.8 1.83,-32.741 1.41,-30.519 8.52,-61.799 16.02,-91.729 5.92,-23.59 10.75,-50.24 18.01,-73.441 4.67,-14.919 5.05,-26.279 14.74,-38.879 4.8,-6.241 8.18,-17.76 16.59,-18.6 6.74,-0.66 14.021,2.83 19.89,5.96 7.79,4.149 15.06,18.89 16.24,27.109 2.37,16.401 10.28621,34.07437 12.78621,50.41537 7.359,48.12 17.74379,96.87463 18.28379,142.64563 0.12,9.89 0.17,19.71 0.161,29.51 -0.021,26.06 -0.481,51.93 -1.351,78.21 -0.56,16.87 2.67,34.03 2.67,50.83 0,5.45 0.08,10.89 0.23,16.31 0.741,29.05 3.1,57.74 3.1,86.81 l 0,66.89 c 0,9.01 -0.6,17.79 -0.67,26.66"
             style="fill:none;stroke:#000000;stroke-width:0.97941123;stroke-linecap:round;stroke-linejoin:round;stroke-miterlimit:4;stroke-dasharray:none;stroke-opacity:1"
             id="path46"
             inkscape:connector-curvature="0"
             sodipodi:nodetypes="cccccccccccccccccscssc" /></g><g
           id="g48"
           transform="translate(291.2402,243.7393)"><path
             d="m 0,0 0.76,0 0,-7.04 -29.33,0 0,7.04 L 0,0 Z"
             style="fill:none;stroke:#000000;stroke-width:0.97941123;stroke-linecap:round;stroke-linejoin:round;stroke-miterlimit:4;stroke-dasharray:none;stroke-opacity:1"
             id="path50"
             inkscape:connector-curvature="0" /></g><g
           id="g52"
           transform="translate(237.3301,702.3599)"><path
             d="m 0,0 0,-0.08 c 0.01,-0.03 0.01,-0.07 0.01,-0.11 1.4,-30.7 1.7,-120.25 5.33,-150.5 0.49,-4.11 1.18,-15.05 2.03,-30.51 1.9,-34.58 4.57,-91.74 7.48,-145.35 3.44,-63.3 7.23,-121.651 10.49,-132.071"
             style="fill:none;stroke:#000000;stroke-width:0.97941123;stroke-linecap:round;stroke-linejoin:round;stroke-miterlimit:4;stroke-dasharray:none;stroke-opacity:1"
             id="path54"
             inkscape:connector-curvature="0" /></g><g
           id="g56"
           transform="translate(308.6699,702.3599)"><path
             d="m 0,0 c 0,-0.07 -0.01,-0.13 -0.01,-0.2 0,-0.1 -0.01,-0.2 -0.01,-0.3 -1.36,-31.03 0.97,-124.24 -2.65,-154.39 -0.45,-3.74 -0.94,-13.05 -1.48,-26.21 -1.38,-33.21 -3.06,-90.92 -5.06,-145.36 -2.3,-61.9 -5.019,-119.55 -8.22,-132.161 -0.08,-0.319 -0.16,-0.609 -0.24,-0.869"
             style="fill:none;stroke:#000000;stroke-width:0.97941123;stroke-linecap:round;stroke-linejoin:round;stroke-miterlimit:4;stroke-dasharray:none;stroke-opacity:1"
             id="path58"
             inkscape:connector-curvature="0" /></g><g
           id="g60"
           transform="translate(195.2598,702.3599)"><path
             d="M 0,0 42.08,-0.19 113.391,-0.5 152,-0.67"
             style="fill:none;stroke:#373535;stroke-width:0.97941123;stroke-linecap:round;stroke-linejoin:round;stroke-miterlimit:4;stroke-dasharray:none;stroke-opacity:1"
             id="path62"
             inkscape:connector-curvature="0" /></g><g
           id="g64"
           transform="translate(220.38209,275.42824)"><path
             d="M 0,0 43.45,0.08 90.73,0.17 134.55,0.25 358.2,0.66"
             style="fill:none;stroke:#373535;stroke-width:0.78352898;stroke-linecap:round;stroke-linejoin:round;stroke-miterlimit:4;stroke-dasharray:none;stroke-opacity:1"
             id="path66"
             inkscape:connector-curvature="0" /></g><g
           id="g68"
           transform="translate(212.42104,325.56599)"><path
             d="m 0,0 42.9,0.08 59.82,0.1 40.31,0.07 222.1,0.39"
             style="fill:none;stroke:#373535;stroke-width:0.78352898;stroke-linecap:round;stroke-linejoin:round;stroke-miterlimit:4;stroke-dasharray:none;stroke-opacity:1"
             id="path70"
             inkscape:connector-curvature="0" /></g><g
           id="g72"
           transform="translate(203.09426,465.64024)"><path
             d="m 0,0.46389051 42.07,-0.08 71.33,-0.12 258.27,-0.47"
             style="fill:none;stroke:#000000;stroke-width:0.78352898;stroke-linecap:round;stroke-linejoin:round;stroke-miterlimit:4;stroke-dasharray:none;stroke-opacity:1"
             id="path74"
             inkscape:connector-curvature="0" /></g></g></g><text
       xml:space="preserve"
       style="font-style:normal;font-variant:normal;font-weight:normal;font-stretch:normal;font-size:36.32369995px;line-height:125%;font-family:Sans;-inkscape-font-specification:'Sans, Normal';text-align:start;letter-spacing:0px;word-spacing:0px;writing-mode:lr-tb;text-anchor:start;fill:#000000;fill-opacity:1;stroke:none;stroke-width:1.30551338px;stroke-linecap:butt;stroke-linejoin:miter;stroke-opacity:1"
       x="373.78101"
       y="-182.44057"
       id="text7175"
       sodipodi:linespacing="125%"
       transform="scale(1,-1)"><tspan
         sodipodi:role="line"
         id="tspan7177"
         x="373.78101"
         y="-182.44057"
         style="font-style:normal;font-variant:normal;font-weight:normal;font-stretch:normal;font-size:36.32369995px;line-height:125%;font-family:Sans;-inkscape-font-specification:'Sans, Normal';text-align:start;writing-mode:lr-tb;text-anchor:start;stroke-width:1.30551338px">High</tspan></text>
<text
       xml:space="preserve"
       style="font-style:normal;font-variant:normal;font-weight:normal;font-stretch:normal;font-size:36.32369995px;line-height:125%;font-family:Sans;-inkscape-font-specification:'Sans, Normal';text-align:start;letter-spacing:0px;word-spacing:0px;writing-mode:lr-tb;text-anchor:start;fill:#000000;fill-opacity:1;stroke:none;stroke-width:1.30551338px;stroke-linecap:butt;stroke-linejoin:miter;stroke-opacity:1"
       x="372.50586"
       y="-288.3223"
       id="text7175-7"
       sodipodi:linespacing="125%"
       transform="scale(1,-1)"><tspan
         sodipodi:role="line"
         id="tspan7197"
         x="372.50586"
         y="-288.3223">Medium</tspan></text>
<text
       xml:space="preserve"
       style="font-style:normal;font-variant:normal;font-weight:normal;font-stretch:normal;font-size:36.32369995px;line-height:125%;font-family:Sans;-inkscape-font-specification:'Sans, Normal';text-align:start;letter-spacing:0px;word-spacing:0px;writing-mode:lr-tb;text-anchor:start;fill:#000000;fill-opacity:1;stroke:none;stroke-width:1.30551338px;stroke-linecap:butt;stroke-linejoin:miter;stroke-opacity:1"
       x="376.35336"
       y="-381.3382"
       id="text7175-7-8"
       sodipodi:linespacing="125%"
       transform="scale(1,-1)"><tspan
         sodipodi:role="line"
         id="tspan7217"
         x="376.35336"
         y="-381.3382">Low</tspan></text>
</g></svg>