<?xml version="1.0" encoding="UTF-8" standalone="no"?>
<!-- Created with Inkscape (http://www.inkscape.org/) -->

<svg
   xmlns:dc="http://purl.org/dc/elements/1.1/"
   xmlns:cc="http://creativecommons.org/ns#"
   xmlns:rdf="http://www.w3.org/1999/02/22-rdf-syntax-ns#"
   xmlns:svg="http://www.w3.org/2000/svg"
   xmlns="http://www.w3.org/2000/svg"
   xmlns:sodipodi="http://sodipodi.sourceforge.net/DTD/sodipodi-0.dtd"
   xmlns:inkscape="http://www.inkscape.org/namespaces/inkscape"
   version="1.1"
   inkscape:version="0.91 r"
   xml:space="preserve"
   width="275.05435"
   height="297.5726"
   viewBox="0 0 275.05435 297.5726"
   sodipodi:docname="root-wendrich-spt.svg"
   class="root"
   id="svg2"><metadata
     id="metadata8"><rdf:RDF><cc:Work
         rdf:about=""><dc:format>image/svg+xml</dc:format><dc:type
           rdf:resource="http://purl.org/dc/dcmitype/StillImage" /><dc:title /></cc:Work></rdf:RDF></metadata><defs
     id="defs6" /><sodipodi:namedview
     pagecolor="#ffffff"
     bordercolor="#666666"
     borderopacity="1"
     objecttolerance="10"
     gridtolerance="10"
     guidetolerance="10"
     inkscape:pageopacity="0"
     inkscape:pageshadow="2"
     inkscape:window-width="1680"
     inkscape:window-height="998"
     id="namedview4"
     showgrid="false"
     inkscape:zoom="3.3302368"
     inkscape:cx="28.769026"
     inkscape:cy="227.393"
     inkscape:window-x="0"
     inkscape:window-y="0"
     inkscape:window-maximized="1"
     fit-margin-left="100"
     fit-margin-top="0"
     fit-margin-right="0"
     fit-margin-bottom="0"
     inkscape:current-layer="g10" /><g
     id="g10"
     inkscape:groupmode="layer"
     inkscape:label="Root for database 1"
     transform="matrix(0.50930426,0,0,-0.50930426,-14.822529,358.69334)"
     clip-path="none"><g
       id="g12"
       clip-path="none"><g
         id="g14"
         clip-path="none"><g
           id="g20"><g
             id="g22" /><g
             id="g28"><g
               clip-path="none"
               id="g30"
               transform="matrix(2.1495744,0,0,1.3085129,-314.27848,-216.62819)"
               mask="none"><g
                 transform="translate(252.1802,375.8096)"
                 id="g32"
                 style="fill:#ef4637;fill-opacity:1;fill-rule:nonzero;stroke:none"
                 class="high"><path
                   d="M -5.9802204,53.925683 53.806621,54.808089 C 52.700249,21.728603 50.006645,-6.7006013 47.60518,-29.291423 c -1.6268,-15.303469 -2.593103,-27.730092 -3.777352,-36.839214 -0.692226,-5.324531 -2.079962,-9.438367 -2.791909,-13.670011 -1.651971,-9.818914 -2.129326,-17.824187 -3.857435,-22.659432 l -2.610603,-6.88225 -1.762683,-3.19565 -2.903583,-2.72422 -3.78062,-2.25793 -3.249309,-0.91516 -2.786223,1.45065 -2.113966,4.19866 -3.799735,9.79282 c -2.170273,6.428541 -3.654866,11.466366 -4.6244549,18.146812 -1.1369414,7.8335 -2.9124784,16.5669 -4.3930047,26.344006 -2.209691,14.592368 -4.2617564,31.099359 -6.5719175,47.108117 -3.0267954,20.9748296 -5.6537567,40.544459 -6.8000298,65.570384"
                   id="path34"
                   inkscape:connector-curvature="0"
                   sodipodi:nodetypes="ccssscccccccccsssc"
                   style="stroke-width:1.3095367" /></g><g
                 transform="translate(244.7002,521.1597)"
                 id="g36"
                 style="fill:#fec34b;fill-opacity:1;fill-rule:nonzero;stroke:none"
                 class="medium"><path
                   d="M -4.1907684,0.10233864 60.447615,0.27211081 c 0.115738,-14.20757481 0.6091,-35.21702481 0.460758,-57.52958381 -0.07343,-11.044934 0.112731,-22.348842 0.06394,-33.741785 l -61.74538008,-0.478658 c -0.12238709,10.226223 -0.68717462,19.931889 -1.06811162,30.120211 -0.6006325,16.064169 -0.6024161,33.012221 -1.4695955,45.976988 -0.3817217,5.7069312 -0.4071983,11.0033873 -0.775225,15.48305564"
                   id="path38"
                   inkscape:connector-curvature="0"
                   sodipodi:nodetypes="ccsccssc"
                   style="stroke-width:0.78987861" /></g><g
                 transform="translate(237.3398,702.1694)"
                 id="g40"
                 style="fill:#fee830;fill-opacity:1;fill-rule:nonzero;stroke:none"
                 class="low"><path
                   d="m 0,-30.750275 70.620396,-0.41492 c 0.299094,-26.189324 -1.247367,-101.585275 -1.82906,-128.472875 0.80723,-3.24778 -0.442721,-10.5188 -0.982721,-21.44404 l -64.5346142,0.0598 c -0.3261539,12.83467 -0.3875387,21.34538 -0.6680002,25.75762 0.4194328,12.92107 -0.9752871,39.1962 -1.3631395,64.806142 C 1.024305,-76.027265 0.72914816,-60.472399 0.62261048,-48.494942 0.55857782,-41.296067 0.25360681,-35.367135 0,-30.750275"
                   id="path42"
                   inkscape:connector-curvature="0"
                   sodipodi:nodetypes="ccccccssc"
                   style="stroke-width:0.91114545" /></g></g></g></g><g
           id="g44"
           transform="translate(195.2598,702.3599)"><path
             d="m 0,0 c 0,-9.31 -0.41,-18.72 0.01,-28.01 0.82,-18.32 2.49,-38.92 2.46,-57.33 -0.04,-32.91 3.37,-63.54 4.07,-95.94 0.08,-3.62 0.13,-7.26 0.13,-10.93 0.04,-45.05 3.94,-89.57 6.8,-134.42 0.7,-10.89 1.33,-21.8 1.83,-32.741 1.41,-30.519 8.52,-61.799 16.02,-91.729 5.92,-23.59 10.75,-50.24 18.01,-73.441 4.67,-14.919 5.05,-26.279 14.74,-38.879 4.8,-6.241 8.18,-17.76 16.59,-18.6 6.74,-0.66 14.021,2.83 19.89,5.96 7.79,4.149 15.06,18.89 16.24,27.109 2.37,16.401 10.28621,34.07437 12.78621,50.41537 7.359,48.12 17.74379,96.87463 18.28379,142.64563 0.12,9.89 0.17,19.71 0.161,29.51 -0.021,26.06 -0.481,51.93 -1.351,78.21 -0.56,16.87 2.67,34.03 2.67,50.83 0,5.45 0.08,10.89 0.23,16.31 0.741,29.05 3.1,57.74 3.1,86.81 l 0,66.89 c 0,9.01 -0.6,17.79 -0.67,26.66"
             style="fill:none;stroke:#000000;stroke-width:0.98173143;stroke-linecap:round;stroke-linejoin:round;stroke-miterlimit:4;stroke-dasharray:none;stroke-opacity:1"
             id="path46"
             inkscape:connector-curvature="0"
             sodipodi:nodetypes="cccccccccccccccccscssc" /></g><g
           id="g48"
           transform="translate(291.2402,243.7393)"><path
             d="m 0,0 0.76,0 0,-7.04 -29.33,0 0,7.04 L 0,0 Z"
             style="fill:none;stroke:#000000;stroke-width:0.98173143;stroke-linecap:round;stroke-linejoin:round;stroke-miterlimit:4;stroke-dasharray:none;stroke-opacity:1"
             id="path50"
             inkscape:connector-curvature="0" /></g><g
           id="g52"
           transform="translate(237.3301,702.3599)"><path
             d="m 0,0 0,-0.08 c 0.01,-0.03 0.01,-0.07 0.01,-0.11 1.4,-30.7 1.7,-120.25 5.33,-150.5 0.49,-4.11 1.18,-15.05 2.03,-30.51 1.9,-34.58 4.57,-91.74 7.48,-145.35 3.44,-63.3 7.23,-121.651 10.49,-132.071"
             style="fill:none;stroke:#000000;stroke-width:0.98173143;stroke-linecap:round;stroke-linejoin:round;stroke-miterlimit:4;stroke-dasharray:none;stroke-opacity:1"
             id="path54"
             inkscape:connector-curvature="0" /></g><g
           id="g56"
           transform="translate(308.6699,702.3599)"><path
             d="m 0,0 c 0,-0.07 -0.01,-0.13 -0.01,-0.2 0,-0.1 -0.01,-0.2 -0.01,-0.3 -1.36,-31.03 0.97,-124.24 -2.65,-154.39 -0.45,-3.74 -0.94,-13.05 -1.48,-26.21 -1.38,-33.21 -3.06,-90.92 -5.06,-145.36 -2.3,-61.9 -5.019,-119.55 -8.22,-132.161 -0.08,-0.319 -0.16,-0.609 -0.24,-0.869"
             style="fill:none;stroke:#000000;stroke-width:0.98173143;stroke-linecap:round;stroke-linejoin:round;stroke-miterlimit:4;stroke-dasharray:none;stroke-opacity:1"
             id="path58"
             inkscape:connector-curvature="0" /></g><g
           id="g60"
           transform="translate(195.2598,702.3599)"><path
             d="M 0,0 42.08,-0.19 113.391,-0.5 152,-0.67"
             style="fill:none;stroke:#000000;stroke-width:0.98173143;stroke-linecap:round;stroke-linejoin:round;stroke-miterlimit:4;stroke-dasharray:none;stroke-opacity:1"
             id="path62"
             inkscape:connector-curvature="0" /></g><g
           id="g64"
           transform="translate(211.06258,345.34078)"><path
             d="M 0,0 43.45,0.08 90.73,0.17 134.55,0.25 358.2,0.66"
             style="fill:none;stroke:#000000;stroke-width:0.78538514;stroke-linecap:round;stroke-linejoin:round;stroke-miterlimit:4;stroke-dasharray:none;stroke-opacity:1"
             id="path66"
             inkscape:connector-curvature="0" /></g><g
           id="g68"
           transform="translate(201.7998,465.39107)"><path
             d="m 0,0 42.9,0.08 59.82,0.1 40.31,0.07 222.1,0.39"
             style="fill:none;stroke:#000000;stroke-width:0.78538514;stroke-linecap:round;stroke-linejoin:round;stroke-miterlimit:4;stroke-dasharray:none;stroke-opacity:1"
             id="path70"
             inkscape:connector-curvature="0" /></g><g
           id="g72"
           transform="translate(195.2598,661.53975)"><path
             d="M 0,0 42.07,-0.08 113.4,-0.2 371.67,-0.67"
             style="fill:none;stroke:#000000;stroke-width:0.78538514;stroke-linecap:round;stroke-linejoin:round;stroke-miterlimit:4;stroke-dasharray:none;stroke-opacity:1"
             id="path74"
             inkscape:connector-curvature="0" /></g><text
           xml:space="preserve"
           style="font-style:normal;font-variant:normal;font-weight:normal;font-stretch:normal;font-size:36.01206589px;line-height:125%;font-family:Sans;-inkscape-font-specification:'Sans, Normal';text-align:start;letter-spacing:0px;word-spacing:0px;writing-mode:lr-tb;text-anchor:start;fill:#000000;fill-opacity:1;stroke:none;stroke-width:1.29431307px;stroke-linecap:butt;stroke-linejoin:miter;stroke-opacity:1"
           x="377.84149"
           y="-220.79822"
           id="text7175"
           sodipodi:linespacing="125%"
           transform="scale(1,-1)"><tspan
             sodipodi:role="line"
             id="tspan7177"
             x="377.84149"
             y="-220.79822"
             style="font-style:normal;font-variant:normal;font-weight:normal;font-stretch:normal;font-size:36.01206589px;line-height:125%;font-family:Sans;-inkscape-font-specification:'Sans, Normal';text-align:start;writing-mode:lr-tb;text-anchor:start;stroke-width:1.29431307px">High</tspan></text>
<text
           xml:space="preserve"
           style="font-style:normal;font-variant:normal;font-weight:normal;font-stretch:normal;font-size:36.01206589px;line-height:125%;font-family:Sans;-inkscape-font-specification:'Sans, Normal';text-align:start;letter-spacing:0px;word-spacing:0px;writing-mode:lr-tb;text-anchor:start;fill:#000000;fill-opacity:1;stroke:none;stroke-width:1.29431307px;stroke-linecap:butt;stroke-linejoin:miter;stroke-opacity:1"
           x="375.41104"
           y="-394.74652"
           id="text7175-7"
           sodipodi:linespacing="125%"
           transform="scale(1,-1)"><tspan
             style="stroke-width:1.29431307px"
             sodipodi:role="line"
             id="tspan7197"
             x="375.41104"
             y="-394.74652">Medium</tspan></text>
<text
           xml:space="preserve"
           style="font-style:normal;font-variant:normal;font-weight:normal;font-stretch:normal;font-size:36.01206589px;line-height:125%;font-family:Sans;-inkscape-font-specification:'Sans, Normal';text-align:start;letter-spacing:0px;word-spacing:0px;writing-mode:lr-tb;text-anchor:start;fill:#000000;fill-opacity:1;stroke:none;stroke-width:1.29431307px;stroke-linecap:butt;stroke-linejoin:miter;stroke-opacity:1"
           x="378.05923"
           y="-558.10321"
           id="text7175-7-8"
           sodipodi:linespacing="125%"
           transform="scale(1,-1)"><tspan
             style="stroke-width:1.29431307px"
             sodipodi:role="line"
             id="tspan7217"
             x="378.05923"
             y="-558.10321">Low</tspan></text>
</g></g></g></svg>