<?xml version="1.0" encoding="UTF-8" standalone="no"?>
<!-- Created with Inkscape (http://www.inkscape.org/) -->

<svg
   xmlns:dc="http://purl.org/dc/elements/1.1/"
   xmlns:cc="http://creativecommons.org/ns#"
   xmlns:rdf="http://www.w3.org/1999/02/22-rdf-syntax-ns#"
   xmlns:svg="http://www.w3.org/2000/svg"
   xmlns="http://www.w3.org/2000/svg"
   xmlns:sodipodi="http://sodipodi.sourceforge.net/DTD/sodipodi-0.dtd"
   xmlns:inkscape="http://www.inkscape.org/namespaces/inkscape"
   version="1.1"
   inkscape:version="0.91+devel r"
   xml:space="preserve"
   width="291.60471"
   height="300"
   viewBox="0 0 291.6047 300"
   sodipodi:docname="root-wendrich-tmo5.svg"
   class="root"><metadata
     id="metadata8"><rdf:RDF><cc:Work
         rdf:about=""><dc:format>image/svg+xml</dc:format><dc:type
           rdf:resource="http://purl.org/dc/dcmitype/StillImage" /><dc:title></dc:title></cc:Work></rdf:RDF></metadata><defs
     id="defs6" /><sodipodi:namedview
     pagecolor="#ffffff"
     bordercolor="#666666"
     borderopacity="1"
     objecttolerance="10"
     gridtolerance="10"
     guidetolerance="10"
     inkscape:pageopacity="0"
     inkscape:pageshadow="2"
     inkscape:window-width="1680"
     inkscape:window-height="998"
     id="namedview4"
     showgrid="false"
     inkscape:zoom="4.7096662"
     inkscape:cx="105.89764"
     inkscape:cy="211.7329"
     inkscape:window-x="0"
     inkscape:window-y="0"
     inkscape:window-maximized="1"
     fit-margin-left="100"
     fit-margin-top="0"
     fit-margin-right="0"
     fit-margin-bottom="0"
     inkscape:current-layer="g10" /><g
     id="g10"
     inkscape:groupmode="layer"
     inkscape:label="Root for database 1"
     transform="matrix(0.50813462,0,0,-0.50813462,0.48585297,358.46016)"><g
       id="g12"><g
         id="g14"
         clip-path="none"><g
           id="g20"><g
             id="g22" /><g
             id="g28"><g
               clip-path="none"
               id="g30"><g
                 transform="translate(252.1802,375.8096)"
                 id="g32"
                 class="high"
                 style="fill:#ef4637;fill-opacity:1;fill-rule:nonzero;stroke:none"><path
                   d="m 0,0 47.28,0.09 c -2.3,-61.9 -5.02,-119.55 -8.22,-132.16 l -28.57,0 C 7.23,-121.65 3.44,-63.3 0,0"
                   id="path34"
                   inkscape:connector-curvature="0" /></g><g
                 transform="translate(244.7002,521.1597)"
                 id="g36"
                 class="medium"
                 style="fill:#fec34b;fill-opacity:1;fill-rule:nonzero;stroke:none"><path
                   d="M 0,0 59.819,0.1 C 58.439,-33.11 56.76,-90.82 54.76,-145.26 L 7.48,-145.35 C 4.57,-91.74 1.9,-34.58 0,0"
                   style="fill:#fec34b;fill-opacity:1;fill-rule:nonzero;stroke:none"
                   id="path38"
                   inkscape:connector-curvature="0" /></g><g
                 transform="translate(237.3398,702.1694)"
                 id="g40"
                 class="low"
                 style="fill:#fee830;fill-opacity:1;fill-rule:nonzero;stroke:none"><path
                   d="m 0,-19.861897 71.311,-0.275984 C 69.95,-47.763016 72.28,-130.74525 68.66,-157.58695 68.21,-160.91656 67.72,-169.205 67.18,-180.92097 L 7.36,-181.01 c -0.85,13.7636 -1.54,23.50318 -2.03,27.16219 C 1.7,-126.91708 1.4,-47.193242 0,-19.861897"
                   style="fill:#fee830;fill-opacity:1;fill-rule:nonzero;stroke:none;stroke-width:0.94354218"
                   id="path42"
                   inkscape:connector-curvature="0" /></g></g></g></g><g
           id="g44"
           transform="translate(195.2598,702.3599)"><path
             d="m 0,0 c 0,-9.31 -0.41,-18.72 0.01,-28.01 0.82,-18.32 2.49,-38.92 2.46,-57.33 -0.04,-32.91 3.37,-63.54 4.07,-95.94 0.08,-3.62 0.13,-7.26 0.13,-10.93 0.04,-45.05 3.94,-89.57 6.8,-134.42 0.7,-10.89 1.33,-21.8 1.83,-32.741 1.41,-30.519 8.52,-61.799 16.02,-91.729 5.92,-23.59 10.75,-50.24 18.01,-73.441 4.67,-14.919 5.05,-26.279 14.74,-38.879 4.8,-6.241 8.18,-17.76 16.59,-18.6 6.74,-0.66 14.021,2.83 19.89,5.96 7.79,4.149 15.06,18.89 16.24,27.109 2.37,16.401 10.061,34.75 12.561,51.091 7.359,48.12 17.969,96.199 18.509,141.97 0.12,9.89 0.17,19.71 0.161,29.51 -0.021,26.06 -0.481,51.93 -1.351,78.21 -0.56,16.87 2.67,34.03 2.67,50.83 0,5.45 0.08,10.89 0.23,16.31 0.741,29.05 3.1,57.74 3.1,86.81 l 0,66.89 c 0,9.01 -0.6,17.79 -0.67,26.66"
             style="fill:none;stroke:#373535;stroke-width:0.5;stroke-linecap:round;stroke-linejoin:round;stroke-miterlimit:4;stroke-dasharray:none;stroke-opacity:1"
             id="path46"
             inkscape:connector-curvature="0" /></g><g
           id="g48"
           transform="translate(291.2402,243.7393)"><path
             d="m 0,0 0.76,0 0,-7.04 -29.33,0 0,7.04 L 0,0 Z"
             style="fill:none;stroke:#373535;stroke-width:0.5;stroke-linecap:round;stroke-linejoin:round;stroke-miterlimit:4;stroke-dasharray:none;stroke-opacity:1"
             id="path50"
             inkscape:connector-curvature="0" /></g><g
           id="g52"
           transform="translate(237.3301,702.3599)"><path
             d="m 0,0 0,-0.08 c 0.01,-0.03 0.01,-0.07 0.01,-0.11 1.4,-30.7 1.7,-120.25 5.33,-150.5 0.49,-4.11 1.18,-15.05 2.03,-30.51 1.9,-34.58 4.57,-91.74 7.48,-145.35 3.44,-63.3 7.23,-121.651 10.49,-132.071"
             style="fill:none;stroke:#373535;stroke-width:0.5;stroke-linecap:round;stroke-linejoin:round;stroke-miterlimit:4;stroke-dasharray:none;stroke-opacity:1"
             id="path54"
             inkscape:connector-curvature="0" /></g><g
           id="g56"
           transform="translate(308.6699,702.3599)"><path
             d="m 0,0 c 0,-0.07 -0.01,-0.13 -0.01,-0.2 0,-0.1 -0.01,-0.2 -0.01,-0.3 -1.36,-31.03 0.97,-124.24 -2.65,-154.39 -0.45,-3.74 -0.94,-13.05 -1.48,-26.21 -1.38,-33.21 -3.06,-90.92 -5.06,-145.36 -2.3,-61.9 -5.019,-119.55 -8.22,-132.161 -0.08,-0.319 -0.16,-0.609 -0.24,-0.869"
             style="fill:none;stroke:#373535;stroke-width:0.5;stroke-linecap:round;stroke-linejoin:round;stroke-miterlimit:4;stroke-dasharray:none;stroke-opacity:1"
             id="path58"
             inkscape:connector-curvature="0" /></g><g
           id="g60"
           transform="translate(195.2598,702.3599)"><path
             d="M 0,0 42.08,-0.19 113.391,-0.5 152,-0.67"
             style="fill:none;stroke:#373535;stroke-width:0.5;stroke-linecap:round;stroke-linejoin:round;stroke-miterlimit:4;stroke-dasharray:none;stroke-opacity:1"
             id="path62"
             inkscape:connector-curvature="0" /></g><g
           id="g64"
           transform="translate(208.73,375.7295)"><path
             d="M 0,0 43.45,0.08 90.73,0.17 134.55,0.25 358.2,0.66"
             style="fill:none;stroke:#373535;stroke-width:0.5;stroke-linecap:round;stroke-linejoin:round;stroke-miterlimit:4;stroke-dasharray:none;stroke-opacity:1"
             id="path66"
             inkscape:connector-curvature="0" /></g><g
           id="g68"
           transform="translate(201.7998,521.0796)"><path
             d="m 0,0 42.9,0.08 59.82,0.1 40.31,0.07 222.1,0.39"
             style="fill:none;stroke:#373535;stroke-width:0.5;stroke-linecap:round;stroke-linejoin:round;stroke-miterlimit:4;stroke-dasharray:none;stroke-opacity:1"
             id="path70"
             inkscape:connector-curvature="0" /></g><g
           id="g72"
           transform="translate(195.2598,702.3599)"><path
             d="m 0.33118368,-20.212042 42.07000632,-0.08 71.32995,-0.12 258.27,-0.47"
             style="fill:none;stroke:#373535;stroke-width:0.5;stroke-linecap:round;stroke-linejoin:round;stroke-miterlimit:4;stroke-dasharray:none;stroke-opacity:1"
             id="path74"
             inkscape:connector-curvature="0" /></g></g></g><text
       xml:space="preserve"
       style="font-style:normal;font-variant:normal;font-weight:normal;font-stretch:normal;font-size:36.01206589px;line-height:125%;font-family:Sans;-inkscape-font-specification:'Sans, Normal';text-align:start;letter-spacing:0px;word-spacing:0px;writing-mode:lr-tb;text-anchor:start;fill:#000000;fill-opacity:1;stroke:none;stroke-width:1.29431307px;stroke-linecap:butt;stroke-linejoin:miter;stroke-opacity:1"
       x="372.42447"
       y="-242.95776"
       id="text7175"
       sodipodi:linespacing="125%"
       transform="scale(1,-1)"><tspan
         sodipodi:role="line"
         id="tspan7177"
         x="372.42447"
         y="-242.95776"
         style="font-style:normal;font-variant:normal;font-weight:normal;font-stretch:normal;font-size:36.01206589px;line-height:125%;font-family:Sans;-inkscape-font-specification:'Sans, Normal';text-align:start;writing-mode:lr-tb;text-anchor:start;stroke-width:1.29431307px">High</tspan></text>
<text
       xml:space="preserve"
       style="font-style:normal;font-variant:normal;font-weight:normal;font-stretch:normal;font-size:36.01206589px;line-height:125%;font-family:Sans;-inkscape-font-specification:'Sans, Normal';text-align:start;letter-spacing:0px;word-spacing:0px;writing-mode:lr-tb;text-anchor:start;fill:#000000;fill-opacity:1;stroke:none;stroke-width:1.29431307px;stroke-linecap:butt;stroke-linejoin:miter;stroke-opacity:1"
       x="367.66138"
       y="-435.40308"
       id="text7175-7"
       sodipodi:linespacing="125%"
       transform="scale(1,-1)"><tspan
         style="stroke-width:1.29431307px"
         sodipodi:role="line"
         id="tspan7197"
         x="367.66138"
         y="-435.40308">Medium</tspan></text>
<text
       xml:space="preserve"
       style="font-style:normal;font-variant:normal;font-weight:normal;font-stretch:normal;font-size:36.01206589px;line-height:125%;font-family:Sans;-inkscape-font-specification:'Sans, Normal';text-align:start;letter-spacing:0px;word-spacing:0px;writing-mode:lr-tb;text-anchor:start;fill:#000000;fill-opacity:1;stroke:none;stroke-width:1.29431307px;stroke-linecap:butt;stroke-linejoin:miter;stroke-opacity:1"
       x="379.63995"
       y="-594.09979"
       id="text7175-7-8"
       sodipodi:linespacing="125%"
       transform="scale(1,-1)"><tspan
         style="stroke-width:1.29431307px"
         sodipodi:role="line"
         id="tspan7217"
         x="379.63995"
         y="-594.09979">Low</tspan></text>
</g></svg>