<svg xmlns="http://www.w3.org/2000/svg" width="104.761" height="300" viewBox="0 0 104.76125 300" class="wt-16C">
    <path d="M85.93 16.144C78.726 7.02 67.528 1.897 51.86 1.234c27.15-5.774 52.587 10.868 50.4 39.04-2.774-.69-4.108 1.581-5.68 0-2.167-.52-2.091 1.222-4.26.71v-.71c2.272-9.901-1.713-18.886-6.39-24.13z" fill="#fff"/>
    <g class="suspensor" fill="#c59d72">
        <path d="M32.69 193.623h-.719c-3.247-13.84-5.812-38.747-1.4-53.25h14.19c7.943-1.57 20.893-.605 26.99 0 3.265 14.447 6.74 38.51 2.129 53.96v.7c-3.237-.88-2.792 1.95-5.68 1.42-7.223-1.552-16.368-1.145-24.14-2.12-3.882-.161-8.549.483-11.37-.71z"/>
        <path d="M39.08 251.104c.133-1.534-2.518-.322-3.549-.701-3.058-15.98-5.008-40.29-2.84-56.78 2.821 1.193 7.488.55 11.37.71 7.772.975 16.917.568 24.14 2.12 2.888.53 2.442-2.3 5.68-1.42v-.7c5.017 14.607 2.745 41.757-1.44 56.07-1.324.104-2.356.464-2.83 1.41-2.034.095-4.657-.378-5.68.71-5.33-1.287-11.748-1.485-18.459-1.42h-6.391zM27.72 111.255c.843-.805 2.51-.796 4.251-.701 10.45-.52 22.237-1.098 30.54 0 4.25 1.117 6.333-.89 10.64-1.42-.577 9.447 2.035 23.487-1.4 31.24-6.097-.606-19.047-1.572-26.99 0H30.57c-4.934-5.434-3.854-20.023-2.85-29.12z"/>
        <path d="M31.971 110.554c-1.741-.095-3.408-.104-4.25.7-3.333-7.061-3.91-16.907-8.51-22.7 4.278.246 5.017-3.039 7.8-4.27 7.128-1.382 14.682-2.356 19.889-5.66 4.165 2.67 9.135 4.572 15.61 4.95h2.13c1.08 2.48 4.25 2.84 6.4 4.27.576-.132.662.275.71.71 1.827 1.637 4.695-.028 6.36-.71.928.047 1.004.9 2.14.71-.454 8.747-5.064 13.376-7.1 20.58-4.307.53-6.39 2.538-10.64 1.42-8.302-1.098-20.088-.52-30.539 0zM35.531 250.403c1.032.379 3.682-.833 3.55.7h6.39c6.711-.065 13.13.133 18.46 1.42 1.022-1.088 3.644-.615 5.68-.71.473-.946 1.505-1.306 2.83-1.41 2.14 13.945 1.61 32.366-.69 45.439-10.442 9.74-27.89-.824-41.18-2.85-.626-13.746 2.905-29.166 4.96-42.589z"/>
    </g>
    <g class="inner-upper" fill="#22984f">
        <path d="M45.47 45.955v-28.41c13.414 5.69 22.786 18.631 33.35 24.841-1.608.18-4.96 2.508-7.07 4.279-8.237-1.657-18.962 2.11-26.28-.71zM44.76 47.365c-10.063-.35-18.782-2.035-29.11-2.121-2.565-.739-4.393-2.216-5.66-4.26 10.356-9.268 22.804-16.453 34.07-24.84.141.804.776 1.098 1.41 1.4v28.409c0 .71-.577.844-.71 1.412z"/>
    </g>
    <g class="inner-lower-tier" fill="#6fbf44">
        <path d="M46.9 78.624c-5.207 3.304-12.76 4.278-19.89 5.66-.132-1.079.256-2.622-.7-2.85.596-2.963-1.392-3.341-1.44-5.66-2.441-4.648-3.379-10.82-4.95-16.34-.417-1.94-1.762-2.944-2.14-4.951-1.23-2.566-2.073-5.52-2.13-9.24 10.328.086 19.046 1.771 29.11 2.122-.16 1.362.786 1.571.71 2.84.976 7.317.976 15.61 1.43 23.429v4.99z"/>
        <path d="M46.9 78.624v-4.99c-.454-7.818-.454-16.111-1.43-23.429.076-1.268-.87-1.477-.71-2.84.133-.568.71-.7.71-1.41 7.318 2.82 18.043-.946 26.28.709-1.383 13.31-4.838 24.509-7.11 36.91h-2.13c-6.475-.378-11.445-2.28-15.61-4.95z"/>
    </g>
    <g>
        <g class="protoderm" fill="#d8e037">
            <path d="M71.04 87.844c-2.149-1.43-5.32-1.79-6.4-4.27 2.272-12.4 5.727-23.6 7.11-36.91 2.11-1.77 5.462-4.097 7.07-4.278h.01c5.831.634 9.552-.862 13.49-2.111v1.41c10.98 14.39-2.51 38.88-14.21 46.159-1.665.682-4.534 2.347-6.36.71-.048-.435-.134-.843-.71-.71z"/>
            <path d="M44.76 4.074c1.268-1.571 3.947-1.741 5.68-2.84h1.42c15.668.663 26.866 5.785 34.07 14.91 4.677 5.245 8.662 14.229 6.39 24.13-3.937 1.25-7.658 2.746-13.489 2.112h-.01c-10.564-6.21-19.936-19.15-33.35-24.84-.635-.302-1.268-.596-1.41-1.4v-5.69c.832-.104.595-1.298.7-2.13l-.001-4.252zM26.31 81.435c.956.227.568 1.77.7 2.85-2.782 1.23-3.52 4.515-7.8 4.269C3.818 82.041-1.994 60.41.75 40.274c.55.142 1.382.01 1.42.71h7.82c1.267 2.046 3.095 3.522 5.66 4.26.057 3.72.9 6.674 2.13 9.24.378 2.007 1.723 3.01 2.14 4.95 1.571 5.52 2.509 11.692 4.95 16.34.049 2.319 2.037 2.697 1.44 5.66z"/>
            <path d="M44.06 16.144c-11.266 8.388-23.714 15.573-34.07 24.84H2.171c-.038-.7-.87-.568-1.42-.71C.44 10.693 22.497-1.907 50.442 1.235c-1.732 1.099-4.41 1.269-5.68 2.84v4.25c-.104.833.133 2.026-.7 2.13v5.69z"/>
            <path d="M51.86 1.235c26.623-5.663 51.755 11.687 50.655 38.869-.01.255-2.635.272-4.927.843-1.711.427-5.08-.409-5.102-.12" stroke="#000" stroke-width=".69218656" stroke-linecap="round" stroke-linejoin="round"/>
            <path d="M92.411 40.756c.387.474 1.442.217 2.465-.308.087-.045.007.24.432-.147.52-.472 1.555.882 2.58.62 2.055-.522 4.435-1.219 4.545-.619 3.285 17.945-5.834 46.094-22.196 48.306-.735.1-1.093-.67-1.742-.584" stroke="#000" stroke-width=".69218656" stroke-linecap="round" stroke-linejoin="round"/>
        </g>
        <path d="M92.32 40.984v-.71M44.76 47.365c-10.063-.35-18.782-2.035-29.11-2.121M30.57 292.993c-.625-13.747 2.907-29.167 4.961-42.591M71.75 295.842c-10.442 9.74-27.889-.824-41.18-2.85M72.44 250.403c2.14 13.945 1.61 32.366-.69 45.439M72.44 250.403c-1.325.104-2.357.464-2.83 1.41M73.88 194.333c5.016 14.607 2.744 41.757-1.44 56.07M35.531 250.403c-3.058-15.98-5.008-40.29-2.84-56.78M39.08 251.104c.133-1.534-2.518-.322-3.549-.701M45.47 251.104h-6.39M63.93 252.524c-5.33-1.288-11.748-1.486-18.459-1.42M71.75 140.373c3.265 14.446 6.74 38.51 2.13 53.959M32.69 193.623h-.719c-3.247-13.84-5.812-38.747-1.4-53.25M44.06 194.333c-3.88-.16-8.548.483-11.37-.71M68.2 196.453c-7.223-1.552-16.368-1.145-24.14-2.121" fill="none" stroke="#000" stroke-width=".69218656" stroke-linecap="round" stroke-linejoin="round"/>
        <path d="M73.88 194.333v.7c-3.238-.88-2.793 1.95-5.681 1.42M30.57 140.373c-4.932-5.434-3.852-20.022-2.85-29.12M40.51 140.373h-9.94M44.76 140.373h-4.25M71.75 140.373c-6.097-.606-19.047-1.572-26.99 0M73.15 109.134c-.577 9.447 2.035 23.486-1.4 31.239M63.93 252.524c1.023-1.089 3.645-.616 5.68-.71M64.64 83.575c1.08 2.48 4.25 2.84 6.4 4.269M19.92 59.435c1.572 5.52 2.51 11.69 4.952 16.34M24.87 75.774c.048 2.319 2.036 2.697 1.44 5.66M17.78 54.484c.38 2.007 1.724 3.01 2.14 4.95M15.651 45.245c.057 3.72.9 6.673 2.13 9.239M9.99 40.984c1.268 2.045 3.096 3.521 5.661 4.26M44.76 47.365c.133-.569.71-.701.71-1.411M45.47 50.205c.076-1.268-.87-1.477-.71-2.84M46.9 73.635c-.454-7.82-.454-16.112-1.43-23.43M46.9 78.624v-4.99M64.64 83.575h-2.13M71.75 46.664c-1.383 13.31-4.838 24.509-7.11 36.91M46.9 78.624c4.165 2.67 9.135 4.572 15.61 4.95M27.01 84.284c7.13-1.383 14.683-2.357 19.89-5.661M27.72 111.255c-3.332-7.062-3.909-16.908-8.51-22.701M31.971 110.554c-1.741-.095-3.408-.104-4.25.7M62.51 110.554c-8.302-1.098-20.087-.52-30.539 0M73.15 109.134c-4.307.53-6.39 2.537-10.64 1.419M80.25 88.553c-.454 8.747-5.064 13.376-7.1 20.58M71.04 87.844c.576-.132.662.275.71.71 1.827 1.637 4.695-.028 6.36-.71M78.11 87.844c11.702-7.28 25.191-31.77 14.21-46.159v-.7M80.25 88.553c-1.136.19-1.211-.663-2.14-.71M96.58 40.275c1.57 1.58 2.906-.69 5.68 0M92.32 40.984c2.168.512 2.092-1.23 4.26-.71M26.31 81.435c.956.227.568 1.77.7 2.85M19.21 88.553C3.818 82.04-1.994 60.409.75 40.273M27.01 84.284c-2.782 1.23-3.52 4.516-7.8 4.269M45.47 45.955v-28.41M71.75 46.664c-8.237-1.656-18.962 2.111-26.28-.71M78.82 42.385c-1.608.18-4.96 2.508-7.07 4.279M78.831 42.385h-.01c-10.564-6.21-19.936-19.15-33.35-24.84M92.32 40.275c-3.937 1.249-7.658 2.745-13.489 2.111M85.93 16.144c4.677 5.245 8.662 14.229 6.39 24.13M51.86 1.235c15.668.662 26.866 5.784 34.07 14.91M50.44 1.235h1.42M44.06 10.455c.833-.104.596-1.298.7-2.13M45.47 17.545c-.634-.302-1.268-.596-1.41-1.4M50.44 1.235c-1.732 1.098-4.41 1.268-5.68 2.84v4.25M.75 40.275C.439 10.692 22.496-1.908 50.44 1.235M2.17 40.984c-.038-.7-.87-.569-1.42-.71M9.99 40.984H2.171M44.06 16.144c-11.265 8.388-23.714 15.573-34.07 24.84M44.06 10.455v5.69" fill="none" stroke="#000" stroke-width=".69218656" stroke-linecap="round" stroke-linejoin="round"/>
    </g>
</svg>
