<svg xmlns="http://www.w3.org/2000/svg" width="58.473" height="299.519" viewBox="0 0 58.473107 299" class="8c-rps5a">
    <g class="eight-rps5a">
        <g>
            <g>
                <g>
                    <g>
                        <g>
                            <g>
                                <g class="upper-tier" fill="#90c84b">
                                    <path d="M52.464 18.158C50.94 6.7 44.034 1.903 32.24.536V.513C44.975-1.1 56.274 6.88 54.817 17.733l-.25-.023c-.624-.045-1.12.067-1.454.313 0-.022-.022-.044-.022-.067h-.023c-.202 0-.404.09-.606.202"/>
                                    <path d="M30.65 24.457c-1.346-.314-2.198.09-3.588-.785-.56-.246-.067-1.547-.807-1.592-.852-5.134-.18-11.77-.404-17.554.203-2.467 2.602-2.736 4.395-3.588.92.113 1.525-.067 1.994-.403C44.033 1.902 50.94 6.7 52.463 18.157c-.112.045-.225.112-.337.134-4.372 1.862-10.47 3.903-15.494 4.98-1.612.514-3.406.85-5.58.806-.36-.09-.382.157-.404.38"/>
                                    <path d="M27.062 23.673c1.054 1.03-.762.56-.807 1.592-1.637 0-1.054 1.054-2.713 1.143-2.242.135-5.448-3.05-7.264-3.744-2.13-.83-6.726-4.35-7.937-5.56.024-.022.07-.045.09-.067-.066 0-.156-.045-.268-.135-.045-.022-.045-.045-.067-.067-.292-.27-.695-.807-.763-1.188-.157-.763-.38-1.458-.224-1.95C9.843 4.93 20.493-.34 30.246.938c-1.794.85-4.193 1.12-4.395 3.586.226 5.785-.447 12.42.405 17.555.74.046.247 1.346.807 1.593"/>
                                </g>
                            </g>
                            <g>
                                <g class="lower-tier" fill="#d8e037">
                                    <path d="M48.9 44.088c4.776-2.758 7.982-17.443 4.126-25.985.334-.246.83-.358 1.455-.314l.25.022v.067c7.555 5.873 1.39 25.805-5.426 26.612-.25-.023-.47-.068-.403-.404"/>
                                    <path d="M27.06 23.673c1.39.874 2.243.47 3.588.785.023-.224.045-.47.404-.38 2.174.043 3.968-.293 5.582-.81 5.022-1.075 11.12-3.115 15.493-4.976.112-.022.224-.09.336-.134.202-.112.403-.202.605-.202h.023c0 .022.023.045.023.067 3.856 8.542.65 23.227-4.125 25.985h-.785c-2.287 1.188-5.044 1.883-7.98 2.4-5.293-.427-10.56-.875-13.162-3.992-.02-.246-.066-.47-.403-.403.068-.45-.09-.695-.403-.785-.09-5-1.03-11.165 0-15.963.045-1.03 1.86-.56.807-1.592"/>
                                    <path d="M26.657 42.012c.336-.067.38.157.404.404-.784 1.614-3.564 1.233-4.797 2.4l-.404-.002c-2.153.36-4.193.852-5.583 1.996-7.937-3.722-13.16-15.537-10.74-26.344.112-.426.763-1.412.987-1.816.09-.157 1.12-1.076 1.816-1.547 1.21 1.21 5.807 4.73 7.937 5.56 1.816.696 5.022 3.88 7.264 3.745 1.66-.09 1.077-1.144 2.713-1.144-1.03 4.798-.09 10.964 0 15.963.314.09.47.337.404.785"/>
                                </g>
                            </g>
                            <g>
                                <g class="suspensor" fill="#c59d72">
                                    <path d="M21.86 44.814h.405c1.233-1.166 4.013-.785 4.797-2.4 2.6 3.117 7.87 3.566 13.16 3.992 2.938-.516 5.696-1.21 7.982-2.4h.785c-.068.337.154.382.403.404-3.522 8.88-.068 21.882-4.395 30.716-1.86.695-5.066-.426-7.96 0h-.404c-4.908.515-13.002.762-16.768-1.188-2.937-7.31-.852-19.618-3.588-27.13 1.39-1.142 3.43-1.635 5.583-1.994"/>
                                    <path d="M19.865 73.938c3.767 1.95 11.86 1.704 16.768 1.188h.406c2.89-.426 6.097.695 7.958 0-.067.337.157.38.403.404 2.87 10.918 2.333 30.962-3.586 38.293h-.807c-5.762 1.95-12.264-.583-17.936-1.188-7.016-7.31-5.425-30.312-3.205-38.697"/>
                                    <path d="M41.006 113.824c7.062 14.304 9.394 45.31-2.778 55.848-2.58-.717-1.997 1.727-3.186 2.397-.515-3.608-9.55-1.613-11.187-1.613-2.332-1.1-6.188-.72-7.982-2.377-7.488-16.3.695-41.88 7.197-55.444 5.672.605 12.176 3.14 17.936 1.188"/>
                                    <path d="M13.9 170.075c-.11-.92.09-1.502.786-1.592.067-.47.74-.36 1.188-.403 1.794 1.66 5.65 1.278 7.98 2.376 1.638 0 10.673-1.995 11.19 1.614 1.187-.672.604-3.116 3.185-2.4 5.49 17.646-6.303 31.726-10.787 50.67-3.9 16.547-4.776 32.78-6.77 50.244-.584 5.134-4.91 20.626-7.176 24.348-1.233 1.995-4.887 4.708-7.196 4.372C-.514 298.34.293 281.727.338 272.58c.022-8.902-.605-20.448 1.592-28.72 2.04-7.713 6.456-14.125 7.173-21.546 1.614-16.726 3.498-33.922 4.394-50.647-.18-.83.27-1.054.404-1.592"/>
                                </g>
                            </g>
                        </g>
                    </g>
                </g>
                <g>
                    <path d="M26.255 41.227c-.09-5-1.03-11.165 0-15.963" fill="none" stroke="#373535" stroke-width=".4484" stroke-linecap="round" stroke-linejoin="round"/>
                </g>
                <g>
                    <path d="M26.657 42.012c.067-.448-.09-.695-.404-.785" fill="none" stroke="#373535" stroke-width=".4484" stroke-linecap="round" stroke-linejoin="round"/>
                </g>
                <g>
                    <path d="M40.222 46.406c-5.29-.426-10.56-.874-13.16-3.99" fill="none" stroke="#373535" stroke-width=".4484" stroke-linecap="round" stroke-linejoin="round"/>
                </g>
                <g>
                    <path d="M48.203 44.008c-2.287 1.188-5.045 1.883-7.982 2.4" fill="none" stroke="#373535" stroke-width=".4484" stroke-linecap="round" stroke-linejoin="round"/>
                </g>
                <g>
                    <path d="M31.053 24.076c2.175.045 3.968-.29 5.58-.807" fill="none" stroke="#373535" stroke-width=".4484" stroke-linecap="round" stroke-linejoin="round"/>
                </g>
                <g>
                    <path d="M13.9 170.075c-.11-.92.09-1.502.786-1.592" fill="none" stroke="#373535" stroke-width=".4484" stroke-linecap="round" stroke-linejoin="round"/>
                </g>
                <g>
                    <path d="M14.686 168.484c.067-.47.74-.36 1.188-.404" fill="none" stroke="#373535" stroke-width=".4484" stroke-linecap="round" stroke-linejoin="round"/>
                </g>
                <g>
                    <path d="M13.498 171.667c-.18-.83.27-1.054.404-1.592" fill="none" stroke="#373535" stroke-width=".4484" stroke-linecap="round" stroke-linejoin="round"/>
                </g>
                <g>
                    <path d="M19.865 73.94c-2.937-7.31-.852-19.62-3.587-27.13" fill="none" stroke="#373535" stroke-width=".4484" stroke-linecap="round" stroke-linejoin="round"/>
                </g>
                <g>
                    <path d="M27.062 42.416c-.785 1.614-3.565 1.233-4.798 2.4" fill="none" stroke="#373535" stroke-width=".4484" stroke-linecap="round" stroke-linejoin="round"/>
                </g>
                <g>
                    <path d="M26.657 42.012c.336-.067.38.157.404.404" fill="none" stroke="#373535" stroke-width=".4484" stroke-linecap="round" stroke-linejoin="round"/>
                </g>
                <g>
                    <path d="M16.277 46.81C8.34 43.088 3.117 31.273 5.537 20.467c.113-.426.763-1.413.987-1.817.09-.156 1.12-1.076 1.816-1.546.023-.023.068-.045.09-.068" fill="none" stroke="#373535" stroke-width=".4484" stroke-linecap="round" stroke-linejoin="round"/>
                </g>
                <g>
                    <path d="M21.86 44.815c-2.15.36-4.192.852-5.582 1.995" fill="none" stroke="#373535" stroke-width=".4484" stroke-linecap="round" stroke-linejoin="round"/>
                </g>
                <g>
                    <path d="M22.263 44.815h-.404" fill="none" stroke="#373535" stroke-width=".4484" stroke-linecap="round" stroke-linejoin="round"/>
                </g>
                <g>
                    <path d="M26.255 22.082c-.852-5.134-.18-11.77-.404-17.555" fill="none" stroke="#373535" stroke-width=".4484" stroke-linecap="round" stroke-linejoin="round"/>
                </g>
                <g>
                    <path d="M31.053 24.076c-.36-.09-.38.157-.404.38-1.346-.313-2.198.09-3.588-.784" fill="none" stroke="#373535" stroke-width=".4484" stroke-linecap="round" stroke-linejoin="round"/>
                </g>
                <g>
                    <path d="M52.126 18.292c-4.37 1.86-10.47 3.9-15.492 4.977" fill="none" stroke="#373535" stroke-width=".4484" stroke-linecap="round" stroke-linejoin="round"/>
                </g>
                <g>
                    <path d="M30.245.94c.92.11 1.525-.068 1.995-.405" fill="none" stroke="#373535" stroke-width=".4484" stroke-linecap="round" stroke-linejoin="round"/>
                </g>
                <g>
                    <path d="M32.24.513C44.977-1.1 56.276 6.88 54.817 17.733v.066" fill="none" stroke="#373535" stroke-width=".4484" stroke-linecap="round" stroke-linejoin="round"/>
                </g>
                <g>
                    <path d="M52.464 18.158C50.94 6.7 44.034 1.903 32.24.536" fill="none" stroke="#373535" stroke-width=".4484" stroke-linecap="round" stroke-linejoin="round"/>
                </g>
                <g>
                    <path d="M53.068 17.956c-.202 0-.404.09-.605.202-.11.045-.222.112-.337.134-.09.045-.18.068-.27.068" fill="none" stroke="#373535" stroke-width=".4484" stroke-linecap="round" stroke-linejoin="round"/>
                </g>
                <g>
                    <path d="M52.978 18.09c.047-.022.09-.067.137-.067.334-.247.83-.36 1.455-.314" fill="none" stroke="#373535" stroke-width=".4484" stroke-linecap="round" stroke-linejoin="round"/>
                </g>
                <g>
                    <path d="M48.99 44.008c4.774-2.758 7.98-17.443 4.124-25.985 0-.022-.022-.045-.022-.067 0-.022-.025-.022-.025-.045" fill="none" stroke="#373535" stroke-width=".4484" stroke-linecap="round" stroke-linejoin="round"/>
                </g>
                <g>
                    <path d="M54.817 17.8c7.556 5.873 1.39 25.804-5.426 26.612" fill="none" stroke="#373535" stroke-width=".4484" stroke-linecap="round" stroke-linejoin="round"/>
                </g>
                <g>
                    <path d="M48.203 44.008h.787" fill="none" stroke="#373535" stroke-width=".4484" stroke-linecap="round" stroke-linejoin="round"/>
                </g>
                <g>
                    <path d="M49.392 44.412c-3.52 8.878-.067 21.882-4.394 30.715" fill="none" stroke="#373535" stroke-width=".4484" stroke-linecap="round" stroke-linejoin="round"/>
                </g>
                <g>
                    <path d="M48.99 44.008c-.068.336.154.38.403.404" fill="none" stroke="#373535" stroke-width=".4484" stroke-linecap="round" stroke-linejoin="round"/>
                </g>
                <g>
                    <path d="M19.865 73.94c3.767 1.95 11.86 1.703 16.768 1.187" fill="none" stroke="#373535" stroke-width=".4484" stroke-linecap="round" stroke-linejoin="round"/>
                </g>
                <g>
                    <path d="M23.07 112.635c-7.016-7.31-5.425-30.312-3.205-38.697" fill="none" stroke="#373535" stroke-width=".4484" stroke-linecap="round" stroke-linejoin="round"/>
                </g>
                <g>
                    <path d="M44.998 75.127c-.067.336.157.38.404.404 2.87 10.92 2.33 30.963-3.588 38.294h-.807" fill="none" stroke="#373535" stroke-width=".4484" stroke-linecap="round" stroke-linejoin="round"/>
                </g>
                <g>
                    <path d="M37.04 75.127c2.89-.426 6.097.695 7.958 0" fill="none" stroke="#373535" stroke-width=".4484" stroke-linecap="round" stroke-linejoin="round"/>
                </g>
                <g>
                    <path d="M36.634 75.127h.406" fill="none" stroke="#373535" stroke-width=".4484" stroke-linecap="round" stroke-linejoin="round"/>
                </g>
                <g>
                    <path d="M41.006 113.824c7.062 14.304 9.394 45.31-2.778 55.848" fill="none" stroke="#373535" stroke-width=".4484" stroke-linecap="round" stroke-linejoin="round"/>
                </g>
                <g>
                    <path d="M23.07 112.635c5.673.605 12.175 3.14 17.937 1.188" fill="none" stroke="#373535" stroke-width=".4484" stroke-linecap="round" stroke-linejoin="round"/>
                </g>
                <g>
                    <path d="M15.873 168.08c-7.488-16.3.695-41.88 7.197-55.444" fill="none" stroke="#373535" stroke-width=".4484" stroke-linecap="round" stroke-linejoin="round"/>
                </g>
                <g>
                    <path d="M23.855 170.456c-2.332-1.1-6.188-.717-7.982-2.377" fill="none" stroke="#373535" stroke-width=".4484" stroke-linecap="round" stroke-linejoin="round"/>
                </g>
                <g>
                    <path d="M38.228 169.673c5.49 17.645-6.302 31.722-10.786 50.67-3.9 16.543-4.773 32.777-6.77 50.242-.582 5.135-4.91 20.627-7.173 24.35-1.237 1.994-4.89 4.707-7.198 4.368-6.816-.962-6.01-17.577-5.964-26.724.02-8.9-.605-20.448 1.592-28.72 2.04-7.714 6.455-14.124 7.174-21.547 1.612-16.723 3.496-33.92 4.395-50.645" fill="none" stroke="#373535" stroke-width=".4484" stroke-linecap="round" stroke-linejoin="round"/>
                </g>
                <g>
                    <path d="M23.855 170.456c1.637 0 10.672-1.995 11.188 1.614 1.188-.672.605-3.116 3.185-2.4" fill="none" stroke="#373535" stroke-width=".4484" stroke-linecap="round" stroke-linejoin="round"/>
                </g>
                <g>
                    <path d="M8.094 16.835c-.29-.27-.695-.807-.762-1.188-.157-.763-.38-1.458-.224-1.95C9.843 4.93 20.492-.34 30.245.938" fill="none" stroke="#373535" stroke-width=".4484" stroke-linecap="round" stroke-linejoin="round"/>
                </g>
                <g>
                    <path d="M8.43 17.037c-.067 0-.157-.045-.27-.135" fill="none" stroke="#373535" stroke-width=".4484" stroke-linecap="round" stroke-linejoin="round"/>
                </g>
                <g>
                    <path d="M26.255 25.265c-1.637 0-1.054 1.054-2.713 1.143-2.242.135-5.448-3.05-7.264-3.744-2.13-.83-6.726-4.35-7.937-5.56-.088-.09-.156-.157-.178-.202-.045-.022-.045-.045-.067-.067" fill="none" stroke="#373535" stroke-width=".4484" stroke-linecap="round" stroke-linejoin="round"/>
                </g>
                <g>
                    <path d="M27.062 23.673c1.054 1.03-.762.56-.807 1.592" fill="none" stroke="#373535" stroke-width=".4484" stroke-linecap="round" stroke-linejoin="round"/>
                </g>
                <g>
                    <path d="M26.255 22.082c.74.045.247 1.345.807 1.592" fill="none" stroke="#373535" stroke-width=".4484" stroke-linecap="round" stroke-linejoin="round"/>
                </g>
                <g>
                    <path d="M26.255 23.27v-1.19" fill="none" stroke="#373535" stroke-width=".4484" stroke-linecap="round" stroke-linejoin="round"/>
                </g>
                <g>
                    <path d="M30.245.94c-1.794.85-4.193 1.12-4.394 3.586" fill="none" stroke="#373535" stroke-width=".4484" stroke-linecap="round" stroke-linejoin="round"/>
                </g>
            </g>
        </g>
    </g>
</svg>
