<svg xmlns="http://www.w3.org/2000/svg" width="58.473" height="299.519" viewBox="0 0 58.473107 299" class="8c-rps5a">
    <defs>
        <clipPath id="a">
            <path d="M0 792h612V0H0v792z"/>
        </clipPath>
        <clipPath id="b">
            <path d="M293.3 461.473h25.877V328.098H293.3v133.375z"/>
        </clipPath>
    </defs>
    <g class="eight-rps5a">
        <g>
            <g clip-path="url(#a)" transform="matrix(2.242 0 0 -2.242 -657.243 1034.821)">
                <g>
                    <g>
                        <g clip-path="url(#b)">
                            <g>
                                <g class="upper-tier" fill="#90c84b">
                                    <path d="M316.58 453.51c-.68 5.11-3.76 7.25-9.02 7.86v.01c5.68.72 10.72-2.84 10.07-7.68l-.11.01c-.28.02-.5-.03-.65-.14 0 .01-.01.02-.01.03h-.01c-.09 0-.18-.04-.27-.09"/>
                                    <path d="M306.85 450.7c-.6.14-.98-.04-1.6.35-.25.11-.03.69-.36.71-.38 2.29-.08 5.25-.18 7.83.09 1.1 1.16 1.22 1.96 1.6.41-.05.68.03.89.18 5.26-.61 8.34-2.75 9.02-7.86-.05-.02-.1-.05-.15-.06-1.95-.83-4.67-1.74-6.91-2.22-.72-.23-1.52-.38-2.49-.36-.16.04-.17-.07-.18-.17"/>
                                    <path d="M305.25 451.05c.47-.46-.34-.25-.36-.71-.73 0-.47-.47-1.21-.51-1-.06-2.43 1.36-3.24 1.67-.95.37-3 1.94-3.54 2.48.01.01.03.02.04.03-.03 0-.07.02-.12.06-.02.01-.02.02-.03.03-.13.12-.31.36-.34.53-.07.34-.17.65-.1.87 1.22 3.91 5.97 6.26 10.32 5.69-.8-.38-1.87-.5-1.96-1.6.1-2.58-.2-5.54.18-7.83.33-.02.11-.6.36-.71"/>
                                </g>
                            </g>
                            <g>
                                <g class="lower-tier" fill="#d8e037">
                                    <path d="M314.99 441.944c2.13 1.23 3.56 7.78 1.84 11.59.15.11.37.16.65.14l.11-.01v-.03c3.37-2.62.62-11.51-2.42-11.87-.11.01-.21.03-.18.18"/>
                                    <path d="M305.25 451.05c.62-.39 1-.21 1.6-.35.01.1.02.21.18.17.97-.02 1.77.13 2.49.36 2.24.48 4.96 1.39 6.91 2.22.05.01.1.04.15.06.09.05.18.09.27.09h.01c0-.01.01-.02.01-.03 1.72-3.81.29-10.36-1.84-11.59h-.35c-1.02-.53-2.25-.84-3.56-1.07-2.36.19-4.71.39-5.87 1.78-.01.11-.03.21-.18.18.03.2-.04.31-.18.35-.04 2.23-.46 4.98 0 7.12.02.46.83.25.36.71"/>
                                    <path d="M305.07 442.87c.15.03.17-.07.18-.18-.35-.72-1.59-.55-2.14-1.07h-.18c-.96-.16-1.87-.38-2.49-.89-3.54 1.66-5.87 6.93-4.79 11.75.05.19.34.63.44.81.04.07.5.48.81.69.54-.54 2.59-2.11 3.54-2.48.81-.31 2.24-1.73 3.24-1.67.74.04.48.51 1.21.51-.46-2.14-.04-4.89 0-7.12.14-.04.21-.15.18-.35"/>
                                </g>
                            </g>
                            <g>
                                <g class="suspensor" fill="#c59d72">
                                    <path d="M302.93 441.62h.18c.55.52 1.79.35 2.14 1.07 1.16-1.39 3.51-1.59 5.87-1.78 1.31.23 2.54.54 3.56 1.07h.35c-.03-.15.07-.17.18-.18-1.57-3.96-.03-9.76-1.96-13.7-.83-.31-2.26.19-3.55 0h-.18c-2.19-.23-5.8-.34-7.48.53-1.31 3.26-.38 8.75-1.6 12.1.62.51 1.53.73 2.49.89"/>
                                    <path d="M302.04 428.63c1.68-.87 5.29-.76 7.48-.53h.18c1.29.19 2.72-.31 3.55 0-.03-.15.07-.17.18-.18 1.28-4.87 1.04-13.81-1.6-17.08h-.36c-2.57-.87-5.47.26-8 .53-3.13 3.26-2.42 13.52-1.43 17.26"/>
                                    <path d="M311.47 410.84c3.15-6.38 4.19-20.21-1.24-24.91-1.15.32-.89-.77-1.42-1.07-.23 1.61-4.26.72-4.99.72-1.04.49-2.76.32-3.56 1.06-3.34 7.27.31 18.68 3.21 24.73 2.53-.27 5.43-1.4 8-.53"/>
                                    <path d="M299.38 385.75c-.05.41.04.67.35.71.03.21.33.16.53.18.8-.74 2.52-.57 3.56-1.06.73 0 4.76.89 4.99-.72.53.3.27 1.39 1.42 1.07 2.45-7.87-2.81-14.15-4.81-22.6-1.74-7.38-2.13-14.62-3.02-22.41-.26-2.29-2.19-9.2-3.2-10.86-.55-.89-2.18-2.1-3.21-1.95-3.04.43-2.68 7.84-2.66 11.92.01 3.97-.27 9.12.71 12.81.91 3.44 2.88 6.3 3.2 9.61.72 7.46 1.56 15.13 1.96 22.59-.08.37.12.47.18.71"/>
                                </g>
                            </g>
                        </g>
                    </g>
                </g>
                <g>
                    <path d="M304.89 443.22c-.04 2.23-.46 4.98 0 7.12" fill="none" stroke="#373535" stroke-width=".2" stroke-linecap="round" stroke-linejoin="round"/>
                </g>
                <g>
                    <path d="M305.07 442.87c.03.2-.04.31-.18.35" fill="none" stroke="#373535" stroke-width=".2" stroke-linecap="round" stroke-linejoin="round"/>
                </g>
                <g>
                    <path d="M311.12 440.91c-2.36.19-4.71.39-5.87 1.78" fill="none" stroke="#373535" stroke-width=".2" stroke-linecap="round" stroke-linejoin="round"/>
                </g>
                <g>
                    <path d="M314.68 441.98c-1.02-.53-2.25-.84-3.56-1.07" fill="none" stroke="#373535" stroke-width=".2" stroke-linecap="round" stroke-linejoin="round"/>
                </g>
                <g>
                    <path d="M307.03 450.87c.97-.02 1.77.13 2.49.36" fill="none" stroke="#373535" stroke-width=".2" stroke-linecap="round" stroke-linejoin="round"/>
                </g>
                <g>
                    <path d="M299.38 385.75c-.05.41.04.67.35.71" fill="none" stroke="#373535" stroke-width=".2" stroke-linecap="round" stroke-linejoin="round"/>
                </g>
                <g>
                    <path d="M299.73 386.46c.03.21.33.16.53.18" fill="none" stroke="#373535" stroke-width=".2" stroke-linecap="round" stroke-linejoin="round"/>
                </g>
                <g>
                    <path d="M299.2 385.04c-.08.37.12.47.18.71" fill="none" stroke="#373535" stroke-width=".2" stroke-linecap="round" stroke-linejoin="round"/>
                </g>
                <g>
                    <path d="M302.04 428.63c-1.31 3.26-.38 8.75-1.6 12.1" fill="none" stroke="#373535" stroke-width=".2" stroke-linecap="round" stroke-linejoin="round"/>
                </g>
                <g>
                    <path d="M305.25 442.69c-.35-.72-1.59-.55-2.14-1.07" fill="none" stroke="#373535" stroke-width=".2" stroke-linecap="round" stroke-linejoin="round"/>
                </g>
                <g>
                    <path d="M305.07 442.87c.15.03.17-.07.18-.18" fill="none" stroke="#373535" stroke-width=".2" stroke-linecap="round" stroke-linejoin="round"/>
                </g>
                <g>
                    <path d="M300.44 440.73c-3.54 1.66-5.87 6.93-4.79 11.75.05.19.34.63.44.81.04.07.5.48.81.69.01.01.03.02.04.03" fill="none" stroke="#373535" stroke-width=".2" stroke-linecap="round" stroke-linejoin="round"/>
                </g>
                <g>
                    <path d="M302.93 441.62c-.96-.16-1.87-.38-2.49-.89" fill="none" stroke="#373535" stroke-width=".2" stroke-linecap="round" stroke-linejoin="round"/>
                </g>
                <g>
                    <path d="M303.11 441.62h-.18" fill="none" stroke="#373535" stroke-width=".2" stroke-linecap="round" stroke-linejoin="round"/>
                </g>
                <g>
                    <path d="M304.89 451.76c-.38 2.29-.08 5.25-.18 7.83" fill="none" stroke="#373535" stroke-width=".2" stroke-linecap="round" stroke-linejoin="round"/>
                </g>
                <g>
                    <path d="M307.03 450.87c-.16.04-.17-.07-.18-.17-.6.14-.98-.04-1.6.35" fill="none" stroke="#373535" stroke-width=".2" stroke-linecap="round" stroke-linejoin="round"/>
                </g>
                <g>
                    <path d="M316.43 453.45c-1.95-.83-4.67-1.74-6.91-2.22" fill="none" stroke="#373535" stroke-width=".2" stroke-linecap="round" stroke-linejoin="round"/>
                </g>
                <g>
                    <path d="M306.67 461.19c.41-.05.68.03.89.18" fill="none" stroke="#373535" stroke-width=".2" stroke-linecap="round" stroke-linejoin="round"/>
                </g>
                <g>
                    <path d="M307.56 461.38c5.68.72 10.72-2.84 10.07-7.68v-.03" fill="none" stroke="#373535" stroke-width=".2" stroke-linecap="round" stroke-linejoin="round"/>
                </g>
                <g>
                    <path d="M316.58 453.51c-.68 5.11-3.76 7.25-9.02 7.86" fill="none" stroke="#373535" stroke-width=".2" stroke-linecap="round" stroke-linejoin="round"/>
                </g>
                <g>
                    <path d="M316.85 453.6c-.09 0-.18-.04-.27-.09-.05-.02-.1-.05-.15-.06-.04-.02-.08-.03-.12-.03" fill="none" stroke="#373535" stroke-width=".2" stroke-linecap="round" stroke-linejoin="round"/>
                </g>
                <g>
                    <path d="M316.81 453.54c.02.01.04.03.06.03.15.11.37.16.65.14" fill="none" stroke="#373535" stroke-width=".2" stroke-linecap="round" stroke-linejoin="round"/>
                </g>
                <g>
                    <path d="M315.03 441.98c2.13 1.23 3.56 7.78 1.84 11.59 0 .01-.01.02-.01.03 0 .01-.01.01-.01.02" fill="none" stroke="#373535" stroke-width=".2" stroke-linecap="round" stroke-linejoin="round"/>
                </g>
                <g>
                    <path d="M317.63 453.67c3.37-2.62.62-11.51-2.42-11.87" fill="none" stroke="#373535" stroke-width=".2" stroke-linecap="round" stroke-linejoin="round"/>
                </g>
                <g>
                    <path d="M314.68 441.98h.35" fill="none" stroke="#373535" stroke-width=".2" stroke-linecap="round" stroke-linejoin="round"/>
                </g>
                <g>
                    <path d="M315.21 441.8c-1.57-3.96-.03-9.76-1.96-13.7" fill="none" stroke="#373535" stroke-width=".2" stroke-linecap="round" stroke-linejoin="round"/>
                </g>
                <g>
                    <path d="M315.03 441.98c-.03-.15.07-.17.18-.18" fill="none" stroke="#373535" stroke-width=".2" stroke-linecap="round" stroke-linejoin="round"/>
                </g>
                <g>
                    <path d="M302.04 428.63c1.68-.87 5.29-.76 7.48-.53" fill="none" stroke="#373535" stroke-width=".2" stroke-linecap="round" stroke-linejoin="round"/>
                </g>
                <g>
                    <path d="M303.47 411.37c-3.13 3.26-2.42 13.52-1.43 17.26" fill="none" stroke="#373535" stroke-width=".2" stroke-linecap="round" stroke-linejoin="round"/>
                </g>
                <g>
                    <path d="M313.25 428.1c-.03-.15.07-.17.18-.18 1.28-4.87 1.04-13.81-1.6-17.08h-.36" fill="none" stroke="#373535" stroke-width=".2" stroke-linecap="round" stroke-linejoin="round"/>
                </g>
                <g>
                    <path d="M309.7 428.1c1.29.19 2.72-.31 3.55 0" fill="none" stroke="#373535" stroke-width=".2" stroke-linecap="round" stroke-linejoin="round"/>
                </g>
                <g>
                    <path d="M309.52 428.1h.18" fill="none" stroke="#373535" stroke-width=".2" stroke-linecap="round" stroke-linejoin="round"/>
                </g>
                <g>
                    <path d="M311.47 410.84c3.15-6.38 4.19-20.21-1.24-24.91" fill="none" stroke="#373535" stroke-width=".2" stroke-linecap="round" stroke-linejoin="round"/>
                </g>
                <g>
                    <path d="M303.47 411.37c2.53-.27 5.43-1.4 8-.53" fill="none" stroke="#373535" stroke-width=".2" stroke-linecap="round" stroke-linejoin="round"/>
                </g>
                <g>
                    <path d="M300.26 386.64c-3.34 7.27.31 18.68 3.21 24.73" fill="none" stroke="#373535" stroke-width=".2" stroke-linecap="round" stroke-linejoin="round"/>
                </g>
                <g>
                    <path d="M303.82 385.58c-1.04.49-2.76.32-3.56 1.06" fill="none" stroke="#373535" stroke-width=".2" stroke-linecap="round" stroke-linejoin="round"/>
                </g>
                <g>
                    <path d="M310.23 385.93c2.45-7.87-2.81-14.15-4.81-22.6-1.74-7.38-2.13-14.62-3.02-22.41-.26-2.29-2.19-9.2-3.2-10.86-.55-.89-2.18-2.1-3.21-1.95-3.04.43-2.68 7.84-2.66 11.92.01 3.97-.27 9.12.71 12.81.91 3.44 2.88 6.3 3.2 9.61.72 7.46 1.56 15.13 1.96 22.59" fill="none" stroke="#373535" stroke-width=".2" stroke-linecap="round" stroke-linejoin="round"/>
                </g>
                <g>
                    <path d="M303.82 385.58c.73 0 4.76.89 4.99-.72.53.3.27 1.39 1.42 1.07" fill="none" stroke="#373535" stroke-width=".2" stroke-linecap="round" stroke-linejoin="round"/>
                </g>
                <g>
                    <path d="M296.79 454.1c-.13.12-.31.36-.34.53-.07.34-.17.65-.1.87 1.22 3.91 5.97 6.26 10.32 5.69" fill="none" stroke="#373535" stroke-width=".2" stroke-linecap="round" stroke-linejoin="round"/>
                </g>
                <g>
                    <path d="M296.94 454.01c-.03 0-.07.02-.12.06" fill="none" stroke="#373535" stroke-width=".2" stroke-linecap="round" stroke-linejoin="round"/>
                </g>
                <g>
                    <path d="M304.89 450.34c-.73 0-.47-.47-1.21-.51-1-.06-2.43 1.36-3.24 1.67-.95.37-3 1.94-3.54 2.48-.04.04-.07.07-.08.09-.02.01-.02.02-.03.03" fill="none" stroke="#373535" stroke-width=".2" stroke-linecap="round" stroke-linejoin="round"/>
                </g>
                <g>
                    <path d="M305.25 451.05c.47-.46-.34-.25-.36-.71" fill="none" stroke="#373535" stroke-width=".2" stroke-linecap="round" stroke-linejoin="round"/>
                </g>
                <g>
                    <path d="M304.89 451.76c.33-.02.11-.6.36-.71" fill="none" stroke="#373535" stroke-width=".2" stroke-linecap="round" stroke-linejoin="round"/>
                </g>
                <g>
                    <path d="M304.89 451.23v.53" fill="none" stroke="#373535" stroke-width=".2" stroke-linecap="round" stroke-linejoin="round"/>
                </g>
                <g>
                    <path d="M306.67 461.19c-.8-.38-1.87-.5-1.96-1.6" fill="none" stroke="#373535" stroke-width=".2" stroke-linecap="round" stroke-linejoin="round"/>
                </g>
            </g>
        </g>
    </g>
</svg>
