<svg xmlns="http://www.w3.org/2000/svg" width="58.391" height="299.399" viewBox="0 0 58.39135 299" class="eight-wt">
    <defs>
        <clipPath id="a">
            <path d="M0 792h612V0H0v792z"/>
        </clipPath>
        <clipPath id="b">
            <path d="M293.3 461.413h25.84v-133.32H293.3v133.32z"/>
        </clipPath>
    </defs>
    <g>
        <g>
            <g clip-path="url(#a)" transform="matrix(2.242 0 0 -2.242 -657.874 1035.206)">
                <g>
                    <g>
                        <g clip-path="url(#b)">
                            <g>
                                <g class="suspensor" fill="#c59d72">
                                    <path d="M315.03 441.978c-.03-.152.074-.168.18-.178-1.565-3.96-.033-9.765-1.958-13.702-.833-.304-2.262.188-3.557 0h-.178c-2.185-.225-5.794-.337-7.474.534-1.312 3.255-.382 8.753-1.6 12.1.615.51 1.522.73 2.49.89h.178c.55.518 1.787.347 2.136 1.068 1.16-1.39 3.512-1.59 5.872-1.78 1.308.233 2.542.542 3.557 1.068h.356z"/>
                                    <path d="M313.43 427.92c1.276-4.874 1.04-13.81-1.6-17.08h-.355c-2.58-.874-5.474.26-8.008.533-3.132 3.253-2.42 13.515-1.423 17.26 1.68-.872 5.288-.76 7.474-.535h.178c1.295.187 2.723-.304 3.556 0-.03-.15.074-.166.178-.178"/>
                                    <path d="M311.475 410.84c3.144-6.385 4.183-20.21-1.246-24.908-1.147.313-.888-.776-1.422-1.068-.23 1.607-4.26.714-4.985.712-1.044.498-2.76.326-3.56 1.066-3.344 7.266.302 18.675 3.204 24.732 2.534-.273 5.43-1.407 8.008-.534"/>
                                    <path d="M310.228 385.932c2.45-7.87-2.807-14.147-4.804-22.597-1.745-7.383-2.134-14.627-3.024-22.42-.26-2.28-2.188-9.195-3.203-10.853-.544-.888-2.176-2.105-3.203-1.955-3.042.438-2.684 7.84-2.667 11.92.014 3.978-.266 9.127.712 12.81.912 3.445 2.88 6.3 3.2 9.61.723 7.46 1.56 15.13 1.957 22.595-.076.37.123.47.178.712-.05.404.042.667.355.71.03.208.326.152.534.178.8-.74 2.515-.567 3.56-1.065.725 0 4.754.894 4.984-.712.534.292.275 1.38 1.42 1.067"/>
                                </g>
                            </g>
                            <g>
                                <g class="upper-tier" fill="#90c84b">
                                    <path d="M307.56 461.372c5.892.475 11.014-3.2 10.318-8.72-.308.015-.552-.04-.712-.177h-.533c-.02 5.26-3.813 8.283-9.073 8.897"/>
                                    <path d="M307.56 461.372c5.26-.614 9.052-3.637 9.073-8.897-1.953-.835-4.816-.757-7.115-1.246-.72-.23-1.517-.38-2.492-.357-.152.033-.168-.07-.178-.178-.595.15-.977-.03-1.6.356-.248.11-.027.687-.357.713-.38 2.29-.084 5.25-.177 7.83.088 1.096 1.158 1.212 1.957 1.6.415-.056.684.03.89.18"/>
                                    <path d="M304.89 451.763c.33-.026.11-.603.357-.712.472-.457-.342-.253-.356-.71-2.52-.006-5.297-.5-7.473.177h-.178c-.428-.073-.388.325-.89.178-2.207 6.19 4.396 11.275 10.32 10.5-.8-.39-1.87-.506-1.957-1.602.093-2.58-.202-5.54.178-7.83"/>
                                </g>
                            </g>
                            <g>
                                <g class="lower-tier" fill="#d8e037">
                                    <path d="M317.878 452.653c2.843-3.087.408-9.75-2.67-10.853-.103.01-.208.026-.177.178 2.18 1.832 3.415 6.924 2.136 10.497.16.137.403.192.712.178"/>
                                    <path d="M317.166 452.475c1.28-3.573.043-8.665-2.135-10.497h-.355c-1.015-.526-2.25-.835-3.557-1.067-2.36.19-4.71.39-5.87 1.78-.01.107-.028.21-.18.18.03.205-.04.314-.177.352-.037 2.23-.46 4.98 0 7.118.015.458.83.254.357.712.623-.387 1.005-.207 1.6-.356.01.11.027.21.178.177.976-.023 1.773.126 2.493.356 2.298.488 5.162.41 7.115 1.245h.533z"/>
                                    <path d="M305.068 442.868c.152.03.168-.07.178-.178-.35-.72-1.585-.55-2.136-1.068h-.177c-.97-.16-1.875-.38-2.49-.89-3.058 1.248-6.707 6.468-4.094 9.963.502.147.46-.25.888-.178h.178c2.176-.678 4.954-.183 7.474-.178-.46-2.14-.038-4.89 0-7.118.137-.04.206-.148.178-.354"/>
                                </g>
                            </g>
                        </g>
                    </g>
                </g>
                <g>
                    <path d="M304.89 443.222c-.037 2.23-.46 4.98 0 7.118" fill="none" stroke="#373535" stroke-width=".2" stroke-linecap="round" stroke-linejoin="round"/>
                </g>
                <g>
                    <path d="M305.068 442.868c.028.206-.04.315-.178.354" fill="none" stroke="#373535" stroke-width=".2" stroke-linecap="round" stroke-linejoin="round"/>
                </g>
                <g>
                    <path d="M311.118 440.91c-2.36.19-4.71.39-5.872 1.78" fill="none" stroke="#373535" stroke-width=".2" stroke-linecap="round" stroke-linejoin="round"/>
                </g>
                <g>
                    <path d="M314.675 441.978c-1.015-.526-2.25-.835-3.557-1.067" fill="none" stroke="#373535" stroke-width=".2" stroke-linecap="round" stroke-linejoin="round"/>
                </g>
                <g>
                    <path d="M307.025 450.873c.976-.023 1.772.126 2.492.356" fill="none" stroke="#373535" stroke-width=".2" stroke-linecap="round" stroke-linejoin="round"/>
                </g>
                <g>
                    <path d="M299.374 385.754c-.05.403.043.667.356.71" fill="none" stroke="#373535" stroke-width=".2" stroke-linecap="round" stroke-linejoin="round"/>
                </g>
                <g>
                    <path d="M299.73 386.463c.028.21.325.152.534.18" fill="none" stroke="#373535" stroke-width=".2" stroke-linecap="round" stroke-linejoin="round"/>
                </g>
                <g>
                    <path d="M299.196 385.042c-.076.37.123.47.178.712" fill="none" stroke="#373535" stroke-width=".2" stroke-linecap="round" stroke-linejoin="round"/>
                </g>
                <g>
                    <path d="M302.043 428.632c-1.312 3.255-.382 8.752-1.602 12.1" fill="none" stroke="#373535" stroke-width=".2" stroke-linecap="round" stroke-linejoin="round"/>
                </g>
                <g>
                    <path d="M305.247 442.69c-.35-.72-1.585-.55-2.136-1.067" fill="none" stroke="#373535" stroke-width=".2" stroke-linecap="round" stroke-linejoin="round"/>
                </g>
                <g>
                    <path d="M305.068 442.868c.152.03.168-.07.178-.178" fill="none" stroke="#373535" stroke-width=".2" stroke-linecap="round" stroke-linejoin="round"/>
                </g>
                <g>
                    <path d="M300.442 440.732c-3.056 1.248-6.705 6.468-4.093 9.963" fill="none" stroke="#373535" stroke-width=".2" stroke-linecap="round" stroke-linejoin="round"/>
                </g>
                <g>
                    <path d="M302.933 441.623c-.968-.16-1.875-.38-2.49-.89" fill="none" stroke="#373535" stroke-width=".2" stroke-linecap="round" stroke-linejoin="round"/>
                </g>
                <g>
                    <path d="M303.11 441.623h-.177" fill="none" stroke="#373535" stroke-width=".2" stroke-linecap="round" stroke-linejoin="round"/>
                </g>
                <g>
                    <path d="M304.89 451.763c-.38 2.29-.084 5.25-.177 7.83" fill="none" stroke="#373535" stroke-width=".2" stroke-linecap="round" stroke-linejoin="round"/>
                </g>
                <g>
                    <path d="M307.025 450.873c-.15.033-.168-.07-.178-.178-.595.15-.977-.03-1.6.356" fill="none" stroke="#373535" stroke-width=".2" stroke-linecap="round" stroke-linejoin="round"/>
                </g>
                <g>
                    <path d="M316.633 452.475c-1.953-.835-4.816-.757-7.115-1.246" fill="none" stroke="#373535" stroke-width=".2" stroke-linecap="round" stroke-linejoin="round"/>
                </g>
                <g>
                    <path d="M306.67 461.194c.415-.057.684.028.89.178" fill="none" stroke="#373535" stroke-width=".2" stroke-linecap="round" stroke-linejoin="round"/>
                </g>
                <g>
                    <path d="M307.56 461.372c5.892.475 11.014-3.2 10.318-8.72" fill="none" stroke="#373535" stroke-width=".2" stroke-linecap="round" stroke-linejoin="round"/>
                </g>
                <g>
                    <path d="M316.633 452.475c-.02 5.26-3.813 8.283-9.073 8.897" fill="none" stroke="#373535" stroke-width=".2" stroke-linecap="round" stroke-linejoin="round"/>
                </g>
                <g>
                    <path d="M317.166 452.475h-.533" fill="none" stroke="#373535" stroke-width=".2" stroke-linecap="round" stroke-linejoin="round"/>
                </g>
                <g>
                    <path d="M317.166 452.475c.16.138.403.192.712.178" fill="none" stroke="#373535" stroke-width=".2" stroke-linecap="round" stroke-linejoin="round"/>
                </g>
                <g>
                    <path d="M315.03 441.978c2.18 1.832 3.415 6.923 2.136 10.497" fill="none" stroke="#373535" stroke-width=".2" stroke-linecap="round" stroke-linejoin="round"/>
                </g>
                <g>
                    <path d="M317.878 452.653c2.843-3.087.408-9.75-2.67-10.853" fill="none" stroke="#373535" stroke-width=".2" stroke-linecap="round" stroke-linejoin="round"/>
                </g>
                <g>
                    <path d="M314.675 441.978h.356" fill="none" stroke="#373535" stroke-width=".2" stroke-linecap="round" stroke-linejoin="round"/>
                </g>
                <g>
                    <path d="M315.21 441.8c-1.564-3.96-.032-9.766-1.958-13.702" fill="none" stroke="#373535" stroke-width=".2" stroke-linecap="round" stroke-linejoin="round"/>
                </g>
                <g>
                    <path d="M315.03 441.978c-.03-.152.074-.168.18-.178" fill="none" stroke="#373535" stroke-width=".2" stroke-linecap="round" stroke-linejoin="round"/>
                </g>
                <g>
                    <path d="M302.043 428.632c1.68-.87 5.29-.76 7.474-.534" fill="none" stroke="#373535" stroke-width=".2" stroke-linecap="round" stroke-linejoin="round"/>
                </g>
                <g>
                    <path d="M303.467 411.373c-3.132 3.253-2.42 13.515-1.423 17.26" fill="none" stroke="#373535" stroke-width=".2" stroke-linecap="round" stroke-linejoin="round"/>
                </g>
                <g>
                    <path d="M313.252 428.098c-.03-.15.073-.166.178-.178 1.276-4.873 1.04-13.808-1.6-17.08h-.355" fill="none" stroke="#373535" stroke-width=".2" stroke-linecap="round" stroke-linejoin="round"/>
                </g>
                <g>
                    <path d="M309.695 428.098c1.295.187 2.724-.304 3.557 0" fill="none" stroke="#373535" stroke-width=".2" stroke-linecap="round" stroke-linejoin="round"/>
                </g>
                <g>
                    <path d="M309.518 428.098h.178" fill="none" stroke="#373535" stroke-width=".2" stroke-linecap="round" stroke-linejoin="round"/>
                </g>
                <g>
                    <path d="M311.475 410.84c3.144-6.385 4.183-20.21-1.246-24.908" fill="none" stroke="#373535" stroke-width=".2" stroke-linecap="round" stroke-linejoin="round"/>
                </g>
                <g>
                    <path d="M303.467 411.373c2.534-.273 5.43-1.407 8.008-.534" fill="none" stroke="#373535" stroke-width=".2" stroke-linecap="round" stroke-linejoin="round"/>
                </g>
                <g>
                    <path d="M300.264 386.642c-3.345 7.267.3 18.675 3.203 24.732" fill="none" stroke="#373535" stroke-width=".2" stroke-linecap="round" stroke-linejoin="round"/>
                </g>
                <g>
                    <path d="M303.823 385.576c-1.044.498-2.76.325-3.56 1.065" fill="none" stroke="#373535" stroke-width=".2" stroke-linecap="round" stroke-linejoin="round"/>
                </g>
                <g>
                    <path d="M310.228 385.932c2.45-7.87-2.807-14.147-4.804-22.597-1.745-7.383-2.134-14.627-3.024-22.42-.26-2.28-2.188-9.195-3.203-10.853-.544-.888-2.176-2.105-3.203-1.955-3.042.438-2.684 7.84-2.667 11.92.014 3.978-.266 9.127.712 12.81.912 3.445 2.88 6.3 3.2 9.61.723 7.46 1.56 15.13 1.957 22.595" fill="none" stroke="#373535" stroke-width=".2" stroke-linecap="round" stroke-linejoin="round"/>
                </g>
                <g>
                    <path d="M303.823 385.576c.726.002 4.754.895 4.985-.712.534.292.275 1.38 1.42 1.067" fill="none" stroke="#373535" stroke-width=".2" stroke-linecap="round" stroke-linejoin="round"/>
                </g>
                <g>
                    <path d="M296.35 450.695c-2.208 6.19 4.395 11.275 10.32 10.5" fill="none" stroke="#373535" stroke-width=".2" stroke-linecap="round" stroke-linejoin="round"/>
                </g>
                <g>
                    <path d="M297.24 450.518c-.428-.074-.388.325-.89.178" fill="none" stroke="#373535" stroke-width=".2" stroke-linecap="round" stroke-linejoin="round"/>
                </g>
                <g>
                    <path d="M297.416 450.518h-.178" fill="none" stroke="#373535" stroke-width=".2" stroke-linecap="round" stroke-linejoin="round"/>
                </g>
                <g>
                    <path d="M304.89 450.34c-2.52-.006-5.297-.5-7.473.177" fill="none" stroke="#373535" stroke-width=".2" stroke-linecap="round" stroke-linejoin="round"/>
                </g>
                <g>
                    <path d="M305.247 451.05c.472-.457-.342-.253-.356-.71" fill="none" stroke="#373535" stroke-width=".2" stroke-linecap="round" stroke-linejoin="round"/>
                </g>
                <g>
                    <path d="M304.89 451.763c.33-.026.11-.603.357-.712" fill="none" stroke="#373535" stroke-width=".2" stroke-linecap="round" stroke-linejoin="round"/>
                </g>
                <g>
                    <path d="M304.89 451.23v.533" fill="none" stroke="#373535" stroke-width=".2" stroke-linecap="round" stroke-linejoin="round"/>
                </g>
                <g>
                    <path d="M306.67 461.194c-.8-.39-1.87-.505-1.958-1.602" fill="none" stroke="#373535" stroke-width=".2" stroke-linecap="round" stroke-linejoin="round"/>
                </g>
            </g>
        </g>
    </g>
</svg>
