<svg xmlns="http://www.w3.org/2000/svg" width="58.391" height="299.399" viewBox="0 0 58.39135 299" class="eight-wt">
    <g>
        <g>
            <g>
                <g>
                    <g>
                        <g>
                            <g>
                                <g class="suspensor" fill="#c59d72">
                                    <path d="M48.425 44.302c-.07.34.164.377.4.4-3.507 8.877-.073 21.892-4.39 30.72-1.866.68-5.07-.423-7.973 0h-.4c-4.898.503-12.99.755-16.756-1.198-2.942-7.298-.857-19.624-3.59-27.128 1.382-1.146 3.415-1.64 5.585-1.998h.4c1.233-1.16 4.005-.776 4.787-2.392 2.6 3.116 7.874 3.562 13.165 3.988 2.933-.52 5.7-1.213 7.975-2.392h.798z"/>
                                    <path d="M44.834 75.82c2.86 10.927 2.33 30.96-3.587 38.295h-.796c-5.78 1.957-12.272-.586-17.953-1.198-7.022-7.293-5.426-30.3-3.19-38.694 3.764 1.952 11.855 1.7 16.756 1.197h.4c2.903-.42 6.104.68 7.972 0-.07.336.166.372.4.4"/>
                                    <path d="M40.45 114.114c7.05 14.315 9.38 45.31-2.793 55.844-2.57-.702-1.988 1.74-3.185 2.394-.516-3.603-9.55-1.6-11.177-1.596-2.34-1.117-6.185-.73-7.98-2.39-7.5-16.29.676-41.87 7.182-55.45 5.68.613 12.172 3.155 17.954 1.198"/>
                                    <path d="M37.657 169.958c5.495 17.645-6.293 31.718-10.77 50.662-3.915 16.553-4.787 32.794-6.783 50.264C19.52 276 15.2 291.5 12.924 295.22c-1.22 1.99-4.88 4.718-7.182 4.382-6.82-.982-6.017-17.58-5.98-26.725.032-8.92-.596-20.463 1.597-28.718 2.046-7.727 6.456-14.13 7.173-21.546 1.624-16.73 3.5-33.922 4.39-50.66-.17-.83.276-1.054.4-1.597-.113-.906.093-1.495.795-1.59.065-.468.73-.343 1.197-.4 1.794 1.658 5.64 1.27 7.98 2.387 1.627-.002 10.66-2.004 11.176 1.596 1.198-.654.618-3.094 3.187-2.392"/>
                                </g>
                            </g>
                            <g>
                                <g class="upper-tier" fill="#90c84b">
                                    <path d="M31.674.82C44.884-.243 56.367 8 54.807 20.37c-.69-.032-1.238.09-1.596.398h-1.194C51.97 8.975 43.466 2.198 31.674.82"/>
                                    <path d="M31.674.82C43.467 2.2 51.97 8.976 52.016 20.77c-4.38 1.872-10.798 1.697-15.952 2.794-1.614.515-3.4.85-5.587.798-.34-.074-.377.154-.4.4-1.333-.337-2.19.068-3.59-.8-.553-.244-.057-1.537-.797-1.596-.852-5.134-.19-11.772-.4-17.554.198-2.458 2.597-2.718 4.39-3.59.93.128 1.532-.065 1.994-.4"/>
                                    <path d="M25.69 22.364c.74.058.244 1.352.798 1.596 1.058 1.027-.767.57-.798 1.597-5.65.01-11.878 1.12-16.757-.4h-.4c-.956.164-.866-.728-1.994-.4C1.592 10.88 16.396-.52 29.68 1.22c-1.795.872-4.192 1.132-4.39 3.59.21 5.784-.452 12.42.4 17.554"/>
                                </g>
                            </g>
                            <g>
                                <g class="lower-tier" fill="#d8e037">
                                    <path d="M54.807 20.37c6.374 6.92.915 21.858-5.984 24.33-.233-.02-.468-.057-.4-.398 4.884-4.107 7.655-15.523 4.788-23.534.357-.307.904-.43 1.597-.4"/>
                                    <path d="M53.21 20.768c2.87 8.01.097 19.427-4.786 23.534h-.798c-2.275 1.18-5.042 1.872-7.975 2.392-5.29-.425-10.56-.872-13.16-3.988-.024-.24-.062-.47-.403-.4.065-.463-.09-.708-.397-.793-.085-5-1.033-11.165 0-15.958.032-1.027 1.857-.57.8-1.597 1.395.868 2.252.464 3.588.8.02-.246.058-.475.397-.398 2.188.05 3.975-.283 5.59-.798 5.15-1.097 11.572-.922 15.95-2.794h1.196z"/>
                                    <path d="M26.088 42.306c.34-.07.377.16.4.4-.783 1.616-3.554 1.234-4.79 2.394H21.3c-2.17.356-4.202.85-5.583 1.995C8.863 44.297.682 32.595 6.54 24.758c1.128-.33 1.036.563 1.993.4h.4c4.878 1.52 11.106.41 16.756.398-1.032 4.793-.086 10.96 0 15.956.306.088.46.332.398.794"/>
                                </g>
                            </g>
                        </g>
                    </g>
                </g>
                <g>
                    <path d="M25.69 41.514c-.085-5-1.03-11.165 0-15.96" fill="none" stroke="#373535" stroke-width=".4484" stroke-linecap="round" stroke-linejoin="round"/>
                </g>
                <g>
                    <path d="M26.088 42.306c.063-.462-.092-.706-.4-.794" fill="none" stroke="#373535" stroke-width=".4484" stroke-linecap="round" stroke-linejoin="round"/>
                </g>
                <g>
                    <path d="M39.652 46.695c-5.29-.426-10.562-.872-13.165-3.99" fill="none" stroke="#373535" stroke-width=".4484" stroke-linecap="round" stroke-linejoin="round"/>
                </g>
                <g>
                    <path d="M47.626 44.302c-2.276 1.18-5.042 1.872-7.975 2.392" fill="none" stroke="#373535" stroke-width=".4484" stroke-linecap="round" stroke-linejoin="round"/>
                </g>
                <g>
                    <path d="M30.476 24.36c2.188.052 3.973-.282 5.587-.798" fill="none" stroke="#373535" stroke-width=".4484" stroke-linecap="round" stroke-linejoin="round"/>
                </g>
                <g>
                    <path d="M13.322 170.357c-.112-.904.096-1.495.798-1.59" fill="none" stroke="#373535" stroke-width=".4484" stroke-linecap="round" stroke-linejoin="round"/>
                </g>
                <g>
                    <path d="M14.12 168.767c.063-.47.73-.34 1.197-.4" fill="none" stroke="#373535" stroke-width=".4484" stroke-linecap="round" stroke-linejoin="round"/>
                </g>
                <g>
                    <path d="M12.923 171.953c-.17-.83.276-1.054.4-1.596" fill="none" stroke="#373535" stroke-width=".4484" stroke-linecap="round" stroke-linejoin="round"/>
                </g>
                <g>
                    <path d="M19.307 74.223c-2.942-7.298-.856-19.622-3.592-27.128" fill="none" stroke="#373535" stroke-width=".4484" stroke-linecap="round" stroke-linejoin="round"/>
                </g>
                <g>
                    <path d="M26.488 42.706c-.782 1.616-3.554 1.233-4.79 2.392" fill="none" stroke="#373535" stroke-width=".4484" stroke-linecap="round" stroke-linejoin="round"/>
                </g>
                <g>
                    <path d="M26.088 42.306c.34-.07.377.16.4.4" fill="none" stroke="#373535" stroke-width=".4484" stroke-linecap="round" stroke-linejoin="round"/>
                </g>
                <g>
                    <path d="M15.716 47.095C8.864 44.297.683 32.595 6.54 24.758" fill="none" stroke="#373535" stroke-width=".4484" stroke-linecap="round" stroke-linejoin="round"/>
                </g>
                <g>
                    <path d="M21.3 45.1c-2.17.355-4.203.85-5.584 1.994" fill="none" stroke="#373535" stroke-width=".4484" stroke-linecap="round" stroke-linejoin="round"/>
                </g>
                <g>
                    <path d="M21.7 45.1h-.4" fill="none" stroke="#373535" stroke-width=".4484" stroke-linecap="round" stroke-linejoin="round"/>
                </g>
                <g>
                    <path d="M25.69 22.364c-.852-5.134-.19-11.77-.4-17.555" fill="none" stroke="#373535" stroke-width=".4484" stroke-linecap="round" stroke-linejoin="round"/>
                </g>
                <g>
                    <path d="M30.476 24.36c-.34-.074-.377.155-.4.4-1.333-.337-2.19.066-3.59-.8" fill="none" stroke="#373535" stroke-width=".4484" stroke-linecap="round" stroke-linejoin="round"/>
                </g>
                <g>
                    <path d="M52.016 20.77c-4.38 1.87-10.797 1.696-15.952 2.793" fill="none" stroke="#373535" stroke-width=".4484" stroke-linecap="round" stroke-linejoin="round"/>
                </g>
                <g>
                    <path d="M29.68 1.22c.93.127 1.533-.064 1.994-.4" fill="none" stroke="#373535" stroke-width=".4484" stroke-linecap="round" stroke-linejoin="round"/>
                </g>
                <g>
                    <path d="M31.674.82C44.884-.243 56.367 8 54.807 20.37" fill="none" stroke="#373535" stroke-width=".4484" stroke-linecap="round" stroke-linejoin="round"/>
                </g>
                <g>
                    <path d="M52.016 20.77C51.97 8.975 43.466 2.2 31.674.82" fill="none" stroke="#373535" stroke-width=".4484" stroke-linecap="round" stroke-linejoin="round"/>
                </g>
                <g>
                    <path d="M53.21 20.77h-1.194" fill="none" stroke="#373535" stroke-width=".4484" stroke-linecap="round" stroke-linejoin="round"/>
                </g>
                <g>
                    <path d="M53.21 20.77c.357-.31.905-.43 1.597-.4" fill="none" stroke="#373535" stroke-width=".4484" stroke-linecap="round" stroke-linejoin="round"/>
                </g>
                <g>
                    <path d="M48.425 44.302c4.883-4.107 7.654-15.52 4.787-23.534" fill="none" stroke="#373535" stroke-width=".4484" stroke-linecap="round" stroke-linejoin="round"/>
                </g>
                <g>
                    <path d="M54.807 20.37c6.374 6.92.915 21.858-5.984 24.33" fill="none" stroke="#373535" stroke-width=".4484" stroke-linecap="round" stroke-linejoin="round"/>
                </g>
                <g>
                    <path d="M47.626 44.302h.798" fill="none" stroke="#373535" stroke-width=".4484" stroke-linecap="round" stroke-linejoin="round"/>
                </g>
                <g>
                    <path d="M48.824 44.7c-3.504 8.88-.07 21.896-4.388 30.72" fill="none" stroke="#373535" stroke-width=".4484" stroke-linecap="round" stroke-linejoin="round"/>
                </g>
                <g>
                    <path d="M48.425 44.302c-.07.34.164.377.4.4" fill="none" stroke="#373535" stroke-width=".4484" stroke-linecap="round" stroke-linejoin="round"/>
                </g>
                <g>
                    <path d="M19.307 74.223c3.767 1.953 11.858 1.702 16.757 1.197" fill="none" stroke="#373535" stroke-width=".4484" stroke-linecap="round" stroke-linejoin="round"/>
                </g>
                <g>
                    <path d="M22.498 112.918c-7.022-7.293-5.426-30.3-3.19-38.695" fill="none" stroke="#373535" stroke-width=".4484" stroke-linecap="round" stroke-linejoin="round"/>
                </g>
                <g>
                    <path d="M44.436 75.42c-.07.335.164.373.4.4 2.86 10.925 2.33 30.958-3.588 38.293h-.796" fill="none" stroke="#373535" stroke-width=".4484" stroke-linecap="round" stroke-linejoin="round"/>
                </g>
                <g>
                    <path d="M36.462 75.42c2.903-.418 6.107.683 7.975 0" fill="none" stroke="#373535" stroke-width=".4484" stroke-linecap="round" stroke-linejoin="round"/>
                </g>
                <g>
                    <path d="M36.063 75.42h.4" fill="none" stroke="#373535" stroke-width=".4484" stroke-linecap="round" stroke-linejoin="round"/>
                </g>
                <g>
                    <path d="M40.45 114.114c7.05 14.315 9.38 45.31-2.793 55.844" fill="none" stroke="#373535" stroke-width=".4484" stroke-linecap="round" stroke-linejoin="round"/>
                </g>
                <g>
                    <path d="M22.498 112.918c5.68.612 12.172 3.154 17.954 1.197" fill="none" stroke="#373535" stroke-width=".4484" stroke-linecap="round" stroke-linejoin="round"/>
                </g>
                <g>
                    <path d="M15.316 168.367c-7.5-16.293.675-41.87 7.18-55.45" fill="none" stroke="#373535" stroke-width=".4484" stroke-linecap="round" stroke-linejoin="round"/>
                </g>
                <g>
                    <path d="M23.296 170.755c-2.34-1.117-6.186-.73-7.98-2.388" fill="none" stroke="#373535" stroke-width=".4484" stroke-linecap="round" stroke-linejoin="round"/>
                </g>
                <g>
                    <path d="M37.657 169.958c5.495 17.645-6.293 31.718-10.77 50.662-3.915 16.553-4.787 32.794-6.783 50.264C19.52 276 15.2 291.5 12.924 295.22c-1.22 1.99-4.88 4.718-7.182 4.382-6.82-.982-6.017-17.58-5.98-26.725.032-8.92-.596-20.463 1.597-28.718 2.046-7.727 6.456-14.13 7.173-21.546 1.624-16.73 3.5-33.922 4.39-50.66" fill="none" stroke="#373535" stroke-width=".4484" stroke-linecap="round" stroke-linejoin="round"/>
                </g>
                <g>
                    <path d="M23.296 170.755c1.628-.004 10.658-2.007 11.176 1.596 1.198-.653.617-3.095 3.186-2.39" fill="none" stroke="#373535" stroke-width=".4484" stroke-linecap="round" stroke-linejoin="round"/>
                </g>
                <g>
                    <path d="M6.54 24.758C1.592 10.88 16.396-.522 29.68 1.218" fill="none" stroke="#373535" stroke-width=".4484" stroke-linecap="round" stroke-linejoin="round"/>
                </g>
                <g>
                    <path d="M8.534 25.157c-.957.166-.868-.73-1.995-.4" fill="none" stroke="#373535" stroke-width=".4484" stroke-linecap="round" stroke-linejoin="round"/>
                </g>
                <g>
                    <path d="M8.933 25.157h-.4" fill="none" stroke="#373535" stroke-width=".4484" stroke-linecap="round" stroke-linejoin="round"/>
                </g>
                <g>
                    <path d="M25.69 25.556c-5.65.01-11.878 1.12-16.757-.4" fill="none" stroke="#373535" stroke-width=".4484" stroke-linecap="round" stroke-linejoin="round"/>
                </g>
                <g>
                    <path d="M26.488 23.96c1.058 1.027-.767.57-.798 1.596" fill="none" stroke="#373535" stroke-width=".4484" stroke-linecap="round" stroke-linejoin="round"/>
                </g>
                <g>
                    <path d="M25.69 22.364c.74.058.244 1.352.798 1.596" fill="none" stroke="#373535" stroke-width=".4484" stroke-linecap="round" stroke-linejoin="round"/>
                </g>
                <g>
                    <path d="M25.69 23.562v-1.197" fill="none" stroke="#373535" stroke-width=".4484" stroke-linecap="round" stroke-linejoin="round"/>
                </g>
                <g>
                    <path d="M29.68 1.22c-1.795.87-4.194 1.13-4.39 3.59" fill="none" stroke="#373535" stroke-width=".4484" stroke-linecap="round" stroke-linejoin="round"/>
                </g>
            </g>
        </g>
    </g>
</svg>
