<svg xmlns="http://www.w3.org/2000/svg" height="300.412" width="114.098" viewBox="0 0 114.098 300.411" class="eg">
    <g>
        <g>
            <g>
                <g>
                    <g class="hypophysis" fill="#1baaa1">
                        <path d="M81.15 107.45h5.94c-1.626 4.308-3.88 8.002-6.683 11.14-2.94 1.255-4.815 3.596-8.897 3.71-7.7-2.445-14.36-5.94-25.24-5.195-5.52-.57-8.122 1.775-12.615 2.23-3.37-3.89-8.772-9.425-8.163-14.848 1.916-2.536 4.14-4.76 6.676-6.683 3.97-.726 7.354-2.048 9.65-4.452 4.11.98 9.98-2.265 13.366-4.455 1.557 2.923 6.37 4.78 9.65 3.712 2.297 3.274 7.86 6.813 11.88 5.938.33 4.126 3.043 5.87 4.447 8.91"/>
                    </g>
                    <g>
                        <g class="suspensor" fill="#c59d72">
                            <path d="M80.404 118.59c2.023 4.226.024 10.238-1.47 13.36h-.744c-1.197 4.74-6.683 5.2-12.626 5.2-6.734-1.176-13.614-2.214-20.78-2.968-3.073-.647-7.05-.38-9.652-1.487-2.94-2.63-2.36-8.87-1.487-13.362 4.497-.457 7.098-2.802 12.625-2.228 10.875-.74 17.537 2.754 25.237 5.2 4.082-.12 5.95-2.457 8.9-3.712"/>
                            <path d="M78.933 204.697c3.127 14.61 1.85 36.078-5.94 44.542-2.11 1.113-3.433 3-6.68 2.96-11.83 1.937-20.015-2.034-28.953-3.7-4.462-9.866-5.7-32.378-1.488-43.8 10.23 5.515 27.534 6.248 38.603 2.228 1.29-.94 1.944-2.504 4.462-2.227"/>
                            <path d="M78.933 131.95c3.46 8.524 3.722 28.85-.743 36.37-10.7 7.125-30.716 3.583-42.314-.74-4.2-7.61-4.227-26.36-.744-34.885 2.6 1.107 6.583.84 9.65 1.487 7.168.747 14.044 1.79 20.79 2.968 5.938 0 11.42-.457 12.618-5.2h.743z"/>
                            <path d="M78.19 168.316c3.79 8.24 2.78 26.997.743 36.38-2.514-.275-3.168 1.288-4.455 2.226-11.075 4.02-28.377 3.286-38.602-2.225-3.597-9.04-4.877-28.422 0-37.122 11.598 4.324 31.615 7.87 42.314.74"/>
                            <path d="M72.99 249.235c3.515 13.145 5.016 37.012 0 49.74-15.343 2.827-36.32.9-45.284-8.913-.952-15.26 5.79-28.696 9.65-41.563 8.938 1.66 17.122 5.63 28.952 3.7 3.252.034 4.576-1.85 6.683-2.96"/>
                        </g>
                    </g>
                    <g>
                        <g class="vascular-initials" fill="#eabd92">
                            <path d="M75.962 56.977c-2.604 12.985-5.79 25.39-11.138 35.628-3.275 1.065-8.094-.796-9.65-3.715-1.06-9.737-1.834-20.778-2.228-34.14 1.59-1.868 4.04-2.882 5.2-5.196 6.95 1.464 12.52 4.296 17.813 7.423"/>
                            <path d="M52.95 54.75c.397 13.362 1.17 24.403 2.227 34.14-3.383 2.19-9.256 5.43-13.362 4.455-4.96-11.864-8.04-25.607-14.106-36.368 5.343-3.888 16.187.312 19.3-4.455 1.16 1.567 2.754 2.698 5.94 2.228"/>
                        </g>
                    </g>
                    <g>
                        <g class="inner-upper" fill="#22984f">
                            <path d="M93.03 56.237c-2.467.75-2.33 4.11-5.94 3.712-2.923-1.298-7.9-4.446-11.128-2.976-5.292-3.124-10.868-5.95-17.814-7.42-2.56-3.96-.07-8.69-.743-14.85V31.73c.484-3.718-.97-9.38.743-11.875C67.633 23.245 72.63 31.11 81.894 34.7v.742c2.574 8.076 8.094 13.196 11.138 20.788"/>
                            <path d="M56.66 17.63c.18 1.06 1.22 1.257 1.488 2.23-1.715 2.49-.26 8.152-.743 11.877v2.975c.674 6.157-1.81 10.885.743 14.846-1.155 2.317-3.597 3.32-5.195 5.195-3.19.467-4.78-.657-5.94-2.227 0-.74-.604-.88-.743-1.488-2.795-1.902-4.905-4.49-6.676-7.42-.733-6.177-3.812-13.87-4.455-19.3h1.486c7.067-1.834 15.462-2.36 20.042-6.683"/>
                            <path d="M46.263 51.042c.14.602.747.74.747 1.487-3.12 4.76-13.957.56-19.3 4.45-3.823-1.182-5.95-1.756-9.65 0-2.724 0-2.845-2.607-4.457-3.714 3.176-6.72 6.998-12.798 10.395-19.3-.786-3.26 2.51-2.44 2.224-5.2 2.366-.606 1.037-4.898 4.455-4.455-.138-.622.287-.69.744-.74-.138 1.616 2.63.34 3.71.744.642 5.43 3.72 13.127 4.45 19.3 1.77 2.934 3.875 5.525 6.676 7.428"/>
                        </g>
                    </g>
                    <g>
                        <g class="ground-initials" fill="#f89734">
                            <path d="M87.09 59.95c.96 11.44-7.555 26.01-10.384 38.594-4.013.872-9.582-2.663-11.875-5.94 5.345-10.238 8.535-22.638 11.14-35.627 3.223-1.473 8.204 1.675 11.123 2.975"/>
                            <path d="M41.812 93.35c-2.297 2.403-5.684 3.728-9.65 4.45-7.652-10.653-11.267-25.354-14.107-40.816 3.7-1.757 5.83-1.176 9.65 0 6.068 10.758 9.146 24.49 14.107 36.365"/>
                        </g>
                    </g>
                    <g>
                        <g class="protoderm" fill="#d8e037">
                            <path d="M109.362 49.554c7.748 10.965 3.91 33.252-3.71 41.564 4.22-9.253 9.656-27.486 1.48-36.368 1.307-1.166.968-3.978 2.227-5.196"/>
                            <path d="M107.135 35.45c1.574 4.046 3.898 9.016 2.227 14.104-1.255 1.218-.92 4.03-2.227 5.196-2.712 3.03-11.39.436-14.106 1.487-3.045-7.596-8.562-12.712-11.14-20.788v-.745c.053-.95.963-1.03.745-2.228 2.912-2.535 3.97-6.918 6.682-9.65.173-1.062 1.228-1.246 1.488-2.228 8.647 1.75 12.124 8.657 16.326 14.845"/>
                            <path d="M107.135 54.75c8.177 8.88 2.743 27.118-1.488 36.368-3.818 7.807-10.515 12.74-18.557 16.333h-5.94c-1.404-3.043-4.115-4.78-4.444-8.91C79.542 85.96 88.05 71.39 87.093 59.946c3.615.398 3.473-2.957 5.94-3.708 2.715-1.05 11.393 1.543 14.105-1.487"/>
                            <path d="M107.135 35.45c-4.206-6.193-7.68-13.097-16.334-14.847-.255.978-1.306 1.165-1.486 2.224-2.708 2.732-3.77 7.118-6.676 9.65.215 1.2-.692 1.28-.744 2.228-9.263-3.597-14.26-11.463-23.746-14.85-.266-.968-1.304-1.17-1.487-2.227V6.5c2.588-1.377 5.48-2.456 9.652-2.227 22.137 1.85 34.61 13.386 40.826 31.172"/>
                            <path d="M66.312 4.28c-4.18-.225-7.067.85-9.65 2.227v11.128c-4.584 4.323-12.98 4.85-20.046 6.676h-1.48c-1.08-.4-3.84.876-3.712-.736-1.736-4.452-5.48-6.884-5.202-13.362v-.74c7.264-7.87 28.2-10.883 40.09-5.19"/>
                            <path d="M17.31 18.375c1.845-3.85 4.913-6.468 8.912-8.163-.277 6.468 3.466 8.907 5.2 13.358-.46.052-.887.12-.748.744-3.415-.45-2.09 3.85-4.456 4.455.287 2.76-3.01 1.936-2.224 5.195-3.397 6.503-7.22 12.583-10.394 19.3-3.044 2.27-7.288-.6-11.138 0-4.127-15.004 3.604-30.376 14.85-34.89"/>
                            <path d="M32.16 97.8c-2.535 1.924-4.76 4.15-6.682 6.683-21.992-1.6-28.71-31.466-23.01-51.217 3.85-.602 8.095 2.27 11.14 0 1.61 1.107 1.728 3.715 4.45 3.715 2.837 15.463 6.455 30.163 14.106 40.817"/>
                        </g>
                    </g>
                </g>
            </g>
        </g>
        <g>
            <path d="M87.235 59.82c-2.92-1.3-7.9-4.443-11.125-2.968" fill="none" stroke="#373535" stroke-width=".692" stroke-linecap="round" stroke-linejoin="round"/>
        </g>
        <g>
            <path d="M58.287 49.424c6.946 1.466 12.523 4.298 17.823 7.425" fill="none" stroke="#373535" stroke-width=".692" stroke-linecap="round" stroke-linejoin="round"/>
        </g>
        <g>
            <path d="M76.107 56.852c-2.602 12.985-5.79 25.392-11.14 35.63" fill="none" stroke="#373535" stroke-width=".692" stroke-linecap="round" stroke-linejoin="round"/>
        </g>
        <g>
            <path d="M57.545 34.58c.67 6.156-1.813 10.89.742 14.846" fill="none" stroke="#373535" stroke-width=".692" stroke-linecap="round" stroke-linejoin="round"/>
        </g>
        <g>
            <path d="M58.287 49.424c-1.157 2.32-3.604 3.33-5.195 5.197" fill="none" stroke="#373535" stroke-width=".692" stroke-linecap="round" stroke-linejoin="round"/>
        </g>
        <g>
            <path d="M82.038 35.32v-.747" fill="none" stroke="#373535" stroke-width=".692" stroke-linecap="round" stroke-linejoin="round"/>
        </g>
        <g>
            <path d="M35.27 132.577c-2.943-2.63-2.353-8.87-1.484-13.367" fill="none" stroke="#373535" stroke-width=".692" stroke-linecap="round" stroke-linejoin="round"/>
        </g>
        <g>
            <path d="M65.712 137.033c-6.742-1.18-13.625-2.22-20.79-2.97" fill="none" stroke="#373535" stroke-width=".692" stroke-linecap="round" stroke-linejoin="round"/>
        </g>
        <g>
            <path d="M80.554 118.468c2.02 4.226.02 10.24-1.475 13.367" fill="none" stroke="#373535" stroke-width=".692" stroke-linecap="round" stroke-linejoin="round"/>
        </g>
        <g>
            <path d="M55.314 88.77c1.556 2.922 6.38 4.78 9.654 3.708" fill="none" stroke="#373535" stroke-width=".692" stroke-linecap="round" stroke-linejoin="round"/>
        </g>
        <g>
            <path d="M32.3 97.678c3.968-.72 7.353-2.048 9.65-4.455" fill="none" stroke="#373535" stroke-width=".692" stroke-linecap="round" stroke-linejoin="round"/>
        </g>
        <g>
            <path d="M33.783 119.213c-3.36-3.894-8.773-9.43-8.164-14.854" fill="none" stroke="#373535" stroke-width=".692" stroke-linecap="round" stroke-linejoin="round"/>
        </g>
        <g>
            <path d="M46.403 116.985c-5.52-.576-8.123 1.77-12.62 2.228" fill="none" stroke="#373535" stroke-width=".692" stroke-linecap="round" stroke-linejoin="round"/>
        </g>
        <g>
            <path d="M80.554 118.468c-2.953 1.257-4.823 3.598-8.903 3.71" fill="none" stroke="#373535" stroke-width=".692" stroke-linecap="round" stroke-linejoin="round"/>
        </g>
        <g>
            <path d="M87.235 107.334c-1.622 4.304-3.885 8-6.68 11.14" fill="none" stroke="#373535" stroke-width=".692" stroke-linecap="round" stroke-linejoin="round"/>
        </g>
        <g>
            <path d="M64.973 92.48c2.297 3.278 7.86 6.81 11.878 5.94" fill="none" stroke="#373535" stroke-width=".692" stroke-linecap="round" stroke-linejoin="round"/>
        </g>
        <g>
            <path d="M2.6 53.14c-4.123-15.008 3.604-30.38 14.85-34.898" fill="none" stroke="#373535" stroke-width=".692" stroke-linecap="round" stroke-linejoin="round"/>
        </g>
        <g>
            <path d="M17.455 18.242c1.837-3.847 4.906-6.465 8.905-8.165" fill="none" stroke="#373535" stroke-width=".692" stroke-linecap="round" stroke-linejoin="round"/>
        </g>
        <g>
            <path d="M27.844 289.964c-.95-15.263 5.79-28.7 9.66-41.568" fill="none" stroke="#373535" stroke-width=".692" stroke-linecap="round" stroke-linejoin="round"/>
        </g>
        <g>
            <path d="M73.137 298.876c-15.346 2.828-36.324.9-45.29-8.912" fill="none" stroke="#373535" stroke-width=".692" stroke-linecap="round" stroke-linejoin="round"/>
        </g>
        <g>
            <path d="M73.137 249.135c3.515 13.14 5.02 37.016 0 49.74" fill="none" stroke="#373535" stroke-width=".692" stroke-linecap="round" stroke-linejoin="round"/>
        </g>
        <g>
            <path d="M37.497 248.396c-4.467-9.872-5.7-32.38-1.483-43.81" fill="none" stroke="#373535" stroke-width=".692" stroke-linecap="round" stroke-linejoin="round"/>
        </g>
        <g>
            <path d="M66.454 252.096c-11.83 1.937-20.015-2.037-28.954-3.697" fill="none" stroke="#373535" stroke-width=".692" stroke-linecap="round" stroke-linejoin="round"/>
        </g>
        <g>
            <path d="M73.137 249.135c-2.103 1.107-3.43 3-6.683 2.96" fill="none" stroke="#373535" stroke-width=".692" stroke-linecap="round" stroke-linejoin="round"/>
        </g>
        <g>
            <path d="M79.077 204.59c3.127 14.61 1.854 36.087-5.94 44.545" fill="none" stroke="#373535" stroke-width=".692" stroke-linecap="round" stroke-linejoin="round"/>
        </g>
        <g>
            <path d="M79.077 131.833c3.46 8.524 3.722 28.848-.748 36.37" fill="none" stroke="#373535" stroke-width=".692" stroke-linecap="round" stroke-linejoin="round"/>
        </g>
        <g>
            <path d="M65.712 137.033c5.94 0 11.425-.457 12.62-5.203h.747" fill="none" stroke="#373535" stroke-width=".692" stroke-linecap="round" stroke-linejoin="round"/>
        </g>
        <g>
            <path d="M35.27 132.577c2.6 1.107 6.586.84 9.65 1.486" fill="none" stroke="#373535" stroke-width=".692" stroke-linecap="round" stroke-linejoin="round"/>
        </g>
        <g>
            <path d="M36.014 167.465c-4.196-7.61-4.226-26.364-.748-34.888" fill="none" stroke="#373535" stroke-width=".692" stroke-linecap="round" stroke-linejoin="round"/>
        </g>
        <g>
            <path d="M46.403 116.985c10.882-.747 17.546 2.75 25.245 5.194" fill="none" stroke="#373535" stroke-width=".692" stroke-linecap="round" stroke-linejoin="round"/>
        </g>
        <g>
            <path d="M87.235 59.82c3.612.4 3.474-2.96 5.94-3.707" fill="none" stroke="#373535" stroke-width=".692" stroke-linecap="round" stroke-linejoin="round"/>
        </g>
        <g>
            <path d="M76.846 98.42c2.834-12.58 11.347-27.158 10.39-38.6" fill="none" stroke="#373535" stroke-width=".692" stroke-linecap="round" stroke-linejoin="round"/>
        </g>
        <g>
            <path d="M87.235 107.334h-5.94c-1.405-3.044-4.117-4.787-4.444-8.91" fill="none" stroke="#373535" stroke-width=".692" stroke-linecap="round" stroke-linejoin="round"/>
        </g>
        <g>
            <path d="M105.794 90.992c-3.82 7.813-10.522 12.747-18.562 16.342" fill="none" stroke="#373535" stroke-width=".692" stroke-linecap="round" stroke-linejoin="round"/>
        </g>
        <g>
            <path d="M41.953 93.225c-4.96-11.872-8.04-25.61-14.11-36.37" fill="none" stroke="#373535" stroke-width=".692" stroke-linecap="round" stroke-linejoin="round"/>
        </g>
        <g>
            <path d="M55.314 88.77c-3.384 2.186-9.254 5.435-13.36 4.455" fill="none" stroke="#373535" stroke-width=".692" stroke-linecap="round" stroke-linejoin="round"/>
        </g>
        <g>
            <path d="M53.09 54.627c.398 13.36 1.17 24.404 2.227 34.14" fill="none" stroke="#373535" stroke-width=".692" stroke-linecap="round" stroke-linejoin="round"/>
        </g>
        <g>
            <path d="M47.15 52.4c1.163 1.562 2.75 2.692 5.94 2.227" fill="none" stroke="#373535" stroke-width=".692" stroke-linecap="round" stroke-linejoin="round"/>
        </g>
        <g>
            <path d="M109.508 49.424c7.75 10.973 3.908 33.257-3.708 41.568" fill="none" stroke="#373535" stroke-width=".692" stroke-linecap="round" stroke-linejoin="round"/>
        </g>
        <g>
            <path d="M105.794 90.992c4.23-9.252 9.665-27.487 1.487-36.37" fill="none" stroke="#373535" stroke-width=".692" stroke-linecap="round" stroke-linejoin="round"/>
        </g>
        <g>
            <path d="M47.15 52.4c-3.116 4.76-13.96.563-19.306 4.454" fill="none" stroke="#373535" stroke-width=".692" stroke-linecap="round" stroke-linejoin="round"/>
        </g>
        <g>
            <path d="M46.403 50.913c.138.6.747.74.747 1.483" fill="none" stroke="#373535" stroke-width=".692" stroke-linecap="round" stroke-linejoin="round"/>
        </g>
        <g>
            <path d="M30.816 24.184c-.138-.626.288-.692.742-.748" fill="none" stroke="#373535" stroke-width=".692" stroke-linecap="round" stroke-linejoin="round"/>
        </g>
        <g>
            <path d="M13.738 53.14c3.174-6.725 7.002-12.8 10.395-19.303" fill="none" stroke="#373535" stroke-width=".692" stroke-linecap="round" stroke-linejoin="round"/>
        </g>
        <g>
            <path d="M27.844 56.852c-3.82-1.177-5.95-1.752-9.65 0" fill="none" stroke="#373535" stroke-width=".692" stroke-linecap="round" stroke-linejoin="round"/>
        </g>
        <path d="M46.403 50.913c-2.795-1.902-4.904-4.492-6.68-7.423" fill="none" stroke="#373535" stroke-width=".692" stroke-linecap="round" stroke-linejoin="round"/>
        <g>
            <path d="M57.545 31.61v2.97" fill="none" stroke="#373535" stroke-width=".692" stroke-linecap="round" stroke-linejoin="round"/>
        </g>
        <g>
            <path d="M24.133 33.837c-.784-3.255 2.518-2.436 2.227-5.195" fill="none" stroke="#373535" stroke-width=".692" stroke-linecap="round" stroke-linejoin="round"/>
        </g>
        <g>
            <path d="M26.36 28.64c2.367-.61 1.04-4.9 4.456-4.456" fill="none" stroke="#373535" stroke-width=".692" stroke-linecap="round" stroke-linejoin="round"/>
        </g>
        <g>
            <path d="M39.725 43.487c-.73-6.177-3.814-13.865-4.456-19.303" fill="none" stroke="#373535" stroke-width=".692" stroke-linecap="round" stroke-linejoin="round"/>
        </g>
        <g>
            <path d="M58.287 19.728c-1.716 2.49-.255 8.16-.742 11.88" fill="none" stroke="#373535" stroke-width=".692" stroke-linecap="round" stroke-linejoin="round"/>
        </g>
        <g>
            <path d="M93.174 56.11c-3.044-7.594-8.565-12.714-11.14-20.79" fill="none" stroke="#373535" stroke-width=".692" stroke-linecap="round" stroke-linejoin="round"/>
        </g>
        <g>
            <path d="M107.28 54.627c-2.712 3.027-11.39.43-14.108 1.483" fill="none" stroke="#373535" stroke-width=".692" stroke-linecap="round" stroke-linejoin="round"/>
        </g>
        <g>
            <path d="M109.508 49.424c-1.256 1.217-.92 4.032-2.227 5.197" fill="none" stroke="#373535" stroke-width=".692" stroke-linecap="round" stroke-linejoin="round"/>
        </g>
        <g>
            <path d="M107.28 35.32c1.578 4.046 3.903 9.022 2.228 14.11" fill="none" stroke="#373535" stroke-width=".692" stroke-linecap="round" stroke-linejoin="round"/>
        </g>
        <g>
            <path d="M89.466 22.697c-2.712 2.735-3.772 7.12-6.686 9.66" fill="none" stroke="#373535" stroke-width=".692" stroke-linecap="round" stroke-linejoin="round"/>
        </g>
        <g>
            <path d="M90.947 20.475c-.255.977-1.31 1.163-1.484 2.225" fill="none" stroke="#373535" stroke-width=".692" stroke-linecap="round" stroke-linejoin="round"/>
        </g>
        <g>
            <path d="M58.287 19.728c-.266-.97-1.3-1.162-1.484-2.228" fill="none" stroke="#373535" stroke-width=".692" stroke-linecap="round" stroke-linejoin="round"/>
        </g>
        <g>
            <path d="M82.038 34.58c-9.266-3.6-14.267-11.46-23.746-14.85" fill="none" stroke="#373535" stroke-width=".692" stroke-linecap="round" stroke-linejoin="round"/>
        </g>
        <g>
            <path d="M82.78 32.348c.22 1.198-.692 1.278-.748 2.23" fill="none" stroke="#373535" stroke-width=".692" stroke-linecap="round" stroke-linejoin="round"/>
        </g>
        <g>
            <path d="M107.28 35.32c-4.206-6.188-7.682-13.096-16.336-14.848" fill="none" stroke="#373535" stroke-width=".692" stroke-linecap="round" stroke-linejoin="round"/>
        </g>
        <g>
            <path d="M66.454 4.147c22.14 1.848 34.61 13.38 40.827 31.173" fill="none" stroke="#373535" stroke-width=".692" stroke-linecap="round" stroke-linejoin="round"/>
        </g>
        <g>
            <path d="M56.8 17.503c-4.582 4.325-12.98 4.85-20.047 6.683" fill="none" stroke="#373535" stroke-width=".692" stroke-linecap="round" stroke-linejoin="round"/>
        </g>
        <g>
            <path d="M66.454 4.147c-4.18-.227-7.068.85-9.65 2.225v11.125" fill="none" stroke="#373535" stroke-width=".692" stroke-linecap="round" stroke-linejoin="round"/>
        </g>
        <g>
            <path d="M26.36 10.075v-.748c7.268-7.865 28.202-10.873 40.097-5.18" fill="none" stroke="#373535" stroke-width=".692" stroke-linecap="round" stroke-linejoin="round"/>
        </g>
        <g>
            <path d="M31.558 23.442c-1.73-4.456-5.48-6.89-5.195-13.367" fill="none" stroke="#373535" stroke-width=".692" stroke-linecap="round" stroke-linejoin="round"/>
        </g>
        <g>
            <path d="M35.27 24.184c-1.08-.407-3.842.87-3.71-.748" fill="none" stroke="#373535" stroke-width=".692" stroke-linecap="round" stroke-linejoin="round"/>
        </g>
        <g>
            <path d="M36.755 24.184h-1.483" fill="none" stroke="#373535" stroke-width=".692" stroke-linecap="round" stroke-linejoin="round"/>
        </g>
        <g>
            <path d="M36.014 204.59c-3.598-9.04-4.87-28.424 0-37.125" fill="none" stroke="#373535" stroke-width=".692" stroke-linecap="round" stroke-linejoin="round"/>
        </g>
        <g>
            <path d="M74.624 206.814c-11.082 4.024-28.384 3.293-38.608-2.225" fill="none" stroke="#373535" stroke-width=".692" stroke-linecap="round" stroke-linejoin="round"/>
        </g>
        <g>
            <path d="M79.077 204.59c-2.52-.278-3.17 1.285-4.456 2.226" fill="none" stroke="#373535" stroke-width=".692" stroke-linecap="round" stroke-linejoin="round"/>
        </g>
        <g>
            <path d="M78.335 168.206c3.79 8.24 2.78 26.998.747 36.385" fill="none" stroke="#373535" stroke-width=".692" stroke-linecap="round" stroke-linejoin="round"/>
        </g>
        <g>
            <path d="M36.014 167.465c11.6 4.325 31.62 7.868 42.315.74" fill="none" stroke="#373535" stroke-width=".692" stroke-linecap="round" stroke-linejoin="round"/>
        </g>
        <g>
            <path d="M25.62 104.36C3.616 102.753-3.1 72.89 2.603 53.137" fill="none" stroke="#373535" stroke-width=".692" stroke-linecap="round" stroke-linejoin="round"/>
        </g>
        <g>
            <path d="M32.3 97.678c-2.535 1.924-4.76 4.152-6.684 6.684" fill="none" stroke="#373535" stroke-width=".692" stroke-linecap="round" stroke-linejoin="round"/>
        </g>
        <g>
            <path d="M18.193 56.852c2.84 15.462 6.457 30.17 14.11 40.82" fill="none" stroke="#373535" stroke-width=".692" stroke-linecap="round" stroke-linejoin="round"/>
        </g>
        <g>
            <path d="M13.738 53.14c1.613 1.107 1.732 3.71 4.455 3.71" fill="none" stroke="#373535" stroke-width=".692" stroke-linecap="round" stroke-linejoin="round"/>
        </g>
        <g>
            <path d="M2.6 53.14c3.848-.6 8.1 2.27 11.138 0" fill="none" stroke="#373535" stroke-width=".692" stroke-linecap="round" stroke-linejoin="round"/>
        </g>
    </g>
</svg>
