<svg xmlns="http://www.w3.org/2000/svg" xmlns:xlink="http://www.w3.org/1999/xlink" height="300.412" width="114.098" viewBox="0 0 114.098 300.411" class="eg">
    <defs>
        <clipPath id="b">
            <path d="M315.827 314.168h38V163.17h-38v151z"/>
        </clipPath>
        <clipPath>
            <use xlink:href="#a" width="100%" height="100%"/>
        </clipPath>
    </defs>
    <g>
        <g>
            <g>
                <g clip-path="url(#b)" transform="matrix(3.46 0 0 -3.46 -1110.473 1088.223)">
                    <g class="hypophysis" fill="#1baaa1">
                        <path d="M344.446 283.49h1.717c-.47-1.245-1.122-2.313-1.932-3.22-.85-.363-1.39-1.04-2.57-1.073-2.227.707-4.153 1.717-7.298 1.502-1.596.164-2.348-.514-3.647-.646-.974 1.125-2.536 2.725-2.36 4.293.554.733 1.197 1.376 1.93 1.932 1.148.21 2.126.59 2.79 1.286 1.188-.283 2.885.655 3.864 1.288.45-.845 1.84-1.382 2.79-1.073.663-.946 2.27-1.97 3.433-1.716.096-1.193.88-1.697 1.286-2.576"/>
                    </g>
                    <g>
                        <g class="suspensor" fill="#c59d72">
                            <path d="M344.23 280.27c.585-1.222.007-2.96-.425-3.863h-.215c-.346-1.37-1.932-1.503-3.65-1.503-1.947.34-3.936.64-6.008.858-.888.187-2.038.11-2.79.43-.85.76-.682 2.564-.43 3.863 1.3.132 2.052.81 3.65.644 3.144.213 5.07-.797 7.296-1.504 1.18.034 1.72.71 2.573 1.073"/>
                            <path d="M343.805 255.376c.904-4.224.535-10.43-1.717-12.877-.61-.323-.993-.87-1.932-.857-3.42-.56-5.786.588-8.37 1.07-1.29 2.852-1.648 9.36-.43 12.662 2.957-1.594 7.96-1.806 11.16-.644.373.273.562.725 1.29.645"/>
                            <path d="M343.805 276.407c1-2.464 1.076-8.34-.215-10.514-3.093-2.06-8.88-1.036-12.233.214-1.214 2.2-1.222 7.62-.215 10.085.752-.32 1.903-.243 2.79-.43 2.072-.216 4.06-.517 6.01-.858 1.717 0 3.302.132 3.648 1.503h.215z"/>
                            <path d="M343.59 265.894c1.096-2.382.804-7.805.215-10.518-.727.08-.916-.372-1.288-.643-3.202-1.162-8.204-.95-11.16.643-1.04 2.614-1.41 8.217 0 10.732 3.353-1.25 9.14-2.275 12.233-.214"/>
                            <path d="M342.087 242.5c1.016-3.8 1.45-10.7 0-14.38-4.436-.817-10.5-.26-13.092 2.577-.275 4.412 1.674 8.296 2.79 12.016 2.584-.48 4.95-1.628 8.37-1.07.94-.01 1.323.535 1.932.856"/>
                        </g>
                    </g>
                    <g>
                        <g class="vascular-initials" fill="#eabd92">
                            <path d="M342.946 298.082c-.753-3.754-1.674-7.34-3.22-10.3-.947-.308-2.34.23-2.79 1.074-.306 2.815-.53 6.007-.644 9.87.46.54 1.168.833 1.503 1.502 2.01-.423 3.62-1.242 5.15-2.146"/>
                            <path d="M336.293 298.726c.115-3.863.338-7.055.644-9.87-.978-.633-2.676-1.57-3.863-1.288-1.434 3.43-2.324 7.403-4.078 10.514 1.545 1.124 4.68-.09 5.58 1.288.335-.453.796-.78 1.717-.644"/>
                        </g>
                    </g>
                    <g>
                        <g class="inner-upper" fill="#22984f">
                            <path d="M347.88 298.296c-.713-.217-.673-1.188-1.717-1.073-.845.375-2.284 1.285-3.217.86-1.53.903-3.142 1.72-5.15 2.145-.74 1.145-.02 2.512-.215 4.293v.86c.14 1.076-.28 2.713.216 3.434 2.742-.98 4.187-3.254 6.865-4.292v-.214c.745-2.335 2.34-3.815 3.22-6.01"/>
                            <path d="M337.366 309.457c.052-.306.352-.363.43-.644-.496-.72-.075-2.357-.215-3.434v-.86c.196-1.78-.522-3.148.216-4.293-.334-.67-1.04-.96-1.502-1.502-.922-.135-1.382.19-1.717.644 0 .213-.175.253-.215.43-.808.55-1.418 1.297-1.93 2.144-.212 1.786-1.102 4.01-1.288 5.58h.43c2.043.53 4.47.682 5.794 1.932"/>
                            <path d="M334.36 299.798c.04-.174.216-.214.216-.43-.902-1.376-4.035-.162-5.58-1.287-1.105.343-1.72.51-2.79 0-.787 0-.822.755-1.288 1.075.918 1.943 2.023 3.7 3.005 5.58-.227.942.726.705.643 1.503.684.175.3 1.416 1.288 1.288-.04.18.083.2.215.214-.04-.467.76-.098 1.07-.215.187-1.57 1.077-3.795 1.288-5.58.512-.848 1.12-1.597 1.93-2.147"/>
                        </g>
                    </g>
                    <g>
                        <g class="ground-initials" fill="#f89734">
                            <path d="M346.163 297.223c.278-3.308-2.184-7.52-3.002-11.158-1.16-.252-2.77.77-3.432 1.717 1.545 2.96 2.467 6.545 3.22 10.3.932.426 2.372-.484 3.216-.86"/>
                            <path d="M333.073 287.567c-.664-.695-1.643-1.078-2.79-1.287-2.212 3.08-3.257 7.33-4.078 11.8 1.07.508 1.685.34 2.79 0 1.754-3.11 2.644-7.08 4.078-10.513"/>
                        </g>
                    </g>
                    <g>
                        <g class="protoderm" fill="#d8e037">
                            <path d="M352.602 300.228c2.24-3.17 1.13-9.613-1.073-12.016 1.22 2.675 2.79 7.946.427 10.514.378.337.28 1.15.644 1.502"/>
                            <path d="M351.958 304.306c.455-1.17 1.127-2.607.644-4.078-.363-.352-.266-1.165-.644-1.502-.784-.876-3.293-.126-4.078-.43-.88 2.196-2.475 3.675-3.22 6.01v.215c.015.276.278.3.215.645.842.733 1.148 2 1.932 2.79.05.307.355.36.43.644 2.5-.507 3.505-2.504 4.72-4.293"/>
                            <path d="M351.958 298.726c2.364-2.567.793-7.84-.43-10.514-1.104-2.257-3.04-3.683-5.365-4.722h-1.717c-.406.88-1.19 1.382-1.285 2.576.82 3.637 3.28 7.85 3.004 11.158 1.045-.115 1.004.855 1.717 1.072.786.304 3.295-.446 4.08.43"/>
                            <path d="M351.958 304.306c-1.216 1.79-2.22 3.786-4.722 4.292-.074-.283-.378-.337-.43-.643-.783-.79-1.09-2.058-1.93-2.79.062-.347-.2-.37-.215-.644-2.677 1.04-4.122 3.315-6.864 4.294-.077.28-.377.338-.43.644v3.217c.748.398 1.584.71 2.79.644 6.4-.536 10.006-3.87 11.803-9.013"/>
                            <path d="M340.156 313.317c-1.208.065-2.043-.246-2.79-.644v-3.217c-1.325-1.25-3.752-1.402-5.795-1.93h-.427c-.312.116-1.11-.253-1.073.213-.502 1.286-1.584 1.99-1.504 3.862v.214c2.1 2.275 8.153 3.146 11.59 1.5"/>
                            <path d="M325.99 309.242c.533 1.113 1.42 1.87 2.576 2.36-.08-1.87 1.002-2.575 1.503-3.862-.134-.015-.257-.035-.217-.215-.987.13-.604-1.113-1.288-1.288.083-.798-.87-.56-.643-1.502-.982-1.88-2.087-3.638-3.005-5.58-.88-.656-2.107.174-3.22 0-1.193 4.338 1.042 8.782 4.293 10.087"/>
                            <path d="M330.283 286.28c-.733-.556-1.376-1.2-1.932-1.932-6.357.463-8.3 9.097-6.65 14.807 1.112.174 2.34-.656 3.22 0 .465-.32.5-1.074 1.286-1.074.82-4.47 1.866-8.72 4.078-11.8"/>
                        </g>
                    </g>
                </g>
            </g>
        </g>
        <g>
            <path d="M87.235 59.82c-2.92-1.3-7.9-4.443-11.125-2.968" fill="none" stroke="#373535" stroke-width=".692" stroke-linecap="round" stroke-linejoin="round"/>
        </g>
        <g>
            <path d="M58.287 49.424c6.946 1.466 12.523 4.298 17.823 7.425" fill="none" stroke="#373535" stroke-width=".692" stroke-linecap="round" stroke-linejoin="round"/>
        </g>
        <g>
            <path d="M76.107 56.852c-2.602 12.985-5.79 25.392-11.14 35.63" fill="none" stroke="#373535" stroke-width=".692" stroke-linecap="round" stroke-linejoin="round"/>
        </g>
        <g>
            <path d="M57.545 34.58c.67 6.156-1.813 10.89.742 14.846" fill="none" stroke="#373535" stroke-width=".692" stroke-linecap="round" stroke-linejoin="round"/>
        </g>
        <g>
            <path d="M58.287 49.424c-1.157 2.32-3.604 3.33-5.195 5.197" fill="none" stroke="#373535" stroke-width=".692" stroke-linecap="round" stroke-linejoin="round"/>
        </g>
        <g>
            <path d="M82.038 35.32v-.747" fill="none" stroke="#373535" stroke-width=".692" stroke-linecap="round" stroke-linejoin="round"/>
        </g>
        <g>
            <path d="M35.27 132.577c-2.943-2.63-2.353-8.87-1.484-13.367" fill="none" stroke="#373535" stroke-width=".692" stroke-linecap="round" stroke-linejoin="round"/>
        </g>
        <g>
            <path d="M65.712 137.033c-6.742-1.18-13.625-2.22-20.79-2.97" fill="none" stroke="#373535" stroke-width=".692" stroke-linecap="round" stroke-linejoin="round"/>
        </g>
        <g>
            <path d="M80.554 118.468c2.02 4.226.02 10.24-1.475 13.367" fill="none" stroke="#373535" stroke-width=".692" stroke-linecap="round" stroke-linejoin="round"/>
        </g>
        <g>
            <path d="M55.314 88.77c1.556 2.922 6.38 4.78 9.654 3.708" fill="none" stroke="#373535" stroke-width=".692" stroke-linecap="round" stroke-linejoin="round"/>
        </g>
        <g>
            <path d="M32.3 97.678c3.968-.72 7.353-2.048 9.65-4.455" fill="none" stroke="#373535" stroke-width=".692" stroke-linecap="round" stroke-linejoin="round"/>
        </g>
        <g>
            <path d="M33.783 119.213c-3.36-3.894-8.773-9.43-8.164-14.854" fill="none" stroke="#373535" stroke-width=".692" stroke-linecap="round" stroke-linejoin="round"/>
        </g>
        <g>
            <path d="M46.403 116.985c-5.52-.576-8.123 1.77-12.62 2.228" fill="none" stroke="#373535" stroke-width=".692" stroke-linecap="round" stroke-linejoin="round"/>
        </g>
        <g>
            <path d="M80.554 118.468c-2.953 1.257-4.823 3.598-8.903 3.71" fill="none" stroke="#373535" stroke-width=".692" stroke-linecap="round" stroke-linejoin="round"/>
        </g>
        <g>
            <path d="M87.235 107.334c-1.622 4.304-3.885 8-6.68 11.14" fill="none" stroke="#373535" stroke-width=".692" stroke-linecap="round" stroke-linejoin="round"/>
        </g>
        <g>
            <path d="M64.973 92.48c2.297 3.278 7.86 6.81 11.878 5.94" fill="none" stroke="#373535" stroke-width=".692" stroke-linecap="round" stroke-linejoin="round"/>
        </g>
        <g>
            <path d="M2.6 53.14c-4.123-15.008 3.604-30.38 14.85-34.898" fill="none" stroke="#373535" stroke-width=".692" stroke-linecap="round" stroke-linejoin="round"/>
        </g>
        <g>
            <path d="M17.455 18.242c1.837-3.847 4.906-6.465 8.905-8.165" fill="none" stroke="#373535" stroke-width=".692" stroke-linecap="round" stroke-linejoin="round"/>
        </g>
        <g>
            <path d="M27.844 289.964c-.95-15.263 5.79-28.7 9.66-41.568" fill="none" stroke="#373535" stroke-width=".692" stroke-linecap="round" stroke-linejoin="round"/>
        </g>
        <g>
            <path d="M73.137 298.876c-15.346 2.828-36.324.9-45.29-8.912" fill="none" stroke="#373535" stroke-width=".692" stroke-linecap="round" stroke-linejoin="round"/>
        </g>
        <g>
            <path d="M73.137 249.135c3.515 13.14 5.02 37.016 0 49.74" fill="none" stroke="#373535" stroke-width=".692" stroke-linecap="round" stroke-linejoin="round"/>
        </g>
        <g>
            <path d="M37.497 248.396c-4.467-9.872-5.7-32.38-1.483-43.81" fill="none" stroke="#373535" stroke-width=".692" stroke-linecap="round" stroke-linejoin="round"/>
        </g>
        <g>
            <path d="M66.454 252.096c-11.83 1.937-20.015-2.037-28.954-3.697" fill="none" stroke="#373535" stroke-width=".692" stroke-linecap="round" stroke-linejoin="round"/>
        </g>
        <g>
            <path d="M73.137 249.135c-2.103 1.107-3.43 3-6.683 2.96" fill="none" stroke="#373535" stroke-width=".692" stroke-linecap="round" stroke-linejoin="round"/>
        </g>
        <g>
            <path d="M79.077 204.59c3.127 14.61 1.854 36.087-5.94 44.545" fill="none" stroke="#373535" stroke-width=".692" stroke-linecap="round" stroke-linejoin="round"/>
        </g>
        <g>
            <path d="M79.077 131.833c3.46 8.524 3.722 28.848-.748 36.37" fill="none" stroke="#373535" stroke-width=".692" stroke-linecap="round" stroke-linejoin="round"/>
        </g>
        <g>
            <path d="M65.712 137.033c5.94 0 11.425-.457 12.62-5.203h.747" fill="none" stroke="#373535" stroke-width=".692" stroke-linecap="round" stroke-linejoin="round"/>
        </g>
        <g>
            <path d="M35.27 132.577c2.6 1.107 6.586.84 9.65 1.486" fill="none" stroke="#373535" stroke-width=".692" stroke-linecap="round" stroke-linejoin="round"/>
        </g>
        <g>
            <path d="M36.014 167.465c-4.196-7.61-4.226-26.364-.748-34.888" fill="none" stroke="#373535" stroke-width=".692" stroke-linecap="round" stroke-linejoin="round"/>
        </g>
        <g>
            <path d="M46.403 116.985c10.882-.747 17.546 2.75 25.245 5.194" fill="none" stroke="#373535" stroke-width=".692" stroke-linecap="round" stroke-linejoin="round"/>
        </g>
        <g>
            <path d="M87.235 59.82c3.612.4 3.474-2.96 5.94-3.707" fill="none" stroke="#373535" stroke-width=".692" stroke-linecap="round" stroke-linejoin="round"/>
        </g>
        <g>
            <path d="M76.846 98.42c2.834-12.58 11.347-27.158 10.39-38.6" fill="none" stroke="#373535" stroke-width=".692" stroke-linecap="round" stroke-linejoin="round"/>
        </g>
        <g>
            <path d="M87.235 107.334h-5.94c-1.405-3.044-4.117-4.787-4.444-8.91" fill="none" stroke="#373535" stroke-width=".692" stroke-linecap="round" stroke-linejoin="round"/>
        </g>
        <g>
            <path d="M105.794 90.992c-3.82 7.813-10.522 12.747-18.562 16.342" fill="none" stroke="#373535" stroke-width=".692" stroke-linecap="round" stroke-linejoin="round"/>
        </g>
        <g>
            <path d="M41.953 93.225c-4.96-11.872-8.04-25.61-14.11-36.37" fill="none" stroke="#373535" stroke-width=".692" stroke-linecap="round" stroke-linejoin="round"/>
        </g>
        <g>
            <path d="M55.314 88.77c-3.384 2.186-9.254 5.435-13.36 4.455" fill="none" stroke="#373535" stroke-width=".692" stroke-linecap="round" stroke-linejoin="round"/>
        </g>
        <g>
            <path d="M53.09 54.627c.398 13.36 1.17 24.404 2.227 34.14" fill="none" stroke="#373535" stroke-width=".692" stroke-linecap="round" stroke-linejoin="round"/>
        </g>
        <g>
            <path d="M47.15 52.4c1.163 1.562 2.75 2.692 5.94 2.227" fill="none" stroke="#373535" stroke-width=".692" stroke-linecap="round" stroke-linejoin="round"/>
        </g>
        <g>
            <path d="M109.508 49.424c7.75 10.973 3.908 33.257-3.708 41.568" fill="none" stroke="#373535" stroke-width=".692" stroke-linecap="round" stroke-linejoin="round"/>
        </g>
        <g>
            <path d="M105.794 90.992c4.23-9.252 9.665-27.487 1.487-36.37" fill="none" stroke="#373535" stroke-width=".692" stroke-linecap="round" stroke-linejoin="round"/>
        </g>
        <g>
            <path d="M47.15 52.4c-3.116 4.76-13.96.563-19.306 4.454" fill="none" stroke="#373535" stroke-width=".692" stroke-linecap="round" stroke-linejoin="round"/>
        </g>
        <g>
            <path d="M46.403 50.913c.138.6.747.74.747 1.483" fill="none" stroke="#373535" stroke-width=".692" stroke-linecap="round" stroke-linejoin="round"/>
        </g>
        <g>
            <path d="M30.816 24.184c-.138-.626.288-.692.742-.748" fill="none" stroke="#373535" stroke-width=".692" stroke-linecap="round" stroke-linejoin="round"/>
        </g>
        <g>
            <path d="M13.738 53.14c3.174-6.725 7.002-12.8 10.395-19.303" fill="none" stroke="#373535" stroke-width=".692" stroke-linecap="round" stroke-linejoin="round"/>
        </g>
        <g>
            <path d="M27.844 56.852c-3.82-1.177-5.95-1.752-9.65 0" fill="none" stroke="#373535" stroke-width=".692" stroke-linecap="round" stroke-linejoin="round"/>
        </g>
        <path d="M46.403 50.913c-2.795-1.902-4.904-4.492-6.68-7.423" fill="none" stroke="#373535" stroke-width=".692" stroke-linecap="round" stroke-linejoin="round"/>
        <g>
            <path d="M57.545 31.61v2.97" fill="none" stroke="#373535" stroke-width=".692" stroke-linecap="round" stroke-linejoin="round"/>
        </g>
        <g>
            <path d="M24.133 33.837c-.784-3.255 2.518-2.436 2.227-5.195" fill="none" stroke="#373535" stroke-width=".692" stroke-linecap="round" stroke-linejoin="round"/>
        </g>
        <g>
            <path d="M26.36 28.64c2.367-.61 1.04-4.9 4.456-4.456" fill="none" stroke="#373535" stroke-width=".692" stroke-linecap="round" stroke-linejoin="round"/>
        </g>
        <g>
            <path d="M39.725 43.487c-.73-6.177-3.814-13.865-4.456-19.303" fill="none" stroke="#373535" stroke-width=".692" stroke-linecap="round" stroke-linejoin="round"/>
        </g>
        <g>
            <path d="M58.287 19.728c-1.716 2.49-.255 8.16-.742 11.88" fill="none" stroke="#373535" stroke-width=".692" stroke-linecap="round" stroke-linejoin="round"/>
        </g>
        <g>
            <path d="M93.174 56.11c-3.044-7.594-8.565-12.714-11.14-20.79" fill="none" stroke="#373535" stroke-width=".692" stroke-linecap="round" stroke-linejoin="round"/>
        </g>
        <g>
            <path d="M107.28 54.627c-2.712 3.027-11.39.43-14.108 1.483" fill="none" stroke="#373535" stroke-width=".692" stroke-linecap="round" stroke-linejoin="round"/>
        </g>
        <g>
            <path d="M109.508 49.424c-1.256 1.217-.92 4.032-2.227 5.197" fill="none" stroke="#373535" stroke-width=".692" stroke-linecap="round" stroke-linejoin="round"/>
        </g>
        <g>
            <path d="M107.28 35.32c1.578 4.046 3.903 9.022 2.228 14.11" fill="none" stroke="#373535" stroke-width=".692" stroke-linecap="round" stroke-linejoin="round"/>
        </g>
        <g>
            <path d="M89.466 22.697c-2.712 2.735-3.772 7.12-6.686 9.66" fill="none" stroke="#373535" stroke-width=".692" stroke-linecap="round" stroke-linejoin="round"/>
        </g>
        <g>
            <path d="M90.947 20.475c-.255.977-1.31 1.163-1.484 2.225" fill="none" stroke="#373535" stroke-width=".692" stroke-linecap="round" stroke-linejoin="round"/>
        </g>
        <g>
            <path d="M58.287 19.728c-.266-.97-1.3-1.162-1.484-2.228" fill="none" stroke="#373535" stroke-width=".692" stroke-linecap="round" stroke-linejoin="round"/>
        </g>
        <g>
            <path d="M82.038 34.58c-9.266-3.6-14.267-11.46-23.746-14.85" fill="none" stroke="#373535" stroke-width=".692" stroke-linecap="round" stroke-linejoin="round"/>
        </g>
        <g>
            <path d="M82.78 32.348c.22 1.198-.692 1.278-.748 2.23" fill="none" stroke="#373535" stroke-width=".692" stroke-linecap="round" stroke-linejoin="round"/>
        </g>
        <g>
            <path d="M107.28 35.32c-4.206-6.188-7.682-13.096-16.336-14.848" fill="none" stroke="#373535" stroke-width=".692" stroke-linecap="round" stroke-linejoin="round"/>
        </g>
        <g>
            <path d="M66.454 4.147c22.14 1.848 34.61 13.38 40.827 31.173" fill="none" stroke="#373535" stroke-width=".692" stroke-linecap="round" stroke-linejoin="round"/>
        </g>
        <g>
            <path d="M56.8 17.503c-4.582 4.325-12.98 4.85-20.047 6.683" fill="none" stroke="#373535" stroke-width=".692" stroke-linecap="round" stroke-linejoin="round"/>
        </g>
        <g>
            <path d="M66.454 4.147c-4.18-.227-7.068.85-9.65 2.225v11.125" fill="none" stroke="#373535" stroke-width=".692" stroke-linecap="round" stroke-linejoin="round"/>
        </g>
        <g>
            <path d="M26.36 10.075v-.748c7.268-7.865 28.202-10.873 40.097-5.18" fill="none" stroke="#373535" stroke-width=".692" stroke-linecap="round" stroke-linejoin="round"/>
        </g>
        <g>
            <path d="M31.558 23.442c-1.73-4.456-5.48-6.89-5.195-13.367" fill="none" stroke="#373535" stroke-width=".692" stroke-linecap="round" stroke-linejoin="round"/>
        </g>
        <g>
            <path d="M35.27 24.184c-1.08-.407-3.842.87-3.71-.748" fill="none" stroke="#373535" stroke-width=".692" stroke-linecap="round" stroke-linejoin="round"/>
        </g>
        <g>
            <path d="M36.755 24.184h-1.483" fill="none" stroke="#373535" stroke-width=".692" stroke-linecap="round" stroke-linejoin="round"/>
        </g>
        <g>
            <path d="M36.014 204.59c-3.598-9.04-4.87-28.424 0-37.125" fill="none" stroke="#373535" stroke-width=".692" stroke-linecap="round" stroke-linejoin="round"/>
        </g>
        <g>
            <path d="M74.624 206.814c-11.082 4.024-28.384 3.293-38.608-2.225" fill="none" stroke="#373535" stroke-width=".692" stroke-linecap="round" stroke-linejoin="round"/>
        </g>
        <g>
            <path d="M79.077 204.59c-2.52-.278-3.17 1.285-4.456 2.226" fill="none" stroke="#373535" stroke-width=".692" stroke-linecap="round" stroke-linejoin="round"/>
        </g>
        <g>
            <path d="M78.335 168.206c3.79 8.24 2.78 26.998.747 36.385" fill="none" stroke="#373535" stroke-width=".692" stroke-linecap="round" stroke-linejoin="round"/>
        </g>
        <g>
            <path d="M36.014 167.465c11.6 4.325 31.62 7.868 42.315.74" fill="none" stroke="#373535" stroke-width=".692" stroke-linecap="round" stroke-linejoin="round"/>
        </g>
        <g>
            <path d="M25.62 104.36C3.616 102.753-3.1 72.89 2.603 53.137" fill="none" stroke="#373535" stroke-width=".692" stroke-linecap="round" stroke-linejoin="round"/>
        </g>
        <g>
            <path d="M32.3 97.678c-2.535 1.924-4.76 4.152-6.684 6.684" fill="none" stroke="#373535" stroke-width=".692" stroke-linecap="round" stroke-linejoin="round"/>
        </g>
        <g>
            <path d="M18.193 56.852c2.84 15.462 6.457 30.17 14.11 40.82" fill="none" stroke="#373535" stroke-width=".692" stroke-linecap="round" stroke-linejoin="round"/>
        </g>
        <g>
            <path d="M13.738 53.14c1.613 1.107 1.732 3.71 4.455 3.71" fill="none" stroke="#373535" stroke-width=".692" stroke-linecap="round" stroke-linejoin="round"/>
        </g>
        <g>
            <path d="M2.6 53.14c3.848-.6 8.1 2.27 11.138 0" fill="none" stroke="#373535" stroke-width=".692" stroke-linecap="round" stroke-linejoin="round"/>
        </g>
    </g>
    <g class="warning-sign" display="none">
        <g id="a" transform="matrix(3.42 0 0 3.42 -1075.158 -1032.028)">
            <path d="M348.103 387.117l-5.078-8.27c-.08-.12-.226-.213-.386-.213s-.307.068-.386.212l-5.078 8.27c-.08.142-.08.29 0 .42.08.118.226.213.386.213h10.155c.16 0 .306-.07.386-.214.08-.117.08-.29 0-.42z" fill="#f4c430"/>
            <path fill="#fff" d="M346.637 386.74l-3.998-6.512-3.998 6.512z"/>
            <path d="M342.238 384.355c.02.19.057.342.11.438.05.094.142.14.273.14h.04c.13 0 .22-.046.272-.14.05-.094.088-.243.11-.438l.116-1.518c.018-.296.032-.506.032-.636 0-.164-.05-.31-.16-.41-.1-.093-.243-.14-.39-.14-.15 0-.293.047-.393.14-.106.095-.16.237-.16.41 0 .12.014.343.033.637l.116 1.518z"/>
            <ellipse ry=".525" rx=".559" cy="385.849" cx="342.639"/>
        </g>
    </g>
</svg>
