<svg xmlns="http://www.w3.org/2000/svg" width="229.55" height="292.191" viewBox="0 0 229 292" class="embryo">
    <g>
        <g>
            <g>
                <g>
                    <g>
                        <g>
                            <g>
                                <g>
                                    <g>
                                        <g class="primordia" fill="#22984f">
                                            <path d="M125.867 190.835c-.7-.002-1.71-.197-2.363.002-.795.235-1.095.876-1.798 1.324l-.082-.013c.122-1.15.245-2.005.245-2.005-1.77-.03-3.553.806-5.347.906-1.993.098-3.988.09-5.814-.486l-14.267-6.477-4.01 11.523c-.938-.064-10.33 3.936-12.098 3.74-.203.07-.358.176-.476.32l-.5-.122c-.584.958-1.864.17-2.778.406-.916.233-1.308.54-2.07 1.047-1.524.967-4.41 1.003-4.12 2.938 0 0 .037.06.095.166-1.256-.42-3.552-20.608-7.11-27.577-1.768-3.45-4.667-8.838-6.957-11.897-2.34-3.084-5.762-4.748-6.652-8.36-1.203-4.86-4.096-2.732-7.275-15.78-2.173-8.96-11.44-18.75-16.39-27.827-2.217-4.068-1.85-7.367-3.864-10.983-1.922-3.426-1.572-1.74-4.41-5.42-4.497-5.843-6.665-16.358-16.09-16.774-3.686-25.95-2.068-54.422 20.69-70.3 19.816-13.835 31.507-10.23 49.258 1.046 7.506 4.765 15 12.76 19.21 20.552 3.63 6.72 7.25 13.286 10.473 20.194 2.792 5.97 3.83 13.702 7.25 25.99 1.66 5.966 3.813 11.326 4.43 17.562.377 3.8-1.624 14.782 2.595 16.757 7.524 3.52 7.5-11.805 7.847-15.52.583-6.312 3.25-11.833 5.362-17.796 3.002-8.487 6.823-17.648 10.937-25.774 3.734-7.405 7.332-14.075 11.05-21.183 5.12-9.76 9.76-12.84 20.266-18.615C178.86 8.13 185.323 6.776 194.26 7c11.883.285 22.126 15.34 26.472 24.284 3.83 7.884 6.453 16.88 7.616 26.44.597 4.953 1.017 9.714 1.01 14.38h-.01c-3.04 0-8.817-.688-11.565.915-1.047.614-.633 1.078-4.595 6.512-2.075 5.44-2.885 15.42-8.462 23.85-2.52 3.824-2.2 7.137-3.556 11.286-1.25 3.865-3.865 10.776-5.565 14.378-2.61 5.545-3.604 8.235-5.565 11.753-1.84 3.282-2.973 4.867-4.484 8.362-1.71 3.936-4.464 6.903-6.652 10.67-1.864 3.198-3.09 13.45-7.736 17.62-6.337 11.575-9.442 22.65-14.26 25.433 0 0-2.39-1.625-3.813-1.927-1.294-.29-2.28-.235-3.297-1.068-.958-.788-3.93-3.173-4.13-3.33-.663-.488-1.342.02-1.55-.753 1.42-2.63 2.624-7.206 2.355-10.768 0 0-.506-1.12-1.432-1.455-.473-.167-1.576-.055-2.077.04-1.354.255-3.268 1.14-3.268 1.14l-2.55 8.593c-.11.808-.387 1.957-.713 3.25-1.338-.598-5.51.74-6.53.736.423-2.1 1.19-4.46.96-6.336 0 0-3.37-.167-4.995-.173"/>
                                        </g>
                                    </g>
                                </g>
                            </g>
                            <g>
                                <g class="hypophysis" fill="#00a69c">
                                    <path d="M135.42 246.72l.058.095-.476.296-.21-.345c-1.268-.466-8.82-3.285-10.066-3.658-1.043-.277-4.456-1.714-5.724-2.3-2.76-1.246-5.498-2.455-8.234-3.7-2.727-1.235-5.168-2.49-7.832-3.782-1.327-.647-2.097-1.04-3.164-1.674-1.064-.63-2.43-1.375-3.732-1.96.026-.108.05-.214.074-.297v-.036c1.09.135 2.123.21 2.94.213 2.187.008 4.3-.112 6.46-.14.583-.023 1.163-.033 1.758-.03 1.245.005 2.49-.003 3.727-.02 4.12-.03 8.213-.135 12.368-.12.926.005 2.09-.086 3.313-.246l.013.082c.122 1.627 3.956 11.694 4.876 12.91.955 1.237 2.594 3.867 3.85 4.715"/>
                                    <path d="M134.79 246.766l.212.346c-1.748 1.084-3.498 2.217-5.248 3.493-.928.695-2.414 1.248-3.783 1.873-.01 0-.033.012-.045.012-1.64.717-5.72-.14-7.5-.15-3.336-.01-6.472.274-9.713.26-3.323-.012-9.43 1.637-13 .876-.63-.335-1.447-.61-2.55-1.043-.936-.36-1.86-.777-2.772-1.233v-.012c.29-1.708 2.654-4.916 3.194-6.445.517-1.434.69-3.13 1.065-4.84.325-1.54.556-3.01.787-4.472.17-1.09.3-4.352.602-5.74 1.303.586 2.667 1.327 3.732 1.96 1.067.635 1.836 1.03 3.164 1.676 2.664 1.292 5.105 2.547 7.83 3.78 2.738 1.246 5.476 2.456 8.236 3.7 1.268.586 4.68 2.024 5.724 2.302 1.245.37 8.797 3.19 10.065 3.658"/>
                                </g>
                            </g>
                            <g>
                                <g class="suspensor" fill="#c3996b">
                                    <path d="M118.424 252.34c1.78.007 5.86.867 7.502.148-1.37.637-2.604 1.332-3.096 2.304-1.853 3.648-1.137 8.412-1.52 12.67-1.213.03-2.07.86-3.388.903-1.388.052-1.115-.006-3.787.578-2.66.143-5.427.026-8.135.288.014-.142-.046-.033-.07.013h-.012c0 .012 0 .012.012 0 .024 0 .048-.012.07-.012 0 .037 0 .073-.01.133-1.673-.042-6.732-.074-7.556-1.537.013-.39.015-.76.017-1.117 0-2.528.547-6.562-.108-8.915-.785-2.77-1.34-3.65-2.63-4.32 3.57.762 9.678-.887 13-.875 3.24.012 6.377-.273 9.712-.26"/>
                                    <path d="M121.31 267.463c-.114 1.318-.343 2.576-.774 3.75-2.353 6.34 3.393 15.573-4.56 18.486-3.565 1.302-15.557 5.198-17.31-1.623l-.587-2.08c-.937-6.33.18-13.293.355-18.17.823 1.462 5.882 1.494 7.555 1.537.01-.06.01-.097.01-.133 2.71-.26 5.475-.142 8.135-.286 2.672-.585 2.4-.525 3.787-.58 1.318-.043 2.176-.87 3.387-.9"/>
                                </g>
                            </g>
                            <g>
                                <path d="M113.73 219.906c-.036.12-.06.237-.096.356-.012-.12.012-.237.096-.356" fill="#1b75bb"/>
                            </g>
                            <g>
                                <path d="M105.93 269.244c.024-.046.084-.155.07-.012-.024 0-.046.012-.07.012" fill="#1b75bb"/>
                            </g>
                            <g>
                                <path d="M105.93 269.244c-.012.012-.012.012-.012 0h.012z" fill="#1b75bb"/>
                            </g>
                            <g>
                                <g class="unspecified" fill="#d16336">
                                    <path d="M134.38 205.99c-.55 1.398-1.305 2.784-1.737 4.006-.673 1.884-2.224 3.79-3.688 5.374-1.36-1.535-.83-6.756-2.727-7.238.324-.902.362-1.483 1.017-2.3 1.336-1.668 2.262-4.48 2.4-6.72.04-.56.135-1.152.256-1.77 1.024.005 5.194-1.33 6.532-.732-.53 2.146-1.18 4.66-1.306 6.58-.064.916-.363 1.864-.747 2.8"/>
                                    <path d="M96.443 184.085l14.268 6.477s-1.03 5.053-.702 6.278c0 0 .61 8.31.46 10.256-.05.772.21 1.306.66 1.726-2.922-.012-4.855-.318-7.656-.458-3.443-.215-5.948.142-9.32.32-3.61-12.157-1.97-12.4-1.72-13.075l4.01-11.525z"/>
                                    <path d="M146.473 185.038c.27 3.562-.934 8.138-2.357 10.768-.084.143-.154.286-.24.416-2.018 3.327-1.602 6.44-1.618 10.356l-.012.07c-.118-.023-.25-.047-.368-.072-1.078-.192-2.123-.446-3.238-.452-1.27-.016-3.1.356-4.26-.134.383-.936.682-1.885.746-2.8.127-1.92.776-4.435 1.306-6.582.327-1.292.605-2.443.713-3.25l2.55-8.595s1.916-.884 3.268-1.14c.5-.092 1.605-.206 2.08-.04.924.336 1.43 1.455 1.43 1.455"/>
                                    <path d="M144.818 207.847c.46.524-3.74 12.544-1.346 10.18l.06.06c-.24.26-.476.518-.715.78-1.227 1.3-2.47 2.613-2.99 3.206-.61.697-2.565 2.66-4.327 4.03-1.62-2.013-4.412-4.064-6.905-4.23-1.15-.073-3.407-.01-4.22-1.072-.555-.712-1.13-2.72-1.353-3.613l-.022-.13c2.887-.593 5.453-1.142 5.955-1.686 1.464-1.584 3.015-3.49 3.686-5.373.433-1.222 1.187-2.608 1.74-4.006 1.16.49 2.99.12 4.26.135 1.115.006 2.16.257 3.24.452l.366.073c.997.193 1.887.4 2.572 1.197"/>
                                    <path d="M143.472 218.026c-2.395 2.365 1.806-9.655 1.346-10.18-.685-.797-1.575-1.002-2.57-1.197l.01-.07c.015-3.92-.4-7.03 1.62-10.358.082-.13.155-.273.24-.416.208.774.887.266 1.55.754.2.157 3.172 2.54 4.13 3.33 1.017.834 2.003.778 3.297 1.068 1.422.303 3.813 1.926 3.813 1.926-.173 1.708-.5 3.558-1.788 4.93-.118.13-.25.26-.392.38-.69.615-3.77 1.967-4.508 2.39-1.784 1.04-2.31 1.69-3.06 2.837-.36.56-.767 1.223-1.386 2.11-.323.45-1.217 1.455-2.242 2.556l-.06-.06z"/>
                                    <path d="M116.524 191.048c1.794-.1 3.576-.936 5.346-.906 0 0-.123.856-.245 2.005-.197 1.567-.408 3.69-.412 5.045.006 1.412-.19 2.503-.488 3.547-.302 1.09-.72 2.12-1.105 3.377-.603 1.968-1.575 4.825-2.483 6.744-.288.605-.635 1.055-.97 1.542-.085-2.268-3.563-2.198-5.03-3.58h-.01c-.45-.418-.71-.953-.66-1.726.15-1.945-.458-10.256-.458-10.256-.33-1.226.7-6.278.7-6.278 1.826.576 3.82.584 5.814.486"/>
                                    <path d="M116.17 212.4s-.013 0 0 .013c-.252.344-.48.71-.66 1.15-.18.47-.936 3.248-1.78 6.342-.084.118-.108.24-.096.357v.01c-1.097 4.008-2.3 8.444-2.634 9.095l-.002.012c-1.234.017-2.48.025-3.727.02-.592-.003-1.174.007-1.755.03v-.204c-2.308-1.74-2.965-3.487-4.17-5.18-.19-.272-.378-.51-.555-.724l.036-.024c-3.144-3.763-5.28-9.945-6.674-14.616 3.37-.174 5.877-.534 9.32-.32 2.8.144 4.733.447 7.654.46h.012c1.467 1.38 4.945 1.31 5.03 3.58"/>
                                    <path d="M120.725 200.74c.336-.582 4.856 8.897 5.322 7.854.074-.167.132-.32.18-.462 1.9.48 1.367 5.704 2.727 7.24-.5.543-3.068 1.09-5.955 1.686-3.98.802-8.577 1.712-9.268 2.85.84-3.097 1.6-5.87 1.78-6.346.18-.438.405-.805.657-1.15-.01-.01 0-.01 0-.01.332-.487.68-.937.967-1.54.91-1.92 1.88-4.777 2.483-6.744.384-1.257.804-2.288 1.105-3.38"/>
                                    <path d="M126.228 208.13c-.048.144-.108.296-.18.463-.467 1.043-4.99-8.436-5.323-7.855.3-1.043.495-2.136.49-3.548.003-1.352.213-3.476.408-5.043l.085.012c.7-.45 1-1.09 1.798-1.322.653-.2 1.66-.006 2.36-.002 1.628.006 5 .172 5 .172.228 1.877-.54 4.235-.964 6.335-.12.616-.22 1.21-.257 1.768-.138 2.243-1.064 5.053-2.4 6.72-.655.818-.694 1.4-1.017 2.3"/>
                                    <path d="M135.5 226.103c-.94.73-1.832 1.298-2.427 1.414-1.58.623-4.1 1.184-6.393 1.495-1.223.16-2.386.253-3.312.25-4.153-.017-8.25.086-12.37.118l.002-.012c.334-.653 1.537-5.087 2.634-9.095v-.012c.036-.118.06-.236.096-.355.694-1.137 5.29-2.045 9.27-2.85l.024.132c.22.892.796 2.9 1.35 3.614.816 1.06 3.072.998 4.22 1.074 2.494.165 5.287 2.216 6.906 4.23"/>
                                    <path d="M105.516 229.228v.203c-2.162.027-4.275.15-6.46.142-.82-.004-1.85-.08-2.942-.215-2.04-.268-4.26-.752-5.585-1.41-.047-.178-.12-.356-.212-.547.546-.46 1.047-.956 1.428-1.513 1.517-2.154-2.023-7.843-5.657-13.412 1.916 1.563 4.178 2.995 5.787 4.07 1.67 1.11 3.303 2.435 4.984 3.628 1.73 1.23 2.737 1.708 3.93 3.15.178.214.366.453.555.726 1.204 1.688 1.863 3.436 4.17 5.178"/>
                                    <path d="M100.826 223.298l-.036.024c-1.194-1.44-2.2-1.92-3.93-3.15-1.68-1.19-3.313-2.517-4.982-3.626-1.61-1.075-3.872-2.508-5.788-4.07-3.72-5.69-7.542-11.247-6.232-12.81.12-.14.275-.247.476-.317 1.77.195 11.162-3.804 12.1-3.742-.253.675-1.892.918 1.718 13.076 1.394 4.67 3.532 10.85 6.674 14.614"/>
                                    <path d="M86.09 212.475c3.633 5.57 7.173 11.258 5.656 13.412-.38.557-.882 1.053-1.43 1.513-.928-2.057-4.016-5.013-5.567-6.124-1.018-.74-.604-.713-1.31-1.854-.756-1.262-1.867-2.513-3.263-3.622-1.22-.978-1.338-.932-2.188-2.3-.755-1.202-1.454-1.893-2.565-2.86-.592-.512-1.207-1.215-1.798-1.952-1.44-1.822-2.75-3.952-3.128-4.57 0 0 0-.012-.013-.012l-.092-.167c-.292-1.936 2.593-1.972 4.118-2.94.762-.51 1.155-.816 2.07-1.05.914-.234 2.193.555 2.778-.405l.5.123c-1.313 1.56 2.512 7.118 6.23 12.807"/>
                                </g>
                            </g>
                            <g>
                                <g>
                                    <g>
                                        <g>
                                            <g class="protoderm" fill="#d6de23">
                                                <path d="M147.556 230.173c.565 1.438.908 4.633 1.344 5.145-1.933 2.686-3.496 4.617-4.578 5.61-.013.01-.025.023-.05.035-.19.153-.38.296-.57.448-.01.013-.023.025-.047.023-2.644 2.02-5.39 3.66-8.177 5.383l-.058-.095c-1.256-.847-2.895-3.476-3.852-4.714-.922-1.215-4.753-11.285-4.875-12.91l-.013-.084c2.293-.312 4.81-.872 6.393-1.495.593-.116 1.485-.683 2.427-1.414 1.762-1.37 3.717-3.333 4.323-4.032.525-.59 1.764-1.902 2.994-3.204.23 1.13.502 1.96 1.41 3.59.376.68.836 1.475 1.035 2.046.365.964.34 1.247 1.048 2.212.923 1.25.6 1.82 1.246 3.46"/>
                                                <path d="M229.36 72.103c-.012 3.158-.202 6.268-.654 9.364-1.694 11.413-3.398 22.362-7.265 33.8-2.69 8.005-7.2 17.745-12.628 24.36-5.94 7.253-28.453 46.17-45.594 73.775-.295-.358-1.243-.954-1.6-.92 0-.048-4.678.918-5.26-2.513.014-.512-1.093-2.213-1.238-2.155 1.288-1.372 1.615-3.222 1.788-4.93 4.818-2.784 7.923-13.858 14.26-25.432 4.647-4.17 5.872-14.423 7.736-17.62 2.188-3.768 4.94-6.735 6.652-10.67 1.51-3.496 2.644-5.08 4.484-8.364 1.96-3.52 2.956-6.21 5.565-11.754 1.7-3.602 4.316-10.513 5.565-14.378 1.356-4.15 1.037-7.462 3.556-11.287 5.577-8.43 6.387-18.407 8.462-23.848 3.962-5.434 3.548-5.898 4.595-6.513 2.748-1.604 8.526-.917 11.565-.917h.01z"/>
                                                <path d="M161.62 212.482c.355-.034 1.303.563 1.598.92-2.437 3.92-4.765 7.602-6.927 10.94-.437-.44-1.594-2.07-2.41-3.034-.944-1.12-.99-1.31-1.936-2.323-.734-.785-.828-.93-1.372-1.57-.318-.383-.85-.98-1.3-1.48-1.11-1.25-1.56-1.798-2.114-2.513.752-1.147 1.278-1.798 3.062-2.836.737-.424 3.817-1.778 4.506-2.39.145-.12.275-.25.394-.38.143-.06 1.25 1.642 1.237 2.153.58 3.432 5.262 2.464 5.262 2.512"/>
                                                <path d="M153.882 221.308c.816.964 1.973 2.596 2.41 3.036-2.794 4.345-5.3 8.098-7.39 10.975-.438-.514-.782-3.708-1.344-5.146-.647-1.64-.326-2.21-1.246-3.46-.71-.964-.683-1.247-1.05-2.212-.198-.57-.658-1.366-1.035-2.045-.908-1.63-1.178-2.46-1.41-3.59l.715-.78c1.024-1.1 1.918-2.107 2.242-2.555.618-.888 1.026-1.55 1.384-2.11.556.716 1.004 1.264 2.115 2.514.45.5.98 1.097 1.3 1.48.545.64.637.784 1.372 1.57.945 1.012.99 1.2 1.937 2.322"/>
                                                <path d="M96.04 229.69c-.3 1.388-.434 4.65-.603 5.742-.233 1.46-.464 2.93-.79 4.472-.373 1.71-.546 3.405-1.062 4.84-.54 1.528-2.903 4.737-3.196 6.444-3.85-1.948-7.437-4.705-10.655-7.41-1.135-1.335-2.622-3.537-4.368-6.418 2.074-1.926 8.657-3.716 9.708-5.422 1.135-1.858 3.467-3.048 5.24-4.538.096.19.166.37.212.548 1.328.657 3.546 1.14 5.585 1.41v.037c-.024.082-.048.19-.072.295"/>
                                                <path d="M90.317 227.4c-1.774 1.49-4.106 2.678-5.24 4.538-1.052 1.706-7.636 3.496-9.707 5.423-2.053-3.38-4.47-7.684-7.134-12.608h.012c.56-.177 4.336-.615 5.047-.564 1.412.09 1.422.612 2.933-.01 2.756-1.142 1.99-1.716 3.96-2.182 1.426-.316 3.1-.44 4.562-.72 1.55 1.112 4.637 4.067 5.567 6.124"/>
                                                <path d="M69.156 210.736c.06-.046.094-.07.12-.094-.036.024-.072.058-.12.094m.13-.106c.5-.426.49-.746 1.298-.874.57-.105 1.035-.304 1.533-.55.428-.226.965-.51 1.51-.52.592.74 1.206 1.443 1.797 1.956 1.11.966 1.81 1.657 2.564 2.858.85 1.37.968 1.322 2.187 2.3 1.397 1.11 2.508 2.36 3.263 3.62.707 1.144.293 1.118 1.31 1.857-1.46.28-3.134.404-4.56.72-1.973.466-1.204 1.04-3.96 2.18-1.51.622-1.52.102-2.933.01-.712-.05-4.49.39-5.047.566h-.012c-2.05-3.797-4.243-7.96-6.517-12.348.533-.247 1.01-.435 1.602-.373.297.024.546.18.854.193.558.05 1.2-.103 1.735-.23 1.165-.283 3.234-1.365 3.377-1.365"/>
                                                <path d="M70.5 204.116c.377.62 1.686 2.75 3.127 4.57-.547.01-1.08.294-1.51.52-.5.246-.963.445-1.532.55-.807.126-.797.448-1.298.874-.142 0-2.21 1.083-3.375 1.364-.536.128-1.177.28-1.735.23-.31-.013-.557-.168-.854-.194-.593-.06-1.07.127-1.603.374-14.01-26.917-31.277-62.237-38.63-72.807-8.654-12.437-14.957-27.99-18.2-42.84-1.2-5.5-2.317-11.32-3.15-17.27 9.425.415 11.593 10.93 16.09 16.774 2.838 3.68 2.488 1.994 4.41 5.42 2.014 3.616 1.646 6.915 3.862 10.983 4.95 9.076 14.218 18.868 16.39 27.828 3.18 13.048 6.073 10.92 7.276 15.78.89 3.612 4.313 5.276 6.652 8.36 2.29 3.06 5.19 8.447 6.957 11.897 3.558 6.97 5.854 27.158 7.11 27.577.012 0 .012.012.012.012"/>
                                            </g>
                                        </g>
                                    </g>
                                </g>
                            </g>
                            <g>
                                <path d="M69.156 210.736c.048-.036.084-.07.12-.094-.026.024-.06.048-.12.094" fill="#d6de23"/>
                            </g>
                        </g>
                    </g>
                </g>
                <g>
                    <path d="M90.39 251.188c-3.85-1.95-7.435-4.705-10.654-7.41" fill="none" stroke="#231f20" stroke-width=".4018"/>
                </g>
                <g>
                    <path d="M125.925 252.49c-1.368.634-2.604 1.33-3.096 2.3-1.853 3.65-1.136 8.413-1.522 12.674-.112 1.316-.34 2.574-.773 3.747-2.353 6.343 3.393 15.577-4.56 18.49-3.565 1.304-15.556 5.2-17.31-1.622l-.587-2.08c-.936-6.33.18-13.292.356-18.172.012-.392.014-.76.016-1.115-.002-2.53.546-6.56-.11-8.913-.784-2.77-1.337-3.65-2.628-4.32-.63-.335-1.447-.612-2.55-1.042-.934-.362-1.86-.78-2.772-1.236" fill="none" stroke="#231f20" stroke-width=".4018"/>
                </g>
                <g>
                    <path d="M143.655 241.435c-2.644 2.02-5.392 3.66-8.177 5.382-.152.095-.32.2-.476.295-1.748 1.085-3.497 2.218-5.247 3.492-.928.697-2.415 1.25-3.783 1.874" fill="none" stroke="#231f20" stroke-width=".4018"/>
                </g>
                <g>
                    <path d="M144.274 240.963c-.19.153-.382.295-.573.448" fill="none" stroke="#231f20" stroke-width=".4018"/>
                </g>
                <g>
                    <path d="M145.595 239.888c-.418.354-.846.697-1.274 1.04" fill="none" stroke="#231f20" stroke-width=".4018"/>
                </g>
                <g>
                    <path d="M79.736 243.776c-1.135-1.334-2.622-3.536-4.368-6.415-2.05-3.378-4.468-7.685-7.132-12.61-2.05-3.794-4.243-7.957-6.517-12.347-14.01-26.916-31.277-62.236-38.63-72.806-8.653-12.437-14.957-27.99-18.2-42.84-1.2-5.5-2.318-11.32-3.15-17.27-3.686-25.95-2.07-54.423 20.69-70.3C42.245-4.65 53.935-1.043 71.687 10.232c7.506 4.765 15 12.76 19.21 20.55 3.63 6.722 7.248 13.287 10.475 20.196 2.788 5.97 3.827 13.702 7.246 25.99 1.663 5.963 3.812 11.325 4.43 17.56.38 3.8-1.624 14.784 2.595 16.758 7.524 3.52 7.5-11.804 7.847-15.52.583-6.31 3.25-11.832 5.362-17.795 3-8.487 6.823-17.648 10.937-25.774 3.734-7.405 7.332-14.075 11.053-21.183 5.116-9.76 9.757-12.84 20.262-18.616C178.86 8.13 185.323 6.777 194.26 7c11.882.285 22.128 15.34 26.474 24.284 3.827 7.883 6.45 16.88 7.614 26.44.596 4.953 1.016 9.714 1.012 14.38-.012 3.157-.203 6.265-.655 9.363-1.693 11.413-3.397 22.362-7.264 33.8-2.69 8.005-7.2 17.745-12.628 24.358-5.94 7.255-28.453 46.173-45.594 73.777-2.437 3.92-4.765 7.602-6.927 10.94-2.794 4.346-5.3 8.1-7.388 10.976-1.935 2.686-3.496 4.617-4.58 5.61-.013.01-.025.023-.047.035-.215.19-.406.33-.572.448-.012.013-.025.026-.05.024" fill="none" stroke="#231f20" stroke-width=".4018"/>
                </g>
                <g>
                    <path d="M75.37 237.36c2.072-1.926 8.656-3.716 9.706-5.42 1.134-1.862 3.466-3.05 5.24-4.54.548-.46 1.05-.958 1.43-1.512 1.517-2.156-2.023-7.844-5.657-13.412-3.718-5.69-7.543-11.247-6.23-12.81.118-.14.272-.247.475-.317.107-.05.225-.074.356-.096" fill="none" stroke="#231f20" stroke-width=".4018"/>
                </g>
                <g>
                    <path d="M95.712 253.477c3.57.76 9.677-.888 13-.876 3.24.013 6.377-.272 9.712-.258 1.78.006 5.86.866 7.5.147.013 0 .038-.013.05-.013" fill="none" stroke="#231f20" stroke-width=".4018"/>
                </g>
                <g>
                    <path d="M105.93 269.244c.024 0 .046-.012.07-.012 2.708-.26 5.475-.145 8.133-.287 2.674-.585 2.4-.527 3.79-.58 1.317-.043 2.174-.87 3.386-.9h.01" fill="none" stroke="#231f20" stroke-width=".4018"/>
                </g>
                <g>
                    <path d="M105.93 269.244c-.012.012-.012.012-.012 0h.012z" fill="none" stroke="#231f20" stroke-width=".4018"/>
                </g>
                <g>
                    <path d="M98.434 267.826c.826 1.465 5.882 1.495 7.556 1.537.012-.06.012-.095.012-.13.012-.143-.048-.037-.072.01" fill="none" stroke="#231f20" stroke-width=".4018"/>
                </g>
                <g>
                    <path d="M90.528 227.947c1.328.657 3.546 1.14 5.585 1.41 1.093.135 2.124.21 2.943.213 2.186.008 4.297-.114 6.46-.14.582-.022 1.162-.033 1.755-.03 1.25.006 2.494-.003 3.728-.02 4.12-.033 8.217-.135 12.37-.12.927.005 2.09-.088 3.314-.248 2.292-.312 4.81-.872 6.39-1.495" fill="none" stroke="#231f20" stroke-width=".4018"/>
                </g>
                <g>
                    <path d="M95.993 229.666c.012.012.036.012.046.024 1.303.587 2.667 1.328 3.732 1.96 1.067.634 1.836 1.03 3.164 1.674 2.664 1.292 5.105 2.548 7.83 3.78 2.737 1.247 5.476 2.456 8.236 3.702 1.268.587 4.68 2.023 5.724 2.3 1.245.374 8.797 3.193 10.065 3.66" fill="none" stroke="#231f20" stroke-width=".4018"/>
                </g>
                <g>
                    <path d="M90.39 251.2v-.012c.293-1.708 2.654-4.916 3.194-6.445.517-1.434.69-3.13 1.065-4.84.325-1.54.556-3.01.787-4.472.17-1.09.3-4.352.604-5.74.025-.107.05-.213.074-.296" fill="none" stroke="#231f20" stroke-width=".4018"/>
                </g>
                <g>
                    <path d="M135.42 246.72c-1.256-.847-2.895-3.477-3.85-4.714-.92-1.216-4.755-11.283-4.877-12.91" fill="none" stroke="#231f20" stroke-width=".4018"/>
                </g>
                <g>
                    <path d="M105.516 229.228c-2.308-1.742-2.967-3.49-4.17-5.18-.19-.272-.378-.51-.557-.726-1.193-1.44-2.2-1.92-3.93-3.15-1.68-1.192-3.314-2.516-4.983-3.627-1.61-1.075-3.87-2.507-5.788-4.07-.37-.297-.722-.597-1.054-.906" fill="none" stroke="#231f20" stroke-width=".4018"/>
                </g>
                <g>
                    <path d="M148.913 235.33s0-.012-.012-.012c-.437-.512-.78-3.707-1.343-5.145-.647-1.64-.324-2.21-1.246-3.46-.708-.964-.682-1.247-1.047-2.212-.2-.57-.66-1.365-1.037-2.044-.908-1.63-1.177-2.46-1.41-3.59-.022-.07-.034-.142-.047-.213" fill="none" stroke="#231f20" stroke-width=".4018"/>
                </g>
                <g>
                    <path d="M156.304 224.355l-.012-.012c-.438-.442-1.595-2.07-2.41-3.036-.945-1.12-.99-1.31-1.938-2.322-.733-.786-.827-.93-1.372-1.573-.317-.382-.85-.976-1.3-1.477-1.11-1.25-1.558-1.798-2.113-2.513-.013-.024-.037-.058-.06-.082" fill="none" stroke="#231f20" stroke-width=".4018"/>
                </g>
                <g>
                    <path d="M68.248 224.752c.56-.177 4.335-.613 5.047-.563 1.412.088 1.422.61 2.933-.013 2.756-1.14 1.987-1.713 3.96-2.18 1.426-.315 3.1-.44 4.56-.72" fill="none" stroke="#231f20" stroke-width=".4018"/>
                </g>
                <g>
                    <path d="M69.288 210.63c.5-.426.49-.747 1.298-.874.568-.104 1.032-.303 1.533-.55.427-.225.96-.51 1.507-.52.05 0 .085.003.12.003" fill="none" stroke="#231f20" stroke-width=".4018"/>
                </g>
                <g>
                    <path d="M69.156 210.736c.048-.036.084-.07.12-.094" fill="none" stroke="#231f20" stroke-width=".4018"/>
                </g>
                <g>
                    <path d="M69.275 210.642c-.024.024-.058.046-.12.094-.023.025-.06.047-.093.07" fill="none" stroke="#231f20" stroke-width=".4018"/>
                </g>
                <g>
                    <path d="M69.275 210.642c.012 0 .012-.012.012-.012" fill="none" stroke="#231f20" stroke-width=".4018"/>
                </g>
                <g>
                    <path d="M61.72 212.404c.535-.247 1.01-.434 1.602-.374.298.026.547.18.856.193.557.05 1.2-.102 1.734-.23 1.165-.28 3.232-1.365 3.377-1.363" fill="none" stroke="#231f20" stroke-width=".4018"/>
                </g>
                <g>
                    <path d="M70.5 204.117c.377.62 1.687 2.748 3.127 4.57.59.74 1.205 1.44 1.798 1.955 1.11.965 1.81 1.656 2.564 2.857.848 1.37.967 1.32 2.186 2.3 1.397 1.108 2.508 2.36 3.26 3.622.71 1.14.294 1.115 1.313 1.856 1.55 1.11 4.636 4.064 5.566 6.12.094.192.165.37.21.55" fill="none" stroke="#231f20" stroke-width=".4018"/>
                </g>
                <g>
                    <path d="M79.36 199.546c-.585.96-1.864.17-2.778.406-.915.233-1.308.54-2.07 1.047-1.523.967-4.407 1.003-4.118 2.94 0 0 .034.058.092.166" fill="none" stroke="#231f20" stroke-width=".4018"/>
                </g>
                <g>
                    <path d="M100.826 223.298c-3.142-3.763-5.28-9.945-6.674-14.613-3.61-12.16-1.97-12.402-1.718-13.077" fill="none" stroke="#231f20" stroke-width=".4018"/>
                </g>
                <g>
                    <path d="M94.15 208.684c3.374-.177 5.88-.534 9.32-.32 2.8.14 4.736.445 7.655.457" fill="none" stroke="#231f20" stroke-width=".4018"/>
                </g>
                <g>
                    <path d="M116.17 212.4c.332-.485.678-.935.965-1.54.91-1.918 1.883-4.775 2.483-6.744.386-1.256.806-2.286 1.107-3.377.3-1.046.495-2.137.49-3.55.003-1.353.214-3.477.408-5.044.125-1.15.246-2.005.246-2.005-1.77-.03-3.553.807-5.345.907-1.995.1-3.99.093-5.814-.486 0 0-1.028 5.056-.7 6.28 0 0 .608 8.31.457 10.255-.05.774.21 1.308.66 1.726h.01c1.468 1.383 4.946 1.313 5.032 3.58" fill="none" stroke="#231f20" stroke-width=".4018"/>
                </g>
                <g>
                    <path d="M116.17 212.4s-.013 0 0 .013" fill="none" stroke="#231f20" stroke-width=".4018"/>
                </g>
                <g>
                    <path d="M113.633 220.262c.036-.12.06-.237.096-.356.843-3.095 1.6-5.87 1.78-6.344.18-.438.407-.806.658-1.15" fill="none" stroke="#231f20" stroke-width=".4018"/>
                </g>
                <g>
                    <path d="M111 229.368c.335-.653 1.538-5.087 2.633-9.095" fill="none" stroke="#231f20" stroke-width=".4018"/>
                </g>
                <g>
                    <path d="M121.707 192.16c.7-.448 1-1.09 1.798-1.324.653-.2 1.66-.004 2.36-.002 1.628.006 5 .175 5 .175.228 1.873-.54 4.234-.963 6.333-.12.617-.22 1.21-.257 1.768-.14 2.243-1.065 5.054-2.4 6.72-.656.82-.694 1.4-1.018 2.302-.048.142-.108.295-.18.462-.467 1.042-4.99-8.436-5.322-7.856-.012.025-.012.047-.014.083" fill="none" stroke="#231f20" stroke-width=".4018"/>
                </g>
                <g>
                    <path d="M129.9 197.344c1.022.004 5.192-1.334 6.532-.735" fill="none" stroke="#231f20" stroke-width=".4018"/>
                </g>
                <g>
                    <path d="M134.33 205.966c.013.012.037.012.047.024 1.163.49 2.992.12 4.263.135 1.115.006 2.158.26 3.24.452.115.024.246.048.364.072 1 .194 1.887.4 2.574 1.196.46.525-3.74 12.545-1.346 10.18.215-.213.478-.532.812-.994" fill="none" stroke="#231f20" stroke-width=".4018"/>
                </g>
                <g>
                    <path d="M123.023 217.187c.223.892.796 2.9 1.35 3.614.816 1.06 3.072.998 4.223 1.074 2.493.165 5.286 2.216 6.903 4.23" fill="none" stroke="#231f20" stroke-width=".4018"/>
                </g>
                <g>
                    <path d="M126.014 208.095c.072 0 .155.012.213.036 1.898.483 1.368 5.705 2.726 7.242" fill="none" stroke="#231f20" stroke-width=".4018"/>
                </g>
                <g>
                    <path d="M80.086 199.252c.046.06.13.084.25.096 1.767.197 11.16-3.803 12.097-3.738" fill="none" stroke="#231f20" stroke-width=".4018"/>
                </g>
                <g>
                    <path d="M155.12 207.815c.144-.058 1.253 1.643 1.24 2.154.58 3.43 5.26 2.464 5.26 2.512.356-.034 1.304.562 1.6.92" fill="none" stroke="#231f20" stroke-width=".4018"/>
                </g>
                <g>
                    <path d="M144.116 195.807c.21.77.888.265 1.55.753.204.157 3.173 2.542 4.13 3.33 1.018.833 2.004.777 3.298 1.068 1.423.3 3.815 1.925 3.815 1.925-.175 1.71-.503 3.56-1.79 4.932-.12.13-.25.26-.392.38-.692.612-3.77 1.966-4.51 2.39-1.783 1.04-2.307 1.69-3.06 2.837-.36.556-.766 1.22-1.385 2.107-.323.45-1.217 1.456-2.242 2.555l-.714.78c-1.227 1.3-2.467 2.615-2.99 3.206-.61.7-2.565 2.663-4.327 4.033-.94.73-1.833 1.298-2.427 1.414" fill="none" stroke="#231f20" stroke-width=".4018"/>
                </g>
                <g>
                    <path d="M142.258 206.578c.014-3.918-.4-7.03 1.62-10.356.082-.13.154-.274.238-.414 1.423-2.63 2.626-7.21 2.357-10.77 0 0-.506-1.118-1.433-1.453-.474-.17-1.577-.054-2.077.038-1.354.257-3.268 1.14-3.268 1.14l-2.55 8.596c-.11.804-.388 1.956-.713 3.25-.53 2.145-1.18 4.658-1.308 6.58-.062.915-.362 1.863-.745 2.8-.554 1.398-1.307 2.784-1.74 4.005-.67 1.885-2.22 3.79-3.688 5.374-.5.544-3.065 1.092-5.952 1.687-3.98.804-8.577 1.712-9.27 2.85-.084.117-.108.236-.098.354v.013" fill="none" stroke="#231f20" stroke-width=".4018"/>
                </g>
                <g>
                    <path d="M92.434 195.608l4.01-11.524" fill="none" stroke="#231f20" stroke-width=".4018"/>
                </g>
                <g>
                    <path d="M96.443 184.085l14.268 6.477" fill="none" stroke="#231f20" stroke-width=".4018"/>
                </g>
                <g>
                    <path d="M213.187 79.532c3.962-5.434 3.548-5.898 4.595-6.51 2.748-1.606 8.526-.917 11.565-.917" fill="none" stroke="#231f20" stroke-width=".4018"/>
                </g>
                <g>
                    <path d="M156.91 202.884c4.817-2.782 7.922-13.858 14.26-25.43 4.644-4.173 5.87-14.425 7.734-17.623 2.187-3.764 4.942-6.733 6.653-10.667 1.51-3.495 2.644-5.082 4.484-8.363 1.96-3.518 2.957-6.21 5.566-11.755 1.7-3.602 4.314-10.51 5.563-14.376 1.357-4.152 1.038-7.465 3.557-11.288 5.575-8.432 6.385-18.41 8.46-23.85" fill="none" stroke="#231f20" stroke-width=".4018"/>
                </g>
                <g>
                    <path d="M1.42 79.474c.106 0 .213 0 .32.012 9.424.416 11.59 10.93 16.092 16.775 2.834 3.682 2.485 1.994 4.405 5.42 2.017 3.618 1.648 6.914 3.864 10.985 4.953 9.074 14.22 18.868 16.394 27.826 3.178 13.048 6.07 10.922 7.275 15.782.887 3.61 4.31 5.276 6.648 8.357 2.293 3.06 5.192 8.447 6.96 11.897 3.557 6.97 5.852 27.16 7.11 27.58.01 0 .01.01.01.01" fill="none" stroke="#231f20" stroke-width=".4018"/>
                </g>
            </g>
        </g>
    </g>
</svg>
