<svg xmlns="http://www.w3.org/2000/svg" height="299.459" width="148.999" class="lg" viewBox="0 0 148.41396 298.62833">
    <g>
        <g>
            <g>
                <g>
                    <g class="qc" fill="#337abe">
                        <path d="M50.407 110.88c4.76-1.026 9.212-2.336 13.633-3.69v-.618c7.695 1.174 17.223.526 22.92 3.693.916 4.615 4.61 6.483 6.81 9.84-4.008 1.58-9.907.105-14.24 0-6.362-1.068-11.09-3.767-19.21-3.078h-1.237c-2.428-1.073-6.312-.705-8.676-1.843v-4.304z"/>
                    </g>
                    <g>
                        <g class="ground-initials" fill="#f89734">
                            <path d="M96.247 121.34c-.917-.33-1.56-.917-2.48-1.237-2.196-3.356-5.89-5.224-6.807-9.84-.255-1.483 1.127-1.336.62-3.073 1.844-6.772.456-16.77 4.33-21.525 1.134.926 3.478.657 4.337 1.843 3.917 2.263 9.84 2.535 14.25 4.308-2.53 9.79-6.88 17.758-11.153 25.83-.553 1.082-1.495 1.79-1.857 3.072-.72-.11-1.098.132-1.24.622"/>
                            <path d="M29.964 91.816c3.826-2.763 10.052-3.14 13.63-6.15 4.74 5.95 3.542 17.8 6.813 25.213v4.304c-2.625.875-6.775.243-9.293 1.23-.72-.516-1.66-.814-3.097-.618-2.56-8.11-6.145-15.218-8.053-23.98"/>
                        </g>
                    </g>
                    <g class="columella" fill="#3c4896">
                        <path d="M79.528 120.104c4.337.106 10.236 1.58 14.24 0 .917.32 1.563.907 2.48 1.237.142-.492.52-.73 1.24-.624-.268 2.52.574 3.94 1.236 5.535.333 4.668 4.686 2.177 8.677 2.456-.958 9.295-6.61 13.936-13.01 17.83-13.674 2.092-32.105-4.41-43.36-.613-5.184-5.93-11.674-10.544-12.394-20.903.626-3.073.61-6.778 2.48-8.605 2.518-.987 6.664-.356 9.29-1.23 2.367 1.137 6.248.77 8.676 1.842h1.24c8.118-.69 12.845 2.01 19.206 3.077"/>
                    </g>
                    <g>
                        <g class="ground" fill="#f1623b">
                            <path d="M114.214 91.2c-1.172 1.557-2.173-.565-3.717.614-4.414-1.77-10.336-2.04-14.25-4.304-.858-1.186-3.206-.92-4.336-1.846-1.865-1.827-2.743-4.647-2.472-8.61.888-4.854.91-10.566 1.85-15.363 7.198-2.01 10.69-2.278 15.49-2.46.623 0 .736-.5 1.24-.607.503 1.295 3.27 1.673 4.336.606-.355 1.993.423 2.855.62 4.303.66 9.513-1.382 19.484-.62 27.054.998-.173 1.066.58 1.86.612"/>
                            <path d="M43.592 85.666c-3.575 3.006-9.803 3.388-13.63 6.15-2.592-.9-4.717-2.282-7.426-3.076-2.387-6.872-5.922-23.515-5.577-29.51v.617c4.578 1.846 8.65-.843 15.482 0 1.434 1.448 5.838-.058 7.433 1.237 2.14 5.45 1.993 13.185 4.337 18.432.365 2.624-.446 4.07-.62 6.15"/>
                        </g>
                    </g>
                    <g>
                        <g class="protoderm" fill="#d8e037">
                            <path d="M58.463 21.104c-1.43-1.862-.216-6.34-.62-9.224-5.75-3.336-14.59-3.952-22.926-3.074 2.85-3.935 9.668-3.935 14.87-5.535 4.16 1.008 9.667.658 13.63 1.847-.808.622-1.534 1.318-2.174 2.113-2.473 3.083-3.59 7.522-2.78 13.874"/>
                            <path d="M60.32 24.795c-1 .173-1.065-.583-1.856-.615v-3.074c-.81-6.355.307-10.79 2.78-13.874l.01.01c4.776-1.51 11.44-2.126 16.06-.174-1.106 5.52.802 14.012-.887 18.958v1.843H73.95c-1.107-.745-3.603-.117-4.336-1.23h-.617c-3.106-.403-5.86-1.156-8.676-1.845"/>
                            <path d="M77.314 7.068c-4.62-1.952-11.285-1.336-16.06.173l-.01-.01c.64-.793 1.365-1.492 2.172-2.114 2.49-1.22 5.52-1.904 8.057-3.073 3.032.147 4.695-1.084 8.056-.616.09 1.138 2.095.375 2.476 1.23-.91 1.565-3.76 1.196-4.34 3.075-.14.426-.255.868-.352 1.336"/>
                            <path d="M96.864 10.036c13.003-.006 20.917 9.756 24.03 16.29-1.304.616-2.418 1.41-2.964 2.773h-.62c.1 1.53-.975 1.903-1.24 3.073-1.815 2.91-3.17 6.282-5.573 8.612-6.616-.814-8.08-6.74-13.013-9.227-1.32-5.648-.355-13.56-.568-20.317-.007-.41-.026-.81-.052-1.204"/>
                            <path d="M96.864 10.036c.026.394.045.795.052 1.205l-.14.01C95.007 7.24 82.567 4.2 77.32 7.07h-.008c.1-.468.217-.91.356-1.336.578-1.878 3.426-1.51 4.336-3.074-.38-.852-2.386-.093-2.477-1.23 4.524-.667 12.04-2.19 15.48.615 2.335 2.195 7.576 1.5 9.293 4.304-3.42.285-4.775 2.64-7.436 3.69"/>
                            <path d="M83.245 31.558v.615c-2.916-1.615-6.926-2.157-9.296-4.304h2.48v-1.847c1.684-4.942-.224-13.435.883-18.954h.007c5.247-2.873 17.688.172 19.455 4.18l.138-.008c.217 6.756-.75 14.67.572 20.316h-14.24z"/>
                            <path d="M120.896 26.328c-3.116-6.535-11.027-16.3-24.03-16.29 2.66-1.052 4.017-3.405 7.433-3.693 11.836 1.378 22.256 4.15 22.925 16.605-1.398 1.836-4.12 2.346-6.33 3.378"/>
                            <path d="M120.896 26.328c2.21-1.032 4.93-1.542 6.33-3.378h.616c.455 1.394 1.866 1.836 3.1 2.458 6.44 5.083 7.646 15.36 9.292 25.214v4.304c-.494 2.382-1.362 4.388-3.1 5.535 0-9.42-9.586-27.655-16.238-34.126v-.006z"/>
                            <path d="M120.896 26.336c6.652 6.47 16.24 24.704 16.24 34.124-5.76-2.9-14.868-2.46-21.684-4.3h-.62c-1.18-3.956-4.882-5.415-3.717-11.687h-.006l-.615-3.69c2.403-2.33 3.76-5.7 5.577-8.61.265-1.17 1.34-1.542 1.24-3.074h.62c.545-1.36 1.66-2.158 2.964-2.77v.006z"/>
                            <path d="M31.203 32.173c-1.663-5.314-1.166-12.775-1.24-19.68.86-2.015 2.215-3.54 4.953-3.688 8.338-.875 17.18-.262 22.926 3.074.404 2.887-.81 7.364.62 9.223v3.077c-1.453 2.452-5.938 1.894-7.433 4.304h-1.24c-2.47 1.026-4.52 2.484-6.814 3.69-2.903-.802-6.8-.632-10.533-.616-.132.477-.513.714-1.24.615"/>
                            <path d="M140.235 54.928v-4.304c-1.647-9.856-2.85-20.13-9.293-25.214-1.234-.622-2.645-1.064-3.1-2.46 1.876-1.418 4.314-2.277 6.197-3.69v-1.228c9.837 5.78 16.983 22.086 13.008 35.665-.303.72-.662 1.394-1.237 1.846-3.347-.05-3.29-.282-5.575-.615"/>
                            <path d="M11.384 32.788c3.717 2.667 6.196 6.55 11.773 7.38-1.573 3.164-2.57 6.88-4.337 9.84-.2 2.058-.645 3.87-1.86 4.92.075 1.096-.762 1.295-.62 2.458-1.436-.195-2.38.1-3.1.616-3.45-1.09-8.492-.6-11.77-1.843-3.806-11.485 1.783-21.205 8.057-26.446-.3 1.927 1.666 1.622 1.857 3.074"/>
                            <path d="M29.964 12.496c.07 6.904-.423 14.365 1.24 19.68-2.52 2.82-3.54 7.15-8.047 7.992-5.576-.827-8.056-4.715-11.773-7.378-.19-1.452-2.157-1.147-1.856-3.074.51-12 8.986-16.082 20.436-17.22"/>
                            <path d="M145.81 55.543c3.345 12.766 1.182 28.444-3.717 38.732-2.04 1.132-2.092.67-4.336 1.847-2.903-.41-5.625-.968-8.667-1.23l.15-1.395c7.442-5.01 9.54-20.984 7.894-33.034 1.74-1.15 2.605-3.157 3.1-5.535 2.286.336 2.23.564 5.576.615"/>
                            <path d="M38.017 115.797c1.437-.2 2.377.1 3.097.615-1.867 1.83-1.85 5.535-2.48 8.61-17.708.672-28.225-14.125-28.49-30.747 1.314-1.147 3.943-1 4.957-2.458 3.175-.34 4.983-2.025 7.437-3.077 2.71.795 4.83 2.173 7.427 3.077 1.908 8.763 5.492 15.87 8.053 23.98"/>
                            <path d="M15.102 91.816c-1.014 1.458-3.642 1.31-4.957 2.46C-.442 89.554 1.983 68.85 1.47 56.157 4.75 57.405 9.786 56.91 13.24 58c.717-.516 1.66-.81 3.1-.612.032.785.79.843.617 1.843-.347 5.994 3.19 22.638 5.578 29.51-2.454 1.05-4.265 2.74-7.436 3.076"/>
                            <path d="M127.225 22.95c-.668-12.456-11.088-15.225-22.926-16.606-1.72-2.8-6.956-2.106-9.294-4.3 16.242-.325 32.464 4.662 39.032 15.985v1.23c-1.882 1.41-4.32 2.272-6.196 3.69h-.617z"/>
                            <path d="M137.757 96.12c2.244-1.173 2.296-.715 4.337-1.843-.35 9.698-4.734 15.39-7.437 22.75v1.23c-5.55 3.666-12.884 10.464-24.782 9.842 10.313-7.196 16.845-18.13 19.206-33.21h.01c3.042.262 5.767.82 8.667 1.23"/>
                            <path d="M115.453 56.157c6.813 1.843 15.925 1.404 21.683 4.304 1.647 12.055-.456 28.026-7.895 33.035-3.66 2.468-8.608 2.29-15.027-2.295-.794-.032-.86-.788-1.86-.615-.76-7.567 1.282-17.538.62-27.05-.197-1.45-.972-2.31-.62-4.304.885-1.18 1.918-2.204 3.1-3.073"/>
                            <path d="M129.082 94.89c-2.36 15.08-8.896 26.015-19.206 33.207-1.108-.08-1.305.747-2.477.61-3.992-.28-8.344 2.21-8.674-2.456-.662-1.595-1.505-3.015-1.24-5.53.362-1.283 1.305-1.99 1.857-3.075 4.272-8.07 8.625-16.037 11.153-25.83 1.547-1.178 2.544.944 3.72-.614 6.416 4.584 11.363 4.764 15.024 2.296l-.148 1.394h-.01z"/>
                            <path d="M71.474 2.042c-2.538 1.173-5.57 1.852-8.056 3.074-3.966-1.19-9.474-.837-13.63-1.843C55.842.706 63.93.795 71.474 2.043"/>
                        </g>
                    </g>
                    <g>
                        <g class="vascular" fill="#ccb63d">
                            <path d="M62.178 70.292c.045-5.493-.304-14.634.62-17.21v-1.228c3.455 2.884 12.44 3 17.346 2.458 3.736 2.432 6.61 5.73 11.147 7.378-.94 4.798-.965 10.512-1.853 15.365-7.465.24-12.603-1.834-19.823-1.843-.852-1.205-3.8-.327-4.956-1.23.116-.517-.242-.572-.62-.616-.016-.6-.76-.472-1.24-.613-.048-.967.297-2.346-.62-2.46"/>
                            <path d="M62.8 72.752c.477.14 1.223.016 1.24.612-7.42 1.25-11.748 5.564-19.827 6.15-2.344-5.243-2.2-12.976-4.34-18.43 2.235-1.697 3.72-4.117 5.58-6.158 1.453.198 2.328.968 4.336.615 4.262-.9 9.522-.794 13.01-2.457-.924 2.574-.58 11.717-.62 17.208.916.12.567 1.494.62 2.462"/>
                        </g>
                    </g>
                    <g>
                        <g class="suspensor" fill="#c59d72">
                            <path d="M89.438 184.05c1.166 2.09 2.167-1.057 3.71-.614 2.13 6.704 1.702 18.53-.62 24.585-11.343 1.873-23.888-1.67-37.166 0-2.263-.002-2.783-1.742-4.336-2.454.148-7.775-2.18-17.08 1.24-22.746 2.974-.125 5.896-.298 8.053-1.23 6.244-.05 12.482-.1 17.345 1.23h.623c4.188-.064 6.68 1.558 11.15 1.23"/>
                            <path d="M93.768 161.91c-1.595.05-.643 2.63-3.097 1.846-1.784.074-4.048-.336-4.945.615-5.767-.845-12.17-1.05-18.59-1.23-2.286-1.42-7.217-.214-10.533-.615-2.005-.352-3.113.19-3.716 1.23-1.634-4.83-2.894-12.28-1.857-17.832 11.255-3.797 29.686 2.705 43.358.613 1.33 4.314.726 11.695-.62 15.374"/>
                            <path d="M58.668 297.447c-9.755-5.798-8.63-34.6-4.485-45.514.843.5 1.353 2.474 1.808.884 6.627-2.044 17.828.443 24.264-1.778 4.74.22 8.382-.626 11.7-1.79 6.45 10.85 5.12 33.1.89 46.41-12.622-.92-22.222 4.902-34.176 1.787"/>
                            <path d="M51.028 205.566c1.55.712 2.073 2.452 4.337 2.458 13.274-1.673 25.822 1.872 37.165 0 0 7.44 1.214 15.048 1.214 22.483-.46 6.372 1.347 15.013-1.792 18.743-3.316 1.164-6.955 2.01-11.698 1.79-6.432 2.22-17.637-.267-24.263 1.777-.454 1.59-.964-.384-1.804-.884-6.196-9.897-5.916-33.326-3.158-46.367"/>
                            <path d="M93.768 161.91c1.68 5.734.71 15.185-.617 21.525-1.545-.443-2.543 2.708-3.712.615-4.47.327-6.962-1.295-11.15-1.23h-.62c-4.866-1.33-11.104-1.28-17.346-1.228-2.157.933-5.082 1.102-8.056 1.227-.817-5.34-1.428-14.644.62-19.064.603-1.042 1.71-1.583 3.716-1.23 3.316.4 8.247-.805 10.533.615 6.42.18 12.823.385 18.59 1.23.897-.95 3.16-.54 4.946-.614 2.455.785 1.503-1.795 3.098-1.846"/>
                        </g>
                    </g>
                    <g>
                        <g class="inner-upper" fill="#22984f">
                            <path d="M111.114 44.472c-1.162 6.275 2.538 7.734 3.717 11.685h.624c-1.182.87-2.215 1.895-3.1 3.074-1.066 1.068-3.833.69-4.337-.605-.503.106-.616.606-1.24.606-4.798.184-8.292.453-15.49 2.462-4.533-1.65-7.41-4.945-11.142-7.38-1.32-5.1.48-12.16 1.86-16.603-.56-2.805 1.023-3.488 1.24-5.536v-.615h14.24c4.933 2.483 6.396 8.412 13.012 9.223l.61 3.69h.007z"/>
                            <path d="M62.8 51.852c.115-.526-.24-.583-.62-.615.047-9.478-1.2-17.67-1.86-26.442 2.815.686 5.57 1.443 8.675 1.843h.617c.736 1.116 3.23.484 4.337 1.23 2.372 2.148 6.38 2.69 9.295 4.305-.216 2.05-1.802 2.73-1.24 5.535-1.38 4.446-3.18 11.503-1.86 16.605-4.905.54-13.894.423-17.346-2.46"/>
                            <path d="M62.8 53.082c-3.488 1.663-8.748 1.558-13.01 2.46-2.01.35-2.884-.418-4.337-.614.297-8.407-5.073-14.09-2.48-22.755 2.296-1.205 4.346-2.664 6.816-3.69h1.236c1.495-2.41 5.983-1.852 7.436-4.304.792.03.86.788 1.857.615.66 8.772 1.907 16.964 1.86 26.44.38.036.735.094.62.616v1.232z"/>
                            <path d="M45.453 54.927c-1.86 2.042-3.345 4.46-5.58 6.157-1.592-1.295-5.996.21-7.43-1.237-6.835-.846-10.904 1.843-15.483 0v-.616c.17-1-.587-1.056-.62-1.842-.142-1.166.695-1.362.62-2.46 1.214-1.052 1.66-2.863 1.86-4.92 1.766-2.96 2.764-6.677 4.337-9.84 4.507-.846 5.528-5.173 8.046-7.997.727.1 1.108-.136 1.24-.614 3.733-.013 7.63-.186 10.53.615-2.593 8.668 2.777 14.35 2.48 22.757"/>
                        </g>
                    </g>
                    <g>
                        <g class="vascular-initials" fill="#eabd92">
                            <path d="M64.656 73.982c-3.255 9.003.652 21.464-.617 32.592v.615c-4.424 1.352-8.874 2.662-13.634 3.69-3.27-7.415-2.073-19.26-6.813-25.213.17-2.083.982-3.525.62-6.15 8.08-.59 12.406-4.904 19.826-6.15.377.04.732.1.616.615"/>
                            <path d="M64.656 73.982c1.156.9 4.104.026 4.957 1.23 7.22.01 12.357 2.08 19.826 1.844-.273 3.96.602 6.78 2.47 8.61-3.876 4.754-2.488 14.75-4.328 21.523.504 1.736-.878 1.59-.623 3.073-5.697-3.164-15.226-2.516-22.92-3.69 1.268-11.127-2.64-23.588.616-32.59"/>
                        </g>
                    </g>
                </g>
            </g>
        </g>
        <g>
            <path d="M0 0c-.366-.27-.686-.59-.96-.96" fill="none" stroke="#373535" stroke-width=".2" stroke-linecap="round" stroke-linejoin="round" transform="matrix(3.229 0 0 -3.205 115.386 55.988)"/>
        </g>
        <g>
            <path d="M0 0c-.622-.11-.893.13-1.343.192" fill="none" stroke="#373535" stroke-width=".2" stroke-linecap="round" stroke-linejoin="round" transform="matrix(3.229 0 0 -3.205 49.726 55.373)"/>
        </g>
        <g>
            <path d="M0 0c-1.08-.52-2.71-.486-4.03-.768" fill="none" stroke="#373535" stroke-width=".2" stroke-linecap="round" stroke-linejoin="round" transform="matrix(3.229 0 0 -3.205 62.737 52.911)"/>
        </g>
        <g>
            <path d="M0 0c.016 2.958-.37 5.513-.575 8.25" fill="none" stroke="#373535" stroke-width=".2" stroke-linecap="round" stroke-linejoin="round" transform="matrix(3.229 0 0 -3.205 62.114 51.068)"/>
        </g>
        <g>
            <path d="M0 0c.036.164-.074.182-.192.192" fill="none" stroke="#373535" stroke-width=".2" stroke-linecap="round" stroke-linejoin="round" transform="matrix(3.229 0 0 -3.205 62.737 51.683)"/>
        </g>
        <g>
            <path d="M0 0h.19" fill="none" stroke="#373535" stroke-width=".2" stroke-linecap="round" stroke-linejoin="round" transform="matrix(3.229 0 0 -3.205 68.934 26.469)"/>
        </g>
        <g>
            <path d="M0 0c-.765-.32-1.4-.775-2.11-1.15" fill="none" stroke="#373535" stroke-width=".2" stroke-linecap="round" stroke-linejoin="round" transform="matrix(3.229 0 0 -3.205 49.726 28.315)"/>
        </g>
        <g>
            <path d="M0 0c-.45-.765-1.84-.59-2.303-1.343" fill="none" stroke="#373535" stroke-width=".2" stroke-linecap="round" stroke-linejoin="round" transform="matrix(3.229 0 0 -3.205 58.4 24.01)"/>
        </g>
        <g>
            <path d="M0 0c.266.63.686 1.105 1.534 1.15" fill="none" stroke="#373535" stroke-width=".2" stroke-linecap="round" stroke-linejoin="round" transform="matrix(3.229 0 0 -3.205 29.904 12.326)"/>
        </g>
        <g>
            <path d="M0 0c3.047-1.803 5.26-6.892 4.03-11.128" fill="none" stroke="#373535" stroke-width=".2" stroke-linecap="round" stroke-linejoin="round" transform="matrix(3.229 0 0 -3.205 133.971 17.861)"/>
        </g>
        <g>
            <path d="M0 0c-.107-3.026-1.466-4.802-2.303-7.1" fill="none" stroke="#373535" stroke-width=".2" stroke-linecap="round" stroke-linejoin="round" transform="matrix(3.229 0 0 -3.205 142.025 94.107)"/>
        </g>
        <g>
            <path d="M0 0c-.7.002-.862.545-1.343.767.046 2.425-.676 5.33.384 7.096" fill="none" stroke="#373535" stroke-width=".2" stroke-linecap="round" stroke-linejoin="round" transform="matrix(3.229 0 0 -3.205 55.301 207.851)"/>
        </g>
        <g>
            <path d="M0 0c-3.513-.584-7.398.52-11.51 0" fill="none" stroke="#373535" stroke-width=".2" stroke-linecap="round" stroke-linejoin="round" transform="matrix(3.229 0 0 -3.205 92.465 207.851)"/>
        </g>
        <g>
            <path d="M0 0c.66-2.093.526-5.782-.192-7.672" fill="none" stroke="#373535" stroke-width=".2" stroke-linecap="round" stroke-linejoin="round" transform="matrix(3.229 0 0 -3.205 93.085 183.265)"/>
        </g>
        <g>
            <path d="M0 0c-.254 1.666-.442 4.57.19 5.948" fill="none" stroke="#373535" stroke-width=".2" stroke-linecap="round" stroke-linejoin="round" transform="matrix(3.229 0 0 -3.205 52.206 182.65)"/>
        </g>
        <g>
            <path d="M0 0c-.668-.29-1.573-.345-2.494-.384" fill="none" stroke="#373535" stroke-width=".2" stroke-linecap="round" stroke-linejoin="round" transform="matrix(3.229 0 0 -3.205 60.257 181.421)"/>
        </g>
        <g>
            <path d="M0 0c.41-1.346.225-3.648-.192-4.797" fill="none" stroke="#373535" stroke-width=".2" stroke-linecap="round" stroke-linejoin="round" transform="matrix(3.229 0 0 -3.205 94.324 146.366)"/>
        </g>
        <g>
            <path d="M0 0c-.506 1.507-.896 3.832-.575 5.564" fill="none" stroke="#373535" stroke-width=".2" stroke-linecap="round" stroke-linejoin="round" transform="matrix(3.229 0 0 -3.205 52.823 163.586)"/>
        </g>
        <g>
            <path d="M0 0c-.62.11-.964-.06-1.15-.384" fill="none" stroke="#373535" stroke-width=".2" stroke-linecap="round" stroke-linejoin="round" transform="matrix(3.229 0 0 -3.205 56.54 162.356)"/>
        </g>
        <g>
            <path d="M0 0c-1.786.264-3.77.327-5.757.384" fill="none" stroke="#373535" stroke-width=".2" stroke-linecap="round" stroke-linejoin="round" transform="matrix(3.229 0 0 -3.205 85.659 164.199)"/>
        </g>
        <g>
            <path d="M0 0c-4.234-.653-9.942 1.376-13.43.19" fill="none" stroke="#373535" stroke-width=".2" stroke-linecap="round" stroke-linejoin="round" transform="matrix(3.229 0 0 -3.205 94.324 146.366)"/>
        </g>
        <g>
            <path d="M0 0c-.297-2.9-2.047-4.35-4.03-5.563" fill="none" stroke="#373535" stroke-width=".2" stroke-linecap="round" stroke-linejoin="round" transform="matrix(3.229 0 0 -3.205 107.332 128.534)"/>
        </g>
        <g>
            <path d="M0 0c.78.308 2.064.11 2.878.384" fill="none" stroke="#373535" stroke-width=".2" stroke-linecap="round" stroke-linejoin="round" transform="matrix(3.229 0 0 -3.205 41.053 116.245)"/>
        </g>
        <g>
            <path d="M0 0c-1.604 1.85-3.615 3.29-3.838 6.52" fill="none" stroke="#373535" stroke-width=".2" stroke-linecap="round" stroke-linejoin="round" transform="matrix(3.229 0 0 -3.205 50.966 145.754)"/>
        </g>
        <g>
            <path d="M0 0c.59-2.734 1.7-4.952 2.494-7.482.445.06.736-.032.96-.193" fill="none" stroke="#373535" stroke-width=".2" stroke-linecap="round" stroke-linejoin="round" transform="matrix(3.229 0 0 -3.205 29.904 91.646)"/>
        </g>
        <g>
            <path d="M0 0c.982.105 1.543.632 2.303.96" fill="none" stroke="#373535" stroke-width=".2" stroke-linecap="round" stroke-linejoin="round" transform="matrix(3.229 0 0 -3.205 15.044 91.646)"/>
        </g>
        <g>
            <path d="M0 0c-5.484-.21-8.74 4.407-8.823 9.593" fill="none" stroke="#373535" stroke-width=".2" stroke-linecap="round" stroke-linejoin="round" transform="matrix(3.229 0 0 -3.205 38.576 124.852)"/>
        </g>
        <g>
            <path d="M0 0c-.578-.57-.573-1.727-.768-2.686" fill="none" stroke="#373535" stroke-width=".2" stroke-linecap="round" stroke-linejoin="round" transform="matrix(3.229 0 0 -3.205 41.053 116.245)"/>
        </g>
        <g>
            <path d="M0 0c-3.28 1.474-2.527 7.934-2.687 11.894" fill="none" stroke="#373535" stroke-width=".2" stroke-linecap="round" stroke-linejoin="round" transform="matrix(3.229 0 0 -3.205 10.088 94.107)"/>
        </g>
        <g>
            <path d="M0 0c-.314-.455-1.128-.41-1.535-.768" fill="none" stroke="#373535" stroke-width=".2" stroke-linecap="round" stroke-linejoin="round" transform="matrix(3.229 0 0 -3.205 15.044 91.646)"/>
        </g>
        <g>
            <path d="M0 0c.158 3.743 2.783 5.017 6.33 5.373" fill="none" stroke="#373535" stroke-width=".2" stroke-linecap="round" stroke-linejoin="round" transform="matrix(3.229 0 0 -3.205 9.468 29.545)"/>
        </g>
        <g>
            <path d="M0 0c.022-2.154-.13-4.482.384-6.14" fill="none" stroke="#373535" stroke-width=".2" stroke-linecap="round" stroke-linejoin="round" transform="matrix(3.229 0 0 -3.205 29.904 12.326)"/>
        </g>
        <g>
            <path d="M0 0c1.875.8 4.38.773 6.716.384" fill="none" stroke="#373535" stroke-width=".2" stroke-linecap="round" stroke-linejoin="round" transform="matrix(3.229 0 0 -3.205 49.726 3.103)"/>
        </g>
        <g>
            <path d="M0 0c-.903.504-2.145.673-2.88 1.343" fill="none" stroke="#373535" stroke-width=".2" stroke-linecap="round" stroke-linejoin="round" transform="matrix(3.229 0 0 -3.205 83.181 32.004)"/>
        </g>
        <g>
            <path d="M0 0c1.4.208 3.73.683 4.794-.192" fill="none" stroke="#373535" stroke-width=".2" stroke-linecap="round" stroke-linejoin="round" transform="matrix(3.229 0 0 -3.205 79.464 1.257)"/>
        </g>
        <g>
            <path d="M0 0c-.48.138-.788-.845-1.15-.192" fill="none" stroke="#373535" stroke-width=".2" stroke-linecap="round" stroke-linejoin="round" transform="matrix(3.229 0 0 -3.205 93.085 183.265)"/>
        </g>
        <g>
            <path d="M0 0c.52-1.79.22-4.738-.19-6.716" fill="none" stroke="#373535" stroke-width=".2" stroke-linecap="round" stroke-linejoin="round" transform="matrix(3.229 0 0 -3.205 93.702 161.74)"/>
        </g>
        <g>
            <path d="M0 0c.76-.245.465.56.96.576" fill="none" stroke="#373535" stroke-width=".2" stroke-linecap="round" stroke-linejoin="round" transform="matrix(3.229 0 0 -3.205 90.608 163.586)"/>
        </g>
        <g>
            <path d="M0 0c-1.507.415-3.438.4-5.372.384" fill="none" stroke="#373535" stroke-width=".2" stroke-linecap="round" stroke-linejoin="round" transform="matrix(3.229 0 0 -3.205 77.602 182.65)"/>
        </g>
        <g>
            <path d="M0 0h-.192" fill="none" stroke="#373535" stroke-width=".2" stroke-linecap="round" stroke-linejoin="round" transform="matrix(3.229 0 0 -3.205 78.225 182.65)"/>
        </g>
        <g>
            <path d="M0 0c-1.384-.102-2.156.404-3.453.384" fill="none" stroke="#373535" stroke-width=".2" stroke-linecap="round" stroke-linejoin="round" transform="matrix(3.229 0 0 -3.205 89.373 183.88)"/>
        </g>
        <g>
            <path d="M0 0c.278.297.98.17 1.532.19" fill="none" stroke="#373535" stroke-width=".2" stroke-linecap="round" stroke-linejoin="round" transform="matrix(3.229 0 0 -3.205 85.659 164.199)"/>
        </g>
        <g>
            <path d="M0 0c1.026-.125 2.554.25 3.262-.19" fill="none" stroke="#373535" stroke-width=".2" stroke-linecap="round" stroke-linejoin="round" transform="matrix(3.229 0 0 -3.205 56.54 162.356)"/>
        </g>
        <g>
            <path d="M0 0c2.384-.366 5.334-.164 7.1-1.15" fill="none" stroke="#373535" stroke-width=".2" stroke-linecap="round" stroke-linejoin="round" transform="matrix(3.229 0 0 -3.205 63.977 106.404)"/>
        </g>
        <g>
            <path d="M0 0v1.343" fill="none" stroke="#373535" stroke-width=".2" stroke-linecap="round" stroke-linejoin="round" transform="matrix(3.229 0 0 -3.205 50.344 115.014)"/>
        </g>
        <g>
            <path d="M0 0c-.752.335-1.954.22-2.687.575" fill="none" stroke="#373535" stroke-width=".2" stroke-linecap="round" stroke-linejoin="round" transform="matrix(3.229 0 0 -3.205 59.02 116.857)"/>
        </g>
        <g>
            <path d="M0 0h-.384" fill="none" stroke="#373535" stroke-width=".2" stroke-linecap="round" stroke-linejoin="round" transform="matrix(3.229 0 0 -3.205 60.257 116.857)"/>
        </g>
        <g>
            <path d="M0 0c-1.97.333-3.434 1.175-5.948.96" fill="none" stroke="#373535" stroke-width=".2" stroke-linecap="round" stroke-linejoin="round" transform="matrix(3.229 0 0 -3.205 79.464 119.934)"/>
        </g>
        <g>
            <path d="M0 0c-1.24-.493-3.067-.033-4.41 0" fill="none" stroke="#373535" stroke-width=".2" stroke-linecap="round" stroke-linejoin="round" transform="matrix(3.229 0 0 -3.205 93.702 119.934)"/>
        </g>
        <g>
            <path d="M0 0c-.08.463.35.417.192.96" fill="none" stroke="#373535" stroke-width=".2" stroke-linecap="round" stroke-linejoin="round" transform="matrix(3.229 0 0 -3.205 86.896 110.093)"/>
        </g>
        <g>
            <path d="M0 0c-.68 1.047-1.824 1.63-2.108 3.07" fill="none" stroke="#373535" stroke-width=".2" stroke-linecap="round" stroke-linejoin="round" transform="matrix(3.229 0 0 -3.205 93.702 119.934)"/>
        </g>
        <g>
            <path d="M0 0c-.223.033-.34-.04-.384-.194-.284.102-.483.286-.767.385" fill="none" stroke="#373535" stroke-width=".2" stroke-linecap="round" stroke-linejoin="round" transform="matrix(3.229 0 0 -3.205 97.421 120.547)"/>
        </g>
        <g>
            <path d="M0 0c-1.2-1.483-.77-4.603-1.34-6.716" fill="none" stroke="#373535" stroke-width=".2" stroke-linecap="round" stroke-linejoin="round" transform="matrix(3.229 0 0 -3.205 91.845 85.497)"/>
        </g>
        <g>
            <path d="M0 0c-1.107-.938-3.036-1.057-4.22-1.92" fill="none" stroke="#373535" stroke-width=".2" stroke-linecap="round" stroke-linejoin="round" transform="matrix(3.229 0 0 -3.205 43.532 85.497)"/>
        </g>
        <g>
            <path d="M0 0c.663-1.7.617-4.114 1.344-5.75" fill="none" stroke="#373535" stroke-width=".2" stroke-linecap="round" stroke-linejoin="round" transform="matrix(3.229 0 0 -3.205 39.813 60.913)"/>
        </g>
        <g>
            <path d="M0 0c-.74 2.144-1.835 7.337-1.728 9.207" fill="none" stroke="#373535" stroke-width=".2" stroke-linecap="round" stroke-linejoin="round" transform="matrix(3.229 0 0 -3.205 22.478 88.569)"/>
        </g>
        <g>
            <path d="M0 0c-.804.28-1.46.712-2.3.96" fill="none" stroke="#373535" stroke-width=".2" stroke-linecap="round" stroke-linejoin="round" transform="matrix(3.229 0 0 -3.205 29.904 91.646)"/>
        </g>
        <g>
            <path d="M0 0c.204-2.968-.428-6.08-.192-8.44" fill="none" stroke="#373535" stroke-width=".2" stroke-linecap="round" stroke-linejoin="round" transform="matrix(3.229 0 0 -3.205 112.909 63.365)"/>
        </g>
        <g>
            <path d="M0 0c-.578.57-.85 1.45-.766 2.687" fill="none" stroke="#373535" stroke-width=".2" stroke-linecap="round" stroke-linejoin="round" transform="matrix(3.229 0 0 -3.205 91.845 85.497)"/>
        </g>
        <g>
            <path d="M0 0c-.266.37-.992.286-1.343.575" fill="none" stroke="#373535" stroke-width=".2" stroke-linecap="round" stroke-linejoin="round" transform="matrix(3.229 0 0 -3.205 96.182 87.341)"/>
        </g>
        <g>
            <path d="M0 0c-1.366.553-3.2.638-4.413 1.344" fill="none" stroke="#373535" stroke-width=".2" stroke-linecap="round" stroke-linejoin="round" transform="matrix(3.229 0 0 -3.205 110.429 91.646)"/>
        </g>
        <g>
            <path d="M0 0c.31.054.33-.182.576-.19" fill="none" stroke="#373535" stroke-width=".2" stroke-linecap="round" stroke-linejoin="round" transform="matrix(3.229 0 0 -3.205 112.287 90.415)"/>
        </g>
        <g>
            <path d="M0 0c-.11-.622.13-.89.192-1.343" fill="none" stroke="#373535" stroke-width=".2" stroke-linecap="round" stroke-linejoin="round" transform="matrix(3.229 0 0 -3.205 112.287 59.06)"/>
        </g>
        <g>
            <path d="M0 0c.156-.404 1.013-.522 1.343-.19" fill="none" stroke="#373535" stroke-width=".2" stroke-linecap="round" stroke-linejoin="round" transform="matrix(3.229 0 0 -3.205 107.952 58.455)"/>
        </g>
        <g>
            <path d="M0 0c1.987-1.43 3.52-1.486 4.653-.717C6.958.847 7.608 5.83 7.1 9.59" fill="none" stroke="#373535" stroke-width=".2" stroke-linecap="round" stroke-linejoin="round" transform="matrix(3.229 0 0 -3.205 114.146 91.03)"/>
        </g>
        <g>
            <path d="M0 0c.48.368.788-.294 1.15.192" fill="none" stroke="#373535" stroke-width=".2" stroke-linecap="round" stroke-linejoin="round" transform="matrix(3.229 0 0 -3.205 110.429 91.646)"/>
        </g>
        <g>
            <path d="M0 0c1.323 2.518 2.67 5.004 3.454 8.06" fill="none" stroke="#373535" stroke-width=".2" stroke-linecap="round" stroke-linejoin="round" transform="matrix(3.229 0 0 -3.205 99.279 117.473)"/>
        </g>
        <g>
            <path d="M0 0c.112.4.404.62.575.96" fill="none" stroke="#373535" stroke-width=".2" stroke-linecap="round" stroke-linejoin="round" transform="matrix(3.229 0 0 -3.205 97.421 120.547)"/>
        </g>
        <g>
            <path d="M0 0c-.205.498-.466.94-.384 1.727" fill="none" stroke="#373535" stroke-width=".2" stroke-linecap="round" stroke-linejoin="round" transform="matrix(3.229 0 0 -3.205 98.659 126.08)"/>
        </g>
        <g>
            <path d="M0 0c-1.236.087-2.584-.69-2.687.766" fill="none" stroke="#373535" stroke-width=".2" stroke-linecap="round" stroke-linejoin="round" transform="matrix(3.229 0 0 -3.205 107.332 128.534)"/>
        </g>
        <g>
            <path d="M0 0c-.343.025-.403-.232-.767-.19" fill="none" stroke="#373535" stroke-width=".2" stroke-linecap="round" stroke-linejoin="round" transform="matrix(3.229 0 0 -3.205 109.81 127.929)"/>
        </g>
        <g>
            <path d="M0 0c-.632-.353-.647-.21-1.343-.575" fill="none" stroke="#373535" stroke-width=".2" stroke-linecap="round" stroke-linejoin="round" transform="matrix(3.229 0 0 -3.205 142.025 94.107)"/>
        </g>
        <g>
            <path d="M0 0c.708-.104.69-.176 1.727-.192" fill="none" stroke="#373535" stroke-width=".2" stroke-linecap="round" stroke-linejoin="round" transform="matrix(3.229 0 0 -3.205 140.168 54.757)"/>
        </g>
        <g>
            <path d="M0 0c2.502.184 3.842 1.53 6.14 1.92" fill="none" stroke="#373535" stroke-width=".2" stroke-linecap="round" stroke-linejoin="round" transform="matrix(3.229 0 0 -3.205 44.152 79.346)"/>
        </g>
        <g>
            <path d="M0 0c.054.65.305 1.1.192 1.92" fill="none" stroke="#373535" stroke-width=".2" stroke-linecap="round" stroke-linejoin="round" transform="matrix(3.229 0 0 -3.205 43.532 85.497)"/>
        </g>
        <g>
            <path d="M0 0c-1.013 2.313-.642 6.01-2.11 7.867" fill="none" stroke="#373535" stroke-width=".2" stroke-linecap="round" stroke-linejoin="round" transform="matrix(3.229 0 0 -3.205 50.344 110.711)"/>
        </g>
        <g>
            <path d="M0 0v-.192c-1.37-.422-2.748-.83-4.222-1.152" fill="none" stroke="#373535" stroke-width=".2" stroke-linecap="round" stroke-linejoin="round" transform="matrix(3.229 0 0 -3.205 63.977 106.404)"/>
        </g>
        <g>
            <path d="M0 0c-1.008-2.81.202-6.697-.19-10.17" fill="none" stroke="#373535" stroke-width=".2" stroke-linecap="round" stroke-linejoin="round" transform="matrix(3.229 0 0 -3.205 64.594 73.813)"/>
        </g>
        <g>
            <path d="M0 0c.18.14.29.35.384.576" fill="none" stroke="#373535" stroke-width=".2" stroke-linecap="round" stroke-linejoin="round" transform="matrix(3.229 0 0 -3.205 145.742 55.373)"/>
        </g>
        <g>
            <path d="M0 0c1.518 3.21 2.188 8.103 1.15 12.085" fill="none" stroke="#373535" stroke-width=".2" stroke-linecap="round" stroke-linejoin="round" transform="matrix(3.229 0 0 -3.205 142.025 94.107)"/>
        </g>
        <g>
            <path d="M0 0v.384" fill="none" stroke="#373535" stroke-width=".2" stroke-linecap="round" stroke-linejoin="round" transform="matrix(3.229 0 0 -3.205 62.737 52.911)"/>
        </g>
        <g>
            <path d="M0 0c.014 1.714-.094 4.566.192 5.37" fill="none" stroke="#373535" stroke-width=".2" stroke-linecap="round" stroke-linejoin="round" transform="matrix(3.229 0 0 -3.205 62.114 70.121)"/>
        </g>
        <g>
            <path d="M0 0c-.005.187-.235.147-.384.19-.015.303.092.733-.192.77" fill="none" stroke="#373535" stroke-width=".2" stroke-linecap="round" stroke-linejoin="round" transform="matrix(3.229 0 0 -3.205 63.977 73.195)"/>
        </g>
        <g>
            <path d="M0 0c.036.16-.074.18-.19.192" fill="none" stroke="#373535" stroke-width=".2" stroke-linecap="round" stroke-linejoin="round" transform="matrix(3.229 0 0 -3.205 64.594 73.813)"/>
        </g>
        <g>
            <path d="M0 0c-.264.376-1.177.103-1.535.384" fill="none" stroke="#373535" stroke-width=".2" stroke-linecap="round" stroke-linejoin="round" transform="matrix(3.229 0 0 -3.205 69.551 75.041)"/>
        </g>
        <g>
            <path d="M0 0c-2.313-.074-3.903.572-6.14.575" fill="none" stroke="#373535" stroke-width=".2" stroke-linecap="round" stroke-linejoin="round" transform="matrix(3.229 0 0 -3.205 89.373 76.885)"/>
        </g>
        <g>
            <path d="M0 0c-.29-1.497-.3-3.28-.573-4.794" fill="none" stroke="#373535" stroke-width=".2" stroke-linecap="round" stroke-linejoin="round" transform="matrix(3.229 0 0 -3.205 91.225 61.521)"/>
        </g>
        <g>
            <path d="M0 0c1.07-.9 3.853-.936 5.372-.768" fill="none" stroke="#373535" stroke-width=".2" stroke-linecap="round" stroke-linejoin="round" transform="matrix(3.229 0 0 -3.205 62.737 51.683)"/>
        </g>
        <g>
            <path d="M0 0c-1.404.515-2.295 1.543-3.45 2.302" fill="none" stroke="#373535" stroke-width=".2" stroke-linecap="round" stroke-linejoin="round" transform="matrix(3.229 0 0 -3.205 91.225 61.521)"/>
        </g>
        <g>
            <path d="M0 0c-1.486-.057-2.568-.14-4.797-.768" fill="none" stroke="#373535" stroke-width=".2" stroke-linecap="round" stroke-linejoin="round" transform="matrix(3.229 0 0 -3.205 106.713 59.06)"/>
        </g>
        <g>
            <path d="M0 0c-.41 1.59.148 3.794.576 5.18" fill="none" stroke="#373535" stroke-width=".2" stroke-linecap="round" stroke-linejoin="round" transform="matrix(3.229 0 0 -3.205 80.082 54.142)"/>
        </g>
        <g>
            <path d="M0 0c.054.312-.182.33-.19.575" fill="none" stroke="#373535" stroke-width=".2" stroke-linecap="round" stroke-linejoin="round" transform="matrix(3.229 0 0 -3.205 16.899 59.06)"/>
        </g>
        <g>
            <path d="M0 0c-2.116.264-3.377-.575-4.795 0v.192" fill="none" stroke="#373535" stroke-width=".2" stroke-linecap="round" stroke-linejoin="round" transform="matrix(3.229 0 0 -3.205 32.382 59.678)"/>
        </g>
        <g>
            <path d="M0 0c-.804-2.704.86-4.477.768-7.1" fill="none" stroke="#373535" stroke-width=".2" stroke-linecap="round" stroke-linejoin="round" transform="matrix(3.229 0 0 -3.205 42.912 32.004)"/>
        </g>
        <g>
            <path d="M0 0c.225-.03.343.043.384.192C1.54.197 2.747.25 3.646 0" fill="none" stroke="#373535" stroke-width=".2" stroke-linecap="round" stroke-linejoin="round" transform="matrix(3.229 0 0 -3.205 31.142 32.004)"/>
        </g>
        <g>
            <path d="M0 0c1.396.264 1.712 1.614 2.492 2.495" fill="none" stroke="#373535" stroke-width=".2" stroke-linecap="round" stroke-linejoin="round" transform="matrix(3.229 0 0 -3.205 23.096 39.999)"/>
        </g>
        <g>
            <path d="M0 0c-.493.404-1.857-.066-2.302.386" fill="none" stroke="#373535" stroke-width=".2" stroke-linecap="round" stroke-linejoin="round" transform="matrix(3.229 0 0 -3.205 39.813 60.913)"/>
        </g>
        <g>
            <path d="M0 0c-.576-.637-1.036-1.392-1.728-1.92" fill="none" stroke="#373535" stroke-width=".2" stroke-linecap="round" stroke-linejoin="round" transform="matrix(3.229 0 0 -3.205 45.392 54.757)"/>
        </g>
        <g>
            <path d="M0 0c-.093-.6.517-.506.575-.96" fill="none" stroke="#373535" stroke-width=".2" stroke-linecap="round" stroke-linejoin="round" transform="matrix(3.229 0 0 -3.205 9.468 29.545)"/>
        </g>
        <g>
            <path d="M0 0c-1.18 3.582.553 6.616 2.495 8.25" fill="none" stroke="#373535" stroke-width=".2" stroke-linecap="round" stroke-linejoin="round" transform="matrix(3.229 0 0 -3.205 1.411 55.988)"/>
        </g>
        <g>
            <path d="M0 0c-1.07.34-2.63.187-3.646.575" fill="none" stroke="#373535" stroke-width=".2" stroke-linecap="round" stroke-linejoin="round" transform="matrix(3.229 0 0 -3.205 13.182 57.831)"/>
        </g>
        <g>
            <path d="M0 0c-.445.062-.737-.03-.96-.19" fill="none" stroke="#373535" stroke-width=".2" stroke-linecap="round" stroke-linejoin="round" transform="matrix(3.229 0 0 -3.205 16.282 57.216)"/>
        </g>
        <g>
            <path d="M0 0c.023-.343-.235-.404-.19-.768" fill="none" stroke="#373535" stroke-width=".2" stroke-linecap="round" stroke-linejoin="round" transform="matrix(3.229 0 0 -3.205 16.899 54.757)"/>
        </g>
        <g>
            <path d="M0 0h.384" fill="none" stroke="#373535" stroke-width=".2" stroke-linecap="round" stroke-linejoin="round" transform="matrix(3.229 0 0 -3.205 49.726 28.315)"/>
        </g>
        <g>
            <path d="M0 0c-.156-.033-.19-.19-.384-.19" fill="none" stroke="#373535" stroke-width=".2" stroke-linecap="round" stroke-linejoin="round" transform="matrix(3.229 0 0 -3.205 107.952 58.455)"/>
        </g>
        <g>
            <path d="M0 0h-.192c-.366 1.233-1.512 1.688-1.152 3.646" fill="none" stroke="#373535" stroke-width=".2" stroke-linecap="round" stroke-linejoin="round" transform="matrix(3.229 0 0 -3.205 115.386 55.988)"/>
        </g>
        <g>
            <path d="M0 0c-1.783.905-4.604.768-6.715 1.343" fill="none" stroke="#373535" stroke-width=".2" stroke-linecap="round" stroke-linejoin="round" transform="matrix(3.229 0 0 -3.205 137.068 60.29)"/>
        </g>
        <g>
            <path d="M0 0c-.153-.742-.422-1.368-.96-1.727" fill="none" stroke="#373535" stroke-width=".2" stroke-linecap="round" stroke-linejoin="round" transform="matrix(3.229 0 0 -3.205 140.168 54.757)"/>
        </g>
        <g>
            <path d="M0 0v-1.343" fill="none" stroke="#373535" stroke-width=".2" stroke-linecap="round" stroke-linejoin="round" transform="matrix(3.229 0 0 -3.205 140.168 50.452)"/>
        </g>
        <g>
            <path d="M0 0c1.995-1.586 2.368-4.792 2.878-7.867" fill="none" stroke="#373535" stroke-width=".2" stroke-linecap="round" stroke-linejoin="round" transform="matrix(3.229 0 0 -3.205 130.874 25.24)"/>
        </g>
        <g>
            <path d="M0 0c.14-.435.578-.573.96-.768" fill="none" stroke="#373535" stroke-width=".2" stroke-linecap="round" stroke-linejoin="round" transform="matrix(3.229 0 0 -3.205 127.774 22.779)"/>
        </g>
        <g>
            <path d="M0 0c.082.366.415.48.384.96" fill="none" stroke="#373535" stroke-width=".2" stroke-linecap="round" stroke-linejoin="round" transform="matrix(3.229 0 0 -3.205 116.004 32.004)"/>
        </g>
        <g>
            <path d="M0 0v.192h4.41" fill="none" stroke="#373535" stroke-width=".2" stroke-linecap="round" stroke-linejoin="round" transform="matrix(3.229 0 0 -3.205 83.181 32.004)"/>
        </g>
        <g>
            <path d="M0 0c-.174.875.316 1.087.384 1.727" fill="none" stroke="#373535" stroke-width=".2" stroke-linecap="round" stroke-linejoin="round" transform="matrix(3.229 0 0 -3.205 81.942 37.537)"/>
        </g>
        <g>
            <path d="M0 0c1.15-.832 1.92-2.044 3.646-2.303" fill="none" stroke="#373535" stroke-width=".2" stroke-linecap="round" stroke-linejoin="round" transform="matrix(3.229 0 0 -3.205 11.325 32.617)"/>
        </g>
        <g>
            <path d="M0 0c-.062-.642-.2-1.208-.576-1.535" fill="none" stroke="#373535" stroke-width=".2" stroke-linecap="round" stroke-linejoin="round" transform="matrix(3.229 0 0 -3.205 18.761 49.837)"/>
        </g>
        <g>
            <path d="M0 0c-.486-.987-.796-2.146-1.343-3.07" fill="none" stroke="#373535" stroke-width=".2" stroke-linecap="round" stroke-linejoin="round" transform="matrix(3.229 0 0 -3.205 23.096 39.999)"/>
        </g>
        <g>
            <path d="M0 0c-.41 1.762-.11 4.23-.177 6.34-.002.127-.008.252-.015.375.824.327 1.244 1.062 2.302 1.152" fill="none" stroke="#373535" stroke-width=".2" stroke-linecap="round" stroke-linejoin="round" transform="matrix(3.229 0 0 -3.205 97.421 31.389)"/>
        </g>
        <g>
            <path d="M0 0c-.563-.908-.982-1.96-1.727-2.687-2.048.254-2.502 2.104-4.03 2.88" fill="none" stroke="#373535" stroke-width=".2" stroke-linecap="round" stroke-linejoin="round" transform="matrix(3.229 0 0 -3.205 116.004 32.004)"/>
        </g>
        <g>
            <path d="M0 0c-.433-.573-1.276-.732-1.96-1.054-.404-.192-.75-.44-.918-.865h-.192" fill="none" stroke="#373535" stroke-width=".2" stroke-linecap="round" stroke-linejoin="round" transform="matrix(3.229 0 0 -3.205 127.157 22.779)"/>
        </g>
        <g>
            <path d="M0 0c-.207 3.886-3.434 4.75-7.1 5.18" fill="none" stroke="#373535" stroke-width=".2" stroke-linecap="round" stroke-linejoin="round" transform="matrix(3.229 0 0 -3.205 127.157 22.779)"/>
        </g>
        <g>
            <path d="M0 0h-.19" fill="none" stroke="#373535" stroke-width=".2" stroke-linecap="round" stroke-linejoin="round" transform="matrix(3.229 0 0 -3.205 127.774 22.779)"/>
        </g>
        <g>
            <path d="M0 0v-.383c-.583-.44-1.338-.71-1.92-1.152" fill="none" stroke="#373535" stroke-width=".2" stroke-linecap="round" stroke-linejoin="round" transform="matrix(3.229 0 0 -3.205 133.971 17.861)"/>
        </g>
        <g>
            <path d="M0 0c5.03.1 10.054-1.456 12.088-4.99" fill="none" stroke="#373535" stroke-width=".2" stroke-linecap="round" stroke-linejoin="round" transform="matrix(3.229 0 0 -3.205 94.942 1.872)"/>
        </g>
        <g>
            <path d="M0 0c-.532.875-2.154.657-2.878 1.343" fill="none" stroke="#373535" stroke-width=".2" stroke-linecap="round" stroke-linejoin="round" transform="matrix(3.229 0 0 -3.205 104.235 6.175)"/>
        </g>
        <g>
            <path d="M0 0c1.287-.314 2.993-.205 4.22-.576" fill="none" stroke="#373535" stroke-width=".2" stroke-linecap="round" stroke-linejoin="round" transform="matrix(3.229 0 0 -3.205 49.726 3.103)"/>
        </g>
        <g>
            <path d="M0 0c.883 1.228 2.994 1.228 4.605 1.727" fill="none" stroke="#373535" stroke-width=".2" stroke-linecap="round" stroke-linejoin="round" transform="matrix(3.229 0 0 -3.205 34.856 8.636)"/>
        </g>
        <g>
            <path d="M0 0c-.443.58-.067 1.978-.192 2.878-1.78 1.04-4.518 1.233-7.1.96" fill="none" stroke="#373535" stroke-width=".2" stroke-linecap="round" stroke-linejoin="round" transform="matrix(3.229 0 0 -3.205 58.4 20.933)"/>
        </g>
        <g>
            <path d="M0 0c-.343.233-1.115.036-1.343.384" fill="none" stroke="#373535" stroke-width=".2" stroke-linecap="round" stroke-linejoin="round" transform="matrix(3.229 0 0 -3.205 73.885 27.699)"/>
        </g>
        <g>
            <path d="M0 0v-.576h-.768" fill="none" stroke="#373535" stroke-width=".2" stroke-linecap="round" stroke-linejoin="round" transform="matrix(3.229 0 0 -3.205 76.365 25.853)"/>
        </g>
        <g>
            <path d="M0 0c.028-.355.65-.118.768-.384-.283-.488-1.164-.373-1.344-.96" fill="none" stroke="#373535" stroke-width=".2" stroke-linecap="round" stroke-linejoin="round" transform="matrix(3.229 0 0 -3.205 79.464 1.257)"/>
        </g>
        <g>
            <path d="M0 0c.938-.046 1.453.338 2.494.192" fill="none" stroke="#373535" stroke-width=".2" stroke-linecap="round" stroke-linejoin="round" transform="matrix(3.229 0 0 -3.205 71.411 1.872)"/>
        </g>
        <g>
            <path d="M0 0c.77.38 1.71.594 2.495.96" fill="none" stroke="#373535" stroke-width=".2" stroke-linecap="round" stroke-linejoin="round" transform="matrix(3.229 0 0 -3.205 63.354 4.946)"/>
        </g>
        <g>
            <path d="M0 0c-.25 1.982.095 3.367.86 4.33.2.247.424.464.674.658" fill="none" stroke="#373535" stroke-width=".2" stroke-linecap="round" stroke-linejoin="round" transform="matrix(3.229 0 0 -3.205 58.4 20.933)"/>
        </g>
        <g>
            <path d="M0 0v.96" fill="none" stroke="#373535" stroke-width=".2" stroke-linecap="round" stroke-linejoin="round" transform="matrix(3.229 0 0 -3.205 58.4 24.01)"/>
        </g>
        <g>
            <path d="M0 0c-.31-.054-.33.182-.575.192" fill="none" stroke="#373535" stroke-width=".2" stroke-linecap="round" stroke-linejoin="round" transform="matrix(3.229 0 0 -3.205 60.257 24.625)"/>
        </g>
        <g>
            <path d="M0 0c-.962.125-1.814.36-2.687.576" fill="none" stroke="#373535" stroke-width=".2" stroke-linecap="round" stroke-linejoin="round" transform="matrix(3.229 0 0 -3.205 68.934 26.469)"/>
        </g>
        <g>
            <path d="M0 0c-.043-.133-.08-.27-.11-.417C-.45-2.14.14-4.79-.383-6.332" fill="none" stroke="#373535" stroke-width=".2" stroke-linecap="round" stroke-linejoin="round" transform="matrix(3.229 0 0 -3.205 77.602 5.559)"/>
        </g>
        <g>
            <path d="M0 0v-.384c-1.72-1.143-3.99-3.264-7.675-3.07" fill="none" stroke="#373535" stroke-width=".2" stroke-linecap="round" stroke-linejoin="round" transform="matrix(3.229 0 0 -3.205 134.588 116.857)"/>
        </g>
        <g>
            <path d="M0 0c3.193 2.244 5.217 5.656 5.948 10.36h.003c.943-.08 1.786-.255 2.685-.382" fill="none" stroke="#373535" stroke-width=".2" stroke-linecap="round" stroke-linejoin="round" transform="matrix(3.229 0 0 -3.205 109.81 127.929)"/>
        </g>
        <g>
            <path d="M0 0c2.06-2.02 5.03-7.708 5.03-10.647" fill="none" stroke="#373535" stroke-width=".2" stroke-linecap="round" stroke-linejoin="round" transform="matrix(3.229 0 0 -3.205 120.829 26.166)"/>
        </g>
        <g>
            <path d="M0 0l.19-1.15" fill="none" stroke="#373535" stroke-width=".2" stroke-linecap="round" stroke-linejoin="round" transform="matrix(3.229 0 0 -3.205 110.429 40.614)"/>
        </g>
        <g>
            <path d="M0 0c-.143-1.987.417-4.684-.555-5.848" fill="none" stroke="#373535" stroke-width=".2" stroke-linecap="round" stroke-linejoin="round" transform="matrix(3.229 0 0 -3.205 93.679 230.337)"/>
        </g>
        <g>
            <path d="M0 0c0-2.32.376-4.695.376-7.016" fill="none" stroke="#373535" stroke-width=".2" stroke-linecap="round" stroke-linejoin="round" transform="matrix(3.229 0 0 -3.205 92.465 207.851)"/>
        </g>
        <g>
            <path d="M0 0c-1.92 3.088-1.832 10.397-.978 14.467" fill="none" stroke="#373535" stroke-width=".2" stroke-linecap="round" stroke-linejoin="round" transform="matrix(3.229 0 0 -3.205 54.123 251.762)"/>
        </g>
        <g>
            <path d="M0 0c1.47-.07 2.597.194 3.623.558" fill="none" stroke="#373535" stroke-width=".2" stroke-linecap="round" stroke-linejoin="round" transform="matrix(3.229 0 0 -3.205 80.188 250.867)"/>
        </g>
        <g>
            <path d="M0 0c.26-.156.42-.772.56-.276" fill="none" stroke="#373535" stroke-width=".2" stroke-linecap="round" stroke-linejoin="round" transform="matrix(3.229 0 0 -3.205 54.123 251.762)"/>
        </g>
        <g>
            <path d="M0 0c-3.02 1.81-2.673 10.796-1.39 14.2" fill="none" stroke="#373535" stroke-width=".2" stroke-linecap="round" stroke-linejoin="round" transform="matrix(3.229 0 0 -3.205 58.607 297.276)"/>
        </g>
        <g>
            <path d="M0 0c1.998-3.385 1.586-10.328.276-14.48" fill="none" stroke="#373535" stroke-width=".2" stroke-linecap="round" stroke-linejoin="round" transform="matrix(3.229 0 0 -3.205 91.886 249.08)"/>
        </g>
        <g>
            <path d="M0 0c-1.992-.693-5.462.082-7.514-.556" fill="none" stroke="#373535" stroke-width=".2" stroke-linecap="round" stroke-linejoin="round" transform="matrix(3.229 0 0 -3.205 80.188 250.867)"/>
        </g>
        <g>
            <path d="M0 0c3.702-.972 6.675.845 10.584.558" fill="none" stroke="#373535" stroke-width=".2" stroke-linecap="round" stroke-linejoin="round" transform="matrix(3.229 0 0 -3.205 58.607 297.276)"/>
        </g>
        <g>
            <path d="M0 0c4.027.002 6.478-3.044 7.442-5.083v-.003" fill="none" stroke="#373535" stroke-width=".2" stroke-linecap="round" stroke-linejoin="round" transform="matrix(3.229 0 0 -3.205 96.799 9.864)"/>
        </g>
        <g>
            <path d="M0 0c1.625.896 5.478-.054 6.025-1.305" fill="none" stroke="#373535" stroke-width=".2" stroke-linecap="round" stroke-linejoin="round" transform="matrix(3.229 0 0 -3.205 77.256 6.898)"/>
        </g>
        <g>
            <path d="M0 0c1.48.47 3.543.663 4.974.054h.002" fill="none" stroke="#373535" stroke-width=".2" stroke-linecap="round" stroke-linejoin="round" transform="matrix(3.229 0 0 -3.205 61.192 7.069)"/>
        </g>
        <g>
            <path d="M0 0" fill="none" stroke="#373535" stroke-width=".2" stroke-linecap="round" stroke-linejoin="round" transform="matrix(3.229 0 0 -3.205 59.02 11.077)"/>
        </g>
    </g>
</svg>
