<svg xmlns="http://www.w3.org/2000/svg" height="300.834" width="148.583" class="lg" viewBox="0 0 148 300">
    <defs>
        <clipPath id="a">
            <path d="M436.675 313.737h45.816V128.88h-45.815v184.857z"/>
        </clipPath>
    </defs>
    <g>
        <g>
            <g>
                <g clip-path="url(#a)" transform="matrix(3.229 0 0 -3.205 -1410.761 1005.769)">
                    <g class="qc" fill="#337abe">
                        <path d="M452.215 279.27c1.474.32 2.853.73 4.222 1.15v.193c2.383-.366 5.334-.164 7.098-1.152.284-1.438 1.428-2.02 2.11-3.068-1.242-.493-3.07-.033-4.41 0-1.97.333-3.435 1.175-5.95.96h-.383c-.752.335-1.955.22-2.687.575v1.342z"/>
                    </g>
                    <g>
                        <g class="ground-initials" fill="#f89734">
                            <path d="M466.41 276.006c-.283.103-.482.286-.767.386-.68 1.047-1.824 1.63-2.108 3.07-.08.463.35.417.192.96.57 2.112.14 5.23 1.34 6.715.352-.29 1.078-.205 1.344-.575 1.214-.706 3.048-.79 4.414-1.344-.783-3.055-2.13-5.54-3.454-8.06-.17-.337-.463-.558-.575-.958-.223.034-.34-.04-.384-.194"/>
                            <path d="M445.884 285.218c1.185.862 3.113.98 4.22 1.92 1.47-1.858 1.098-5.555 2.11-7.868v-1.343c-.812-.273-2.097-.076-2.877-.384-.223.16-.514.254-.96.193-.792 2.53-1.902 4.748-2.493 7.482"/>
                        </g>
                    </g>
                    <g class="columella" fill="#3c4896">
                        <path d="M461.233 276.392c1.343-.033 3.17-.493 4.41 0 .284-.1.484-.283.768-.386.045.154.162.228.385.195-.083-.785.178-1.228.383-1.726.103-1.456 1.45-.68 2.687-.766-.297-2.9-2.047-4.348-4.03-5.563-4.234-.653-9.942 1.376-13.428.19-1.605 1.85-3.615 3.29-3.838 6.523.193.96.188 2.115.767 2.685.78.308 2.064.11 2.877.384.733-.355 1.935-.24 2.687-.575h.385c2.514.215 3.978-.627 5.948-.96"/>
                    </g>
                    <g>
                        <g class="ground" fill="#f1623b">
                            <path d="M471.976 285.41c-.363-.486-.673.176-1.15-.192-1.368.552-3.202.637-4.414 1.343-.266.37-.993.288-1.343.577-.58.57-.85 1.45-.767 2.686.275 1.515.282 3.297.573 4.794 2.23.627 3.31.71 4.797.768.193 0 .228.156.384.19.156-.405 1.013-.523 1.343-.19-.11-.622.13-.89.192-1.343.204-2.968-.428-6.08-.192-8.44.31.053.33-.182.576-.192"/>
                            <path d="M450.104 287.137c-1.107-.938-3.036-1.057-4.22-1.92-.804.282-1.462.713-2.3.96-.74 2.145-1.835 7.338-1.728 9.208v-.192c1.418-.576 2.68.263 4.795 0 .446-.452 1.81.018 2.304-.386.663-1.7.617-4.114 1.343-5.75.113-.82-.138-1.27-.192-1.92"/>
                        </g>
                    </g>
                    <g>
                        <g class="protoderm" fill="#d8e037">
                            <path d="M454.71 307.28c-.443.582-.067 1.98-.192 2.88-1.78 1.04-4.518 1.232-7.1.958.883 1.228 2.994 1.228 4.605 1.727 1.288-.314 2.994-.205 4.22-.576-.25-.195-.474-.412-.672-.66-.765-.962-1.11-2.347-.86-4.33"/>
                            <path d="M455.285 306.13c-.31-.055-.33.18-.575.19v.96c-.25 1.983.095 3.367.86 4.33l.004-.004c1.48.47 3.543.663 4.974.054-.343-1.722.248-4.372-.275-5.915v-.575h-.767c-.343.232-1.116.036-1.343.383h-.19c-.963.126-1.816.36-2.688.576"/>
                            <path d="M460.548 311.66c-1.43.61-3.495.417-4.974-.054l-.003.003c.2.247.424.465.674.66.77.38 1.71.593 2.495.958.938-.046 1.453.338 2.494.192.028-.355.65-.117.767-.384-.28-.488-1.163-.373-1.343-.96-.043-.132-.08-.27-.11-.416"/>
                            <path d="M466.603 310.734c4.027.002 6.478-3.044 7.442-5.083-.404-.19-.75-.44-.918-.864h-.192c.03-.478-.302-.594-.384-.96-.56-.907-.98-1.96-1.725-2.686-2.05.254-2.502 2.103-4.03 2.88-.41 1.76-.11 4.23-.176 6.338-.003.128-.01.253-.017.376"/>
                            <path d="M466.603 310.734c.008-.123.014-.248.016-.376l-.044-.003c-.548 1.25-4.4 2.2-6.026 1.305h-.002c.03.146.067.284.11.417.18.586 1.06.47 1.343.96-.117.265-.738.028-.766.383 1.4.208 3.73.683 4.794-.192.723-.685 2.346-.468 2.878-1.343-1.06-.09-1.48-.824-2.303-1.15"/>
                            <path d="M462.385 304.02v-.193c-.903.504-2.145.673-2.88 1.343h.77v.576c.52 1.542-.07 4.192.273 5.914h.002c1.625.896 5.478-.054 6.025-1.305l.043.003c.067-2.108-.232-4.577.177-6.34h-4.41z"/>
                            <path d="M474.045 305.65c-.965 2.04-3.415 5.087-7.442 5.084.824.328 1.244 1.062 2.302 1.152 3.666-.43 6.893-1.295 7.1-5.18-.433-.574-1.276-.733-1.96-1.055"/>
                            <path d="M474.045 305.65c.684.323 1.527.482 1.96 1.055h.19c.142-.435.58-.573.96-.767 1.996-1.586 2.37-4.792 2.88-7.867v-1.342c-.154-.743-.423-1.37-.96-1.727 0 2.94-2.97 8.63-5.03 10.65z"/>
                            <path d="M474.045 305.648c2.06-2.02 5.03-7.708 5.03-10.647-1.784.906-4.605.768-6.716 1.343h-.193c-.365 1.234-1.512 1.69-1.15 3.646h-.003l-.19 1.15c.744.727 1.164 1.78 1.727 2.687.083.365.416.48.385.96h.192c.17.423.514.672.918.863v-.002z"/>
                            <path d="M446.268 303.827c-.515 1.658-.36 3.986-.384 6.14.266.63.686 1.105 1.534 1.15 2.582.274 5.32.083 7.1-.958.125-.902-.25-2.3.192-2.88v-.96c-.45-.764-1.84-.59-2.302-1.342h-.384c-.765-.32-1.4-.775-2.11-1.15-.9.25-2.106.196-3.262.19-.04-.148-.16-.222-.384-.19"/>
                            <path d="M480.034 296.728v1.343c-.51 3.076-.883 6.282-2.878 7.868-.382.194-.82.332-.96.768.58.442 1.336.71 1.92 1.15v.384c3.046-1.803 5.26-6.89 4.028-11.128-.094-.225-.205-.435-.383-.576-1.036.016-1.018.088-1.726.192"/>
                            <path d="M440.13 303.635c1.15-.832 1.92-2.044 3.646-2.303-.487-.987-.796-2.146-1.343-3.07-.062-.642-.2-1.207-.576-1.535.023-.342-.236-.404-.192-.767-.445.06-.737-.03-.96-.192-1.07.34-2.63.187-3.645.575-1.18 3.583.552 6.616 2.495 8.25-.093-.6.516-.505.575-.958"/>
                            <path d="M445.884 309.967c.022-2.154-.13-4.482.384-6.14-.78-.88-1.096-2.23-2.492-2.494-1.727.258-2.495 1.47-3.646 2.302-.06.453-.668.358-.575.96.158 3.743 2.783 5.017 6.33 5.372"/>
                            <path d="M481.76 296.536c1.037-3.983.367-8.875-1.15-12.085-.632-.352-.648-.208-1.343-.575-.9.128-1.742.302-2.684.384l.046.434c2.304 1.563 2.954 6.547 2.444 10.307.54.36.807.986.96 1.728.708-.105.69-.176 1.727-.192"/>
                            <path d="M448.378 277.735c.445.062.736-.03.96-.192-.58-.57-.574-1.727-.77-2.686-5.483-.21-8.74 4.407-8.822 9.593.407.358 1.22.312 1.535.767.984.106 1.544.632 2.304.96.84-.248 1.496-.678 2.3-.96.59-2.734 1.7-4.952 2.494-7.482"/>
                            <path d="M441.28 285.218c-.313-.455-1.127-.41-1.534-.768-3.28 1.474-2.528 7.934-2.687 11.894 1.015-.39 2.575-.235 3.645-.575.222.16.514.252.96.19.01-.245.245-.263.19-.575-.106-1.87.99-7.063 1.73-9.207-.76-.328-1.322-.855-2.304-.96"/>
                            <path d="M476.005 306.705c-.207 3.886-3.434 4.75-7.1 5.18-.532.875-2.154.658-2.878 1.343 5.03.1 10.054-1.455 12.088-4.988v-.384c-.583-.44-1.338-.71-1.92-1.15h-.19z"/>
                            <path d="M479.267 283.875c.695.366.71.223 1.343.575-.108-3.026-1.466-4.802-2.303-7.098v-.384c-1.72-1.144-3.99-3.265-7.675-3.07 3.194 2.244 5.217 5.656 5.948 10.36h.003c.942-.08 1.786-.255 2.684-.383"/>
                            <path d="M472.36 296.344c2.11-.575 4.93-.438 6.714-1.343.51-3.76-.14-8.743-2.445-10.306-1.135-.77-2.667-.714-4.655.716-.246.01-.266.246-.576.192-.236 2.36.396 5.472.19 8.44-.06.452-.3.72-.19 1.343.273.368.593.688.96.96"/>
                            <path d="M476.58 284.26c-.73-4.706-2.755-8.118-5.948-10.362-.343.025-.404-.233-.767-.19-1.236.087-2.584-.69-2.686.766-.206.498-.467.94-.385 1.726.112.4.404.62.575.96 1.323 2.517 2.67 5.003 3.454 8.058.48.368.788-.294 1.152.192 1.987-1.43 3.52-1.486 4.653-.716l-.047-.435h-.003z"/>
                            <path d="M458.74 313.228c-.787-.366-1.726-.578-2.496-.96-1.228.373-2.934.263-4.22.577 1.874.8 4.38.772 6.715.383"/>
                        </g>
                    </g>
                    <g>
                        <g class="vascular" fill="#ccb63d">
                            <path d="M455.86 291.934c.014 1.714-.094 4.566.192 5.37v.383c1.07-.9 3.853-.936 5.372-.767 1.157-.76 2.047-1.788 3.452-2.302-.29-1.497-.3-3.28-.574-4.794-2.312-.075-3.903.572-6.14.575-.263.375-1.176.1-1.534.383.036.16-.075.178-.192.192-.005.187-.235.147-.384.19-.015.303.092.733-.192.77"/>
                            <path d="M456.053 291.166c.148-.044.38-.005.384-.19-2.298-.39-3.638-1.737-6.14-1.92-.726 1.636-.68 4.05-1.344 5.75.692.53 1.152 1.285 1.728 1.922.45-.062.722-.302 1.344-.192 1.32.28 2.95.248 4.03.767-.287-.803-.18-3.656-.193-5.37.285-.036.177-.465.193-.767"/>
                        </g>
                    </g>
                    <g>
                        <g class="suspensor" fill="#c59d72">
                            <path d="M464.303 256.44c.36-.653.67.33 1.15.19.66-2.09.526-5.78-.193-7.67-3.513-.584-7.398.52-11.51 0-.7 0-.862.544-1.343.766.046 2.426-.675 5.33.384 7.097.922.04 1.827.093 2.495.384 1.934.015 3.866.03 5.372-.384h.193c1.297.02 2.07-.486 3.453-.384"/>
                            <path d="M465.644 263.348c-.494-.016-.2-.82-.96-.576-.552-.023-1.253.105-1.53-.192-1.787.264-3.77.328-5.758.384-.708.443-2.235.067-3.262.192-.62.11-.964-.06-1.15-.384-.507 1.507-.897 3.832-.576 5.564 3.486 1.185 9.194-.844 13.428-.19.412-1.347.225-3.65-.192-4.798"/>
                            <path d="M454.773 221.06c-3.02 1.808-2.673 10.795-1.39 14.2.262-.156.42-.772.56-.276 2.053.638 5.522-.138 7.515.555 1.468-.07 2.596.194 3.623.557 2-3.385 1.587-10.328.277-14.48-3.91.287-6.882-1.53-10.584-.558"/>
                            <path d="M452.407 249.727c.48-.222.642-.765 1.343-.767 4.11.522 7.997-.584 11.51 0 0-2.32.376-4.695.376-7.015-.143-1.988.417-4.684-.555-5.848-1.026-.363-2.153-.627-3.622-.558-1.992-.694-5.462.082-7.514-.556-.14-.496-.3.12-.56.276-1.918 3.088-1.83 10.398-.977 14.467"/>
                            <path d="M465.644 263.348c.52-1.79.22-4.738-.19-6.716-.48.138-.79-.845-1.15-.192-1.385-.102-2.157.404-3.454.384h-.192c-1.507.415-3.44.4-5.372.383-.668-.29-1.574-.344-2.495-.383-.252 1.666-.44 4.57.193 5.948.187.325.53.494 1.15.384 1.028-.125 2.555.25 3.263-.192 1.988-.056 3.97-.12 5.757-.384.278.297.98.17 1.532.192.76-.245.465.56.96.576"/>
                        </g>
                    </g>
                    <g>
                        <g class="inner-upper" fill="#22984f">
                            <path d="M471.016 299.99c-.36-1.958.786-2.413 1.15-3.646h.194c-.366-.27-.686-.59-.96-.96-.33-.332-1.187-.214-1.343.19-.156-.033-.19-.19-.384-.19-1.486-.056-2.568-.14-4.797-.767-1.404.515-2.295 1.543-3.45 2.303-.41 1.59.148 3.794.575 5.18-.172.875.318 1.088.385 1.727v.192h4.41c1.528-.776 1.98-2.626 4.03-2.88l.19-1.15z"/>
                            <path d="M456.053 297.687c.036.164-.074.182-.192.192.016 2.956-.37 5.512-.575 8.25.872-.215 1.725-.45 2.687-.576h.19c.23-.348 1-.15 1.344-.384.735-.67 1.976-.84 2.88-1.343-.068-.64-.56-.852-.385-1.727-.426-1.387-.984-3.59-.575-5.18-1.52-.17-4.303-.133-5.372.767"/>
                            <path d="M456.053 297.303c-1.08-.52-2.71-.486-4.03-.768-.62-.11-.892.13-1.342.192.093 2.623-1.57 4.396-.767 7.1.71.376 1.346.83 2.11 1.15h.384c.463.753 1.853.58 2.303 1.344.245-.01.266-.245.575-.19.205-2.738.59-5.294.576-8.25.12-.012.23-.03.193-.193v-.384z"/>
                            <path d="M450.68 296.728c-.575-.637-1.035-1.392-1.727-1.92-.493.403-1.857-.067-2.3.385-2.118.264-3.378-.575-4.796 0v.192c.053.312-.182.33-.192.575-.044.364.215.425.192.768.376.328.514.893.576 1.535.547.923.856 2.083 1.343 3.07 1.396.264 1.712 1.614 2.492 2.495.225-.03.343.043.384.192 1.156.004 2.363.058 3.26-.192-.802-2.704.86-4.477.77-7.1"/>
                        </g>
                    </g>
                    <g>
                        <g class="vascular-initials" fill="#eabd92">
                            <path d="M456.628 290.782c-1.008-2.81.202-6.697-.19-10.17v-.19c-1.37-.423-2.75-.832-4.223-1.153-1.013 2.313-.642 6.01-2.11 7.866.053.65.304 1.1.192 1.92 2.502.183 3.842 1.53 6.14 1.918.117-.013.227-.03.19-.192"/>
                            <path d="M456.628 290.782c.358-.28 1.27-.008 1.535-.384 2.236-.003 3.827-.65 6.14-.575-.084-1.236.187-2.116.765-2.687-1.2-1.483-.77-4.602-1.34-6.715.156-.54-.272-.495-.193-.958-1.764.987-4.715.785-7.098 1.15.393 3.473-.817 7.36.19 10.17"/>
                        </g>
                    </g>
                </g>
            </g>
        </g>
        <g>
            <path d="M0 0c-.366-.27-.686-.59-.96-.96" fill="none" stroke="#373535" stroke-width=".2" stroke-linecap="round" stroke-linejoin="round" transform="matrix(3.229 0 0 -3.205 114.369 55.989)"/>
        </g>
        <g>
            <path d="M0 0c-.622-.11-.893.13-1.343.192" fill="none" stroke="#373535" stroke-width=".2" stroke-linecap="round" stroke-linejoin="round" transform="matrix(3.229 0 0 -3.205 48.709 55.374)"/>
        </g>
        <g>
            <path d="M0 0c-1.08-.52-2.71-.486-4.03-.768" fill="none" stroke="#373535" stroke-width=".2" stroke-linecap="round" stroke-linejoin="round" transform="matrix(3.229 0 0 -3.205 61.72 52.912)"/>
        </g>
        <g>
            <path d="M0 0c.016 2.958-.37 5.513-.575 8.25" fill="none" stroke="#373535" stroke-width=".2" stroke-linecap="round" stroke-linejoin="round" transform="matrix(3.229 0 0 -3.205 61.097 51.069)"/>
        </g>
        <g>
            <path d="M0 0c.036.164-.074.182-.192.192" fill="none" stroke="#373535" stroke-width=".2" stroke-linecap="round" stroke-linejoin="round" transform="matrix(3.229 0 0 -3.205 61.72 51.684)"/>
        </g>
        <g>
            <path d="M0 0h.19" fill="none" stroke="#373535" stroke-width=".2" stroke-linecap="round" stroke-linejoin="round" transform="matrix(3.229 0 0 -3.205 67.917 26.47)"/>
        </g>
        <g>
            <path d="M0 0c-.765-.32-1.4-.775-2.11-1.15" fill="none" stroke="#373535" stroke-width=".2" stroke-linecap="round" stroke-linejoin="round" transform="matrix(3.229 0 0 -3.205 48.709 28.316)"/>
        </g>
        <g>
            <path d="M0 0c-.45-.765-1.84-.59-2.303-1.343" fill="none" stroke="#373535" stroke-width=".2" stroke-linecap="round" stroke-linejoin="round" transform="matrix(3.229 0 0 -3.205 57.383 24.011)"/>
        </g>
        <g>
            <path d="M0 0c.266.63.686 1.105 1.534 1.15" fill="none" stroke="#373535" stroke-width=".2" stroke-linecap="round" stroke-linejoin="round" transform="matrix(3.229 0 0 -3.205 28.887 12.327)"/>
        </g>
        <g>
            <path d="M0 0c3.047-1.803 5.26-6.892 4.03-11.128" fill="none" stroke="#373535" stroke-width=".2" stroke-linecap="round" stroke-linejoin="round" transform="matrix(3.229 0 0 -3.205 132.954 17.862)"/>
        </g>
        <g>
            <path d="M0 0c-.107-3.026-1.466-4.802-2.303-7.1" fill="none" stroke="#373535" stroke-width=".2" stroke-linecap="round" stroke-linejoin="round" transform="matrix(3.229 0 0 -3.205 141.008 94.108)"/>
        </g>
        <g>
            <path d="M0 0c-.7.002-.862.545-1.343.767.046 2.425-.676 5.33.384 7.096" fill="none" stroke="#373535" stroke-width=".2" stroke-linecap="round" stroke-linejoin="round" transform="matrix(3.229 0 0 -3.205 54.284 207.852)"/>
        </g>
        <g>
            <path d="M0 0c-3.513-.584-7.398.52-11.51 0" fill="none" stroke="#373535" stroke-width=".2" stroke-linecap="round" stroke-linejoin="round" transform="matrix(3.229 0 0 -3.205 91.448 207.852)"/>
        </g>
        <g>
            <path d="M0 0c.66-2.093.526-5.782-.192-7.672" fill="none" stroke="#373535" stroke-width=".2" stroke-linecap="round" stroke-linejoin="round" transform="matrix(3.229 0 0 -3.205 92.068 183.266)"/>
        </g>
        <g>
            <path d="M0 0c-.254 1.666-.442 4.57.19 5.948" fill="none" stroke="#373535" stroke-width=".2" stroke-linecap="round" stroke-linejoin="round" transform="matrix(3.229 0 0 -3.205 51.189 182.651)"/>
        </g>
        <g>
            <path d="M0 0c-.668-.29-1.573-.345-2.494-.384" fill="none" stroke="#373535" stroke-width=".2" stroke-linecap="round" stroke-linejoin="round" transform="matrix(3.229 0 0 -3.205 59.24 181.422)"/>
        </g>
        <g>
            <path d="M0 0c.41-1.346.225-3.648-.192-4.797" fill="none" stroke="#373535" stroke-width=".2" stroke-linecap="round" stroke-linejoin="round" transform="matrix(3.229 0 0 -3.205 93.307 146.367)"/>
        </g>
        <g>
            <path d="M0 0c-.506 1.507-.896 3.832-.575 5.564" fill="none" stroke="#373535" stroke-width=".2" stroke-linecap="round" stroke-linejoin="round" transform="matrix(3.229 0 0 -3.205 51.806 163.587)"/>
        </g>
        <g>
            <path d="M0 0c-.62.11-.964-.06-1.15-.384" fill="none" stroke="#373535" stroke-width=".2" stroke-linecap="round" stroke-linejoin="round" transform="matrix(3.229 0 0 -3.205 55.523 162.357)"/>
        </g>
        <g>
            <path d="M0 0c-1.786.264-3.77.327-5.757.384" fill="none" stroke="#373535" stroke-width=".2" stroke-linecap="round" stroke-linejoin="round" transform="matrix(3.229 0 0 -3.205 84.642 164.2)"/>
        </g>
        <g>
            <path d="M0 0c-4.234-.653-9.942 1.376-13.43.19" fill="none" stroke="#373535" stroke-width=".2" stroke-linecap="round" stroke-linejoin="round" transform="matrix(3.229 0 0 -3.205 93.307 146.367)"/>
        </g>
        <g>
            <path d="M0 0c-.297-2.9-2.047-4.35-4.03-5.563" fill="none" stroke="#373535" stroke-width=".2" stroke-linecap="round" stroke-linejoin="round" transform="matrix(3.229 0 0 -3.205 106.315 128.535)"/>
        </g>
        <g>
            <path d="M0 0c.78.308 2.064.11 2.878.384" fill="none" stroke="#373535" stroke-width=".2" stroke-linecap="round" stroke-linejoin="round" transform="matrix(3.229 0 0 -3.205 40.036 116.246)"/>
        </g>
        <g>
            <path d="M0 0c-1.604 1.85-3.615 3.29-3.838 6.52" fill="none" stroke="#373535" stroke-width=".2" stroke-linecap="round" stroke-linejoin="round" transform="matrix(3.229 0 0 -3.205 49.949 145.755)"/>
        </g>
        <g>
            <path d="M0 0c.59-2.734 1.7-4.952 2.494-7.482.445.06.736-.032.96-.193" fill="none" stroke="#373535" stroke-width=".2" stroke-linecap="round" stroke-linejoin="round" transform="matrix(3.229 0 0 -3.205 28.887 91.647)"/>
        </g>
        <g>
            <path d="M0 0c.982.105 1.543.632 2.303.96" fill="none" stroke="#373535" stroke-width=".2" stroke-linecap="round" stroke-linejoin="round" transform="matrix(3.229 0 0 -3.205 14.027 91.647)"/>
        </g>
        <g>
            <path d="M0 0c-5.484-.21-8.74 4.407-8.823 9.593" fill="none" stroke="#373535" stroke-width=".2" stroke-linecap="round" stroke-linejoin="round" transform="matrix(3.229 0 0 -3.205 37.559 124.853)"/>
        </g>
        <g>
            <path d="M0 0c-.578-.57-.573-1.727-.768-2.686" fill="none" stroke="#373535" stroke-width=".2" stroke-linecap="round" stroke-linejoin="round" transform="matrix(3.229 0 0 -3.205 40.036 116.246)"/>
        </g>
        <g>
            <path d="M0 0c-3.28 1.474-2.527 7.934-2.687 11.894" fill="none" stroke="#373535" stroke-width=".2" stroke-linecap="round" stroke-linejoin="round" transform="matrix(3.229 0 0 -3.205 9.071 94.108)"/>
        </g>
        <g>
            <path d="M0 0c-.314-.455-1.128-.41-1.535-.768" fill="none" stroke="#373535" stroke-width=".2" stroke-linecap="round" stroke-linejoin="round" transform="matrix(3.229 0 0 -3.205 14.027 91.647)"/>
        </g>
        <g>
            <path d="M0 0c.158 3.743 2.783 5.017 6.33 5.373" fill="none" stroke="#373535" stroke-width=".2" stroke-linecap="round" stroke-linejoin="round" transform="matrix(3.229 0 0 -3.205 8.451 29.546)"/>
        </g>
        <g>
            <path d="M0 0c.022-2.154-.13-4.482.384-6.14" fill="none" stroke="#373535" stroke-width=".2" stroke-linecap="round" stroke-linejoin="round" transform="matrix(3.229 0 0 -3.205 28.887 12.327)"/>
        </g>
        <g>
            <path d="M0 0c1.875.8 4.38.773 6.716.384" fill="none" stroke="#373535" stroke-width=".2" stroke-linecap="round" stroke-linejoin="round" transform="matrix(3.229 0 0 -3.205 48.709 3.104)"/>
        </g>
        <g>
            <path d="M0 0c-.903.504-2.145.673-2.88 1.343" fill="none" stroke="#373535" stroke-width=".2" stroke-linecap="round" stroke-linejoin="round" transform="matrix(3.229 0 0 -3.205 82.164 32.005)"/>
        </g>
        <g>
            <path d="M0 0c1.4.208 3.73.683 4.794-.192" fill="none" stroke="#373535" stroke-width=".2" stroke-linecap="round" stroke-linejoin="round" transform="matrix(3.229 0 0 -3.205 78.447 1.258)"/>
        </g>
        <g>
            <path d="M0 0c-.48.138-.788-.845-1.15-.192" fill="none" stroke="#373535" stroke-width=".2" stroke-linecap="round" stroke-linejoin="round" transform="matrix(3.229 0 0 -3.205 92.068 183.266)"/>
        </g>
        <g>
            <path d="M0 0c.52-1.79.22-4.738-.19-6.716" fill="none" stroke="#373535" stroke-width=".2" stroke-linecap="round" stroke-linejoin="round" transform="matrix(3.229 0 0 -3.205 92.685 161.741)"/>
        </g>
        <g>
            <path d="M0 0c.76-.245.465.56.96.576" fill="none" stroke="#373535" stroke-width=".2" stroke-linecap="round" stroke-linejoin="round" transform="matrix(3.229 0 0 -3.205 89.591 163.587)"/>
        </g>
        <g>
            <path d="M0 0c-1.507.415-3.438.4-5.372.384" fill="none" stroke="#373535" stroke-width=".2" stroke-linecap="round" stroke-linejoin="round" transform="matrix(3.229 0 0 -3.205 76.585 182.651)"/>
        </g>
        <g>
            <path d="M0 0h-.192" fill="none" stroke="#373535" stroke-width=".2" stroke-linecap="round" stroke-linejoin="round" transform="matrix(3.229 0 0 -3.205 77.208 182.651)"/>
        </g>
        <g>
            <path d="M0 0c-1.384-.102-2.156.404-3.453.384" fill="none" stroke="#373535" stroke-width=".2" stroke-linecap="round" stroke-linejoin="round" transform="matrix(3.229 0 0 -3.205 88.356 183.881)"/>
        </g>
        <g>
            <path d="M0 0c.278.297.98.17 1.532.19" fill="none" stroke="#373535" stroke-width=".2" stroke-linecap="round" stroke-linejoin="round" transform="matrix(3.229 0 0 -3.205 84.642 164.2)"/>
        </g>
        <g>
            <path d="M0 0c1.026-.125 2.554.25 3.262-.19" fill="none" stroke="#373535" stroke-width=".2" stroke-linecap="round" stroke-linejoin="round" transform="matrix(3.229 0 0 -3.205 55.523 162.357)"/>
        </g>
        <g>
            <path d="M0 0c2.384-.366 5.334-.164 7.1-1.15" fill="none" stroke="#373535" stroke-width=".2" stroke-linecap="round" stroke-linejoin="round" transform="matrix(3.229 0 0 -3.205 62.96 106.405)"/>
        </g>
        <g>
            <path d="M0 0v1.343" fill="none" stroke="#373535" stroke-width=".2" stroke-linecap="round" stroke-linejoin="round" transform="matrix(3.229 0 0 -3.205 49.327 115.015)"/>
        </g>
        <g>
            <path d="M0 0c-.752.335-1.954.22-2.687.575" fill="none" stroke="#373535" stroke-width=".2" stroke-linecap="round" stroke-linejoin="round" transform="matrix(3.229 0 0 -3.205 58.003 116.858)"/>
        </g>
        <g>
            <path d="M0 0h-.384" fill="none" stroke="#373535" stroke-width=".2" stroke-linecap="round" stroke-linejoin="round" transform="matrix(3.229 0 0 -3.205 59.24 116.858)"/>
        </g>
        <g>
            <path d="M0 0c-1.97.333-3.434 1.175-5.948.96" fill="none" stroke="#373535" stroke-width=".2" stroke-linecap="round" stroke-linejoin="round" transform="matrix(3.229 0 0 -3.205 78.447 119.935)"/>
        </g>
        <g>
            <path d="M0 0c-1.24-.493-3.067-.033-4.41 0" fill="none" stroke="#373535" stroke-width=".2" stroke-linecap="round" stroke-linejoin="round" transform="matrix(3.229 0 0 -3.205 92.685 119.935)"/>
        </g>
        <g>
            <path d="M0 0c-.08.463.35.417.192.96" fill="none" stroke="#373535" stroke-width=".2" stroke-linecap="round" stroke-linejoin="round" transform="matrix(3.229 0 0 -3.205 85.879 110.094)"/>
        </g>
        <g>
            <path d="M0 0c-.68 1.047-1.824 1.63-2.108 3.07" fill="none" stroke="#373535" stroke-width=".2" stroke-linecap="round" stroke-linejoin="round" transform="matrix(3.229 0 0 -3.205 92.685 119.935)"/>
        </g>
        <g>
            <path d="M0 0c-.223.033-.34-.04-.384-.194-.284.102-.483.286-.767.385" fill="none" stroke="#373535" stroke-width=".2" stroke-linecap="round" stroke-linejoin="round" transform="matrix(3.229 0 0 -3.205 96.404 120.548)"/>
        </g>
        <g>
            <path d="M0 0c-1.2-1.483-.77-4.603-1.34-6.716" fill="none" stroke="#373535" stroke-width=".2" stroke-linecap="round" stroke-linejoin="round" transform="matrix(3.229 0 0 -3.205 90.828 85.498)"/>
        </g>
        <g>
            <path d="M0 0c-1.107-.938-3.036-1.057-4.22-1.92" fill="none" stroke="#373535" stroke-width=".2" stroke-linecap="round" stroke-linejoin="round" transform="matrix(3.229 0 0 -3.205 42.515 85.498)"/>
        </g>
        <g>
            <path d="M0 0c.663-1.7.617-4.114 1.344-5.75" fill="none" stroke="#373535" stroke-width=".2" stroke-linecap="round" stroke-linejoin="round" transform="matrix(3.229 0 0 -3.205 38.796 60.914)"/>
        </g>
        <g>
            <path d="M0 0c-.74 2.144-1.835 7.337-1.728 9.207" fill="none" stroke="#373535" stroke-width=".2" stroke-linecap="round" stroke-linejoin="round" transform="matrix(3.229 0 0 -3.205 21.461 88.57)"/>
        </g>
        <g>
            <path d="M0 0c-.804.28-1.46.712-2.3.96" fill="none" stroke="#373535" stroke-width=".2" stroke-linecap="round" stroke-linejoin="round" transform="matrix(3.229 0 0 -3.205 28.887 91.647)"/>
        </g>
        <g>
            <path d="M0 0c.204-2.968-.428-6.08-.192-8.44" fill="none" stroke="#373535" stroke-width=".2" stroke-linecap="round" stroke-linejoin="round" transform="matrix(3.229 0 0 -3.205 111.892 63.366)"/>
        </g>
        <g>
            <path d="M0 0c-.578.57-.85 1.45-.766 2.687" fill="none" stroke="#373535" stroke-width=".2" stroke-linecap="round" stroke-linejoin="round" transform="matrix(3.229 0 0 -3.205 90.828 85.498)"/>
        </g>
        <g>
            <path d="M0 0c-.266.37-.992.286-1.343.575" fill="none" stroke="#373535" stroke-width=".2" stroke-linecap="round" stroke-linejoin="round" transform="matrix(3.229 0 0 -3.205 95.165 87.342)"/>
        </g>
        <g>
            <path d="M0 0c-1.366.553-3.2.638-4.413 1.344" fill="none" stroke="#373535" stroke-width=".2" stroke-linecap="round" stroke-linejoin="round" transform="matrix(3.229 0 0 -3.205 109.412 91.647)"/>
        </g>
        <g>
            <path d="M0 0c.31.054.33-.182.576-.19" fill="none" stroke="#373535" stroke-width=".2" stroke-linecap="round" stroke-linejoin="round" transform="matrix(3.229 0 0 -3.205 111.27 90.416)"/>
        </g>
        <g>
            <path d="M0 0c-.11-.622.13-.89.192-1.343" fill="none" stroke="#373535" stroke-width=".2" stroke-linecap="round" stroke-linejoin="round" transform="matrix(3.229 0 0 -3.205 111.27 59.061)"/>
        </g>
        <g>
            <path d="M0 0c.156-.404 1.013-.522 1.343-.19" fill="none" stroke="#373535" stroke-width=".2" stroke-linecap="round" stroke-linejoin="round" transform="matrix(3.229 0 0 -3.205 106.935 58.456)"/>
        </g>
        <g>
            <path d="M0 0c1.987-1.43 3.52-1.486 4.653-.717C6.958.847 7.608 5.83 7.1 9.59" fill="none" stroke="#373535" stroke-width=".2" stroke-linecap="round" stroke-linejoin="round" transform="matrix(3.229 0 0 -3.205 113.129 91.031)"/>
        </g>
        <g>
            <path d="M0 0c.48.368.788-.294 1.15.192" fill="none" stroke="#373535" stroke-width=".2" stroke-linecap="round" stroke-linejoin="round" transform="matrix(3.229 0 0 -3.205 109.412 91.647)"/>
        </g>
        <g>
            <path d="M0 0c1.323 2.518 2.67 5.004 3.454 8.06" fill="none" stroke="#373535" stroke-width=".2" stroke-linecap="round" stroke-linejoin="round" transform="matrix(3.229 0 0 -3.205 98.262 117.474)"/>
        </g>
        <g>
            <path d="M0 0c.112.4.404.62.575.96" fill="none" stroke="#373535" stroke-width=".2" stroke-linecap="round" stroke-linejoin="round" transform="matrix(3.229 0 0 -3.205 96.404 120.548)"/>
        </g>
        <g>
            <path d="M0 0c-.205.498-.466.94-.384 1.727" fill="none" stroke="#373535" stroke-width=".2" stroke-linecap="round" stroke-linejoin="round" transform="matrix(3.229 0 0 -3.205 97.642 126.081)"/>
        </g>
        <g>
            <path d="M0 0c-1.236.087-2.584-.69-2.687.766" fill="none" stroke="#373535" stroke-width=".2" stroke-linecap="round" stroke-linejoin="round" transform="matrix(3.229 0 0 -3.205 106.315 128.535)"/>
        </g>
        <g>
            <path d="M0 0c-.343.025-.403-.232-.767-.19" fill="none" stroke="#373535" stroke-width=".2" stroke-linecap="round" stroke-linejoin="round" transform="matrix(3.229 0 0 -3.205 108.793 127.93)"/>
        </g>
        <g>
            <path d="M0 0c-.632-.353-.647-.21-1.343-.575" fill="none" stroke="#373535" stroke-width=".2" stroke-linecap="round" stroke-linejoin="round" transform="matrix(3.229 0 0 -3.205 141.008 94.108)"/>
        </g>
        <g>
            <path d="M0 0c.708-.104.69-.176 1.727-.192" fill="none" stroke="#373535" stroke-width=".2" stroke-linecap="round" stroke-linejoin="round" transform="matrix(3.229 0 0 -3.205 139.151 54.758)"/>
        </g>
        <g>
            <path d="M0 0c2.502.184 3.842 1.53 6.14 1.92" fill="none" stroke="#373535" stroke-width=".2" stroke-linecap="round" stroke-linejoin="round" transform="matrix(3.229 0 0 -3.205 43.135 79.347)"/>
        </g>
        <g>
            <path d="M0 0c.054.65.305 1.1.192 1.92" fill="none" stroke="#373535" stroke-width=".2" stroke-linecap="round" stroke-linejoin="round" transform="matrix(3.229 0 0 -3.205 42.515 85.498)"/>
        </g>
        <g>
            <path d="M0 0c-1.013 2.313-.642 6.01-2.11 7.867" fill="none" stroke="#373535" stroke-width=".2" stroke-linecap="round" stroke-linejoin="round" transform="matrix(3.229 0 0 -3.205 49.327 110.712)"/>
        </g>
        <g>
            <path d="M0 0v-.192c-1.37-.422-2.748-.83-4.222-1.152" fill="none" stroke="#373535" stroke-width=".2" stroke-linecap="round" stroke-linejoin="round" transform="matrix(3.229 0 0 -3.205 62.96 106.405)"/>
        </g>
        <g>
            <path d="M0 0c-1.008-2.81.202-6.697-.19-10.17" fill="none" stroke="#373535" stroke-width=".2" stroke-linecap="round" stroke-linejoin="round" transform="matrix(3.229 0 0 -3.205 63.577 73.814)"/>
        </g>
        <g>
            <path d="M0 0c.18.14.29.35.384.576" fill="none" stroke="#373535" stroke-width=".2" stroke-linecap="round" stroke-linejoin="round" transform="matrix(3.229 0 0 -3.205 144.725 55.374)"/>
        </g>
        <g>
            <path d="M0 0c1.518 3.21 2.188 8.103 1.15 12.085" fill="none" stroke="#373535" stroke-width=".2" stroke-linecap="round" stroke-linejoin="round" transform="matrix(3.229 0 0 -3.205 141.008 94.108)"/>
        </g>
        <g>
            <path d="M0 0v.384" fill="none" stroke="#373535" stroke-width=".2" stroke-linecap="round" stroke-linejoin="round" transform="matrix(3.229 0 0 -3.205 61.72 52.912)"/>
        </g>
        <g>
            <path d="M0 0c.014 1.714-.094 4.566.192 5.37" fill="none" stroke="#373535" stroke-width=".2" stroke-linecap="round" stroke-linejoin="round" transform="matrix(3.229 0 0 -3.205 61.097 70.122)"/>
        </g>
        <g>
            <path d="M0 0c-.005.187-.235.147-.384.19-.015.303.092.733-.192.77" fill="none" stroke="#373535" stroke-width=".2" stroke-linecap="round" stroke-linejoin="round" transform="matrix(3.229 0 0 -3.205 62.96 73.196)"/>
        </g>
        <g>
            <path d="M0 0c.036.16-.074.18-.19.192" fill="none" stroke="#373535" stroke-width=".2" stroke-linecap="round" stroke-linejoin="round" transform="matrix(3.229 0 0 -3.205 63.577 73.814)"/>
        </g>
        <g>
            <path d="M0 0c-.264.376-1.177.103-1.535.384" fill="none" stroke="#373535" stroke-width=".2" stroke-linecap="round" stroke-linejoin="round" transform="matrix(3.229 0 0 -3.205 68.534 75.042)"/>
        </g>
        <g>
            <path d="M0 0c-2.313-.074-3.903.572-6.14.575" fill="none" stroke="#373535" stroke-width=".2" stroke-linecap="round" stroke-linejoin="round" transform="matrix(3.229 0 0 -3.205 88.356 76.886)"/>
        </g>
        <g>
            <path d="M0 0c-.29-1.497-.3-3.28-.573-4.794" fill="none" stroke="#373535" stroke-width=".2" stroke-linecap="round" stroke-linejoin="round" transform="matrix(3.229 0 0 -3.205 90.208 61.522)"/>
        </g>
        <g>
            <path d="M0 0c1.07-.9 3.853-.936 5.372-.768" fill="none" stroke="#373535" stroke-width=".2" stroke-linecap="round" stroke-linejoin="round" transform="matrix(3.229 0 0 -3.205 61.72 51.684)"/>
        </g>
        <g>
            <path d="M0 0c-1.404.515-2.295 1.543-3.45 2.302" fill="none" stroke="#373535" stroke-width=".2" stroke-linecap="round" stroke-linejoin="round" transform="matrix(3.229 0 0 -3.205 90.208 61.522)"/>
        </g>
        <g>
            <path d="M0 0c-1.486-.057-2.568-.14-4.797-.768" fill="none" stroke="#373535" stroke-width=".2" stroke-linecap="round" stroke-linejoin="round" transform="matrix(3.229 0 0 -3.205 105.696 59.061)"/>
        </g>
        <g>
            <path d="M0 0c-.41 1.59.148 3.794.576 5.18" fill="none" stroke="#373535" stroke-width=".2" stroke-linecap="round" stroke-linejoin="round" transform="matrix(3.229 0 0 -3.205 79.065 54.143)"/>
        </g>
        <g>
            <path d="M0 0c.054.312-.182.33-.19.575" fill="none" stroke="#373535" stroke-width=".2" stroke-linecap="round" stroke-linejoin="round" transform="matrix(3.229 0 0 -3.205 15.882 59.061)"/>
        </g>
        <g>
            <path d="M0 0c-2.116.264-3.377-.575-4.795 0v.192" fill="none" stroke="#373535" stroke-width=".2" stroke-linecap="round" stroke-linejoin="round" transform="matrix(3.229 0 0 -3.205 31.365 59.679)"/>
        </g>
        <g>
            <path d="M0 0c-.804-2.704.86-4.477.768-7.1" fill="none" stroke="#373535" stroke-width=".2" stroke-linecap="round" stroke-linejoin="round" transform="matrix(3.229 0 0 -3.205 41.895 32.005)"/>
        </g>
        <g>
            <path d="M0 0c.225-.03.343.043.384.192C1.54.197 2.747.25 3.646 0" fill="none" stroke="#373535" stroke-width=".2" stroke-linecap="round" stroke-linejoin="round" transform="matrix(3.229 0 0 -3.205 30.125 32.005)"/>
        </g>
        <g>
            <path d="M0 0c1.396.264 1.712 1.614 2.492 2.495" fill="none" stroke="#373535" stroke-width=".2" stroke-linecap="round" stroke-linejoin="round" transform="matrix(3.229 0 0 -3.205 22.079 40)"/>
        </g>
        <g>
            <path d="M0 0c-.493.404-1.857-.066-2.302.386" fill="none" stroke="#373535" stroke-width=".2" stroke-linecap="round" stroke-linejoin="round" transform="matrix(3.229 0 0 -3.205 38.796 60.914)"/>
        </g>
        <g>
            <path d="M0 0c-.576-.637-1.036-1.392-1.728-1.92" fill="none" stroke="#373535" stroke-width=".2" stroke-linecap="round" stroke-linejoin="round" transform="matrix(3.229 0 0 -3.205 44.375 54.758)"/>
        </g>
        <g>
            <path d="M0 0c-.093-.6.517-.506.575-.96" fill="none" stroke="#373535" stroke-width=".2" stroke-linecap="round" stroke-linejoin="round" transform="matrix(3.229 0 0 -3.205 8.451 29.546)"/>
        </g>
        <g>
            <path d="M0 0c-1.18 3.582.553 6.616 2.495 8.25" fill="none" stroke="#373535" stroke-width=".2" stroke-linecap="round" stroke-linejoin="round" transform="matrix(3.229 0 0 -3.205 .394 55.989)"/>
        </g>
        <g>
            <path d="M0 0c-1.07.34-2.63.187-3.646.575" fill="none" stroke="#373535" stroke-width=".2" stroke-linecap="round" stroke-linejoin="round" transform="matrix(3.229 0 0 -3.205 12.165 57.832)"/>
        </g>
        <g>
            <path d="M0 0c-.445.062-.737-.03-.96-.19" fill="none" stroke="#373535" stroke-width=".2" stroke-linecap="round" stroke-linejoin="round" transform="matrix(3.229 0 0 -3.205 15.265 57.217)"/>
        </g>
        <g>
            <path d="M0 0c.023-.343-.235-.404-.19-.768" fill="none" stroke="#373535" stroke-width=".2" stroke-linecap="round" stroke-linejoin="round" transform="matrix(3.229 0 0 -3.205 15.882 54.758)"/>
        </g>
        <g>
            <path d="M0 0h.384" fill="none" stroke="#373535" stroke-width=".2" stroke-linecap="round" stroke-linejoin="round" transform="matrix(3.229 0 0 -3.205 48.709 28.316)"/>
        </g>
        <g>
            <path d="M0 0c-.156-.033-.19-.19-.384-.19" fill="none" stroke="#373535" stroke-width=".2" stroke-linecap="round" stroke-linejoin="round" transform="matrix(3.229 0 0 -3.205 106.935 58.456)"/>
        </g>
        <g>
            <path d="M0 0h-.192c-.366 1.233-1.512 1.688-1.152 3.646" fill="none" stroke="#373535" stroke-width=".2" stroke-linecap="round" stroke-linejoin="round" transform="matrix(3.229 0 0 -3.205 114.369 55.989)"/>
        </g>
        <g>
            <path d="M0 0c-1.783.905-4.604.768-6.715 1.343" fill="none" stroke="#373535" stroke-width=".2" stroke-linecap="round" stroke-linejoin="round" transform="matrix(3.229 0 0 -3.205 136.051 60.291)"/>
        </g>
        <g>
            <path d="M0 0c-.153-.742-.422-1.368-.96-1.727" fill="none" stroke="#373535" stroke-width=".2" stroke-linecap="round" stroke-linejoin="round" transform="matrix(3.229 0 0 -3.205 139.151 54.758)"/>
        </g>
        <g>
            <path d="M0 0v-1.343" fill="none" stroke="#373535" stroke-width=".2" stroke-linecap="round" stroke-linejoin="round" transform="matrix(3.229 0 0 -3.205 139.151 50.453)"/>
        </g>
        <g>
            <path d="M0 0c1.995-1.586 2.368-4.792 2.878-7.867" fill="none" stroke="#373535" stroke-width=".2" stroke-linecap="round" stroke-linejoin="round" transform="matrix(3.229 0 0 -3.205 129.857 25.241)"/>
        </g>
        <g>
            <path d="M0 0c.14-.435.578-.573.96-.768" fill="none" stroke="#373535" stroke-width=".2" stroke-linecap="round" stroke-linejoin="round" transform="matrix(3.229 0 0 -3.205 126.757 22.78)"/>
        </g>
        <g>
            <path d="M0 0c.082.366.415.48.384.96" fill="none" stroke="#373535" stroke-width=".2" stroke-linecap="round" stroke-linejoin="round" transform="matrix(3.229 0 0 -3.205 114.987 32.005)"/>
        </g>
        <g>
            <path d="M0 0v.192h4.41" fill="none" stroke="#373535" stroke-width=".2" stroke-linecap="round" stroke-linejoin="round" transform="matrix(3.229 0 0 -3.205 82.164 32.005)"/>
        </g>
        <g>
            <path d="M0 0c-.174.875.316 1.087.384 1.727" fill="none" stroke="#373535" stroke-width=".2" stroke-linecap="round" stroke-linejoin="round" transform="matrix(3.229 0 0 -3.205 80.925 37.538)"/>
        </g>
        <g>
            <path d="M0 0c1.15-.832 1.92-2.044 3.646-2.303" fill="none" stroke="#373535" stroke-width=".2" stroke-linecap="round" stroke-linejoin="round" transform="matrix(3.229 0 0 -3.205 10.308 32.618)"/>
        </g>
        <g>
            <path d="M0 0c-.062-.642-.2-1.208-.576-1.535" fill="none" stroke="#373535" stroke-width=".2" stroke-linecap="round" stroke-linejoin="round" transform="matrix(3.229 0 0 -3.205 17.744 49.838)"/>
        </g>
        <g>
            <path d="M0 0c-.486-.987-.796-2.146-1.343-3.07" fill="none" stroke="#373535" stroke-width=".2" stroke-linecap="round" stroke-linejoin="round" transform="matrix(3.229 0 0 -3.205 22.079 40)"/>
        </g>
        <g>
            <path d="M0 0c-.41 1.762-.11 4.23-.177 6.34-.002.127-.008.252-.015.375.824.327 1.244 1.062 2.302 1.152" fill="none" stroke="#373535" stroke-width=".2" stroke-linecap="round" stroke-linejoin="round" transform="matrix(3.229 0 0 -3.205 96.404 31.39)"/>
        </g>
        <g>
            <path d="M0 0c-.563-.908-.982-1.96-1.727-2.687-2.048.254-2.502 2.104-4.03 2.88" fill="none" stroke="#373535" stroke-width=".2" stroke-linecap="round" stroke-linejoin="round" transform="matrix(3.229 0 0 -3.205 114.987 32.005)"/>
        </g>
        <g>
            <path d="M0 0c-.433-.573-1.276-.732-1.96-1.054-.404-.192-.75-.44-.918-.865h-.192" fill="none" stroke="#373535" stroke-width=".2" stroke-linecap="round" stroke-linejoin="round" transform="matrix(3.229 0 0 -3.205 126.14 22.78)"/>
        </g>
        <g>
            <path d="M0 0c-.207 3.886-3.434 4.75-7.1 5.18" fill="none" stroke="#373535" stroke-width=".2" stroke-linecap="round" stroke-linejoin="round" transform="matrix(3.229 0 0 -3.205 126.14 22.78)"/>
        </g>
        <g>
            <path d="M0 0h-.19" fill="none" stroke="#373535" stroke-width=".2" stroke-linecap="round" stroke-linejoin="round" transform="matrix(3.229 0 0 -3.205 126.757 22.78)"/>
        </g>
        <g>
            <path d="M0 0v-.383c-.583-.44-1.338-.71-1.92-1.152" fill="none" stroke="#373535" stroke-width=".2" stroke-linecap="round" stroke-linejoin="round" transform="matrix(3.229 0 0 -3.205 132.954 17.862)"/>
        </g>
        <g>
            <path d="M0 0c5.03.1 10.054-1.456 12.088-4.99" fill="none" stroke="#373535" stroke-width=".2" stroke-linecap="round" stroke-linejoin="round" transform="matrix(3.229 0 0 -3.205 93.925 1.873)"/>
        </g>
        <g>
            <path d="M0 0c-.532.875-2.154.657-2.878 1.343" fill="none" stroke="#373535" stroke-width=".2" stroke-linecap="round" stroke-linejoin="round" transform="matrix(3.229 0 0 -3.205 103.218 6.176)"/>
        </g>
        <g>
            <path d="M0 0c1.287-.314 2.993-.205 4.22-.576" fill="none" stroke="#373535" stroke-width=".2" stroke-linecap="round" stroke-linejoin="round" transform="matrix(3.229 0 0 -3.205 48.709 3.104)"/>
        </g>
        <g>
            <path d="M0 0c.883 1.228 2.994 1.228 4.605 1.727" fill="none" stroke="#373535" stroke-width=".2" stroke-linecap="round" stroke-linejoin="round" transform="matrix(3.229 0 0 -3.205 33.839 8.637)"/>
        </g>
        <g>
            <path d="M0 0c-.443.58-.067 1.978-.192 2.878-1.78 1.04-4.518 1.233-7.1.96" fill="none" stroke="#373535" stroke-width=".2" stroke-linecap="round" stroke-linejoin="round" transform="matrix(3.229 0 0 -3.205 57.383 20.934)"/>
        </g>
        <g>
            <path d="M0 0c-.343.233-1.115.036-1.343.384" fill="none" stroke="#373535" stroke-width=".2" stroke-linecap="round" stroke-linejoin="round" transform="matrix(3.229 0 0 -3.205 72.868 27.7)"/>
        </g>
        <g>
            <path d="M0 0v-.576h-.768" fill="none" stroke="#373535" stroke-width=".2" stroke-linecap="round" stroke-linejoin="round" transform="matrix(3.229 0 0 -3.205 75.348 25.854)"/>
        </g>
        <g>
            <path d="M0 0c.028-.355.65-.118.768-.384-.283-.488-1.164-.373-1.344-.96" fill="none" stroke="#373535" stroke-width=".2" stroke-linecap="round" stroke-linejoin="round" transform="matrix(3.229 0 0 -3.205 78.447 1.258)"/>
        </g>
        <g>
            <path d="M0 0c.938-.046 1.453.338 2.494.192" fill="none" stroke="#373535" stroke-width=".2" stroke-linecap="round" stroke-linejoin="round" transform="matrix(3.229 0 0 -3.205 70.394 1.873)"/>
        </g>
        <g>
            <path d="M0 0c.77.38 1.71.594 2.495.96" fill="none" stroke="#373535" stroke-width=".2" stroke-linecap="round" stroke-linejoin="round" transform="matrix(3.229 0 0 -3.205 62.337 4.947)"/>
        </g>
        <g>
            <path d="M0 0c-.25 1.982.095 3.367.86 4.33.2.247.424.464.674.658" fill="none" stroke="#373535" stroke-width=".2" stroke-linecap="round" stroke-linejoin="round" transform="matrix(3.229 0 0 -3.205 57.383 20.934)"/>
        </g>
        <g>
            <path d="M0 0v.96" fill="none" stroke="#373535" stroke-width=".2" stroke-linecap="round" stroke-linejoin="round" transform="matrix(3.229 0 0 -3.205 57.383 24.011)"/>
        </g>
        <g>
            <path d="M0 0c-.31-.054-.33.182-.575.192" fill="none" stroke="#373535" stroke-width=".2" stroke-linecap="round" stroke-linejoin="round" transform="matrix(3.229 0 0 -3.205 59.24 24.626)"/>
        </g>
        <g>
            <path d="M0 0c-.962.125-1.814.36-2.687.576" fill="none" stroke="#373535" stroke-width=".2" stroke-linecap="round" stroke-linejoin="round" transform="matrix(3.229 0 0 -3.205 67.917 26.47)"/>
        </g>
        <g>
            <path d="M0 0c-.043-.133-.08-.27-.11-.417C-.45-2.14.14-4.79-.383-6.332" fill="none" stroke="#373535" stroke-width=".2" stroke-linecap="round" stroke-linejoin="round" transform="matrix(3.229 0 0 -3.205 76.585 5.56)"/>
        </g>
        <g>
            <path d="M0 0v-.384c-1.72-1.143-3.99-3.264-7.675-3.07" fill="none" stroke="#373535" stroke-width=".2" stroke-linecap="round" stroke-linejoin="round" transform="matrix(3.229 0 0 -3.205 133.571 116.858)"/>
        </g>
        <g>
            <path d="M0 0c3.193 2.244 5.217 5.656 5.948 10.36h.003c.943-.08 1.786-.255 2.685-.382" fill="none" stroke="#373535" stroke-width=".2" stroke-linecap="round" stroke-linejoin="round" transform="matrix(3.229 0 0 -3.205 108.793 127.93)"/>
        </g>
        <g>
            <path d="M0 0c2.06-2.02 5.03-7.708 5.03-10.647" fill="none" stroke="#373535" stroke-width=".2" stroke-linecap="round" stroke-linejoin="round" transform="matrix(3.229 0 0 -3.205 119.812 26.167)"/>
        </g>
        <g>
            <path d="M0 0l.19-1.15" fill="none" stroke="#373535" stroke-width=".2" stroke-linecap="round" stroke-linejoin="round" transform="matrix(3.229 0 0 -3.205 109.412 40.615)"/>
        </g>
        <g>
            <path d="M0 0c-.143-1.987.417-4.684-.555-5.848" fill="none" stroke="#373535" stroke-width=".2" stroke-linecap="round" stroke-linejoin="round" transform="matrix(3.229 0 0 -3.205 92.662 230.338)"/>
        </g>
        <g>
            <path d="M0 0c0-2.32.376-4.695.376-7.016" fill="none" stroke="#373535" stroke-width=".2" stroke-linecap="round" stroke-linejoin="round" transform="matrix(3.229 0 0 -3.205 91.448 207.852)"/>
        </g>
        <g>
            <path d="M0 0c-1.92 3.088-1.832 10.397-.978 14.467" fill="none" stroke="#373535" stroke-width=".2" stroke-linecap="round" stroke-linejoin="round" transform="matrix(3.229 0 0 -3.205 53.106 251.763)"/>
        </g>
        <g>
            <path d="M0 0c1.47-.07 2.597.194 3.623.558" fill="none" stroke="#373535" stroke-width=".2" stroke-linecap="round" stroke-linejoin="round" transform="matrix(3.229 0 0 -3.205 79.171 250.868)"/>
        </g>
        <g>
            <path d="M0 0c.26-.156.42-.772.56-.276" fill="none" stroke="#373535" stroke-width=".2" stroke-linecap="round" stroke-linejoin="round" transform="matrix(3.229 0 0 -3.205 53.106 251.763)"/>
        </g>
        <g>
            <path d="M0 0c-3.02 1.81-2.673 10.796-1.39 14.2" fill="none" stroke="#373535" stroke-width=".2" stroke-linecap="round" stroke-linejoin="round" transform="matrix(3.229 0 0 -3.205 57.59 297.277)"/>
        </g>
        <g>
            <path d="M0 0c1.998-3.385 1.586-10.328.276-14.48" fill="none" stroke="#373535" stroke-width=".2" stroke-linecap="round" stroke-linejoin="round" transform="matrix(3.229 0 0 -3.205 90.869 249.081)"/>
        </g>
        <g>
            <path d="M0 0c-1.992-.693-5.462.082-7.514-.556" fill="none" stroke="#373535" stroke-width=".2" stroke-linecap="round" stroke-linejoin="round" transform="matrix(3.229 0 0 -3.205 79.171 250.868)"/>
        </g>
        <g>
            <path d="M0 0c3.702-.972 6.675.845 10.584.558" fill="none" stroke="#373535" stroke-width=".2" stroke-linecap="round" stroke-linejoin="round" transform="matrix(3.229 0 0 -3.205 57.59 297.277)"/>
        </g>
        <g>
            <path d="M0 0c4.027.002 6.478-3.044 7.442-5.083v-.003" fill="none" stroke="#373535" stroke-width=".2" stroke-linecap="round" stroke-linejoin="round" transform="matrix(3.229 0 0 -3.205 95.782 9.865)"/>
        </g>
        <g>
            <path d="M0 0c1.625.896 5.478-.054 6.025-1.305" fill="none" stroke="#373535" stroke-width=".2" stroke-linecap="round" stroke-linejoin="round" transform="matrix(3.229 0 0 -3.205 76.239 6.899)"/>
        </g>
        <g>
            <path d="M0 0c1.48.47 3.543.663 4.974.054h.002" fill="none" stroke="#373535" stroke-width=".2" stroke-linecap="round" stroke-linejoin="round" transform="matrix(3.229 0 0 -3.205 60.175 7.07)"/>
        </g>
        <g>
            <path d="M0 0" fill="none" stroke="#373535" stroke-width=".2" stroke-linecap="round" stroke-linejoin="round" transform="matrix(3.229 0 0 -3.205 58.003 11.078)"/>
        </g>
        <g class="warning-sign" display="none">
            <g transform="matrix(3.645 0 0 3.618 -1129.177 -1110.148)">
                <path d="M348.103 387.117l-5.078-8.27c-.08-.12-.226-.213-.386-.213s-.307.068-.386.212l-5.078 8.27c-.08.142-.08.29 0 .42.08.118.226.213.386.213h10.155c.16 0 .306-.07.386-.214.08-.117.08-.29 0-.42z" fill="#f4c430"/>
                <path fill="#fff" d="M346.637 386.74l-3.998-6.512-3.998 6.512z"/>
                <path d="M342.238 384.355c.02.19.057.342.11.438.05.094.142.14.273.14h.04c.13 0 .22-.046.272-.14.05-.094.088-.243.11-.438l.116-1.518c.018-.296.032-.506.032-.636 0-.164-.05-.31-.16-.41-.1-.093-.243-.14-.39-.14-.15 0-.293.047-.393.14-.106.095-.16.237-.16.41 0 .12.014.343.033.637l.116 1.518z"/>
                <ellipse ry=".525" rx=".559" cy="385.849" cx="342.639"/>
            </g>
        </g>
    </g>
</svg>
