<svg xmlns="http://www.w3.org/2000/svg" width="275.054" height="297.573" viewBox="0 0 275.05435 297.5726" class="root">
    <defs>
        <clipPath id="a">
            <path d="M0 850.39h566.93V0H0v850.39z"/>
        </clipPath>
        <clipPath id="b">
            <path d="M237.34 702.17h71.31V243.74h-71.31v458.43z"/>
        </clipPath>
    </defs>
    <g>
        <g>
            <g clip-path="url(#a)" transform="matrix(.509 0 0 -.509 -14.823 358.693)">
                <g>
                    <g>
                        <g clip-path="url(#b)" transform="matrix(2.15 0 0 1.309 -314.278 -216.628)">
                            <g class="high" fill="#ef4637">
                                <path d="M246.2 429.735l59.787.883c-1.107-33.08-3.8-61.51-6.202-84.1-1.626-15.303-2.593-27.73-3.777-36.84-.692-5.324-2.08-9.437-2.792-13.67-1.652-9.818-2.13-17.823-3.857-22.658l-2.612-6.883-1.763-3.195-2.903-2.725-3.78-2.258-3.25-.916-2.786 1.45-2.114 4.2-3.8 9.792c-2.17 6.43-3.655 11.467-4.624 18.147-1.137 7.834-2.913 16.567-4.393 26.344-2.21 14.593-4.262 31.1-6.572 47.108-3.027 20.975-5.654 40.545-6.8 65.57" stroke-width="1.31"/>
                            </g>
                            <g class="medium" fill="#fec34b">
                                <path d="M240.51 521.262l64.638.17c.116-14.208.61-35.217.46-57.53-.073-11.045.113-22.35.065-33.742l-61.746-.478c-.122 10.226-.687 19.932-1.068 30.12-.602 16.064-.603 33.012-1.47 45.977-.382 5.706-.408 11.002-.776 15.482" stroke-width=".79"/>
                            </g>
                            <g class="low" fill="#fee830">
                                <path d="M237.34 671.42l70.62-.416c.3-26.19-1.247-101.585-1.83-128.473.808-3.246-.442-10.517-.982-21.443l-64.534.06c-.326 12.835-.388 21.345-.668 25.758.42 12.92-.975 39.196-1.363 64.806-.22 14.432-.514 29.987-.62 41.964-.065 7.2-.37 13.128-.623 17.745" stroke-width=".911"/>
                            </g>
                        </g>
                    </g>
                </g>
                <g>
                    <path d="M195.26 702.36c0-9.31-.41-18.72.01-28.01.82-18.32 2.49-38.92 2.46-57.33-.04-32.91 3.37-63.54 4.07-95.94.08-3.62.13-7.26.13-10.93.04-45.05 3.94-89.57 6.8-134.42.7-10.89 1.33-21.8 1.83-32.74 1.41-30.52 8.52-61.8 16.02-91.73 5.92-23.59 10.75-50.24 18.01-73.44 4.67-14.92 5.05-26.28 14.74-38.88 4.8-6.24 8.18-17.76 16.59-18.6 6.74-.66 14.02 2.83 19.89 5.96 7.79 4.15 15.06 18.89 16.24 27.11 2.37 16.4 10.286 34.073 12.786 50.414 7.36 48.12 17.744 96.875 18.284 142.646.12 9.89.17 19.71.16 29.51-.02 26.06-.48 51.93-1.35 78.21-.56 16.87 2.67 34.03 2.67 50.83 0 5.45.08 10.89.23 16.31.74 29.05 3.1 57.74 3.1 86.81v66.89c0 9.01-.6 17.79-.67 26.66" fill="none" stroke="#373535" stroke-width=".5" stroke-linecap="round" stroke-linejoin="round"/>
                </g>
                <g>
                    <path d="M291.24 243.74h.76v-7.04h-29.33v7.04h28.57z" fill="none" stroke="#373535" stroke-width=".5" stroke-linecap="round" stroke-linejoin="round"/>
                </g>
                <g>
                    <path d="M237.33 702.36v-.08c.01-.03.01-.07.01-.11 1.4-30.7 1.7-120.25 5.33-150.5.49-4.11 1.18-15.05 2.03-30.51 1.9-34.58 4.57-91.74 7.48-145.35 3.44-63.3 7.23-121.65 10.49-132.07" fill="none" stroke="#373535" stroke-width=".5" stroke-linecap="round" stroke-linejoin="round"/>
                </g>
                <g>
                    <path d="M308.67 702.36c0-.07-.01-.13-.01-.2 0-.1-.01-.2-.01-.3-1.36-31.03.97-124.24-2.65-154.39-.45-3.74-.94-13.05-1.48-26.21-1.38-33.21-3.06-90.92-5.06-145.36-2.3-61.9-5.02-119.55-8.22-132.16-.08-.32-.16-.61-.24-.87" fill="none" stroke="#373535" stroke-width=".5" stroke-linecap="round" stroke-linejoin="round"/>
                </g>
                <g>
                    <path d="M195.26 702.36l42.08-.19 71.31-.31 38.61-.17" fill="none" stroke="#373535" stroke-width=".5" stroke-linecap="round" stroke-linejoin="round"/>
                </g>
                <g>
                    <path d="M211.063 345.34l43.45.08 47.28.09 43.82.08 223.65.41" fill="none" stroke="#373535" stroke-width=".5" stroke-linecap="round" stroke-linejoin="round"/>
                </g>
                <g>
                    <path d="M201.8 465.39l42.9.08 59.82.1 40.31.07 222.1.39" fill="none" stroke="#373535" stroke-width=".5" stroke-linecap="round" stroke-linejoin="round"/>
                </g>
                <g>
                    <path d="M195.26 661.54l42.07-.08 71.33-.12 258.27-.47" fill="none" stroke="#373535" stroke-width=".5" stroke-linecap="round" stroke-linejoin="round"/>
                </g>
                <text style="line-height:125%;-inkscape-font-specification:'Sans, Normal';text-align:start" x="377.841" y="-220.798" transform="scale(1 -1)" font-size="36.012" font-family="Sans" letter-spacing="0" word-spacing="0" stroke-width="1.294">
                    <tspan x="377.841" y="-220.798" style="line-height:125%;-inkscape-font-specification:'Sans, Normal';text-align:start" font-size="36.012" font-family="Sans" stroke-width="1.294">
                        High
                    </tspan>
                </text>
                <text style="line-height:125%;-inkscape-font-specification:'Sans, Normal';text-align:start" x="375.411" y="-394.747" transform="scale(1 -1)" font-size="36.012" font-family="Sans" letter-spacing="0" word-spacing="0" stroke-width="1.294">
                    <tspan x="375.411" y="-394.747" stroke-width="1.294">
                        Medium
                    </tspan>
                </text>
                <text style="line-height:125%;-inkscape-font-specification:'Sans, Normal';text-align:start" x="378.059" y="-558.103" transform="scale(1 -1)" font-size="36.012" font-family="Sans" letter-spacing="0" word-spacing="0" stroke-width="1.294">
                    <tspan x="378.059" y="-558.103" stroke-width="1.294">
                        Low
                    </tspan>
                </text>
            </g>
        </g>
    </g>
</svg>
