<svg xmlns="http://www.w3.org/2000/svg" width="271.605" height="300" viewBox="0 0 271.6047 300" class="root">
    <g>
        <g>
            <g>
                <g>
                    <g>
                        <g>
                            <g class="high" fill="#ef4637">
                                <path d="M97.304 219.488l55.66-.405c-2.55 15.04-4.87 28.26-6.757 38.674-1.246 6.88-3.458 11.488-4.41 16.548-1.593 8.485-3.544 13.582-5.207 16.965l-2.43 2.725-4.255 2.826-5.74 1.783-3.088-.294-2.148-1.1-2.8-3.737c-1.31-3.094-4.917-6.487-5.8-9.38-4.63-15.172-6.383-19.43-13.458-52.377-.097-.453-3.023-11.88-3.112-12.343"/>
                            </g>
                            <g class="medium" fill="#fec34b">
                                <path d="M-4.19-106.757l64.638.072c.115-5.98-.607-14.222-1.458-23.592-.412-4.545-.463-9.25-1.087-14.624l-53.64-.227c-.89 4.304-.982 9.04-1.596 13.255-.985 6.76-1.274 13.142-2.14 18.6-.383 2.4-.313 4.475-.68 6.36" stroke-width=".512" transform="matrix(1.099 0 0 -.669 89.433 121.979)"/>
                            </g>
                            <g class="low" fill="#fee830">
                                <path d="M3.246-180.412l64.7-.263c.246-18.736.722-72.664.493-91.955-.043-3.02-.14-7.278-.57-15.41l-60.514.2c-.318 9.182-.618 22.677-.892 25.833-.247 9.244-1.276 22.952-1.705 41.32-.25 10.7-1.16 20.35-1.263 28.92-.062 5.15-.1 7.343-.347 10.646" stroke-width=".762" transform="matrix(1.099 0 0 -.669 81.345 .884)"/>
                            </g>
                        </g>
                    </g>
                </g>
                <g>
                    <path d="M80.786 1.375c0 4.757-.21 9.566.005 14.313.42 9.362 1.273 19.888 1.258 29.296-.02 16.817 1.722 32.47 2.08 49.025.04 1.85.066 3.71.066 5.584.02 23.02 2.014 45.77 3.475 68.69.357 5.564.68 11.14.934 16.73.72 15.595 4.354 31.58 8.187 46.873 3.026 12.055 5.494 25.673 9.204 37.528 2.386 7.624 2.58 13.43 7.532 19.868 2.453 3.19 4.18 9.075 8.477 9.504 3.444.337 7.165-1.446 10.164-3.045 3.98-2.12 7.696-9.653 8.3-13.853 1.21-8.382 5.255-17.413 6.532-25.763 3.76-24.59 9.067-49.503 9.342-72.892.062-5.054.087-10.072.083-15.08-.01-13.316-.246-26.536-.69-39.965-.287-8.62 1.364-17.39 1.364-25.974 0-2.785.04-5.565.116-8.335.38-14.843 1.584-29.504 1.584-44.36V15.34c0-4.603-.306-9.09-.342-13.623" fill="none" stroke="#000" stroke-width="1.022.057" stroke-linecap="round" stroke-linejoin="round"/>
                </g>
                <g>
                    <path d="M129.785 235.506h.388v3.597h-14.987v-3.597h14.6z" fill="none" stroke="#373535" stroke-width=".2555" stroke-linecap="round" stroke-linejoin="round"/>
                </g>
                <g>
                    <path d="M102.264 1.375v.04c.005.016.005.037.005.057.715 15.688.868 61.448 2.723 76.906.25 2.1.603 7.69 1.037 15.59.97 17.67 2.335 46.88 3.822 74.274 1.758 32.346 3.695 62.164 5.36 67.488" fill="none" stroke="#000" stroke-width="1.022.449" stroke-linecap="round" stroke-linejoin="round"/>
                </g>
                <g>
                    <path d="M138.684 1.375c0 .036-.005.066-.005.102 0 .05-.006.102-.006.153-.695 15.857.495 63.487-1.354 78.894-.23 1.91-.48 6.668-.757 13.393-.705 16.97-1.563 46.46-2.585 74.28-1.176 31.63-2.565 61.09-4.2 67.533-.042.163-.082.312-.123.444" fill="none" stroke="#373535" stroke-width=".2555" stroke-linecap="round" stroke-linejoin="round"/>
                </g>
                <g>
                    <path d="M80.786 1.375l21.503.097 36.44.16 19.728.085" fill="none" stroke="#373535" stroke-width=".2555" stroke-linecap="round" stroke-linejoin="round"/>
                </g>
                <g>
                    <path d="M93.612 219.33l22.203-.042 24.16-.046 22.392-.04 114.285-.21" fill="none" stroke="#373535" stroke-width=".2555" stroke-linecap="round" stroke-linejoin="round"/>
                </g>
                <g>
                    <path d="M89.547 193.733l21.922-.04 30.567-.052 20.598-.035 113.493-.2" fill="none" stroke="#373535" stroke-width=".2555" stroke-linecap="round" stroke-linejoin="round"/>
                </g>
                <g>
                    <path d="M84.786 121.986l21.498.04 36.45.062 131.975.24" fill="none" stroke="#373535" stroke-width=".2555" stroke-linecap="round" stroke-linejoin="round"/>
                </g>
            </g>
        </g>
        <text style="line-height:125%;-inkscape-font-specification:'Sans, Normal';text-align:start" x="373.781" y="-182.441" transform="matrix(.511 0 0 .511 -18.896 359.938)" font-size="36.324" font-family="Sans" letter-spacing="0" word-spacing="0" stroke-width="1.306">
            <tspan x="373.781" y="-182.441" style="line-height:125%;-inkscape-font-specification:'Sans, Normal';text-align:start" font-size="36.324" font-family="Sans" stroke-width="1.306">
                High
            </tspan>
        </text>
        <text style="line-height:125%;-inkscape-font-specification:'Sans, Normal';text-align:start" x="372.506" y="-288.322" transform="matrix(.511 0 0 .511 -18.896 359.938)" font-size="36.324" font-family="Sans" letter-spacing="0" word-spacing="0" stroke-width="1.306">
            <tspan x="372.506" y="-288.322">
                Medium
            </tspan>
        </text>
        <text style="line-height:125%;-inkscape-font-specification:'Sans, Normal';text-align:start" x="376.353" y="-381.338" transform="matrix(.511 0 0 .511 -18.896 359.938)" font-size="36.324" font-family="Sans" letter-spacing="0" word-spacing="0" stroke-width="1.306">
            <tspan x="376.353" y="-381.338">
                Low
            </tspan>
        </text>
    </g>
</svg>
