<svg xmlns="http://www.w3.org/2000/svg" width="271.605" height="300" viewBox="0 0 271.6047 300" class="root">
    <defs>
        <clipPath id="a">
            <path d="M0 850.39h566.93V0H0v850.39z"/>
        </clipPath>
        <clipPath id="b">
            <path d="M237.34 702.17h71.31V243.74h-71.31v458.43z"/>
        </clipPath>
    </defs>
    <g>
        <g>
            <g clip-path="url(#a)" transform="matrix(.511 0 0 -.511 -18.896 359.938)">
                <g>
                    <g>
                        <g clip-path="url(#b)" transform="matrix(2.15 0 0 1.309 -314.278 -216.628)">
                            <g class="high" fill="#ef4637">
                                <path d="M252.18 375.81l50.738.606c-2.323-22.514-4.438-42.305-6.16-57.896-1.135-10.3-3.152-17.197-4.018-24.772-1.453-12.7-3.23-20.332-4.748-25.397l-2.215-4.078-3.88-4.23-5.232-2.668-2.814.44-1.957 1.644-2.552 5.595c-1.194 4.632-4.48 9.71-5.285 14.04-4.22 22.715-5.82 29.09-12.27 78.412-.087.678-2.754 17.786-2.835 18.477"/>
                            </g>
                            <g class="medium" fill="#fec34b">
                                <path d="M240.51 414.403l64.638.07c.116-5.978-.607-14.22-1.458-23.59-.412-4.545-.462-9.25-1.087-14.624l-53.64-.228c-.89 4.304-.982 9.04-1.596 13.256-.985 6.76-1.274 13.142-2.14 18.598-.383 2.402-.312 4.476-.68 6.362" stroke-width=".512"/>
                            </g>
                            <g class="low" fill="#fee830">
                                <path d="M240.586 521.757l64.7-.262c.246-18.737.722-72.665.492-91.956-.042-3.02-.137-7.28-.57-15.41l-60.512.2c-.32 9.18-.62 22.676-.893 25.833-.246 9.244-1.276 22.95-1.704 41.32-.25 10.7-1.16 20.35-1.263 28.92-.063 5.15-.1 7.342-.347 10.645" stroke-width=".762"/>
                            </g>
                        </g>
                    </g>
                </g>
                <g>
                    <path d="M195.26 702.36c0-9.31-.41-18.72.01-28.01.82-18.32 2.49-38.92 2.46-57.33-.04-32.91 3.37-63.54 4.07-95.94.08-3.62.13-7.26.13-10.93.04-45.05 3.94-89.57 6.8-134.42.7-10.89 1.33-21.8 1.83-32.74 1.41-30.52 8.52-61.8 16.02-91.73 5.92-23.59 10.75-50.24 18.01-73.44 4.67-14.92 5.05-26.28 14.74-38.88 4.8-6.24 8.18-17.76 16.59-18.6 6.74-.66 14.02 2.83 19.89 5.96 7.79 4.15 15.06 18.89 16.24 27.11 2.37 16.4 10.286 34.073 12.786 50.414 7.36 48.12 17.744 96.875 18.284 142.646.12 9.89.17 19.71.16 29.51-.02 26.06-.48 51.93-1.35 78.21-.56 16.87 2.67 34.03 2.67 50.83 0 5.45.08 10.89.23 16.31.74 29.05 3.1 57.74 3.1 86.81v66.89c0 9.01-.6 17.79-.67 26.66" fill="none" stroke="#373535" stroke-width=".5" stroke-linecap="round" stroke-linejoin="round"/>
                </g>
                <g>
                    <path d="M291.24 243.74h.76v-7.04h-29.33v7.04h28.57z" fill="none" stroke="#373535" stroke-width=".5" stroke-linecap="round" stroke-linejoin="round"/>
                </g>
                <g>
                    <path d="M237.33 702.36v-.08c.01-.03.01-.07.01-.11 1.4-30.7 1.7-120.25 5.33-150.5.49-4.11 1.18-15.05 2.03-30.51 1.9-34.58 4.57-91.74 7.48-145.35 3.44-63.3 7.23-121.65 10.49-132.07" fill="none" stroke="#373535" stroke-width=".5" stroke-linecap="round" stroke-linejoin="round"/>
                </g>
                <g>
                    <path d="M308.67 702.36c0-.07-.01-.13-.01-.2 0-.1-.01-.2-.01-.3-1.36-31.03.97-124.24-2.65-154.39-.45-3.74-.94-13.05-1.48-26.21-1.38-33.21-3.06-90.92-5.06-145.36-2.3-61.9-5.02-119.55-8.22-132.16-.08-.32-.16-.61-.24-.87" fill="none" stroke="#373535" stroke-width=".5" stroke-linecap="round" stroke-linejoin="round"/>
                </g>
                <g>
                    <path d="M195.26 702.36l42.08-.19 71.31-.31 38.61-.17" fill="none" stroke="#373535" stroke-width=".5" stroke-linecap="round" stroke-linejoin="round"/>
                </g>
                <g>
                    <path d="M220.382 275.428l43.45.08 47.28.09 43.82.08 223.65.41" fill="none" stroke="#373535" stroke-width=".5" stroke-linecap="round" stroke-linejoin="round"/>
                </g>
                <g>
                    <path d="M212.42 325.566l42.9.08 59.82.1 40.31.07 222.1.39" fill="none" stroke="#373535" stroke-width=".5" stroke-linecap="round" stroke-linejoin="round"/>
                </g>
                <g>
                    <path d="M203.094 466.104l42.07-.08 71.33-.12 258.27-.47" fill="none" stroke="#373535" stroke-width=".5" stroke-linecap="round" stroke-linejoin="round"/>
                </g>
            </g>
        </g>
        <text style="line-height:125%;-inkscape-font-specification:'Sans, Normal';text-align:start" x="373.781" y="-182.441" transform="matrix(.511 0 0 .511 -18.896 359.938)" font-size="36.324" font-family="Sans" letter-spacing="0" word-spacing="0" stroke-width="1.306">
            <tspan x="373.781" y="-182.441" style="line-height:125%;-inkscape-font-specification:'Sans, Normal';text-align:start" font-size="36.324" font-family="Sans" stroke-width="1.306">
                High
            </tspan>
        </text>
        <text style="line-height:125%;-inkscape-font-specification:'Sans, Normal';text-align:start" x="372.506" y="-288.322" transform="matrix(.511 0 0 .511 -18.896 359.938)" font-size="36.324" font-family="Sans" letter-spacing="0" word-spacing="0" stroke-width="1.306">
            <tspan x="372.506" y="-288.322">
                Medium
            </tspan>
        </text>
        <text style="line-height:125%;-inkscape-font-specification:'Sans, Normal';text-align:start" x="376.353" y="-381.338" transform="matrix(.511 0 0 .511 -18.896 359.938)" font-size="36.324" font-family="Sans" letter-spacing="0" word-spacing="0" stroke-width="1.306">
            <tspan x="376.353" y="-381.338">
                Low
            </tspan>
        </text>
    </g>
</svg>
