<svg xmlns="http://www.w3.org/2000/svg" width="291.605" height="300" viewBox="0 0 291.6047 300" class="root">
    <g>
        <g>
            <g>
                <g>
                    <g>
                        <g>
                            <g class="high" fill="#ef4637">
                                <path d="M128.627 167.498l24.018-.046c-1.168 31.445-2.55 60.732-4.176 67.138h-14.514c-1.656-5.294-3.58-34.936-5.33-67.092"/>
                            </g>
                            <g class="medium" fill="#fec34b">
                                <path d="M124.826 93.64l30.388-.05c-.7 16.87-1.554 46.188-2.57 73.843l-24.018.046c-1.478-27.235-2.835-56.272-3.8-73.84"/>
                            </g>
                            <g class="low" fill="#fee830">
                                <path d="M121.086 11.754l36.226.14c-.69 14.034.492 56.19-1.347 69.824-.228 1.692-.477 5.902-.752 11.854l-30.388.045c-.432-6.992-.782-11.94-1.03-13.798-1.845-13.682-1.998-54.182-2.71-68.066" stroke-width=".479552"/>
                            </g>
                        </g>
                    </g>
                </g>
                <g>
                    <path d="M99.704 1.567c0 4.73-.208 9.51.005 14.23.416 9.306 1.264 19.77 1.25 29.123-.022 16.718 1.71 32.278 2.066 48.737.04 1.84.066 3.688.066 5.553.02 22.885 2.002 45.5 3.455 68.285.355 5.532.675 11.074.93 16.632.716 15.504 4.328 31.394 8.138 46.6 3.007 11.983 5.46 25.52 9.15 37.307 2.37 7.58 2.564 13.35 7.487 19.75 2.438 3.17 4.155 9.022 8.427 9.45 3.423.334 7.122-1.438 10.103-3.03 3.958-2.106 7.65-9.595 8.25-13.77 1.204-8.332 5.11-17.653 6.38-25.954 3.74-24.445 9.13-48.87 9.404-72.12.06-5.025.086-10.014.082-14.992-.012-13.238-.246-26.38-.688-39.73-.284-8.57 1.357-17.288 1.357-25.822 0-2.77.04-5.532.116-8.286.376-14.757 1.574-29.332 1.574-44.1V15.45c0-4.576-.304-9.037-.34-13.543" fill="none" stroke="#373535" stroke-width=".254" stroke-linecap="round" stroke-linejoin="round"/>
                </g>
                <g>
                    <path d="M148.475 234.608h.386v3.576h-14.9v-3.576h14.515z" fill="none" stroke="#373535" stroke-width=".254" stroke-linecap="round" stroke-linejoin="round"/>
                </g>
                <g>
                    <path d="M121.08 1.567v.04c.006.016.006.036.006.057.71 15.595.864 61.087 2.708 76.454.25 2.087.6 7.645 1.03 15.5.966 17.565 2.323 46.603 3.8 73.836 1.748 32.157 3.674 61.8 5.33 67.092" fill="none" stroke="#373535" stroke-width=".254" stroke-linecap="round" stroke-linejoin="round"/>
                </g>
                <g>
                    <path d="M157.332 1.567c0 .036-.005.066-.005.102 0 .05-.005.1-.005.15-.69 15.764.493 63.115-1.346 78.43-.23 1.9-.478 6.63-.752 13.316-.7 16.87-1.555 46.187-2.57 73.843-1.17 31.444-2.55 60.73-4.176 67.136-.04.163-.082.31-.122.442" fill="none" stroke="#373535" stroke-width=".254" stroke-linecap="round" stroke-linejoin="round"/>
                </g>
                <g>
                    <path d="M99.704 1.567l21.377.097 36.227.157 19.613.087" fill="none" stroke="#373535" stroke-width=".254" stroke-linecap="round" stroke-linejoin="round"/>
                </g>
                <g>
                    <path d="M106.55 167.54l22.072-.042 24.018-.045 22.26-.04 113.615-.21" fill="none" stroke="#373535" stroke-width=".254" stroke-linecap="round" stroke-linejoin="round"/>
                </g>
                <g>
                    <path d="M103.027 93.682l21.793-.04 30.39-.05 20.476-.037 112.827-.198" fill="none" stroke="#373535" stroke-width=".254" stroke-linecap="round" stroke-linejoin="round"/>
                </g>
                <g>
                    <path d="M99.872 11.835l21.372.04 36.235.06 131.2.24" fill="none" stroke="#373535" stroke-width=".254" stroke-linecap="round" stroke-linejoin="round"/>
                </g>
            </g>
        </g>
        <text style="line-height:125%;-inkscape-font-specification:'Sans, Normal';text-align:start" x="372.424" y="-242.958" transform="matrix(.508 0 0 .508 .486 358.46)" font-size="36.012" font-family="Sans" letter-spacing="0" word-spacing="0" stroke-width="1.294">
            <tspan x="372.424" y="-242.958" style="line-height:125%;-inkscape-font-specification:'Sans, Normal';text-align:start" font-size="36.012" font-family="Sans" stroke-width="1.294">
                High
            </tspan>
        </text>
        <text style="line-height:125%;-inkscape-font-specification:'Sans, Normal';text-align:start" x="367.661" y="-435.403" transform="matrix(.508 0 0 .508 .486 358.46)" font-size="36.012" font-family="Sans" letter-spacing="0" word-spacing="0" stroke-width="1.294">
            <tspan x="367.661" y="-435.403" stroke-width="1.294">
                Medium
            </tspan>
        </text>
        <text style="line-height:125%;-inkscape-font-specification:'Sans, Normal';text-align:start" x="379.64" y="-594.1" transform="matrix(.508 0 0 .508 .486 358.46)" font-size="36.012" font-family="Sans" letter-spacing="0" word-spacing="0" stroke-width="1.294">
            <tspan x="379.64" y="-594.1" stroke-width="1.294">
                Low
            </tspan>
        </text>
    </g>
</svg>
