<svg xmlns="http://www.w3.org/2000/svg" width="291.605" height="300" viewBox="0 0 291.6047 300" class="root">
    <defs>
        <clipPath id="a">
            <path d="M0 850.39h566.93V0H0v850.39z"/>
        </clipPath>
        <clipPath id="b">
            <path d="M237.34 702.17h71.31V243.74h-71.31v458.43z"/>
        </clipPath>
    </defs>
    <g>
        <g>
            <g clip-path="url(#a)" transform="matrix(.508 0 0 -.508 .486 358.46)">
                <g>
                    <g>
                        <g clip-path="url(#b)">
                            <g class="high" fill="#ef4637">
                                <path d="M252.18 375.81l47.28.09c-2.3-61.9-5.02-119.55-8.22-132.16h-28.57c-3.26 10.42-7.05 68.77-10.49 132.07"/>
                            </g>
                            <g class="medium" fill="#fec34b">
                                <path d="M244.7 521.16l59.82.1c-1.38-33.21-3.06-90.92-5.06-145.36l-47.28-.09c-2.91 53.61-5.58 110.77-7.48 145.35"/>
                            </g>
                            <g class="low" fill="#fee830">
                                <path d="M237.34 682.308l71.31-.276c-1.36-27.626.97-110.608-2.65-137.45-.45-3.33-.94-11.618-1.48-23.334l-59.82-.09c-.85 13.765-1.54 23.505-2.03 27.164-3.63 26.93-3.93 106.654-5.33 133.986" stroke-width=".944"/>
                            </g>
                        </g>
                    </g>
                </g>
                <g>
                    <path d="M195.26 702.36c0-9.31-.41-18.72.01-28.01.82-18.32 2.49-38.92 2.46-57.33-.04-32.91 3.37-63.54 4.07-95.94.08-3.62.13-7.26.13-10.93.04-45.05 3.94-89.57 6.8-134.42.7-10.89 1.33-21.8 1.83-32.74 1.41-30.52 8.52-61.8 16.02-91.73 5.92-23.59 10.75-50.24 18.01-73.44 4.67-14.92 5.05-26.28 14.74-38.88 4.8-6.24 8.18-17.76 16.59-18.6 6.74-.66 14.02 2.83 19.89 5.96 7.79 4.15 15.06 18.89 16.24 27.11 2.37 16.4 10.06 34.75 12.56 51.09 7.36 48.12 17.97 96.2 18.51 141.97.12 9.89.17 19.71.16 29.51-.02 26.06-.48 51.93-1.35 78.21-.56 16.87 2.67 34.03 2.67 50.83 0 5.45.08 10.89.23 16.31.74 29.05 3.1 57.74 3.1 86.81v66.89c0 9.01-.6 17.79-.67 26.66" fill="none" stroke="#373535" stroke-width=".5" stroke-linecap="round" stroke-linejoin="round"/>
                </g>
                <g>
                    <path d="M291.24 243.74h.76v-7.04h-29.33v7.04h28.57z" fill="none" stroke="#373535" stroke-width=".5" stroke-linecap="round" stroke-linejoin="round"/>
                </g>
                <g>
                    <path d="M237.33 702.36v-.08c.01-.03.01-.07.01-.11 1.4-30.7 1.7-120.25 5.33-150.5.49-4.11 1.18-15.05 2.03-30.51 1.9-34.58 4.57-91.74 7.48-145.35 3.44-63.3 7.23-121.65 10.49-132.07" fill="none" stroke="#373535" stroke-width=".5" stroke-linecap="round" stroke-linejoin="round"/>
                </g>
                <g>
                    <path d="M308.67 702.36c0-.07-.01-.13-.01-.2 0-.1-.01-.2-.01-.3-1.36-31.03.97-124.24-2.65-154.39-.45-3.74-.94-13.05-1.48-26.21-1.38-33.21-3.06-90.92-5.06-145.36-2.3-61.9-5.02-119.55-8.22-132.16-.08-.32-.16-.61-.24-.87" fill="none" stroke="#373535" stroke-width=".5" stroke-linecap="round" stroke-linejoin="round"/>
                </g>
                <g>
                    <path d="M195.26 702.36l42.08-.19 71.31-.31 38.61-.17" fill="none" stroke="#373535" stroke-width=".5" stroke-linecap="round" stroke-linejoin="round"/>
                </g>
                <g>
                    <path d="M208.73 375.73l43.45.08 47.28.09 43.82.08 223.65.41" fill="none" stroke="#373535" stroke-width=".5" stroke-linecap="round" stroke-linejoin="round"/>
                </g>
                <g>
                    <path d="M201.8 521.08l42.9.08 59.82.1 40.31.07 222.1.39" fill="none" stroke="#373535" stroke-width=".5" stroke-linecap="round" stroke-linejoin="round"/>
                </g>
                <g>
                    <path d="M195.59 682.148l42.07-.08 71.33-.12 258.27-.47" fill="none" stroke="#373535" stroke-width=".5" stroke-linecap="round" stroke-linejoin="round"/>
                </g>
            </g>
        </g>
        <text style="line-height:125%;-inkscape-font-specification:'Sans, Normal';text-align:start" x="372.424" y="-242.958" transform="matrix(.508 0 0 .508 .486 358.46)" font-size="36.012" font-family="Sans" letter-spacing="0" word-spacing="0" stroke-width="1.294">
            <tspan x="372.424" y="-242.958" style="line-height:125%;-inkscape-font-specification:'Sans, Normal';text-align:start" font-size="36.012" font-family="Sans" stroke-width="1.294">
                High
            </tspan>
        </text>
        <text style="line-height:125%;-inkscape-font-specification:'Sans, Normal';text-align:start" x="367.661" y="-435.403" transform="matrix(.508 0 0 .508 .486 358.46)" font-size="36.012" font-family="Sans" letter-spacing="0" word-spacing="0" stroke-width="1.294">
            <tspan x="367.661" y="-435.403" stroke-width="1.294">
                Medium
            </tspan>
        </text>
        <text style="line-height:125%;-inkscape-font-specification:'Sans, Normal';text-align:start" x="379.64" y="-594.1" transform="matrix(.508 0 0 .508 .486 358.46)" font-size="36.012" font-family="Sans" letter-spacing="0" word-spacing="0" stroke-width="1.294">
            <tspan x="379.64" y="-594.1" stroke-width="1.294">
                Low
            </tspan>
        </text>
    </g>
</svg>
