<?xml version="1.0" encoding="UTF-8" standalone="no"?>
<svg xmlns:rdf="http://www.w3.org/1999/02/22-rdf-syntax-ns#" xmlns="http://www.w3.org/2000/svg" version="1.1" xmlns:cc="http://creativecommons.org/ns#" xmlns:dc="http://purl.org/dc/elements/1.1/" viewBox="0 0 57.52 231.32">
 <defs>
  <clipPath id="clipPath24" clipPathUnits="userSpaceOnUse">
   <path d="m436.68 313.74h45.816v-184.86h-45.816v184.86z"/>
  </clipPath>
 </defs>
 <g transform="translate(-305.53 -345.27)">
  <g transform="matrix(1.25 0 0 -1.25 -240.19 737.57)">
   <g clip-path="url(#clipPath24)">
    <g transform="translate(454.71 307.28)">
     <path d="m0 0c-.443.581-.067 1.978-.192 2.878-1.781 1.041-4.518 1.233-7.1.959.883 1.228 2.994 1.228 4.605 1.727 1.288-.314 2.994-.205 4.221-.576-.250-.194-.475-.411-.673-.659-.766-.962-1.112-2.347-.861-4.329" class="protoderm" fill="#90c84b"/>
    </g>
    <g transform="translate(455.29 306.13)">
     <path d="m0 0c-.31-.054-.33.182-.575.192v.959c-.251 1.983.095 3.367.861 4.329l.003-.003c1.479.471 3.543.663 4.974.054-.343-1.722.248-4.372-.275-5.915v-.575h-.767c-.343.232-1.116.036-1.343.383h-.191c-.962.126-1.815.361-2.687.576" class="protoderm" fill="#90c84b"/>
    </g>
    <g transform="translate(460.55 311.66)">
     <path d="m0 0c-1.431.609-3.495.417-4.974-.054l-.003.003c.198.248.423.466.673.66.771.381 1.709.594 2.495.959.939-.046 1.454.338 2.495.192.028-.355.649-.117.767-.384-.282-.488-1.164-.373-1.344-.959-.043-.133-.079-.271-.109-.417" class="protoderm" fill="#90c84b"/>
    </g>
    <g transform="translate(466.6 310.73)">
     <path d="m0 0c4.027.002 6.478-3.044 7.442-5.083-.404-.192-.749-.440-.918-.865h-.192c.031-.478-.302-.594-.384-.959-.562-.908-.982-1.96-1.726-2.687-2.049.254-2.502 2.103-4.03 2.879-.409 1.762-.110 4.231-.176 6.339-.002.128-.008.253-.016.376" class="protoderm" fill="#90c84b"/>
    </g>
    <g transform="translate(466.6 310.73)">
     <path d="m0 0c.008-.123.014-.248.016-.376l-.043-.003c-.548 1.251-4.401 2.2-6.026 1.305h-.002c.031.146.067.284.11.417.179.586 1.061.471 1.343.959-.118.266-.739.029-.767.384 1.401.208 3.729.683 4.794-.192.723-.685 2.346-.468 2.878-1.343-1.059-.089-1.479-.824-2.303-1.151" class="protoderm" fill="#90c84b"/>
    </g>
    <g transform="translate(462.38 304.02)">
     <path d="m0 0v-.192c-.903.504-2.145.673-2.879 1.343h.768v.576c.522 1.542-.069 4.192.274 5.914h.002c1.625.896 5.478-.054 6.025-1.305l.043.003c.067-2.108-.232-4.577.177-6.339h-4.41z" class="protoderm" fill="#90c84b"/>
    </g>
    <g transform="translate(474.04 305.65)">
     <path d="m0 0c-.965 2.039-3.415 5.086-7.442 5.083.824.328 1.244 1.062 2.302 1.152 3.666-.430 6.893-1.295 7.1-5.181-.433-.573-1.276-.732-1.96-1.054" class="protoderm" fill="#90c84b"/>
    </g>
    <g transform="translate(474.04 305.65)">
     <path d="m0 0c.684.322 1.527.481 1.96 1.054h.191c.141-.435.578-.573.960-.767 1.995-1.586 2.368-4.792 2.878-7.867v-1.343c-.153-.743-.422-1.369-.960-1.727 0 2.94-2.969 8.629-5.029 10.648v.002z" class="protoderm" fill="#90c84b"/>
    </g>
    <g transform="translate(474.04 305.65)">
     <path d="m0 0c2.06-2.019 5.029-7.708 5.029-10.647-1.783.905-4.604.767-6.715 1.342h-.192c-.365 1.234-1.512 1.689-1.151 3.646h-.002l-.19 1.151c.744.727 1.164 1.779 1.727 2.687.082.365.415.481.384.959h.192c.169.424.514.673.918.864v-.002z" class="protoderm" fill="#90c84b"/>
    </g>
    <g transform="translate(446.27 303.83)">
     <path d="m0 0c-.515 1.658-.361 3.986-.384 6.14.266.629.686 1.105 1.534 1.151 2.582.273 5.32.082 7.1-.959.125-.901-.251-2.298.192-2.878v-.96c-.450-.765-1.839-.591-2.302-1.343h-.384c-.765-.320-1.4-.775-2.11-1.151-.899.250-2.106.197-3.262.192-.041-.149-.159-.223-.384-.192" class="protoderm" fill="#90c84b"/>
    </g>
    <g transform="translate(464.3 256.44)">
     <path d="m0 0c.361-.652.671.33 1.149.192.660-2.092.527-5.782-.192-7.671-3.513-.584-7.398.521-11.51 0-.701.001-.862.544-1.343.766.046 2.426-.675 5.329.384 7.097.921.039 1.826.093 2.494.384 1.934.015 3.866.031 5.372-.384h.193c1.297.020 2.069-.486 3.453-.384" class="suspensor" fill="#c59d72"/>
    </g>
    <g transform="translate(465.64 263.35)">
     <path d="m0 0c-.494-.016-.199-.821-.959-.576-.553-.023-1.254.105-1.532-.192-1.786.264-3.769.328-5.757.384-.708.443-2.235.067-3.262.192-.621.11-.964-.059-1.151-.384-.506 1.507-.896 3.832-.575 5.564 3.486 1.185 9.194-.844 13.428-.191.412-1.346.225-3.649-.192-4.797" class="suspensor" fill="#c59d72"/>
    </g>
    <g transform="translate(480.03 296.73)">
     <path d="m0 0v1.343c-.51 3.075-.883 6.281-2.878 7.867-.382.194-.819.332-.96.768.581.442 1.336.71 1.919 1.151v.383c3.047-1.803 5.26-6.891 4.029-11.128-.094-.225-.205-.435-.383-.576-1.037.016-1.019.088-1.727.192" class="protoderm" fill="#90c84b"/>
    </g>
    <g transform="translate(471.02 299.99)">
     <path d="m0 0c-.36-1.958.786-2.413 1.151-3.646h.193c-.366-.271-.686-.591-.960-.959-.330-.333-1.187-.215-1.343.189-.156-.033-.191-.189-.384-.189-1.486-.057-2.568-.141-4.797-.768-1.404.515-2.295 1.543-3.451 2.303-.409 1.591.149 3.794.576 5.18-.173.875.317 1.088.384 1.727v.192h4.41c1.528-.775 1.981-2.625 4.03-2.878l.189-1.151h.002z" class="inner-upper" fill="#22984f"/>
    </g>
    <g transform="translate(471.98 285.41)">
     <path d="m0 0c-.363-.486-.673.176-1.151-.192-1.367.552-3.201.637-4.413 1.343-.266.37-.993.287-1.343.576-.578.57-.85 1.45-.766 2.686.275 1.515.282 3.297.573 4.794 2.229.627 3.311.711 4.797.768.193 0 .228.156.384.189.156-.404 1.013-.522 1.343-.189-.110-.622.131-.891.192-1.343.204-2.968-.428-6.079-.192-8.441.309.054.330-.181.576-.191" class="ground" fill="#f1623b"/>
    </g>
    <g transform="translate(452.21 279.27)">
     <path d="m0 0c1.474.32 2.853.729 4.222 1.151v.193c2.383-.366 5.334-.164 7.098-1.152.284-1.44 1.428-2.023 2.109-3.07-1.241-.493-3.068-.033-4.41 0-1.97.333-3.434 1.175-5.949.96h-.383c-.752.335-1.955.220-2.687.575v1.343z" class="qc" fill="#337abe"/>
    </g>
    <g transform="translate(440.13 303.64)">
     <path d="m0 0c1.151-.832 1.919-2.044 3.646-2.303-.487-.987-.796-2.146-1.343-3.07-.062-.642-0.2-1.207-.576-1.535.023-.342-.236-.404-.192-.767-.445.061-.737-.031-.960-.192-1.069.34-2.63.187-3.645.575-1.179 3.583.552 6.616 2.495 8.251-.093-.601.516-.506.575-.959" class="protoderm" fill="#90c84b"/>
    </g>
    <g transform="translate(454.77 221.06)">
     <path d="m0 0c-3.021 1.809-2.673 10.796-1.389 14.201.261-.156.419-.772.56-.276 2.052.638 5.521-.138 7.514.555 1.468-.069 2.596.195 3.623.558 1.998-3.385 1.586-10.328.276-14.48-3.909.287-6.882-1.53-10.584-.558" class="suspensor" fill="#c59d72"/>
    </g>
    <g transform="translate(456.63 290.78)">
     <path d="m0 0c-1.008-2.809.202-6.697-.191-10.169v-.192c-1.37-.422-2.748-.831-4.222-1.152-1.013 2.314-.642 6.01-2.11 7.867.053.65.304 1.1.192 1.919 2.502.184 3.842 1.53 6.14 1.919.117-.013.227-.031.191-.192" class="vascular-initials" fill="#eabd92"/>
    </g>
    <g transform="translate(445.88 309.97)">
     <path d="m0 0c.022-2.154-.131-4.482.384-6.14-.78-.88-1.096-2.231-2.492-2.494-1.727.258-2.495 1.471-3.646 2.302-.059.453-.668.358-.575.959.158 3.744 2.783 5.018 6.329 5.373" class="protoderm" fill="#90c84b"/>
    </g>
    <g transform="translate(466.41 276.01)">
     <path d="m0 0c-.284.103-.483.286-.768.386-.68 1.047-1.824 1.63-2.108 3.07-.079.463.349.417.192.959.571 2.113.141 5.232 1.341 6.716.351-.289 1.077-.205 1.343-.575 1.213-.706 3.047-.791 4.413-1.344-.783-3.055-2.131-5.541-3.454-8.059-.171-.338-.463-.559-.575-.959-.223.034-.340-.041-.384-.194" class="ground-initials" fill="#f89734"/>
    </g>
    <g transform="translate(456.05 297.69)">
     <path d="m0 0c.036.164-.074.182-.192.192.015 2.957-.371 5.513-.576 8.25.872-.214 1.725-.45 2.687-.575h.191c.228-.348 1-.151 1.343-.384.735-.670 1.976-.839 2.879-1.343-.067-.640-.558-.852-.384-1.727-.427-1.387-.985-3.589-.576-5.181-1.519-.168-4.303-.132-5.372.768" class="inner-upper" fill="#22984f"/>
    </g>
    <g transform="translate(481.76 296.54)">
     <path d="m0 0c1.036-3.983.366-8.875-1.151-12.085-.632-.353-.648-.209-1.343-.576-.899.128-1.742.302-2.684.384l.046.435c2.305 1.563 2.955 6.547 2.445 10.307.539.359.807.985.96 1.727.708-.105.691-.176 1.727-.192" class="protoderm" fill="#d8e037"/>
    </g>
    <g transform="translate(448.38 277.74)">
     <path d="m0 0c.445.062.736-.031.959-.192-.578-.571-.573-1.727-.768-2.686-5.484-.21-8.741 4.407-8.823 9.593.407.358 1.221.312 1.535.767.983.106 1.543.632 2.303.96.839-.248 1.496-.678 2.3-.96.591-2.734 1.701-4.952 2.494-7.482" class="protoderm" fill="#d8e037"/>
    </g>
    <g transform="translate(445.88 285.22)">
     <path d="m0 0c1.185.862 3.113.98 4.221 1.919 1.468-1.857 1.097-5.554 2.11-7.867v-1.343c-.813-.273-2.098-.076-2.878-.384-.223.161-.514.254-.959.193-.793 2.53-1.903 4.748-2.494 7.482" class="ground-initials" fill="#f89734"/>
    </g>
    <g transform="translate(441.28 285.22)">
     <path d="m0 0c-.314-.455-1.128-.409-1.535-.768-3.279 1.474-2.528 7.934-2.687 11.894 1.016-.389 2.576-.235 3.646-.575.222.161.514.253.96.191.01-.245.245-.263.191-.575-.107-1.87.988-7.063 1.728-9.207-.760-.328-1.321-.855-2.303-.960" class="protoderm" fill="#d8e037"/>
    </g>
    <g transform="translate(456.05 297.3)">
     <path d="m0 0c-1.08-.519-2.709-.486-4.029-.768-.622-.109-.893.131-1.343.192.092 2.623-1.571 4.396-.768 7.1.711.376 1.346.831 2.111 1.151h.383c.463.752 1.853.578 2.303 1.343.245-.01.266-.246.575-.192.205-2.737.591-5.293.576-8.25.118-.011.228-.029.192-.192v-.384z" class="inner-upper" fill="#22984f"/>
    </g>
    <g transform="translate(461.23 276.39)">
     <path d="m0 0c1.343-.033 3.17-.493 4.41 0 .284-.1.484-.283.768-.386.044.154.161.228.384.195-.083-.786.178-1.229.383-1.727.103-1.456 1.451-.679 2.687-.766-.297-2.9-2.047-4.348-4.029-5.563-4.235-.653-9.943 1.376-13.429.191-1.605 1.85-3.615 3.29-3.838 6.522.194.959.189 2.115.768 2.685.78.308 2.064.111 2.877.384.733-.355 1.935-.24 2.687-.575h.384c2.514.215 3.978-.627 5.948-.960" class="columella" fill="#3c4896"/>
    </g>
    <g transform="translate(452.41 249.73)">
     <path d="m0 0c.48-.222.642-.765 1.343-.767 4.111.522 7.997-.584 11.51 0 0-2.321.376-4.695.376-7.015-.143-1.988.417-4.684-.555-5.848-1.027-.363-2.154-.627-3.623-.558-1.992-.693-5.462.083-7.514-.555-.141-.496-.299.12-.559.276-1.919 3.088-1.832 10.398-.978 14.467" class="suspensor" fill="#c59d72"/>
    </g>
    <g transform="translate(476 306.71)">
     <path d="m0 0c-.207 3.886-3.434 4.75-7.1 5.181-.532.874-2.154.657-2.878 1.342 5.03.101 10.054-1.455 12.088-4.988v-.384c-.583-.440-1.338-.709-1.919-1.151h-.191z" class="protoderm" fill="#90c84b"/>
    </g>
    <g transform="translate(479.27 283.88)">
     <path d="m0 0c.695.366.711.223 1.343.575-.108-3.026-1.466-4.802-2.303-7.098v-.384c-1.719-1.144-3.99-3.265-7.675-3.071 3.194 2.245 5.217 5.657 5.948 10.362h.003c.942-.082 1.786-.256 2.684-.384" class="protoderm" fill="#d8e037"/>
    </g>
    <g transform="translate(467.58 191.54)">
     <path d="m0 0c-2.911.834-6.268-.209-9.468 0-.156.399-.434.679-.837.834-.592 2.95-3.552 5.55-4.451 8.632-1.998 6.859 1.643 13.71 1.944 20.052 3.703-.972 6.675.844 10.584.557 4.569-6.879 7.622-19.143 3.341-28.682-.931.188-1.015-.469-1.113-1.114v-.279z" class="suspensor" fill="#c59d72"/>
    </g>
    <g transform="translate(455.86 291.93)">
     <path d="m0 0c.014 1.714-.094 4.566.192 5.37v.383c1.07-0.9 3.853-.936 5.372-.767 1.157-.759 2.047-1.788 3.452-2.302-.291-1.497-.299-3.28-.574-4.794-2.312-.075-3.903.572-6.139.575-.264.376-1.177.102-1.535.384.036.161-.075.178-.192.192-.005.187-.235.147-.384.191-.015.302.092.732-.192.768" class="vascular" fill="#ccb63d"/>
    </g>
    <g transform="translate(472.36 296.34)">
     <path d="m0 0c2.11-.575 4.932-.438 6.715-1.343.51-3.761-.141-8.744-2.445-10.307-1.134-.77-2.666-.714-4.654.716-.246.01-.266.246-.576.192-.235 2.361.397 5.472.192 8.44-.061.452-.301.721-.192 1.343.274.368.594.688.960.959" class="protoderm" fill="#d8e037"/>
    </g>
    <g transform="translate(450.1 287.14)">
     <path d="m0 0c-1.107-.938-3.036-1.057-4.221-1.919-.803.281-1.461.712-2.3.96-.739 2.144-1.834 7.337-1.727 9.207v-.192c1.418-.576 2.679.263 4.795 0 .444-.452 1.808.018 2.302-.386.663-1.701.617-4.114 1.343-5.751.113-.819-.138-1.27-.192-1.919" class="ground" fill="#f1623b"/>
    </g>
    <g transform="translate(476.58 284.26)">
     <path d="m0 0c-.731-4.705-2.755-8.117-5.948-10.361-.343.025-.404-.233-.767-.19-1.236.087-2.584-.69-2.686.766-.205.498-.466.941-.384 1.726.112.4.404.621.575.959 1.323 2.518 2.671 5.004 3.454 8.059.479.368.788-.294 1.152.192 1.987-1.43 3.519-1.486 4.653-.716l-.046-.435h-.003z" class="protoderm" fill="#d8e037"/>
    </g>
    <g transform="translate(458.74 313.23)">
     <path d="m0 0c-.786-.366-1.725-.578-2.495-.959-1.228.371-2.934.261-4.221.575 1.875.801 4.38.773 6.716.384" class="protoderm" fill="#90c84b"/>
    </g>
    <g transform="translate(467.58 191.82)">
     <path d="m0 0c.098.645.182 1.302 1.113 1.113 2.027-7.91 1.834-18.036 4.181-25.619v-.837c5.058-7.667 6.602-21.222 3.663-32.41h.003c.01-.854-.31-1.592-.894-1.845-.082-.353-.278-.276-.278-.554-.153-.403-.428-.673-.826-.832l.002-.005c-.215-1.671-1.804-2.395-3.622-1.671-4.946 8.606-4.887 22.222-7.798 32.861-.051.228-.276.279-.276.558-2.948 8.143-7.729 16.637-5.293 28.404.089.648-.044 1.069-.28 1.392.403-.156.681-.435.837-.834 3.2-.209 6.557.834 9.468 0v.279z" class="suspensor" fill="#c59d72"/>
    </g>
    <g transform="translate(456.05 291.17)">
     <path d="m0 0c.148-.044.379-.005.384-.191-2.298-.390-3.638-1.736-6.14-1.919-.726 1.636-.681 4.049-1.344 5.751.692.529 1.152 1.284 1.728 1.921.450-.062.721-.302 1.343-.192 1.32.281 2.949.248 4.029.767-.286-.803-.179-3.656-.192-5.369.284-.037.176-.466.192-.768" class="vascular" fill="#ccb63d"/>
    </g>
    <g transform="translate(465.64 263.35)">
     <path d="m0 0c.52-1.789.22-4.738-.191-6.716-.479.138-.788-.845-1.15-.192-1.384-.102-2.156.404-3.453.384h-.192c-1.507.415-3.439.399-5.372.383-.668-.291-1.574-.344-2.495-.383-.253 1.666-.442 4.569.192 5.948.187.325.53.494 1.151.384 1.027-.125 2.554.251 3.262-.192 1.988-.056 3.971-.12 5.757-.384.278.297.979.169 1.532.192.760-.245.465.560.959.576" class="suspensor" fill="#c59d72"/>
    </g>
    <g transform="translate(450.68 296.73)">
     <path d="m0 0c-.576-.637-1.036-1.392-1.728-1.921-.493.404-1.857-.066-2.301.386-2.117.264-3.377-.575-4.795 0v.192c.053.312-.182.33-.192.575-.044.364.215.425.192.768.376.328.514.893.576 1.535.547.923.856 2.083 1.343 3.07 1.396.264 1.712 1.614 2.492 2.495.225-.031.343.043.384.192 1.156.004 2.363.058 3.261-.192-.803-2.704.860-4.477.768-7.1" class="inner-upper" fill="#22984f"/>
    </g>
    <g transform="translate(456.63 290.78)">
     <path d="m0 0c.358-.281 1.271-.008 1.535-.384 2.236-.003 3.827-.649 6.14-.575-.084-1.236.187-2.116.765-2.687-1.2-1.483-.770-4.602-1.34-6.715.156-.542-.272-.496-.193-.959-1.764.987-4.715.785-7.098 1.151.393 3.472-.817 7.36.191 10.169" class="vascular-initials" fill="#eabd92"/>
    </g>
   </g>
  </g>
  <g transform="matrix(1.25 0 0 -1.25 350.26 367.14)">
   <path stroke-linejoin="round" d="m0 0c-.366-.271-.686-.591-.96-.959" stroke="#373535" stroke-linecap="round" stroke-width=".2" fill="none"/>
  </g>
  <g transform="matrix(1.25 0 0 -1.25 324.84 366.9)">
   <path stroke-linejoin="round" d="m0 0c-.622-.11-.893.131-1.343.192" stroke="#373535" stroke-linecap="round" stroke-width=".2" fill="none"/>
  </g>
  <g transform="matrix(1.25 0 0 -1.25 329.87 365.94)">
   <path stroke-linejoin="round" d="m0 0c-1.08-.519-2.709-.486-4.029-.768" stroke="#373535" stroke-linecap="round" stroke-width=".2" fill="none"/>
  </g>
  <g transform="matrix(1.25 0 0 -1.25 329.63 365.22)">
   <path stroke-linejoin="round" d="m0 0c.016 2.958-.37 5.513-.575 8.25" stroke="#373535" stroke-linecap="round" stroke-width=".2" fill="none"/>
  </g>
  <g transform="matrix(1.25 0 0 -1.25 329.87 365.46)">
   <path stroke-linejoin="round" d="m0 0c.036.164-.074.182-.192.192" stroke="#373535" stroke-linecap="round" stroke-width=".2" fill="none"/>
  </g>
  <g transform="matrix(1.25 0 0 -1.25 332.27 355.63)">
   <path stroke-linejoin="round" d="m0 0h.191" stroke="#373535" stroke-linecap="round" stroke-width=".2" fill="none"/>
  </g>
  <g transform="matrix(1.25 0 0 -1.25 324.84 356.35)">
   <path stroke-linejoin="round" d="m0 0c-.765-.32-1.399-.775-2.11-1.151" stroke="#373535" stroke-linecap="round" stroke-width=".2" fill="none"/>
  </g>
  <g transform="matrix(1.25 0 0 -1.25 328.19 354.67)">
   <path stroke-linejoin="round" d="m0 0c-.45-.765-1.84-.591-2.303-1.343" stroke="#373535" stroke-linecap="round" stroke-width=".2" fill="none"/>
  </g>
  <g transform="matrix(1.25 0 0 -1.25 317.16 350.11)">
   <path stroke-linejoin="round" d="m0 0c.266.629.686 1.105 1.534 1.151" stroke="#373535" stroke-linecap="round" stroke-width=".2" fill="none"/>
  </g>
  <g transform="matrix(1.25 0 0 -1.25 357.45 352.27)">
   <path stroke-linejoin="round" d="m0 0c3.047-1.803 5.26-6.892 4.029-11.128" stroke="#373535" stroke-linecap="round" stroke-width=".2" fill="none"/>
  </g>
  <g transform="matrix(1.25 0 0 -1.25 360.57 382.01)">
   <path stroke-linejoin="round" d="m0 0c-.107-3.026-1.466-4.802-2.303-7.099" stroke="#373535" stroke-linecap="round" stroke-width=".2" fill="none"/>
  </g>
  <g transform="matrix(1.25 0 0 -1.25 326.99 426.37)">
   <path stroke-linejoin="round" d="m0 0c-.701.002-.862.545-1.343.767.046 2.425-.676 5.329.384 7.096" stroke="#373535" stroke-linecap="round" stroke-width=".2" fill="none"/>
  </g>
  <g transform="matrix(1.25 0 0 -1.25 341.38 426.37)">
   <path stroke-linejoin="round" d="m0 0c-3.513-.584-7.398.521-11.51 0" stroke="#373535" stroke-linecap="round" stroke-width=".2" fill="none"/>
  </g>
  <g transform="matrix(1.25 0 0 -1.25 341.62 416.78)">
   <path stroke-linejoin="round" d="m0 0c.659-2.093.526-5.782-.192-7.672" stroke="#373535" stroke-linecap="round" stroke-width=".2" fill="none"/>
  </g>
  <g transform="matrix(1.25 0 0 -1.25 325.8 416.54)">
   <path stroke-linejoin="round" d="m0 0c-.254 1.666-.442 4.569.191 5.948" stroke="#373535" stroke-linecap="round" stroke-width=".2" fill="none"/>
  </g>
  <g transform="matrix(1.25 0 0 -1.25 328.91 416.06)">
   <path stroke-linejoin="round" d="m0 0c-.668-.291-1.573-.345-2.494-.384" stroke="#373535" stroke-linecap="round" stroke-width=".2" fill="none"/>
  </g>
  <g transform="matrix(1.25 0 0 -1.25 342.1 402.39)">
   <path stroke-linejoin="round" d="m0 0c.411-1.346.225-3.648-.192-4.797" stroke="#373535" stroke-linecap="round" stroke-width=".2" fill="none"/>
  </g>
  <g transform="matrix(1.25 0 0 -1.25 326.03 409.11)">
   <path stroke-linejoin="round" d="m0 0c-.506 1.507-.896 3.832-.575 5.564" stroke="#373535" stroke-linecap="round" stroke-width=".2" fill="none"/>
  </g>
  <g transform="matrix(1.25 0 0 -1.25 327.47 408.63)">
   <path stroke-linejoin="round" d="m0 0c-.621.11-.964-.059-1.151-.384" stroke="#373535" stroke-linecap="round" stroke-width=".2" fill="none"/>
  </g>
  <g transform="matrix(1.25 0 0 -1.25 338.75 409.34)">
   <path stroke-linejoin="round" d="m0 0c-1.786.264-3.769.327-5.757.384" stroke="#373535" stroke-linecap="round" stroke-width=".2" fill="none"/>
  </g>
  <g transform="matrix(1.25 0 0 -1.25 342.1 402.39)">
   <path stroke-linejoin="round" d="m0 0c-4.234-.653-9.942 1.376-13.429.191" stroke="#373535" stroke-linecap="round" stroke-width=".2" fill="none"/>
  </g>
  <g transform="matrix(1.25 0 0 -1.25 347.14 395.43)">
   <path stroke-linejoin="round" d="m0 0c-.297-2.9-2.047-4.349-4.029-5.563" stroke="#373535" stroke-linecap="round" stroke-width=".2" fill="none"/>
  </g>
  <g transform="matrix(1.25 0 0 -1.25 321.48 390.64)">
   <path stroke-linejoin="round" d="m0 0c.78.308 2.064.11 2.878.384" stroke="#373535" stroke-linecap="round" stroke-width=".2" fill="none"/>
  </g>
  <g transform="matrix(1.25 0 0 -1.25 325.32 402.15)">
   <path stroke-linejoin="round" d="m0 0c-1.604 1.85-3.615 3.29-3.838 6.521" stroke="#373535" stroke-linecap="round" stroke-width=".2" fill="none"/>
  </g>
  <g transform="matrix(1.25 0 0 -1.25 317.16 381.05)">
   <path stroke-linejoin="round" d="m0 0c.591-2.734 1.701-4.952 2.494-7.482.445.061.736-.032.959-.193" stroke="#373535" stroke-linecap="round" stroke-width=".2" fill="none"/>
  </g>
  <g transform="matrix(1.25 0 0 -1.25 311.41 381.05)">
   <path stroke-linejoin="round" d="m0 0c.982.105 1.543.632 2.303.96" stroke="#373535" stroke-linecap="round" stroke-width=".2" fill="none"/>
  </g>
  <g transform="matrix(1.25 0 0 -1.25 320.52 394)">
   <path stroke-linejoin="round" d="m0 0c-5.484-.21-8.741 4.407-8.823 9.593" stroke="#373535" stroke-linecap="round" stroke-width=".2" fill="none"/>
  </g>
  <g transform="matrix(1.25 0 0 -1.25 321.48 390.64)">
   <path stroke-linejoin="round" d="m0 0c-.578-.57-.573-1.727-.768-2.686" stroke="#373535" stroke-linecap="round" stroke-width=".2" fill="none"/>
  </g>
  <g transform="matrix(1.25 0 0 -1.25 309.49 382.01)">
   <path stroke-linejoin="round" d="m0 0c-3.279 1.474-2.527 7.934-2.687 11.894" stroke="#373535" stroke-linecap="round" stroke-width=".2" fill="none"/>
  </g>
  <g transform="matrix(1.25 0 0 -1.25 311.41 381.05)">
   <path stroke-linejoin="round" d="m0 0c-.314-.455-1.128-.409-1.535-.768" stroke="#373535" stroke-linecap="round" stroke-width=".2" fill="none"/>
  </g>
  <g transform="matrix(1.25 0 0 -1.25 309.25 356.83)">
   <path stroke-linejoin="round" d="m0 0c.158 3.743 2.783 5.017 6.329 5.373" stroke="#373535" stroke-linecap="round" stroke-width=".2" fill="none"/>
  </g>
  <g transform="matrix(1.25 0 0 -1.25 317.16 350.11)">
   <path stroke-linejoin="round" d="m0 0c.022-2.154-.131-4.482.384-6.14" stroke="#373535" stroke-linecap="round" stroke-width=".2" fill="none"/>
  </g>
  <g transform="matrix(1.25 0 0 -1.25 324.84 346.51)">
   <path stroke-linejoin="round" d="m0 0c1.875.801 4.38.773 6.716.384" stroke="#373535" stroke-linecap="round" stroke-width=".2" fill="none"/>
  </g>
  <g transform="matrix(1.25 0 0 -1.25 337.79 357.79)">
   <path stroke-linejoin="round" d="m0 0c-.903.504-2.145.673-2.879 1.343" stroke="#373535" stroke-linecap="round" stroke-width=".2" fill="none"/>
  </g>
  <g transform="matrix(1.25 0 0 -1.25 336.35 345.79)">
   <path stroke-linejoin="round" d="m0 0c1.401.208 3.729.683 4.794-.192" stroke="#373535" stroke-linecap="round" stroke-width=".2" fill="none"/>
  </g>
  <g transform="matrix(1.25 0 0 -1.25 341.62 416.78)">
   <path stroke-linejoin="round" d="m0 0c-.479.138-.788-.845-1.149-.192" stroke="#373535" stroke-linecap="round" stroke-width=".2" fill="none"/>
  </g>
  <g transform="matrix(1.25 0 0 -1.25 341.86 408.38)">
   <path stroke-linejoin="round" d="m0 0c.52-1.789.22-4.738-.191-6.716" stroke="#373535" stroke-linecap="round" stroke-width=".2" fill="none"/>
  </g>
  <g transform="matrix(1.25 0 0 -1.25 340.66 409.11)">
   <path stroke-linejoin="round" d="m0 0c.76-.245.465.561.959.576" stroke="#373535" stroke-linecap="round" stroke-width=".2" fill="none"/>
  </g>
  <g transform="matrix(1.25 0 0 -1.25 335.63 416.54)">
   <path stroke-linejoin="round" d="m0 0c-1.507.415-3.438.399-5.372.384" stroke="#373535" stroke-linecap="round" stroke-width=".2" fill="none"/>
  </g>
  <g transform="matrix(1.25 0 0 -1.25 335.87 416.54)">
   <path stroke-linejoin="round" d="m0 0h-.192" stroke="#373535" stroke-linecap="round" stroke-width=".2" fill="none"/>
  </g>
  <g transform="matrix(1.25 0 0 -1.25 340.19 417.02)">
   <path stroke-linejoin="round" d="m0 0c-1.384-.102-2.156.404-3.453.384" stroke="#373535" stroke-linecap="round" stroke-width=".2" fill="none"/>
  </g>
  <g transform="matrix(1.25 0 0 -1.25 338.75 409.34)">
   <path stroke-linejoin="round" d="m0 0c.278.297.979.169 1.532.191" stroke="#373535" stroke-linecap="round" stroke-width=".2" fill="none"/>
  </g>
  <g transform="matrix(1.25 0 0 -1.25 327.47 408.63)">
   <path stroke-linejoin="round" d="m0 0c1.026-.125 2.554.251 3.262-.191" stroke="#373535" stroke-linecap="round" stroke-width=".2" fill="none"/>
  </g>
  <g transform="matrix(1.25 0 0 -1.25 330.35 386.8)">
   <path stroke-linejoin="round" d="m0 0c2.384-.366 5.334-.164 7.099-1.151" stroke="#373535" stroke-linecap="round" stroke-width=".2" fill="none"/>
  </g>
  <g transform="matrix(1.25 0 0 -1.25 325.08 390.16)">
   <path stroke-linejoin="round" d="m0 0v1.343" stroke="#373535" stroke-linecap="round" stroke-width=".2" fill="none"/>
  </g>
  <g transform="matrix(1.25 0 0 -1.25 328.43 390.88)">
   <path stroke-linejoin="round" d="m0 0c-.752.335-1.954.22-2.687.575" stroke="#373535" stroke-linecap="round" stroke-width=".2" fill="none"/>
  </g>
  <g transform="matrix(1.25 0 0 -1.25 328.91 390.88)">
   <path stroke-linejoin="round" d="m0 0h-.384" stroke="#373535" stroke-linecap="round" stroke-width=".2" fill="none"/>
  </g>
  <g transform="matrix(1.25 0 0 -1.25 336.35 392.08)">
   <path stroke-linejoin="round" d="m0 0c-1.97.333-3.434 1.175-5.948.96" stroke="#373535" stroke-linecap="round" stroke-width=".2" fill="none"/>
  </g>
  <g transform="matrix(1.25 0 0 -1.25 341.86 392.08)">
   <path stroke-linejoin="round" d="m0 0c-1.24-.493-3.067-.033-4.41 0" stroke="#373535" stroke-linecap="round" stroke-width=".2" fill="none"/>
  </g>
  <g transform="matrix(1.25 0 0 -1.25 339.23 388.24)">
   <path stroke-linejoin="round" d="m0 0c-.079.463.349.417.192.959" stroke="#373535" stroke-linecap="round" stroke-width=".2" fill="none"/>
  </g>
  <g transform="matrix(1.25 0 0 -1.25 341.86 392.08)">
   <path stroke-linejoin="round" d="m0 0c-.681 1.047-1.824 1.63-2.108 3.07" stroke="#373535" stroke-linecap="round" stroke-width=".2" fill="none"/>
  </g>
  <g transform="matrix(1.25 0 0 -1.25 343.3 392.32)">
   <path stroke-linejoin="round" d="m0 0c-.223.033-.34-.041-.384-.194-.284.102-.483.286-.767.385" stroke="#373535" stroke-linecap="round" stroke-width=".2" fill="none"/>
  </g>
  <g transform="matrix(1.25 0 0 -1.25 341.14 378.65)">
   <path stroke-linejoin="round" d="m0 0c-1.2-1.483-.771-4.603-1.341-6.716" stroke="#373535" stroke-linecap="round" stroke-width=".2" fill="none"/>
  </g>
  <g transform="matrix(1.25 0 0 -1.25 322.44 378.65)">
   <path stroke-linejoin="round" d="m0 0c-1.107-.938-3.036-1.057-4.221-1.919" stroke="#373535" stroke-linecap="round" stroke-width=".2" fill="none"/>
  </g>
  <g transform="matrix(1.25 0 0 -1.25 321 369.06)">
   <path stroke-linejoin="round" d="m0 0c.663-1.701.617-4.114 1.344-5.751" stroke="#373535" stroke-linecap="round" stroke-width=".2" fill="none"/>
  </g>
  <g transform="matrix(1.25 0 0 -1.25 314.29 379.85)">
   <path stroke-linejoin="round" d="m0 0c-.739 2.144-1.835 7.337-1.728 9.207" stroke="#373535" stroke-linecap="round" stroke-width=".2" fill="none"/>
  </g>
  <g transform="matrix(1.25 0 0 -1.25 317.16 381.05)">
   <path stroke-linejoin="round" d="m0 0c-.804.281-1.461.712-2.3.96" stroke="#373535" stroke-linecap="round" stroke-width=".2" fill="none"/>
  </g>
  <g transform="matrix(1.25 0 0 -1.25 349.3 370.02)">
   <path stroke-linejoin="round" d="m0 0c.204-2.968-.428-6.079-.192-8.44" stroke="#373535" stroke-linecap="round" stroke-width=".2" fill="none"/>
  </g>
  <g transform="matrix(1.25 0 0 -1.25 341.14 378.65)">
   <path stroke-linejoin="round" d="m0 0c-.578.57-.85 1.45-.766 2.687" stroke="#373535" stroke-linecap="round" stroke-width=".2" fill="none"/>
  </g>
  <g transform="matrix(1.25 0 0 -1.25 342.82 379.37)">
   <path stroke-linejoin="round" d="m0 0c-.266.37-.992.286-1.343.575" stroke="#373535" stroke-linecap="round" stroke-width=".2" fill="none"/>
  </g>
  <g transform="matrix(1.25 0 0 -1.25 348.34 381.05)">
   <path stroke-linejoin="round" d="m0 0c-1.366.553-3.2.638-4.413 1.344" stroke="#373535" stroke-linecap="round" stroke-width=".2" fill="none"/>
  </g>
  <g transform="matrix(1.25 0 0 -1.25 349.06 380.57)">
   <path stroke-linejoin="round" d="m0 0c.31.054.33-.182.576-.191" stroke="#373535" stroke-linecap="round" stroke-width=".2" fill="none"/>
  </g>
  <g transform="matrix(1.25 0 0 -1.25 349.06 368.34)">
   <path stroke-linejoin="round" d="m0 0c-.109-.622.131-.891.192-1.343" stroke="#373535" stroke-linecap="round" stroke-width=".2" fill="none"/>
  </g>
  <g transform="matrix(1.25 0 0 -1.25 347.38 368.1)">
   <path stroke-linejoin="round" d="m0 0c.156-.404 1.013-.522 1.343-.189" stroke="#373535" stroke-linecap="round" stroke-width=".2" fill="none"/>
  </g>
  <g transform="matrix(1.25 0 0 -1.25 349.78 380.81)">
   <path stroke-linejoin="round" d="m0 0c1.987-1.431 3.52-1.486 4.653-.717 2.305 1.564 2.955 6.547 2.446 10.308" stroke="#373535" stroke-linecap="round" stroke-width=".2" fill="none"/>
  </g>
  <g transform="matrix(1.25 0 0 -1.25 348.34 381.05)">
   <path stroke-linejoin="round" d="m0 0c.479.368.788-.294 1.151.192" stroke="#373535" stroke-linecap="round" stroke-width=".2" fill="none"/>
  </g>
  <g transform="matrix(1.25 0 0 -1.25 344.02 391.12)">
   <path stroke-linejoin="round" d="m0 0c1.323 2.518 2.671 5.004 3.454 8.059" stroke="#373535" stroke-linecap="round" stroke-width=".2" fill="none"/>
  </g>
  <g transform="matrix(1.25 0 0 -1.25 343.3 392.32)">
   <path stroke-linejoin="round" d="m0 0c.112.399.404.621.575.959" stroke="#373535" stroke-linecap="round" stroke-width=".2" fill="none"/>
  </g>
  <g transform="matrix(1.25 0 0 -1.25 343.78 394.48)">
   <path stroke-linejoin="round" d="m0 0c-.205.498-.466.941-.384 1.727" stroke="#373535" stroke-linecap="round" stroke-width=".2" fill="none"/>
  </g>
  <g transform="matrix(1.25 0 0 -1.25 347.14 395.43)">
   <path stroke-linejoin="round" d="m0 0c-1.236.087-2.584-.69-2.687.766" stroke="#373535" stroke-linecap="round" stroke-width=".2" fill="none"/>
  </g>
  <g transform="matrix(1.25 0 0 -1.25 348.1 395.2)">
   <path stroke-linejoin="round" d="m0 0c-.343.025-.403-.232-.767-.189" stroke="#373535" stroke-linecap="round" stroke-width=".2" fill="none"/>
  </g>
  <g transform="matrix(1.25 0 0 -1.25 360.57 382.01)">
   <path stroke-linejoin="round" d="m0 0c-.632-.353-.647-.209-1.343-.575" stroke="#373535" stroke-linecap="round" stroke-width=".2" fill="none"/>
  </g>
  <g transform="matrix(1.25 0 0 -1.25 359.85 366.66)">
   <path stroke-linejoin="round" d="m0 0c.708-.104.69-.176 1.727-.192" stroke="#373535" stroke-linecap="round" stroke-width=".2" fill="none"/>
  </g>
  <g transform="matrix(1.25 0 0 -1.25 322.68 376.25)">
   <path stroke-linejoin="round" d="m0 0c2.502.184 3.842 1.529 6.14 1.919" stroke="#373535" stroke-linecap="round" stroke-width=".2" fill="none"/>
  </g>
  <g transform="matrix(1.25 0 0 -1.25 322.44 378.65)">
   <path stroke-linejoin="round" d="m0 0c.054.649.305 1.1.192 1.919" stroke="#373535" stroke-linecap="round" stroke-width=".2" fill="none"/>
  </g>
  <g transform="matrix(1.25 0 0 -1.25 325.08 388.48)">
   <path stroke-linejoin="round" d="m0 0c-1.013 2.313-.642 6.01-2.11 7.867" stroke="#373535" stroke-linecap="round" stroke-width=".2" fill="none"/>
  </g>
  <g transform="matrix(1.25 0 0 -1.25 330.35 386.8)">
   <path stroke-linejoin="round" d="m0 0v-.192c-1.369-.422-2.748-.831-4.222-1.152" stroke="#373535" stroke-linecap="round" stroke-width=".2" fill="none"/>
  </g>
  <g transform="matrix(1.25 0 0 -1.25 330.59 374.09)">
   <path stroke-linejoin="round" d="m0 0c-1.008-2.809.202-6.697-.191-10.169" stroke="#373535" stroke-linecap="round" stroke-width=".2" fill="none"/>
  </g>
  <g transform="matrix(1.25 0 0 -1.25 362.01 366.9)">
   <path stroke-linejoin="round" d="m0 0c.179.141.289.351.384.576" stroke="#373535" stroke-linecap="round" stroke-width=".2" fill="none"/>
  </g>
  <g transform="matrix(1.25 0 0 -1.25 360.57 382.01)">
   <path stroke-linejoin="round" d="m0 0c1.518 3.211 2.188 8.103 1.151 12.085" stroke="#373535" stroke-linecap="round" stroke-width=".2" fill="none"/>
  </g>
  <g transform="matrix(1.25 0 0 -1.25 329.87 365.94)">
   <path stroke-linejoin="round" d="m0 0v.384" stroke="#373535" stroke-linecap="round" stroke-width=".2" fill="none"/>
  </g>
  <g transform="matrix(1.25 0 0 -1.25 329.63 372.65)">
   <path stroke-linejoin="round" d="m0 0c.014 1.714-.094 4.566.192 5.37" stroke="#373535" stroke-linecap="round" stroke-width=".2" fill="none"/>
  </g>
  <g transform="matrix(1.25 0 0 -1.25 330.35 373.85)">
   <path stroke-linejoin="round" d="m0 0c-.005.187-.235.147-.384.191-.015.302.092.732-.192.768" stroke="#373535" stroke-linecap="round" stroke-width=".2" fill="none"/>
  </g>
  <g transform="matrix(1.25 0 0 -1.25 330.59 374.09)">
   <path stroke-linejoin="round" d="m0 0c.036.161-.074.179-.191.192" stroke="#373535" stroke-linecap="round" stroke-width=".2" fill="none"/>
  </g>
  <g transform="matrix(1.25 0 0 -1.25 332.51 374.57)">
   <path stroke-linejoin="round" d="m0 0c-.264.376-1.177.103-1.535.384" stroke="#373535" stroke-linecap="round" stroke-width=".2" fill="none"/>
  </g>
  <g transform="matrix(1.25 0 0 -1.25 340.19 375.29)">
   <path stroke-linejoin="round" d="m0 0c-2.313-.074-3.903.572-6.14.575" stroke="#373535" stroke-linecap="round" stroke-width=".2" fill="none"/>
  </g>
  <g transform="matrix(1.25 0 0 -1.25 340.9 369.3)">
   <path stroke-linejoin="round" d="m0 0c-.291-1.497-.299-3.279-.573-4.794" stroke="#373535" stroke-linecap="round" stroke-width=".2" fill="none"/>
  </g>
  <g transform="matrix(1.25 0 0 -1.25 329.87 365.46)">
   <path stroke-linejoin="round" d="m0 0c1.069-.9 3.853-.936 5.372-.768" stroke="#373535" stroke-linecap="round" stroke-width=".2" fill="none"/>
  </g>
  <g transform="matrix(1.25 0 0 -1.25 340.9 369.3)">
   <path stroke-linejoin="round" d="m0 0c-1.404.515-2.295 1.543-3.451 2.302" stroke="#373535" stroke-linecap="round" stroke-width=".2" fill="none"/>
  </g>
  <g transform="matrix(1.25 0 0 -1.25 346.9 368.34)">
   <path stroke-linejoin="round" d="m0 0c-1.486-.057-2.568-.141-4.797-.768" stroke="#373535" stroke-linecap="round" stroke-width=".2" fill="none"/>
  </g>
  <g transform="matrix(1.25 0 0 -1.25 336.59 366.42)">
   <path stroke-linejoin="round" d="m0 0c-.409 1.591.148 3.794.576 5.181" stroke="#373535" stroke-linecap="round" stroke-width=".2" fill="none"/>
  </g>
  <g transform="matrix(1.25 0 0 -1.25 312.13 368.34)">
   <path stroke-linejoin="round" d="m0 0c.054.312-.182.33-.191.575" stroke="#373535" stroke-linecap="round" stroke-width=".2" fill="none"/>
  </g>
  <g transform="matrix(1.25 0 0 -1.25 318.12 368.58)">
   <path stroke-linejoin="round" d="m0 0c-2.116.264-3.377-.575-4.795 0v.192" stroke="#373535" stroke-linecap="round" stroke-width=".2" fill="none"/>
  </g>
  <g transform="matrix(1.25 0 0 -1.25 322.2 357.79)">
   <path stroke-linejoin="round" d="m0 0c-.804-2.704.859-4.477.768-7.1" stroke="#373535" stroke-linecap="round" stroke-width=".2" fill="none"/>
  </g>
  <g transform="matrix(1.25 0 0 -1.25 317.64 357.79)">
   <path stroke-linejoin="round" d="m0 0c.225-.031.343.043.384.192 1.156.005 2.363.058 3.262-.192" stroke="#373535" stroke-linecap="round" stroke-width=".2" fill="none"/>
  </g>
  <g transform="matrix(1.25 0 0 -1.25 314.53 360.9)">
   <path stroke-linejoin="round" d="m0 0c1.396.264 1.712 1.614 2.492 2.495" stroke="#373535" stroke-linecap="round" stroke-width=".2" fill="none"/>
  </g>
  <g transform="matrix(1.25 0 0 -1.25 321 369.06)">
   <path stroke-linejoin="round" d="m0 0c-.493.404-1.857-.066-2.302.386" stroke="#373535" stroke-linecap="round" stroke-width=".2" fill="none"/>
  </g>
  <g transform="matrix(1.25 0 0 -1.25 323.16 366.66)">
   <path stroke-linejoin="round" d="m0 0c-.576-.637-1.036-1.392-1.728-1.921" stroke="#373535" stroke-linecap="round" stroke-width=".2" fill="none"/>
  </g>
  <g transform="matrix(1.25 0 0 -1.25 309.25 356.83)">
   <path stroke-linejoin="round" d="m0 0c-.093-.601.517-.506.575-.959" stroke="#373535" stroke-linecap="round" stroke-width=".2" fill="none"/>
  </g>
  <g transform="matrix(1.25 0 0 -1.25 306.13 367.14)">
   <path stroke-linejoin="round" d="m0 0c-1.179 3.582.553 6.616 2.495 8.25" stroke="#373535" stroke-linecap="round" stroke-width=".2" fill="none"/>
  </g>
  <g transform="matrix(1.25 0 0 -1.25 310.69 367.86)">
   <path stroke-linejoin="round" d="m0 0c-1.069.34-2.63.187-3.646.575" stroke="#373535" stroke-linecap="round" stroke-width=".2" fill="none"/>
  </g>
  <g transform="matrix(1.25 0 0 -1.25 311.89 367.62)">
   <path stroke-linejoin="round" d="m0 0c-.445.062-.737-.03-.96-.191" stroke="#373535" stroke-linecap="round" stroke-width=".2" fill="none"/>
  </g>
  <g transform="matrix(1.25 0 0 -1.25 312.13 366.66)">
   <path stroke-linejoin="round" d="m0 0c.023-.343-.235-.404-.191-.768" stroke="#373535" stroke-linecap="round" stroke-width=".2" fill="none"/>
  </g>
  <g transform="matrix(1.25 0 0 -1.25 324.84 356.35)">
   <path stroke-linejoin="round" d="m0 0h.384" stroke="#373535" stroke-linecap="round" stroke-width=".2" fill="none"/>
  </g>
  <g transform="matrix(1.25 0 0 -1.25 347.38 368.1)">
   <path stroke-linejoin="round" d="m0 0c-.156-.033-.191-.189-.384-.189" stroke="#373535" stroke-linecap="round" stroke-width=".2" fill="none"/>
  </g>
  <g transform="matrix(1.25 0 0 -1.25 350.26 367.14)">
   <path stroke-linejoin="round" d="m0 0h-.192c-.366 1.233-1.512 1.688-1.152 3.646" stroke="#373535" stroke-linecap="round" stroke-width=".2" fill="none"/>
  </g>
  <g transform="matrix(1.25 0 0 -1.25 358.65 368.82)">
   <path stroke-linejoin="round" d="m0 0c-1.783.905-4.604.768-6.715 1.343" stroke="#373535" stroke-linecap="round" stroke-width=".2" fill="none"/>
  </g>
  <g transform="matrix(1.25 0 0 -1.25 359.85 366.66)">
   <path stroke-linejoin="round" d="m0 0c-.153-.742-.422-1.368-.96-1.727" stroke="#373535" stroke-linecap="round" stroke-width=".2" fill="none"/>
  </g>
  <g transform="matrix(1.25 0 0 -1.25 359.85 364.98)">
   <path stroke-linejoin="round" d="m0 0v-1.343" stroke="#373535" stroke-linecap="round" stroke-width=".2" fill="none"/>
  </g>
  <g transform="matrix(1.25 0 0 -1.25 356.25 355.15)">
   <path stroke-linejoin="round" d="m0 0c1.995-1.586 2.368-4.792 2.878-7.867" stroke="#373535" stroke-linecap="round" stroke-width=".2" fill="none"/>
  </g>
  <g transform="matrix(1.25 0 0 -1.25 355.05 354.19)">
   <path stroke-linejoin="round" d="m0 0c.141-.435.578-.573.96-.768" stroke="#373535" stroke-linecap="round" stroke-width=".2" fill="none"/>
  </g>
  <g transform="matrix(1.25 0 0 -1.25 350.5 357.79)">
   <path stroke-linejoin="round" d="m0 0c.082.366.415.481.384.959" stroke="#373535" stroke-linecap="round" stroke-width=".2" fill="none"/>
  </g>
  <g transform="matrix(1.25 0 0 -1.25 337.79 357.79)">
   <path stroke-linejoin="round" d="m0 0v.192h4.41" stroke="#373535" stroke-linecap="round" stroke-width=".2" fill="none"/>
  </g>
  <g transform="matrix(1.25 0 0 -1.25 337.31 359.94)">
   <path stroke-linejoin="round" d="m0 0c-.174.875.316 1.087.384 1.727" stroke="#373535" stroke-linecap="round" stroke-width=".2" fill="none"/>
  </g>
  <g transform="matrix(1.25 0 0 -1.25 309.97 358.03)">
   <path stroke-linejoin="round" d="m0 0c1.151-.832 1.919-2.044 3.646-2.303" stroke="#373535" stroke-linecap="round" stroke-width=".2" fill="none"/>
  </g>
  <g transform="matrix(1.25 0 0 -1.25 312.85 364.74)">
   <path stroke-linejoin="round" d="m0 0c-.062-.642-.2-1.208-.576-1.535" stroke="#373535" stroke-linecap="round" stroke-width=".2" fill="none"/>
  </g>
  <g transform="matrix(1.25 0 0 -1.25 314.53 360.9)">
   <path stroke-linejoin="round" d="m0 0c-.486-.987-.796-2.146-1.343-3.07" stroke="#373535" stroke-linecap="round" stroke-width=".2" fill="none"/>
  </g>
  <g transform="matrix(1.25 0 0 -1.25 343.3 357.55)">
   <path stroke-linejoin="round" d="m0 0c-.409 1.762-.11 4.231-.177 6.339-.002.128-.008.253-.015.376.824.327 1.244 1.062 2.302 1.152" stroke="#373535" stroke-linecap="round" stroke-width=".2" fill="none"/>
  </g>
  <g transform="matrix(1.25 0 0 -1.25 350.5 357.79)">
   <path stroke-linejoin="round" d="m0 0c-.563-.908-.982-1.96-1.727-2.687-2.048.254-2.502 2.104-4.029 2.879" stroke="#373535" stroke-linecap="round" stroke-width=".2" fill="none"/>
  </g>
  <g transform="matrix(1.25 0 0 -1.25 354.81 354.19)">
   <path stroke-linejoin="round" d="m0 0c-.433-.573-1.276-.732-1.96-1.054-.404-.192-.749-.44-.918-.865h-.192" stroke="#373535" stroke-linecap="round" stroke-width=".2" fill="none"/>
  </g>
  <g transform="matrix(1.25 0 0 -1.25 354.81 354.19)">
   <path stroke-linejoin="round" d="m0 0c-.207 3.886-3.434 4.75-7.1 5.181" stroke="#373535" stroke-linecap="round" stroke-width=".2" fill="none"/>
  </g>
  <g transform="matrix(1.25 0 0 -1.25 355.05 354.19)">
   <path stroke-linejoin="round" d="m0 0h-.191" stroke="#373535" stroke-linecap="round" stroke-width=".2" fill="none"/>
  </g>
  <g transform="matrix(1.25 0 0 -1.25 357.45 352.27)">
   <path stroke-linejoin="round" d="m0 0v-.383c-.583-.441-1.338-.709-1.919-1.152" stroke="#373535" stroke-linecap="round" stroke-width=".2" fill="none"/>
  </g>
  <g transform="matrix(1.25 0 0 -1.25 342.34 346.03)">
   <path stroke-linejoin="round" d="m0 0c5.029.1 10.054-1.456 12.088-4.989" stroke="#373535" stroke-linecap="round" stroke-width=".2" fill="none"/>
  </g>
  <g transform="matrix(1.25 0 0 -1.25 345.94 347.71)">
   <path stroke-linejoin="round" d="m0 0c-.532.875-2.154.657-2.878 1.343" stroke="#373535" stroke-linecap="round" stroke-width=".2" fill="none"/>
  </g>
  <g transform="matrix(1.25 0 0 -1.25 324.84 346.51)">
   <path stroke-linejoin="round" d="m0 0c1.287-.314 2.993-.205 4.221-.576" stroke="#373535" stroke-linecap="round" stroke-width=".2" fill="none"/>
  </g>
  <g transform="matrix(1.25 0 0 -1.25 319.08 348.67)">
   <path stroke-linejoin="round" d="m0 0c.883 1.228 2.994 1.228 4.605 1.727" stroke="#373535" stroke-linecap="round" stroke-width=".2" fill="none"/>
  </g>
  <g transform="matrix(1.25 0 0 -1.25 328.19 353.47)">
   <path stroke-linejoin="round" d="m0 0c-.443.581-.067 1.978-.192 2.878-1.781 1.041-4.518 1.233-7.1.959" stroke="#373535" stroke-linecap="round" stroke-width=".2" fill="none"/>
  </g>
  <g transform="matrix(1.25 0 0 -1.25 334.19 356.11)">
   <path stroke-linejoin="round" d="m0 0c-.343.233-1.115.036-1.343.384" stroke="#373535" stroke-linecap="round" stroke-width=".2" fill="none"/>
  </g>
  <g transform="matrix(1.25 0 0 -1.25 335.15 355.39)">
   <path stroke-linejoin="round" d="m0 0v-.576h-.768" stroke="#373535" stroke-linecap="round" stroke-width=".2" fill="none"/>
  </g>
  <g transform="matrix(1.25 0 0 -1.25 336.35 345.79)">
   <path stroke-linejoin="round" d="m0 0c.028-.355.649-.118.768-.384-.283-.488-1.164-.373-1.344-.959" stroke="#373535" stroke-linecap="round" stroke-width=".2" fill="none"/>
  </g>
  <g transform="matrix(1.25 0 0 -1.25 333.23 346.03)">
   <path stroke-linejoin="round" d="m0 0c.938-.046 1.453.338 2.494.192" stroke="#373535" stroke-linecap="round" stroke-width=".2" fill="none"/>
  </g>
  <g transform="matrix(1.25 0 0 -1.25 330.11 347.23)">
   <path stroke-linejoin="round" d="m0 0c.771.381 1.709.594 2.495.959" stroke="#373535" stroke-linecap="round" stroke-width=".2" fill="none"/>
  </g>
  <g transform="matrix(1.25 0 0 -1.25 328.19 353.47)">
   <path stroke-linejoin="round" d="m0 0c-.251 1.982.095 3.367.861 4.329.198.248.423.465.673.659" stroke="#373535" stroke-linecap="round" stroke-width=".2" fill="none"/>
  </g>
  <g transform="matrix(1.25 0 0 -1.25 328.19 354.67)">
   <path stroke-linejoin="round" d="m0 0v.959" stroke="#373535" stroke-linecap="round" stroke-width=".2" fill="none"/>
  </g>
  <g transform="matrix(1.25 0 0 -1.25 328.91 354.91)">
   <path stroke-linejoin="round" d="m0 0c-.31-.054-.33.182-.575.192" stroke="#373535" stroke-linecap="round" stroke-width=".2" fill="none"/>
  </g>
  <g transform="matrix(1.25 0 0 -1.25 332.27 355.63)">
   <path stroke-linejoin="round" d="m0 0c-.962.125-1.814.361-2.687.576" stroke="#373535" stroke-linecap="round" stroke-width=".2" fill="none"/>
  </g>
  <g transform="matrix(1.25 0 0 -1.25 335.63 347.47)">
   <path stroke-linejoin="round" d="m0 0c-.043-.133-.079-.271-.109-.417-.343-1.722.248-4.373-.275-5.915" stroke="#373535" stroke-linecap="round" stroke-width=".2" fill="none"/>
  </g>
  <g transform="matrix(1.25 0 0 -1.25 357.69 390.88)">
   <path stroke-linejoin="round" d="m0 0v-.384c-1.719-1.143-3.99-3.264-7.675-3.07" stroke="#373535" stroke-linecap="round" stroke-width=".2" fill="none"/>
  </g>
  <g transform="matrix(1.25 0 0 -1.25 348.1 395.2)">
   <path stroke-linejoin="round" d="m0 0c3.193 2.244 5.217 5.656 5.948 10.361h.003c.942-.082 1.785-.256 2.684-.383" stroke="#373535" stroke-linecap="round" stroke-width=".2" fill="none"/>
  </g>
  <g transform="matrix(1.25 0 0 -1.25 352.36 355.51)">
   <path stroke-linejoin="round" d="m0 0c2.06-2.019 5.029-7.708 5.029-10.647" stroke="#373535" stroke-linecap="round" stroke-width=".2" fill="none"/>
  </g>
  <g transform="matrix(1.25 0 0 -1.25 348.34 361.14)">
   <path stroke-linejoin="round" d="m0 0 .189-1.151" stroke="#373535" stroke-linecap="round" stroke-width=".2" fill="none"/>
  </g>
  <g transform="matrix(1.25 0 0 -1.25 341.85 435.14)">
   <path stroke-linejoin="round" d="m0 0c-.143-1.987.417-4.684-.555-5.848" stroke="#373535" stroke-linecap="round" stroke-width=".2" fill="none"/>
  </g>
  <g transform="matrix(1.25 0 0 -1.25 341.38 426.37)">
   <path stroke-linejoin="round" d="m0 0c0-2.321.376-4.695.376-7.016" stroke="#373535" stroke-linecap="round" stroke-width=".2" fill="none"/>
  </g>
  <g transform="matrix(1.25 0 0 -1.25 354.37 572.29)">
   <path stroke-linejoin="round" d="m0 0c-.082-.354-.278-.276-.278-.555" stroke="#373535" stroke-linecap="round" stroke-width=".2" fill="none"/>
  </g>
  <g transform="matrix(1.25 0 0 -1.25 338.37 534.35)">
   <path stroke-linejoin="round" d="m0 0c-2.947 8.144-7.729 16.637-5.293 28.404" stroke="#373535" stroke-linecap="round" stroke-width=".2" fill="none"/>
  </g>
  <g transform="matrix(1.25 0 0 -1.25 326.54 443.49)">
   <path stroke-linejoin="round" d="m0 0c-1.919 3.088-1.832 10.397-.978 14.467" stroke="#373535" stroke-linecap="round" stroke-width=".2" fill="none"/>
  </g>
  <g transform="matrix(1.25 0 0 -1.25 350.91 529.47)">
   <path stroke-linejoin="round" d="m0 0c5.058-7.667 6.603-21.223 3.663-32.41-.013-.059-.028-.115-.044-.172" stroke="#373535" stroke-linecap="round" stroke-width=".2" fill="none"/>
  </g>
  <g transform="matrix(1.25 0 0 -1.25 352.99 574.03)">
   <path stroke-linejoin="round" d="m0 0c-.215-1.671-1.804-2.395-3.622-1.671-4.945 8.607-4.887 22.222-7.798 32.861" stroke="#373535" stroke-linecap="round" stroke-width=".2" fill="none"/>
  </g>
  <g transform="matrix(1.25 0 0 -1.25 331.76 498.84)">
   <path stroke-linejoin="round" d="m0 0c.09.647-.044 1.069-.279 1.392" stroke="#373535" stroke-linecap="round" stroke-width=".2" fill="none"/>
  </g>
  <g transform="matrix(1.25 0 0 -1.25 338.72 535.04)">
   <path stroke-linejoin="round" d="m0 0c-.051.228-.276.279-.276.558" stroke="#373535" stroke-linecap="round" stroke-width=".2" fill="none"/>
  </g>
  <g transform="matrix(1.25 0 0 -1.25 354.02 572.98)">
   <path stroke-linejoin="round" d="m0 0c-.153-.402-.428-.673-.826-.832-.003-.002-.008-.002-.011-.005" stroke="#373535" stroke-linecap="round" stroke-width=".2" fill="none"/>
  </g>
  <g transform="matrix(1.25 0 0 -1.25 355.49 569.99)">
   <path stroke-linejoin="round" d="m0 0c.01-.854-.31-1.592-.894-1.845" stroke="#373535" stroke-linecap="round" stroke-width=".2" fill="none"/>
  </g>
  <g transform="matrix(1.25 0 0 -1.25 350.91 528.43)">
   <path stroke-linejoin="round" d="m0 0v-.837" stroke="#373535" stroke-linecap="round" stroke-width=".2" fill="none"/>
  </g>
  <g transform="matrix(1.25 0 0 -1.25 345.68 496.4)">
   <path stroke-linejoin="round" d="m0 0c2.026-7.91 1.834-18.036 4.181-25.619" stroke="#373535" stroke-linecap="round" stroke-width=".2" fill="none"/>
  </g>
  <g transform="matrix(1.25 0 0 -1.25 336.63 443.15)">
   <path stroke-linejoin="round" d="m0 0c1.469-.069 2.597.194 3.623.558" stroke="#373535" stroke-linecap="round" stroke-width=".2" fill="none"/>
  </g>
  <g transform="matrix(1.25 0 0 -1.25 326.54 443.49)">
   <path stroke-linejoin="round" d="m0 0c.261-.156.419-.772.56-.276" stroke="#373535" stroke-linecap="round" stroke-width=".2" fill="none"/>
  </g>
  <g transform="matrix(1.25 0 0 -1.25 328.27 461.25)">
   <path stroke-linejoin="round" d="m0 0c-3.021 1.809-2.673 10.796-1.389 14.201" stroke="#373535" stroke-linecap="round" stroke-width=".2" fill="none"/>
  </g>
  <g transform="matrix(1.25 0 0 -1.25 341.16 442.45)">
   <path stroke-linejoin="round" d="m0 0c1.998-3.385 1.586-10.328.276-14.48" stroke="#373535" stroke-linecap="round" stroke-width=".2" fill="none"/>
  </g>
  <g transform="matrix(1.25 0 0 -1.25 336.63 443.15)">
   <path stroke-linejoin="round" d="m0 0c-1.992-.693-5.462.082-7.514-.556" stroke="#373535" stroke-linecap="round" stroke-width=".2" fill="none"/>
  </g>
  <g transform="matrix(1.25 0 0 -1.25 328.27 461.25)">
   <path stroke-linejoin="round" d="m0 0c3.702-.972 6.675.845 10.584.558" stroke="#373535" stroke-linecap="round" stroke-width=".2" fill="none"/>
  </g>
  <g transform="matrix(1.25 0 0 -1.25 331.41 497.1)">
   <path stroke-linejoin="round" d="m0 0c-.593 2.95-3.553 5.55-4.451 8.632-1.998 6.859 1.642 13.71 1.944 20.052" stroke="#373535" stroke-linecap="round" stroke-width=".2" fill="none"/>
  </g>
  <g transform="matrix(1.25 0 0 -1.25 344.29 497.79)">
   <path stroke-linejoin="round" d="m0 0v-.279c-2.911.834-6.268-.209-9.468 0-.156.399-.434.678-.837.834" stroke="#373535" stroke-linecap="round" stroke-width=".2" fill="none"/>
  </g>
  <g transform="matrix(1.25 0 0 -1.25 345.68 496.4)">
   <path stroke-linejoin="round" d="m0 0c-.932.188-1.016-.469-1.113-1.113" stroke="#373535" stroke-linecap="round" stroke-width=".2" fill="none"/>
  </g>
  <g transform="matrix(1.25 0 0 -1.25 341.5 460.55)">
   <path stroke-linejoin="round" d="m0 0c4.568-6.879 7.621-19.144 3.341-28.683" stroke="#373535" stroke-linecap="round" stroke-width=".2" fill="none"/>
  </g>
  <g transform="matrix(1.25 0 0 -1.25 343.06 349.15)">
   <path stroke-linejoin="round" d="m0 0c4.027.002 6.478-3.044 7.442-5.083v-.003" stroke="#373535" stroke-linecap="round" stroke-width=".2" fill="none"/>
  </g>
  <g transform="matrix(1.25 0 0 -1.25 335.49 347.99)">
   <path stroke-linejoin="round" d="m0 0c1.625.896 5.478-.054 6.025-1.305" stroke="#373535" stroke-linecap="round" stroke-width=".2" fill="none"/>
  </g>
  <g transform="matrix(1.25 0 0 -1.25 329.27 348.06)">
   <path stroke-linejoin="round" d="m0 0c1.479.471 3.543.663 4.974.054h.002" stroke="#373535" stroke-linecap="round" stroke-width=".2" fill="none"/>
  </g>
  <g transform="matrix(1.25 0 0 -1.25 328.43 349.62)">
   <path stroke-linejoin="round" d="m0 0v0" stroke="#373535" stroke-linecap="round" stroke-width=".2" fill="none"/>
  </g>
 </g>
</svg>
