<?xml version="1.0" encoding="UTF-8" standalone="no"?>
<svg xmlns:rdf="http://www.w3.org/1999/02/22-rdf-syntax-ns#" xmlns="http://www.w3.org/2000/svg" version="1.1" xmlns:cc="http://creativecommons.org/ns#" xmlns:dc="http://purl.org/dc/elements/1.1/" viewBox="0 0 57.52 231.32">
 <defs>
  <clipPath id="clipPath24" clipPathUnits="userSpaceOnUse">
   <path d="m436.68 313.74h45.816v-184.86h-45.816v184.86z"/>
  </clipPath>
 </defs>
 <g transform="translate(-305.53 -345.27)">
  <g transform="matrix(1.25 0 0 -1.25 -240.19 737.57)">
   <g clip-path="url(#clipPath24)">
    <g transform="translate(454.71 307.28)">
     <path d="m0 0c-0.443 0.581-0.067 1.978-0.192 2.878-1.781 1.041-4.518 1.233-7.1 0.959 0.883 1.228 2.994 1.228 4.605 1.727 1.288-0.314 2.994-0.205 4.221-0.576-0.25-0.194-0.475-0.411-0.673-0.659-0.766-0.962-1.112-2.347-0.861-4.329" class="protoderm" fill="#90c84b"/>
    </g>
    <g transform="translate(455.29 306.13)">
     <path d="m0 0c-0.31-0.054-0.33 0.182-0.575 0.192v0.959c-0.251 1.983 0.095 3.367 0.861 4.329l0.003-0.003c1.479 0.471 3.543 0.663 4.974 0.054-0.343-1.722 0.248-4.372-0.275-5.915v-0.575h-0.767c-0.343 0.232-1.116 0.036-1.343 0.383h-0.191c-0.962 0.126-1.815 0.361-2.687 0.576" class="protoderm" fill="#90c84b"/>
    </g>
    <g transform="translate(460.55 311.66)">
     <path d="m0 0c-1.431 0.609-3.495 0.417-4.974-0.054l-0.003 0.003c0.198 0.248 0.423 0.466 0.673 0.66 0.771 0.381 1.709 0.594 2.495 0.959 0.939-0.046 1.454 0.338 2.495 0.192 0.028-0.355 0.649-0.117 0.767-0.384-0.282-0.488-1.164-0.373-1.344-0.959-0.043-0.133-0.079-0.271-0.109-0.417" fill="#90c84b"/>
    </g>
    <g transform="translate(466.6 310.73)">
     <path d="m0 0c4.027 0.002 6.478-3.044 7.442-5.083-0.404-0.192-0.749-0.44-0.918-0.865h-0.192c0.031-0.478-0.302-0.594-0.384-0.959-0.562-0.908-0.982-1.96-1.726-2.687-2.049 0.254-2.502 2.103-4.03 2.879-0.409 1.762-0.11 4.231-0.176 6.339-0.002 0.128-0.008 0.253-0.016 0.376" class="protoderm" fill="#90c84b"/>
    </g>
    <g transform="translate(466.6 310.73)">
     <path d="m0 0c0.008-0.123 0.014-0.248 0.016-0.376l-0.043-0.003c-0.548 1.251-4.401 2.2-6.026 1.305h-0.002c0.031 0.146 0.067 0.284 0.11 0.417 0.179 0.586 1.061 0.471 1.343 0.959-0.118 0.266-0.739 0.029-0.767 0.384 1.401 0.208 3.729 0.683 4.794-0.192 0.723-0.685 2.346-0.468 2.878-1.343-1.059-0.089-1.479-0.824-2.303-1.151" class="protoderm" fill="#90c84b"/>
    </g>
    <g transform="translate(462.38 304.02)">
     <path d="m0 0v-0.192c-0.903 0.504-2.145 0.673-2.879 1.343h0.768v0.576c0.522 1.542-0.069 4.192 0.274 5.914h0.002c1.625 0.896 5.478-0.054 6.025-1.305l0.043 0.003c0.067-2.108-0.232-4.577 0.177-6.339h-4.41z" class="protoderm" fill="#90c84b"/>
    </g>
    <g transform="translate(474.04 305.65)">
     <path d="m0 0c-0.965 2.039-3.415 5.086-7.442 5.083 0.824 0.328 1.244 1.062 2.302 1.152 3.666-0.43 6.893-1.295 7.1-5.181-0.433-0.573-1.276-0.732-1.96-1.054" class="protoderm" fill="#90c84b"/>
    </g>
    <g transform="translate(474.04 305.65)">
     <path d="m0 0c0.684 0.322 1.527 0.481 1.96 1.054h0.191c0.141-0.435 0.578-0.573 0.96-0.767 1.995-1.586 2.368-4.792 2.878-7.867v-1.343c-0.153-0.743-0.422-1.369-0.96-1.727 0 2.94-2.969 8.629-5.029 10.648v0.002z" class="protoderm" fill="#90c84b"/>
    </g>
    <g transform="translate(474.04 305.65)">
     <path d="m0 0c2.06-2.019 5.029-7.708 5.029-10.647-1.783 0.905-4.604 0.767-6.715 1.342h-0.192c-0.365 1.234-1.512 1.689-1.151 3.646h-0.002l-0.19 1.151c0.744 0.727 1.164 1.779 1.727 2.687 0.082 0.365 0.415 0.481 0.384 0.959h0.192c0.169 0.424 0.514 0.673 0.918 0.864v-0.002z" class="protoderm" fill="#90c84b"/>
    </g>
    <g transform="translate(446.27 303.83)">
     <path d="m0 0c-0.515 1.658-0.361 3.986-0.384 6.14 0.266 0.629 0.686 1.105 1.534 1.151 2.582 0.273 5.32 0.082 7.1-0.959 0.125-0.901-0.251-2.298 0.192-2.878v-0.96c-0.45-0.765-1.839-0.591-2.302-1.343h-0.384c-0.765-0.32-1.4-0.775-2.11-1.151-0.899 0.25-2.106 0.197-3.262 0.192-0.041-0.149-0.159-0.223-0.384-0.192" class="protoderm" fill="#90c84b"/>
    </g>
    <g transform="translate(464.3 256.44)">
     <path d="m0 0c0.361-0.652 0.671 0.33 1.149 0.192 0.66-2.092 0.527-5.782-0.192-7.671-3.513-0.584-7.398 0.521-11.51 0-0.701 0.001-0.862 0.544-1.343 0.766 0.046 2.426-0.675 5.329 0.384 7.097 0.921 0.039 1.826 0.093 2.494 0.384 1.934 0.015 3.866 0.031 5.372-0.384h0.193c1.297 0.02 2.069-0.486 3.453-0.384" class="suspensor" fill="#c59d72"/>
    </g>
    <g transform="translate(465.64 263.35)">
     <path d="m0 0c-0.494-0.016-0.199-0.821-0.959-0.576-0.553-0.023-1.254 0.105-1.532-0.192-1.786 0.264-3.769 0.328-5.757 0.384-0.708 0.443-2.235 0.067-3.262 0.192-0.621 0.11-0.964-0.059-1.151-0.384-0.506 1.507-0.896 3.832-0.575 5.564 3.486 1.185 9.194-0.844 13.428-0.191 0.412-1.346 0.225-3.649-0.192-4.797" class="suspensor" fill="#c59d72"/>
    </g>
    <g transform="translate(480.03 296.73)">
     <path d="m0 0v1.343c-0.51 3.075-0.883 6.281-2.878 7.867-0.382 0.194-0.819 0.332-0.96 0.768 0.581 0.442 1.336 0.71 1.919 1.151v0.383c3.047-1.803 5.26-6.891 4.029-11.128-0.094-0.225-0.205-0.435-0.383-0.576-1.037 0.016-1.019 0.088-1.727 0.192" class="protoderm" fill="#90c84b"/>
    </g>
    <g transform="translate(471.02 299.99)">
     <path d="m0 0c-0.36-1.958 0.786-2.413 1.151-3.646h0.193c-0.366-0.271-0.686-0.591-0.96-0.959-0.33-0.333-1.187-0.215-1.343 0.189-0.156-0.033-0.191-0.189-0.384-0.189-1.486-0.057-2.568-0.141-4.797-0.768-1.404 0.515-2.295 1.543-3.451 2.303-0.409 1.591 0.149 3.794 0.576 5.18-0.173 0.875 0.317 1.088 0.384 1.727v0.192h4.41c1.528-0.775 1.981-2.625 4.03-2.878l0.189-1.151h0.002z" class="inner-upper" fill="#22984f"/>
    </g>
    <g transform="translate(471.98 285.41)">
     <path d="m0 0c-0.363-0.486-0.673 0.176-1.151-0.192-1.367 0.552-3.201 0.637-4.413 1.343-0.266 0.37-0.993 0.287-1.343 0.576-0.578 0.57-0.85 1.45-0.766 2.686 0.275 1.515 0.282 3.297 0.573 4.794 2.229 0.627 3.311 0.711 4.797 0.768 0.193 0 0.228 0.156 0.384 0.189 0.156-0.404 1.013-0.522 1.343-0.189-0.11-0.622 0.131-0.891 0.192-1.343 0.204-2.968-0.428-6.079-0.192-8.441 0.309 0.054 0.33-0.181 0.576-0.191" fill="#f1623b"/>
    </g>
    <g transform="translate(452.21 279.27)">
     <path d="m0 0c1.474 0.32 2.853 0.729 4.222 1.151v0.193c2.383-0.366 5.334-0.164 7.098-1.152 0.284-1.44 1.428-2.023 2.109-3.07-1.241-0.493-3.068-0.033-4.41 0-1.97 0.333-3.434 1.175-5.949 0.96h-0.383c-0.752 0.335-1.955 0.22-2.687 0.575v1.343z" fill="#337abe"/>
    </g>
    <g transform="translate(440.13 303.64)">
     <path d="m0 0c1.151-0.832 1.919-2.044 3.646-2.303-0.487-0.987-0.796-2.146-1.343-3.07-0.062-0.642-0.2-1.207-0.576-1.535 0.023-0.342-0.236-0.404-0.192-0.767-0.445 0.061-0.737-0.031-0.96-0.192-1.069 0.34-2.63 0.187-3.645 0.575-1.179 3.583 0.552 6.616 2.495 8.251-0.093-0.601 0.516-0.506 0.575-0.959" class="protoderm" fill="#90c84b"/>
    </g>
    <g transform="translate(454.77 221.06)">
     <path d="m0 0c-3.021 1.809-2.673 10.796-1.389 14.201 0.261-0.156 0.419-0.772 0.56-0.276 2.052 0.638 5.521-0.138 7.514 0.555 1.468-0.069 2.596 0.195 3.623 0.558 1.998-3.385 1.586-10.328 0.276-14.48-3.909 0.287-6.882-1.53-10.584-0.558" class="suspensor" fill="#c59d72"/>
    </g>
    <g transform="translate(456.63 290.78)">
     <path d="m0 0c-1.008-2.809 0.202-6.697-0.191-10.169v-0.192c-1.37-0.422-2.748-0.831-4.222-1.152-1.013 2.314-0.642 6.01-2.11 7.867 0.053 0.65 0.304 1.1 0.192 1.919 2.502 0.184 3.842 1.53 6.14 1.919 0.117-0.013 0.227-0.031 0.191-0.192" class="vascular-initials" fill="#eabd92"/>
    </g>
    <g transform="translate(445.88 309.97)">
     <path d="m0 0c0.022-2.154-0.131-4.482 0.384-6.14-0.78-0.88-1.096-2.231-2.492-2.494-1.727 0.258-2.495 1.471-3.646 2.302-0.059 0.453-0.668 0.358-0.575 0.959 0.158 3.744 2.783 5.018 6.329 5.373" class="protoderm" fill="#90c84b"/>
    </g>
    <g transform="translate(466.41 276.01)">
     <path d="m0 0c-0.284 0.103-0.483 0.286-0.768 0.386-0.68 1.047-1.824 1.63-2.108 3.07-0.079 0.463 0.349 0.417 0.192 0.959 0.571 2.113 0.141 5.232 1.341 6.716 0.351-0.289 1.077-0.205 1.343-0.575 1.213-0.706 3.047-0.791 4.413-1.344-0.783-3.055-2.131-5.541-3.454-8.059-0.171-0.338-0.463-0.559-0.575-0.959-0.223 0.034-0.34-0.041-0.384-0.194" class="ground-initials" fill="#f89734"/>
    </g>
    <g transform="translate(456.05 297.69)">
     <path d="m0 0c0.036 0.164-0.074 0.182-0.192 0.192 0.015 2.957-0.371 5.513-0.576 8.25 0.872-0.214 1.725-0.45 2.687-0.575h0.191c0.228-0.348 1-0.151 1.343-0.384 0.735-0.67 1.976-0.839 2.879-1.343-0.067-0.64-0.558-0.852-0.384-1.727-0.427-1.387-0.985-3.589-0.576-5.181-1.519-0.168-4.303-0.132-5.372 0.768" class="inner-upper" fill="#22984f"/>
    </g>
    <g transform="translate(481.76 296.54)">
     <path d="m0 0c1.036-3.983 0.366-8.875-1.151-12.085-0.632-0.353-0.648-0.209-1.343-0.576-0.899 0.128-1.742 0.302-2.684 0.384l0.046 0.435c2.305 1.563 2.955 6.547 2.445 10.307 0.539 0.359 0.807 0.985 0.96 1.727 0.708-0.105 0.691-0.176 1.727-0.192" class="protoderm" fill="#d8e037"/>
    </g>
    <g transform="translate(448.38 277.74)">
     <path d="m0 0c0.445 0.062 0.736-0.031 0.959-0.192-0.578-0.571-0.573-1.727-0.768-2.686-5.484-0.21-8.741 4.407-8.823 9.593 0.407 0.358 1.221 0.312 1.535 0.767 0.983 0.106 1.543 0.632 2.303 0.96 0.839-0.248 1.496-0.678 2.3-0.96 0.591-2.734 1.701-4.952 2.494-7.482" class="protoderm" fill="#d8e037"/>
    </g>
    <g transform="translate(445.88 285.22)">
     <path d="m0 0c1.185 0.862 3.113 0.98 4.221 1.919 1.468-1.857 1.097-5.554 2.11-7.867v-1.343c-0.813-0.273-2.098-0.076-2.878-0.384-0.223 0.161-0.514 0.254-0.959 0.193-0.793 2.53-1.903 4.748-2.494 7.482" class="ground-initials" fill="#f89734"/>
    </g>
    <g transform="translate(441.28 285.22)">
     <path d="m0 0c-0.314-0.455-1.128-0.409-1.535-0.768-3.279 1.474-2.528 7.934-2.687 11.894 1.016-0.389 2.576-0.235 3.646-0.575 0.222 0.161 0.514 0.253 0.96 0.191 0.01-0.245 0.245-0.263 0.191-0.575-0.107-1.87 0.988-7.063 1.728-9.207-0.76-0.328-1.321-0.855-2.303-0.96" class="protoderm" fill="#d8e037"/>
    </g>
    <g transform="translate(456.05 297.3)">
     <path d="m0 0c-1.08-0.519-2.709-0.486-4.029-0.768-0.622-0.109-0.893 0.131-1.343 0.192 0.092 2.623-1.571 4.396-0.768 7.1 0.711 0.376 1.346 0.831 2.111 1.151h0.383c0.463 0.752 1.853 0.578 2.303 1.343 0.245-0.01 0.266-0.246 0.575-0.192 0.205-2.737 0.591-5.293 0.576-8.25 0.118-0.011 0.228-0.029 0.192-0.192v-0.384z" class="inner-upper" fill="#22984f"/>
    </g>
    <g transform="translate(461.23 276.39)">
     <path d="m0 0c1.343-0.033 3.17-0.493 4.41 0 0.284-0.1 0.484-0.283 0.768-0.386 0.044 0.154 0.161 0.228 0.384 0.195-0.083-0.786 0.178-1.229 0.383-1.727 0.103-1.456 1.451-0.679 2.687-0.766-0.297-2.9-2.047-4.348-4.029-5.563-4.235-0.653-9.943 1.376-13.429 0.191-1.605 1.85-3.615 3.29-3.838 6.522 0.194 0.959 0.189 2.115 0.768 2.685 0.78 0.308 2.064 0.111 2.877 0.384 0.733-0.355 1.935-0.24 2.687-0.575h0.384c2.514 0.215 3.978-0.627 5.948-0.96" class="columella" fill="#3c4896"/>
    </g>
    <g transform="translate(452.41 249.73)">
     <path d="m0 0c0.48-0.222 0.642-0.765 1.343-0.767 4.111 0.522 7.997-0.584 11.51 0 0-2.321 0.376-4.695 0.376-7.015-0.143-1.988 0.417-4.684-0.555-5.848-1.027-0.363-2.154-0.627-3.623-0.558-1.992-0.693-5.462 0.083-7.514-0.555-0.141-0.496-0.299 0.12-0.559 0.276-1.919 3.088-1.832 10.398-0.978 14.467" class="suspensor" fill="#c59d72"/>
    </g>
    <g transform="translate(476 306.71)">
     <path d="m0 0c-0.207 3.886-3.434 4.75-7.1 5.181-0.532 0.874-2.154 0.657-2.878 1.342 5.03 0.101 10.054-1.455 12.088-4.988v-0.384c-0.583-0.44-1.338-0.709-1.919-1.151h-0.191z" class="protoderm" fill="#90c84b"/>
    </g>
    <g transform="translate(479.27 283.88)">
     <path d="m0 0c0.695 0.366 0.711 0.223 1.343 0.575-0.108-3.026-1.466-4.802-2.303-7.098v-0.384c-1.719-1.144-3.99-3.265-7.675-3.071 3.194 2.245 5.217 5.657 5.948 10.362h0.003c0.942-0.082 1.786-0.256 2.684-0.384" class="protoderm" fill="#d8e037"/>
    </g>
    <g transform="translate(467.58 191.54)">
     <path d="m0 0c-2.911 0.834-6.268-0.209-9.468 0-0.156 0.399-0.434 0.679-0.837 0.834-0.592 2.95-3.552 5.55-4.451 8.632-1.998 6.859 1.643 13.71 1.944 20.052 3.703-0.972 6.675 0.844 10.584 0.557 4.569-6.879 7.622-19.143 3.341-28.682-0.931 0.188-1.015-0.469-1.113-1.114v-0.279z" class="suspensor" fill="#c59d72"/>
    </g>
    <g transform="translate(455.86 291.93)">
     <path d="m0 0c0.014 1.714-0.094 4.566 0.192 5.37v0.383c1.07-0.9 3.853-0.936 5.372-0.767 1.157-0.759 2.047-1.788 3.452-2.302-0.291-1.497-0.299-3.28-0.574-4.794-2.312-0.075-3.903 0.572-6.139 0.575-0.264 0.376-1.177 0.102-1.535 0.384 0.036 0.161-0.075 0.178-0.192 0.192-0.005 0.187-0.235 0.147-0.384 0.191-0.015 0.302 0.092 0.732-0.192 0.768" class="vascular" fill="#ccb63d"/>
    </g>
    <g transform="translate(472.36 296.34)">
     <path d="m0 0c2.11-0.575 4.932-0.438 6.715-1.343 0.51-3.761-0.141-8.744-2.445-10.307-1.134-0.77-2.666-0.714-4.654 0.716-0.246 0.01-0.266 0.246-0.576 0.192-0.235 2.361 0.397 5.472 0.192 8.44-0.061 0.452-0.301 0.721-0.192 1.343 0.274 0.368 0.594 0.688 0.96 0.959" class="protoderm" fill="#d8e037"/>
    </g>
    <g transform="translate(450.1 287.14)">
     <path d="m0 0c-1.107-0.938-3.036-1.057-4.221-1.919-0.803 0.281-1.461 0.712-2.3 0.96-0.739 2.144-1.834 7.337-1.727 9.207v-0.192c1.418-0.576 2.679 0.263 4.795 0 0.444-0.452 1.808 0.018 2.302-0.386 0.663-1.701 0.617-4.114 1.343-5.751 0.113-0.819-0.138-1.27-0.192-1.919" fill="#f1623b"/>
    </g>
    <g transform="translate(476.58 284.26)">
     <path d="m0 0c-0.731-4.705-2.755-8.117-5.948-10.361-0.343 0.025-0.404-0.233-0.767-0.19-1.236 0.087-2.584-0.69-2.686 0.766-0.205 0.498-0.466 0.941-0.384 1.726 0.112 0.4 0.404 0.621 0.575 0.959 1.323 2.518 2.671 5.004 3.454 8.059 0.479 0.368 0.788-0.294 1.152 0.192 1.987-1.43 3.519-1.486 4.653-0.716l-0.046-0.435h-0.003z" class="protoderm" fill="#d8e037"/>
    </g>
    <g transform="translate(458.74 313.23)">
     <path d="m0 0c-0.786-0.366-1.725-0.578-2.495-0.959-1.228 0.371-2.934 0.261-4.221 0.575 1.875 0.801 4.38 0.773 6.716 0.384" class="protoderm" fill="#90c84b"/>
    </g>
    <g transform="translate(467.58 191.82)">
     <path d="m0 0c0.098 0.645 0.182 1.302 1.113 1.113 2.027-7.91 1.834-18.036 4.181-25.619v-0.837c5.058-7.667 6.602-21.222 3.663-32.41h0.003c0.01-0.854-0.31-1.592-0.894-1.845-0.082-0.353-0.278-0.276-0.278-0.554-0.153-0.403-0.428-0.673-0.826-0.832l0.002-0.005c-0.215-1.671-1.804-2.395-3.622-1.671-4.946 8.606-4.887 22.222-7.798 32.861-0.051 0.228-0.276 0.279-0.276 0.558-2.948 8.143-7.729 16.637-5.293 28.404 0.089 0.648-0.044 1.069-0.28 1.392 0.403-0.156 0.681-0.435 0.837-0.834 3.2-0.209 6.557 0.834 9.468 0v0.279z" class="suspensor" fill="#c59d72"/>
    </g>
    <g transform="translate(456.05 291.17)">
     <path d="m0 0c0.148-0.044 0.379-0.005 0.384-0.191-2.298-0.39-3.638-1.736-6.14-1.919-0.726 1.636-0.681 4.049-1.344 5.751 0.692 0.529 1.152 1.284 1.728 1.921 0.45-0.062 0.721-0.302 1.343-0.192 1.32 0.281 2.949 0.248 4.029 0.767-0.286-0.803-0.179-3.656-0.192-5.369 0.284-0.037 0.176-0.466 0.192-0.768" class="vascular" fill="#ccb63d"/>
    </g>
    <g transform="translate(465.64 263.35)">
     <path d="m0 0c0.52-1.789 0.22-4.738-0.191-6.716-0.479 0.138-0.788-0.845-1.15-0.192-1.384-0.102-2.156 0.404-3.453 0.384h-0.192c-1.507 0.415-3.439 0.399-5.372 0.383-0.668-0.291-1.574-0.344-2.495-0.383-0.253 1.666-0.442 4.569 0.192 5.948 0.187 0.325 0.53 0.494 1.151 0.384 1.027-0.125 2.554 0.251 3.262-0.192 1.988-0.056 3.971-0.12 5.757-0.384 0.278 0.297 0.979 0.169 1.532 0.192 0.76-0.245 0.465 0.56 0.959 0.576" class="suspensor" fill="#c59d72"/>
    </g>
    <g transform="translate(450.68 296.73)">
     <path d="m0 0c-0.576-0.637-1.036-1.392-1.728-1.921-0.493 0.404-1.857-0.066-2.301 0.386-2.117 0.264-3.377-0.575-4.795 0v0.192c0.053 0.312-0.182 0.33-0.192 0.575-0.044 0.364 0.215 0.425 0.192 0.768 0.376 0.328 0.514 0.893 0.576 1.535 0.547 0.923 0.856 2.083 1.343 3.07 1.396 0.264 1.712 1.614 2.492 2.495 0.225-0.031 0.343 0.043 0.384 0.192 1.156 0.004 2.363 0.058 3.261-0.192-0.803-2.704 0.86-4.477 0.768-7.1" class="inner-upper" fill="#22984f"/>
    </g>
    <g transform="translate(456.63 290.78)">
     <path d="m0 0c0.358-0.281 1.271-0.008 1.535-0.384 2.236-0.003 3.827-0.649 6.14-0.575-0.084-1.236 0.187-2.116 0.765-2.687-1.2-1.483-0.77-4.602-1.34-6.715 0.156-0.542-0.272-0.496-0.193-0.959-1.764 0.987-4.715 0.785-7.098 1.151 0.393 3.472-0.817 7.36 0.191 10.169" class="vascular-initials" fill="#eabd92"/>
    </g>
   </g>
  </g>
  <g transform="matrix(1.25 0 0 -1.25 350.26 367.14)">
   <path stroke-linejoin="round" d="m0 0c-0.366-0.271-0.686-0.591-0.96-0.959" stroke="#373535" stroke-linecap="round" stroke-width=".2" fill="none"/>
  </g>
  <g transform="matrix(1.25 0 0 -1.25 324.84 366.9)">
   <path stroke-linejoin="round" d="m0 0c-0.622-0.11-0.893 0.131-1.343 0.192" stroke="#373535" stroke-linecap="round" stroke-width=".2" fill="none"/>
  </g>
  <g transform="matrix(1.25 0 0 -1.25 329.87 365.94)">
   <path stroke-linejoin="round" d="m0 0c-1.08-0.519-2.709-0.486-4.029-0.768" stroke="#373535" stroke-linecap="round" stroke-width=".2" fill="none"/>
  </g>
  <g transform="matrix(1.25 0 0 -1.25 329.63 365.22)">
   <path stroke-linejoin="round" d="m0 0c0.016 2.958-0.37 5.513-0.575 8.25" stroke="#373535" stroke-linecap="round" stroke-width=".2" fill="none"/>
  </g>
  <g transform="matrix(1.25 0 0 -1.25 329.87 365.46)">
   <path stroke-linejoin="round" d="m0 0c0.036 0.164-0.074 0.182-0.192 0.192" stroke="#373535" stroke-linecap="round" stroke-width=".2" fill="none"/>
  </g>
  <g transform="matrix(1.25 0 0 -1.25 332.27 355.63)">
   <path stroke-linejoin="round" d="m0 0h0.191" stroke="#373535" stroke-linecap="round" stroke-width=".2" fill="none"/>
  </g>
  <g transform="matrix(1.25 0 0 -1.25 324.84 356.35)">
   <path stroke-linejoin="round" d="m0 0c-0.765-0.32-1.399-0.775-2.11-1.151" stroke="#373535" stroke-linecap="round" stroke-width=".2" fill="none"/>
  </g>
  <g transform="matrix(1.25 0 0 -1.25 328.19 354.67)">
   <path stroke-linejoin="round" d="m0 0c-0.45-0.765-1.84-0.591-2.303-1.343" stroke="#373535" stroke-linecap="round" stroke-width=".2" fill="none"/>
  </g>
  <g transform="matrix(1.25 0 0 -1.25 317.16 350.11)">
   <path stroke-linejoin="round" d="m0 0c0.266 0.629 0.686 1.105 1.534 1.151" stroke="#373535" stroke-linecap="round" stroke-width=".2" fill="none"/>
  </g>
  <g transform="matrix(1.25 0 0 -1.25 357.45 352.27)">
   <path stroke-linejoin="round" d="m0 0c3.047-1.803 5.26-6.892 4.029-11.128" stroke="#373535" stroke-linecap="round" stroke-width=".2" fill="none"/>
  </g>
  <g transform="matrix(1.25 0 0 -1.25 360.57 382.01)">
   <path stroke-linejoin="round" d="m0 0c-0.107-3.026-1.466-4.802-2.303-7.099" stroke="#373535" stroke-linecap="round" stroke-width=".2" fill="none"/>
  </g>
  <g transform="matrix(1.25 0 0 -1.25 326.99 426.37)">
   <path stroke-linejoin="round" d="m0 0c-0.701 0.002-0.862 0.545-1.343 0.767 0.046 2.425-0.676 5.329 0.384 7.096" stroke="#373535" stroke-linecap="round" stroke-width=".2" fill="none"/>
  </g>
  <g transform="matrix(1.25 0 0 -1.25 341.38 426.37)">
   <path stroke-linejoin="round" d="m0 0c-3.513-0.584-7.398 0.521-11.51 0" stroke="#373535" stroke-linecap="round" stroke-width=".2" fill="none"/>
  </g>
  <g transform="matrix(1.25 0 0 -1.25 341.62 416.78)">
   <path stroke-linejoin="round" d="m0 0c0.659-2.093 0.526-5.782-0.192-7.672" stroke="#373535" stroke-linecap="round" stroke-width=".2" fill="none"/>
  </g>
  <g transform="matrix(1.25 0 0 -1.25 325.8 416.54)">
   <path stroke-linejoin="round" d="m0 0c-0.254 1.666-0.442 4.569 0.191 5.948" stroke="#373535" stroke-linecap="round" stroke-width=".2" fill="none"/>
  </g>
  <g transform="matrix(1.25 0 0 -1.25 328.91 416.06)">
   <path stroke-linejoin="round" d="m0 0c-0.668-0.291-1.573-0.345-2.494-0.384" stroke="#373535" stroke-linecap="round" stroke-width=".2" fill="none"/>
  </g>
  <g transform="matrix(1.25 0 0 -1.25 342.1 402.39)">
   <path stroke-linejoin="round" d="m0 0c0.411-1.346 0.225-3.648-0.192-4.797" stroke="#373535" stroke-linecap="round" stroke-width=".2" fill="none"/>
  </g>
  <g transform="matrix(1.25 0 0 -1.25 326.03 409.11)">
   <path stroke-linejoin="round" d="m0 0c-0.506 1.507-0.896 3.832-0.575 5.564" stroke="#373535" stroke-linecap="round" stroke-width=".2" fill="none"/>
  </g>
  <g transform="matrix(1.25 0 0 -1.25 327.47 408.63)">
   <path stroke-linejoin="round" d="m0 0c-0.621 0.11-0.964-0.059-1.151-0.384" stroke="#373535" stroke-linecap="round" stroke-width=".2" fill="none"/>
  </g>
  <g transform="matrix(1.25 0 0 -1.25 338.75 409.34)">
   <path stroke-linejoin="round" d="m0 0c-1.786 0.264-3.769 0.327-5.757 0.384" stroke="#373535" stroke-linecap="round" stroke-width=".2" fill="none"/>
  </g>
  <g transform="matrix(1.25 0 0 -1.25 342.1 402.39)">
   <path stroke-linejoin="round" d="m0 0c-4.234-0.653-9.942 1.376-13.429 0.191" stroke="#373535" stroke-linecap="round" stroke-width=".2" fill="none"/>
  </g>
  <g transform="matrix(1.25 0 0 -1.25 347.14 395.43)">
   <path stroke-linejoin="round" d="m0 0c-0.297-2.9-2.047-4.349-4.029-5.563" stroke="#373535" stroke-linecap="round" stroke-width=".2" fill="none"/>
  </g>
  <g transform="matrix(1.25 0 0 -1.25 321.48 390.64)">
   <path stroke-linejoin="round" d="m0 0c0.78 0.308 2.064 0.11 2.878 0.384" stroke="#373535" stroke-linecap="round" stroke-width=".2" fill="none"/>
  </g>
  <g transform="matrix(1.25 0 0 -1.25 325.32 402.15)">
   <path stroke-linejoin="round" d="m0 0c-1.604 1.85-3.615 3.29-3.838 6.521" stroke="#373535" stroke-linecap="round" stroke-width=".2" fill="none"/>
  </g>
  <g transform="matrix(1.25 0 0 -1.25 317.16 381.05)">
   <path stroke-linejoin="round" d="m0 0c0.591-2.734 1.701-4.952 2.494-7.482 0.445 0.061 0.736-0.032 0.959-0.193" stroke="#373535" stroke-linecap="round" stroke-width=".2" fill="none"/>
  </g>
  <g transform="matrix(1.25 0 0 -1.25 311.41 381.05)">
   <path stroke-linejoin="round" d="m0 0c0.982 0.105 1.543 0.632 2.303 0.96" stroke="#373535" stroke-linecap="round" stroke-width=".2" fill="none"/>
  </g>
  <g transform="matrix(1.25 0 0 -1.25 320.52 394)">
   <path stroke-linejoin="round" d="m0 0c-5.484-0.21-8.741 4.407-8.823 9.593" stroke="#373535" stroke-linecap="round" stroke-width=".2" fill="none"/>
  </g>
  <g transform="matrix(1.25 0 0 -1.25 321.48 390.64)">
   <path stroke-linejoin="round" d="m0 0c-0.578-0.57-0.573-1.727-0.768-2.686" stroke="#373535" stroke-linecap="round" stroke-width=".2" fill="none"/>
  </g>
  <g transform="matrix(1.25 0 0 -1.25 309.49 382.01)">
   <path stroke-linejoin="round" d="m0 0c-3.279 1.474-2.527 7.934-2.687 11.894" stroke="#373535" stroke-linecap="round" stroke-width=".2" fill="none"/>
  </g>
  <g transform="matrix(1.25 0 0 -1.25 311.41 381.05)">
   <path stroke-linejoin="round" d="m0 0c-0.314-0.455-1.128-0.409-1.535-0.768" stroke="#373535" stroke-linecap="round" stroke-width=".2" fill="none"/>
  </g>
  <g transform="matrix(1.25 0 0 -1.25 309.25 356.83)">
   <path stroke-linejoin="round" d="m0 0c0.158 3.743 2.783 5.017 6.329 5.373" stroke="#373535" stroke-linecap="round" stroke-width=".2" fill="none"/>
  </g>
  <g transform="matrix(1.25 0 0 -1.25 317.16 350.11)">
   <path stroke-linejoin="round" d="m0 0c0.022-2.154-0.131-4.482 0.384-6.14" stroke="#373535" stroke-linecap="round" stroke-width=".2" fill="none"/>
  </g>
  <g transform="matrix(1.25 0 0 -1.25 324.84 346.51)">
   <path stroke-linejoin="round" d="m0 0c1.875 0.801 4.38 0.773 6.716 0.384" stroke="#373535" stroke-linecap="round" stroke-width=".2" fill="none"/>
  </g>
  <g transform="matrix(1.25 0 0 -1.25 337.79 357.79)">
   <path stroke-linejoin="round" d="m0 0c-0.903 0.504-2.145 0.673-2.879 1.343" stroke="#373535" stroke-linecap="round" stroke-width=".2" fill="none"/>
  </g>
  <g transform="matrix(1.25 0 0 -1.25 336.35 345.79)">
   <path stroke-linejoin="round" d="m0 0c1.401 0.208 3.729 0.683 4.794-0.192" stroke="#373535" stroke-linecap="round" stroke-width=".2" fill="none"/>
  </g>
  <g transform="matrix(1.25 0 0 -1.25 341.62 416.78)">
   <path stroke-linejoin="round" d="m0 0c-0.479 0.138-0.788-0.845-1.149-0.192" stroke="#373535" stroke-linecap="round" stroke-width=".2" fill="none"/>
  </g>
  <g transform="matrix(1.25 0 0 -1.25 341.86 408.38)">
   <path stroke-linejoin="round" d="m0 0c0.52-1.789 0.22-4.738-0.191-6.716" stroke="#373535" stroke-linecap="round" stroke-width=".2" fill="none"/>
  </g>
  <g transform="matrix(1.25 0 0 -1.25 340.66 409.11)">
   <path stroke-linejoin="round" d="m0 0c0.76-0.245 0.465 0.561 0.959 0.576" stroke="#373535" stroke-linecap="round" stroke-width=".2" fill="none"/>
  </g>
  <g transform="matrix(1.25 0 0 -1.25 335.63 416.54)">
   <path stroke-linejoin="round" d="m0 0c-1.507 0.415-3.438 0.399-5.372 0.384" stroke="#373535" stroke-linecap="round" stroke-width=".2" fill="none"/>
  </g>
  <g transform="matrix(1.25 0 0 -1.25 335.87 416.54)">
   <path stroke-linejoin="round" d="m0 0h-0.192" stroke="#373535" stroke-linecap="round" stroke-width=".2" fill="none"/>
  </g>
  <g transform="matrix(1.25 0 0 -1.25 340.19 417.02)">
   <path stroke-linejoin="round" d="m0 0c-1.384-0.102-2.156 0.404-3.453 0.384" stroke="#373535" stroke-linecap="round" stroke-width=".2" fill="none"/>
  </g>
  <g transform="matrix(1.25 0 0 -1.25 338.75 409.34)">
   <path stroke-linejoin="round" d="m0 0c0.278 0.297 0.979 0.169 1.532 0.191" stroke="#373535" stroke-linecap="round" stroke-width=".2" fill="none"/>
  </g>
  <g transform="matrix(1.25 0 0 -1.25 327.47 408.63)">
   <path stroke-linejoin="round" d="m0 0c1.026-0.125 2.554 0.251 3.262-0.191" stroke="#373535" stroke-linecap="round" stroke-width=".2" fill="none"/>
  </g>
  <g transform="matrix(1.25 0 0 -1.25 330.35 386.8)">
   <path stroke-linejoin="round" d="m0 0c2.384-0.366 5.334-0.164 7.099-1.151" stroke="#373535" stroke-linecap="round" stroke-width=".2" fill="none"/>
  </g>
  <g transform="matrix(1.25 0 0 -1.25 325.08 390.16)">
   <path stroke-linejoin="round" d="m0 0v1.343" stroke="#373535" stroke-linecap="round" stroke-width=".2" fill="none"/>
  </g>
  <g transform="matrix(1.25 0 0 -1.25 328.43 390.88)">
   <path stroke-linejoin="round" d="m0 0c-0.752 0.335-1.954 0.22-2.687 0.575" stroke="#373535" stroke-linecap="round" stroke-width=".2" fill="none"/>
  </g>
  <g transform="matrix(1.25 0 0 -1.25 328.91 390.88)">
   <path stroke-linejoin="round" d="m0 0h-0.384" stroke="#373535" stroke-linecap="round" stroke-width=".2" fill="none"/>
  </g>
  <g transform="matrix(1.25 0 0 -1.25 336.35 392.08)">
   <path stroke-linejoin="round" d="m0 0c-1.97 0.333-3.434 1.175-5.948 0.96" stroke="#373535" stroke-linecap="round" stroke-width=".2" fill="none"/>
  </g>
  <g transform="matrix(1.25 0 0 -1.25 341.86 392.08)">
   <path stroke-linejoin="round" d="m0 0c-1.24-0.493-3.067-0.033-4.41 0" stroke="#373535" stroke-linecap="round" stroke-width=".2" fill="none"/>
  </g>
  <g transform="matrix(1.25 0 0 -1.25 339.23 388.24)">
   <path stroke-linejoin="round" d="m0 0c-0.079 0.463 0.349 0.417 0.192 0.959" stroke="#373535" stroke-linecap="round" stroke-width=".2" fill="none"/>
  </g>
  <g transform="matrix(1.25 0 0 -1.25 341.86 392.08)">
   <path stroke-linejoin="round" d="m0 0c-0.681 1.047-1.824 1.63-2.108 3.07" stroke="#373535" stroke-linecap="round" stroke-width=".2" fill="none"/>
  </g>
  <g transform="matrix(1.25 0 0 -1.25 343.3 392.32)">
   <path stroke-linejoin="round" d="m0 0c-0.223 0.033-0.34-0.041-0.384-0.194-0.284 0.102-0.483 0.286-0.767 0.385" stroke="#373535" stroke-linecap="round" stroke-width=".2" fill="none"/>
  </g>
  <g transform="matrix(1.25 0 0 -1.25 341.14 378.65)">
   <path stroke-linejoin="round" d="m0 0c-1.2-1.483-0.771-4.603-1.341-6.716" stroke="#373535" stroke-linecap="round" stroke-width=".2" fill="none"/>
  </g>
  <g transform="matrix(1.25 0 0 -1.25 322.44 378.65)">
   <path stroke-linejoin="round" d="m0 0c-1.107-0.938-3.036-1.057-4.221-1.919" stroke="#373535" stroke-linecap="round" stroke-width=".2" fill="none"/>
  </g>
  <g transform="matrix(1.25 0 0 -1.25 321 369.06)">
   <path stroke-linejoin="round" d="m0 0c0.663-1.701 0.617-4.114 1.344-5.751" stroke="#373535" stroke-linecap="round" stroke-width=".2" fill="none"/>
  </g>
  <g transform="matrix(1.25 0 0 -1.25 314.29 379.85)">
   <path stroke-linejoin="round" d="m0 0c-0.739 2.144-1.835 7.337-1.728 9.207" stroke="#373535" stroke-linecap="round" stroke-width=".2" fill="none"/>
  </g>
  <g transform="matrix(1.25 0 0 -1.25 317.16 381.05)">
   <path stroke-linejoin="round" d="m0 0c-0.804 0.281-1.461 0.712-2.3 0.96" stroke="#373535" stroke-linecap="round" stroke-width=".2" fill="none"/>
  </g>
  <g transform="matrix(1.25 0 0 -1.25 349.3 370.02)">
   <path stroke-linejoin="round" d="m0 0c0.204-2.968-0.428-6.079-0.192-8.44" stroke="#373535" stroke-linecap="round" stroke-width=".2" fill="none"/>
  </g>
  <g transform="matrix(1.25 0 0 -1.25 341.14 378.65)">
   <path stroke-linejoin="round" d="m0 0c-0.578 0.57-0.85 1.45-0.766 2.687" stroke="#373535" stroke-linecap="round" stroke-width=".2" fill="none"/>
  </g>
  <g transform="matrix(1.25 0 0 -1.25 342.82 379.37)">
   <path stroke-linejoin="round" d="m0 0c-0.266 0.37-0.992 0.286-1.343 0.575" stroke="#373535" stroke-linecap="round" stroke-width=".2" fill="none"/>
  </g>
  <g transform="matrix(1.25 0 0 -1.25 348.34 381.05)">
   <path stroke-linejoin="round" d="m0 0c-1.366 0.553-3.2 0.638-4.413 1.344" stroke="#373535" stroke-linecap="round" stroke-width=".2" fill="none"/>
  </g>
  <g transform="matrix(1.25 0 0 -1.25 349.06 380.57)">
   <path stroke-linejoin="round" d="m0 0c0.31 0.054 0.33-0.182 0.576-0.191" stroke="#373535" stroke-linecap="round" stroke-width=".2" fill="none"/>
  </g>
  <g transform="matrix(1.25 0 0 -1.25 349.06 368.34)">
   <path stroke-linejoin="round" d="m0 0c-0.109-0.622 0.131-0.891 0.192-1.343" stroke="#373535" stroke-linecap="round" stroke-width=".2" fill="none"/>
  </g>
  <g transform="matrix(1.25 0 0 -1.25 347.38 368.1)">
   <path stroke-linejoin="round" d="m0 0c0.156-0.404 1.013-0.522 1.343-0.189" stroke="#373535" stroke-linecap="round" stroke-width=".2" fill="none"/>
  </g>
  <g transform="matrix(1.25 0 0 -1.25 349.78 380.81)">
   <path stroke-linejoin="round" d="m0 0c1.987-1.431 3.52-1.486 4.653-0.717 2.305 1.564 2.955 6.547 2.446 10.308" stroke="#373535" stroke-linecap="round" stroke-width=".2" fill="none"/>
  </g>
  <g transform="matrix(1.25 0 0 -1.25 348.34 381.05)">
   <path stroke-linejoin="round" d="m0 0c0.479 0.368 0.788-0.294 1.151 0.192" stroke="#373535" stroke-linecap="round" stroke-width=".2" fill="none"/>
  </g>
  <g transform="matrix(1.25 0 0 -1.25 344.02 391.12)">
   <path stroke-linejoin="round" d="m0 0c1.323 2.518 2.671 5.004 3.454 8.059" stroke="#373535" stroke-linecap="round" stroke-width=".2" fill="none"/>
  </g>
  <g transform="matrix(1.25 0 0 -1.25 343.3 392.32)">
   <path stroke-linejoin="round" d="m0 0c0.112 0.399 0.404 0.621 0.575 0.959" stroke="#373535" stroke-linecap="round" stroke-width=".2" fill="none"/>
  </g>
  <g transform="matrix(1.25 0 0 -1.25 343.78 394.48)">
   <path stroke-linejoin="round" d="m0 0c-0.205 0.498-0.466 0.941-0.384 1.727" stroke="#373535" stroke-linecap="round" stroke-width=".2" fill="none"/>
  </g>
  <g transform="matrix(1.25 0 0 -1.25 347.14 395.43)">
   <path stroke-linejoin="round" d="m0 0c-1.236 0.087-2.584-0.69-2.687 0.766" stroke="#373535" stroke-linecap="round" stroke-width=".2" fill="none"/>
  </g>
  <g transform="matrix(1.25 0 0 -1.25 348.1 395.2)">
   <path stroke-linejoin="round" d="m0 0c-0.343 0.025-0.403-0.232-0.767-0.189" stroke="#373535" stroke-linecap="round" stroke-width=".2" fill="none"/>
  </g>
  <g transform="matrix(1.25 0 0 -1.25 360.57 382.01)">
   <path stroke-linejoin="round" d="m0 0c-0.632-0.353-0.647-0.209-1.343-0.575" stroke="#373535" stroke-linecap="round" stroke-width=".2" fill="none"/>
  </g>
  <g transform="matrix(1.25 0 0 -1.25 359.85 366.66)">
   <path stroke-linejoin="round" d="m0 0c0.708-0.104 0.69-0.176 1.727-0.192" stroke="#373535" stroke-linecap="round" stroke-width=".2" fill="none"/>
  </g>
  <g transform="matrix(1.25 0 0 -1.25 322.68 376.25)">
   <path stroke-linejoin="round" d="m0 0c2.502 0.184 3.842 1.529 6.14 1.919" stroke="#373535" stroke-linecap="round" stroke-width=".2" fill="none"/>
  </g>
  <g transform="matrix(1.25 0 0 -1.25 322.44 378.65)">
   <path stroke-linejoin="round" d="m0 0c0.054 0.649 0.305 1.1 0.192 1.919" stroke="#373535" stroke-linecap="round" stroke-width=".2" fill="none"/>
  </g>
  <g transform="matrix(1.25 0 0 -1.25 325.08 388.48)">
   <path stroke-linejoin="round" d="m0 0c-1.013 2.313-0.642 6.01-2.11 7.867" stroke="#373535" stroke-linecap="round" stroke-width=".2" fill="none"/>
  </g>
  <g transform="matrix(1.25 0 0 -1.25 330.35 386.8)">
   <path stroke-linejoin="round" d="m0 0v-0.192c-1.369-0.422-2.748-0.831-4.222-1.152" stroke="#373535" stroke-linecap="round" stroke-width=".2" fill="none"/>
  </g>
  <g transform="matrix(1.25 0 0 -1.25 330.59 374.09)">
   <path stroke-linejoin="round" d="m0 0c-1.008-2.809 0.202-6.697-0.191-10.169" stroke="#373535" stroke-linecap="round" stroke-width=".2" fill="none"/>
  </g>
  <g transform="matrix(1.25 0 0 -1.25 362.01 366.9)">
   <path stroke-linejoin="round" d="m0 0c0.179 0.141 0.289 0.351 0.384 0.576" stroke="#373535" stroke-linecap="round" stroke-width=".2" fill="none"/>
  </g>
  <g transform="matrix(1.25 0 0 -1.25 360.57 382.01)">
   <path stroke-linejoin="round" d="m0 0c1.518 3.211 2.188 8.103 1.151 12.085" stroke="#373535" stroke-linecap="round" stroke-width=".2" fill="none"/>
  </g>
  <g transform="matrix(1.25 0 0 -1.25 329.87 365.94)">
   <path stroke-linejoin="round" d="m0 0v0.384" stroke="#373535" stroke-linecap="round" stroke-width=".2" fill="none"/>
  </g>
  <g transform="matrix(1.25 0 0 -1.25 329.63 372.65)">
   <path stroke-linejoin="round" d="m0 0c0.014 1.714-0.094 4.566 0.192 5.37" stroke="#373535" stroke-linecap="round" stroke-width=".2" fill="none"/>
  </g>
  <g transform="matrix(1.25 0 0 -1.25 330.35 373.85)">
   <path stroke-linejoin="round" d="m0 0c-0.005 0.187-0.235 0.147-0.384 0.191-0.015 0.302 0.092 0.732-0.192 0.768" stroke="#373535" stroke-linecap="round" stroke-width=".2" fill="none"/>
  </g>
  <g transform="matrix(1.25 0 0 -1.25 330.59 374.09)">
   <path stroke-linejoin="round" d="m0 0c0.036 0.161-0.074 0.179-0.191 0.192" stroke="#373535" stroke-linecap="round" stroke-width=".2" fill="none"/>
  </g>
  <g transform="matrix(1.25 0 0 -1.25 332.51 374.57)">
   <path stroke-linejoin="round" d="m0 0c-0.264 0.376-1.177 0.103-1.535 0.384" stroke="#373535" stroke-linecap="round" stroke-width=".2" fill="none"/>
  </g>
  <g transform="matrix(1.25 0 0 -1.25 340.19 375.29)">
   <path stroke-linejoin="round" d="m0 0c-2.313-0.074-3.903 0.572-6.14 0.575" stroke="#373535" stroke-linecap="round" stroke-width=".2" fill="none"/>
  </g>
  <g transform="matrix(1.25 0 0 -1.25 340.9 369.3)">
   <path stroke-linejoin="round" d="m0 0c-0.291-1.497-0.299-3.279-0.573-4.794" stroke="#373535" stroke-linecap="round" stroke-width=".2" fill="none"/>
  </g>
  <g transform="matrix(1.25 0 0 -1.25 329.87 365.46)">
   <path stroke-linejoin="round" d="m0 0c1.069-0.9 3.853-0.936 5.372-0.768" stroke="#373535" stroke-linecap="round" stroke-width=".2" fill="none"/>
  </g>
  <g transform="matrix(1.25 0 0 -1.25 340.9 369.3)">
   <path stroke-linejoin="round" d="m0 0c-1.404 0.515-2.295 1.543-3.451 2.302" stroke="#373535" stroke-linecap="round" stroke-width=".2" fill="none"/>
  </g>
  <g transform="matrix(1.25 0 0 -1.25 346.9 368.34)">
   <path stroke-linejoin="round" d="m0 0c-1.486-0.057-2.568-0.141-4.797-0.768" stroke="#373535" stroke-linecap="round" stroke-width=".2" fill="none"/>
  </g>
  <g transform="matrix(1.25 0 0 -1.25 336.59 366.42)">
   <path stroke-linejoin="round" d="m0 0c-0.409 1.591 0.148 3.794 0.576 5.181" stroke="#373535" stroke-linecap="round" stroke-width=".2" fill="none"/>
  </g>
  <g transform="matrix(1.25 0 0 -1.25 312.13 368.34)">
   <path stroke-linejoin="round" d="m0 0c0.054 0.312-0.182 0.33-0.191 0.575" stroke="#373535" stroke-linecap="round" stroke-width=".2" fill="none"/>
  </g>
  <g transform="matrix(1.25 0 0 -1.25 318.12 368.58)">
   <path stroke-linejoin="round" d="m0 0c-2.116 0.264-3.377-0.575-4.795 0v0.192" stroke="#373535" stroke-linecap="round" stroke-width=".2" fill="none"/>
  </g>
  <g transform="matrix(1.25 0 0 -1.25 322.2 357.79)">
   <path stroke-linejoin="round" d="m0 0c-0.804-2.704 0.859-4.477 0.768-7.1" stroke="#373535" stroke-linecap="round" stroke-width=".2" fill="none"/>
  </g>
  <g transform="matrix(1.25 0 0 -1.25 317.64 357.79)">
   <path stroke-linejoin="round" d="m0 0c0.225-0.031 0.343 0.043 0.384 0.192 1.156 0.005 2.363 0.058 3.262-0.192" stroke="#373535" stroke-linecap="round" stroke-width=".2" fill="none"/>
  </g>
  <g transform="matrix(1.25 0 0 -1.25 314.53 360.9)">
   <path stroke-linejoin="round" d="m0 0c1.396 0.264 1.712 1.614 2.492 2.495" stroke="#373535" stroke-linecap="round" stroke-width=".2" fill="none"/>
  </g>
  <g transform="matrix(1.25 0 0 -1.25 321 369.06)">
   <path stroke-linejoin="round" d="m0 0c-0.493 0.404-1.857-0.066-2.302 0.386" stroke="#373535" stroke-linecap="round" stroke-width=".2" fill="none"/>
  </g>
  <g transform="matrix(1.25 0 0 -1.25 323.16 366.66)">
   <path stroke-linejoin="round" d="m0 0c-0.576-0.637-1.036-1.392-1.728-1.921" stroke="#373535" stroke-linecap="round" stroke-width=".2" fill="none"/>
  </g>
  <g transform="matrix(1.25 0 0 -1.25 309.25 356.83)">
   <path stroke-linejoin="round" d="m0 0c-0.093-0.601 0.517-0.506 0.575-0.959" stroke="#373535" stroke-linecap="round" stroke-width=".2" fill="none"/>
  </g>
  <g transform="matrix(1.25 0 0 -1.25 306.13 367.14)">
   <path stroke-linejoin="round" d="m0 0c-1.179 3.582 0.553 6.616 2.495 8.25" stroke="#373535" stroke-linecap="round" stroke-width=".2" fill="none"/>
  </g>
  <g transform="matrix(1.25 0 0 -1.25 310.69 367.86)">
   <path stroke-linejoin="round" d="m0 0c-1.069 0.34-2.63 0.187-3.646 0.575" stroke="#373535" stroke-linecap="round" stroke-width=".2" fill="none"/>
  </g>
  <g transform="matrix(1.25 0 0 -1.25 311.89 367.62)">
   <path stroke-linejoin="round" d="m0 0c-0.445 0.062-0.737-0.03-0.96-0.191" stroke="#373535" stroke-linecap="round" stroke-width=".2" fill="none"/>
  </g>
  <g transform="matrix(1.25 0 0 -1.25 312.13 366.66)">
   <path stroke-linejoin="round" d="m0 0c0.023-0.343-0.235-0.404-0.191-0.768" stroke="#373535" stroke-linecap="round" stroke-width=".2" fill="none"/>
  </g>
  <g transform="matrix(1.25 0 0 -1.25 324.84 356.35)">
   <path stroke-linejoin="round" d="m0 0h0.384" stroke="#373535" stroke-linecap="round" stroke-width=".2" fill="none"/>
  </g>
  <g transform="matrix(1.25 0 0 -1.25 347.38 368.1)">
   <path stroke-linejoin="round" d="m0 0c-0.156-0.033-0.191-0.189-0.384-0.189" stroke="#373535" stroke-linecap="round" stroke-width=".2" fill="none"/>
  </g>
  <g transform="matrix(1.25 0 0 -1.25 350.26 367.14)">
   <path stroke-linejoin="round" d="m0 0h-0.192c-0.366 1.233-1.512 1.688-1.152 3.646" stroke="#373535" stroke-linecap="round" stroke-width=".2" fill="none"/>
  </g>
  <g transform="matrix(1.25 0 0 -1.25 358.65 368.82)">
   <path stroke-linejoin="round" d="m0 0c-1.783 0.905-4.604 0.768-6.715 1.343" stroke="#373535" stroke-linecap="round" stroke-width=".2" fill="none"/>
  </g>
  <g transform="matrix(1.25 0 0 -1.25 359.85 366.66)">
   <path stroke-linejoin="round" d="m0 0c-0.153-0.742-0.422-1.368-0.96-1.727" stroke="#373535" stroke-linecap="round" stroke-width=".2" fill="none"/>
  </g>
  <g transform="matrix(1.25 0 0 -1.25 359.85 364.98)">
   <path stroke-linejoin="round" d="m0 0v-1.343" stroke="#373535" stroke-linecap="round" stroke-width=".2" fill="none"/>
  </g>
  <g transform="matrix(1.25 0 0 -1.25 356.25 355.15)">
   <path stroke-linejoin="round" d="m0 0c1.995-1.586 2.368-4.792 2.878-7.867" stroke="#373535" stroke-linecap="round" stroke-width=".2" fill="none"/>
  </g>
  <g transform="matrix(1.25 0 0 -1.25 355.05 354.19)">
   <path stroke-linejoin="round" d="m0 0c0.141-0.435 0.578-0.573 0.96-0.768" stroke="#373535" stroke-linecap="round" stroke-width=".2" fill="none"/>
  </g>
  <g transform="matrix(1.25 0 0 -1.25 350.5 357.79)">
   <path stroke-linejoin="round" d="m0 0c0.082 0.366 0.415 0.481 0.384 0.959" stroke="#373535" stroke-linecap="round" stroke-width=".2" fill="none"/>
  </g>
  <g transform="matrix(1.25 0 0 -1.25 337.79 357.79)">
   <path stroke-linejoin="round" d="m0 0v0.192h4.41" stroke="#373535" stroke-linecap="round" stroke-width=".2" fill="none"/>
  </g>
  <g transform="matrix(1.25 0 0 -1.25 337.31 359.94)">
   <path stroke-linejoin="round" d="m0 0c-0.174 0.875 0.316 1.087 0.384 1.727" stroke="#373535" stroke-linecap="round" stroke-width=".2" fill="none"/>
  </g>
  <g transform="matrix(1.25 0 0 -1.25 309.97 358.03)">
   <path stroke-linejoin="round" d="m0 0c1.151-0.832 1.919-2.044 3.646-2.303" stroke="#373535" stroke-linecap="round" stroke-width=".2" fill="none"/>
  </g>
  <g transform="matrix(1.25 0 0 -1.25 312.85 364.74)">
   <path stroke-linejoin="round" d="m0 0c-0.062-0.642-0.2-1.208-0.576-1.535" stroke="#373535" stroke-linecap="round" stroke-width=".2" fill="none"/>
  </g>
  <g transform="matrix(1.25 0 0 -1.25 314.53 360.9)">
   <path stroke-linejoin="round" d="m0 0c-0.486-0.987-0.796-2.146-1.343-3.07" stroke="#373535" stroke-linecap="round" stroke-width=".2" fill="none"/>
  </g>
  <g transform="matrix(1.25 0 0 -1.25 343.3 357.55)">
   <path stroke-linejoin="round" d="m0 0c-0.409 1.762-0.11 4.231-0.177 6.339-0.002 0.128-0.008 0.253-0.015 0.376 0.824 0.327 1.244 1.062 2.302 1.152" stroke="#373535" stroke-linecap="round" stroke-width=".2" fill="none"/>
  </g>
  <g transform="matrix(1.25 0 0 -1.25 350.5 357.79)">
   <path stroke-linejoin="round" d="m0 0c-0.563-0.908-0.982-1.96-1.727-2.687-2.048 0.254-2.502 2.104-4.029 2.879" stroke="#373535" stroke-linecap="round" stroke-width=".2" fill="none"/>
  </g>
  <g transform="matrix(1.25 0 0 -1.25 354.81 354.19)">
   <path stroke-linejoin="round" d="m0 0c-0.433-0.573-1.276-0.732-1.96-1.054-0.404-0.192-0.749-0.44-0.918-0.865h-0.192" stroke="#373535" stroke-linecap="round" stroke-width=".2" fill="none"/>
  </g>
  <g transform="matrix(1.25 0 0 -1.25 354.81 354.19)">
   <path stroke-linejoin="round" d="m0 0c-0.207 3.886-3.434 4.75-7.1 5.181" stroke="#373535" stroke-linecap="round" stroke-width=".2" fill="none"/>
  </g>
  <g transform="matrix(1.25 0 0 -1.25 355.05 354.19)">
   <path stroke-linejoin="round" d="m0 0h-0.191" stroke="#373535" stroke-linecap="round" stroke-width=".2" fill="none"/>
  </g>
  <g transform="matrix(1.25 0 0 -1.25 357.45 352.27)">
   <path stroke-linejoin="round" d="m0 0v-0.383c-0.583-0.441-1.338-0.709-1.919-1.152" stroke="#373535" stroke-linecap="round" stroke-width=".2" fill="none"/>
  </g>
  <g transform="matrix(1.25 0 0 -1.25 342.34 346.03)">
   <path stroke-linejoin="round" d="m0 0c5.029 0.1 10.054-1.456 12.088-4.989" stroke="#373535" stroke-linecap="round" stroke-width=".2" fill="none"/>
  </g>
  <g transform="matrix(1.25 0 0 -1.25 345.94 347.71)">
   <path stroke-linejoin="round" d="m0 0c-0.532 0.875-2.154 0.657-2.878 1.343" stroke="#373535" stroke-linecap="round" stroke-width=".2" fill="none"/>
  </g>
  <g transform="matrix(1.25 0 0 -1.25 324.84 346.51)">
   <path stroke-linejoin="round" d="m0 0c1.287-0.314 2.993-0.205 4.221-0.576" stroke="#373535" stroke-linecap="round" stroke-width=".2" fill="none"/>
  </g>
  <g transform="matrix(1.25 0 0 -1.25 319.08 348.67)">
   <path stroke-linejoin="round" d="m0 0c0.883 1.228 2.994 1.228 4.605 1.727" stroke="#373535" stroke-linecap="round" stroke-width=".2" fill="none"/>
  </g>
  <g transform="matrix(1.25 0 0 -1.25 328.19 353.47)">
   <path stroke-linejoin="round" d="m0 0c-0.443 0.581-0.067 1.978-0.192 2.878-1.781 1.041-4.518 1.233-7.1 0.959" stroke="#373535" stroke-linecap="round" stroke-width=".2" fill="none"/>
  </g>
  <g transform="matrix(1.25 0 0 -1.25 334.19 356.11)">
   <path stroke-linejoin="round" d="m0 0c-0.343 0.233-1.115 0.036-1.343 0.384" stroke="#373535" stroke-linecap="round" stroke-width=".2" fill="none"/>
  </g>
  <g transform="matrix(1.25 0 0 -1.25 335.15 355.39)">
   <path stroke-linejoin="round" d="m0 0v-0.576h-0.768" stroke="#373535" stroke-linecap="round" stroke-width=".2" fill="none"/>
  </g>
  <g transform="matrix(1.25 0 0 -1.25 336.35 345.79)">
   <path stroke-linejoin="round" d="m0 0c0.028-0.355 0.649-0.118 0.768-0.384-0.283-0.488-1.164-0.373-1.344-0.959" stroke="#373535" stroke-linecap="round" stroke-width=".2" fill="none"/>
  </g>
  <g transform="matrix(1.25 0 0 -1.25 333.23 346.03)">
   <path stroke-linejoin="round" d="m0 0c0.938-0.046 1.453 0.338 2.494 0.192" stroke="#373535" stroke-linecap="round" stroke-width=".2" fill="none"/>
  </g>
  <g transform="matrix(1.25 0 0 -1.25 330.11 347.23)">
   <path stroke-linejoin="round" d="m0 0c0.771 0.381 1.709 0.594 2.495 0.959" stroke="#373535" stroke-linecap="round" stroke-width=".2" fill="none"/>
  </g>
  <g transform="matrix(1.25 0 0 -1.25 328.19 353.47)">
   <path stroke-linejoin="round" d="m0 0c-0.251 1.982 0.095 3.367 0.861 4.329 0.198 0.248 0.423 0.465 0.673 0.659" stroke="#373535" stroke-linecap="round" stroke-width=".2" fill="none"/>
  </g>
  <g transform="matrix(1.25 0 0 -1.25 328.19 354.67)">
   <path stroke-linejoin="round" d="m0 0v0.959" stroke="#373535" stroke-linecap="round" stroke-width=".2" fill="none"/>
  </g>
  <g transform="matrix(1.25 0 0 -1.25 328.91 354.91)">
   <path stroke-linejoin="round" d="m0 0c-0.31-0.054-0.33 0.182-0.575 0.192" stroke="#373535" stroke-linecap="round" stroke-width=".2" fill="none"/>
  </g>
  <g transform="matrix(1.25 0 0 -1.25 332.27 355.63)">
   <path stroke-linejoin="round" d="m0 0c-0.962 0.125-1.814 0.361-2.687 0.576" stroke="#373535" stroke-linecap="round" stroke-width=".2" fill="none"/>
  </g>
  <g transform="matrix(1.25 0 0 -1.25 335.63 347.47)">
   <path stroke-linejoin="round" d="m0 0c-0.043-0.133-0.079-0.271-0.109-0.417-0.343-1.722 0.248-4.373-0.275-5.915" stroke="#373535" stroke-linecap="round" stroke-width=".2" fill="none"/>
  </g>
  <g transform="matrix(1.25 0 0 -1.25 357.69 390.88)">
   <path stroke-linejoin="round" d="m0 0v-0.384c-1.719-1.143-3.99-3.264-7.675-3.07" stroke="#373535" stroke-linecap="round" stroke-width=".2" fill="none"/>
  </g>
  <g transform="matrix(1.25 0 0 -1.25 348.1 395.2)">
   <path stroke-linejoin="round" d="m0 0c3.193 2.244 5.217 5.656 5.948 10.361h0.003c0.942-0.082 1.785-0.256 2.684-0.383" stroke="#373535" stroke-linecap="round" stroke-width=".2" fill="none"/>
  </g>
  <g transform="matrix(1.25 0 0 -1.25 352.36 355.51)">
   <path stroke-linejoin="round" d="m0 0c2.06-2.019 5.029-7.708 5.029-10.647" stroke="#373535" stroke-linecap="round" stroke-width=".2" fill="none"/>
  </g>
  <g transform="matrix(1.25 0 0 -1.25 348.34 361.14)">
   <path stroke-linejoin="round" d="m0 0 0.189-1.151" stroke="#373535" stroke-linecap="round" stroke-width=".2" fill="none"/>
  </g>
  <g transform="matrix(1.25 0 0 -1.25 341.85 435.14)">
   <path stroke-linejoin="round" d="m0 0c-0.143-1.987 0.417-4.684-0.555-5.848" stroke="#373535" stroke-linecap="round" stroke-width=".2" fill="none"/>
  </g>
  <g transform="matrix(1.25 0 0 -1.25 341.38 426.37)">
   <path stroke-linejoin="round" d="m0 0c0-2.321 0.376-4.695 0.376-7.016" stroke="#373535" stroke-linecap="round" stroke-width=".2" fill="none"/>
  </g>
  <g transform="matrix(1.25 0 0 -1.25 354.37 572.29)">
   <path stroke-linejoin="round" d="m0 0c-0.082-0.354-0.278-0.276-0.278-0.555" stroke="#373535" stroke-linecap="round" stroke-width=".2" fill="none"/>
  </g>
  <g transform="matrix(1.25 0 0 -1.25 338.37 534.35)">
   <path stroke-linejoin="round" d="m0 0c-2.947 8.144-7.729 16.637-5.293 28.404" stroke="#373535" stroke-linecap="round" stroke-width=".2" fill="none"/>
  </g>
  <g transform="matrix(1.25 0 0 -1.25 326.54 443.49)">
   <path stroke-linejoin="round" d="m0 0c-1.919 3.088-1.832 10.397-0.978 14.467" stroke="#373535" stroke-linecap="round" stroke-width=".2" fill="none"/>
  </g>
  <g transform="matrix(1.25 0 0 -1.25 350.91 529.47)">
   <path stroke-linejoin="round" d="m0 0c5.058-7.667 6.603-21.223 3.663-32.41-0.013-0.059-0.028-0.115-0.044-0.172" stroke="#373535" stroke-linecap="round" stroke-width=".2" fill="none"/>
  </g>
  <g transform="matrix(1.25 0 0 -1.25 352.99 574.03)">
   <path stroke-linejoin="round" d="m0 0c-0.215-1.671-1.804-2.395-3.622-1.671-4.945 8.607-4.887 22.222-7.798 32.861" stroke="#373535" stroke-linecap="round" stroke-width=".2" fill="none"/>
  </g>
  <g transform="matrix(1.25 0 0 -1.25 331.76 498.84)">
   <path stroke-linejoin="round" d="m0 0c0.09 0.647-0.044 1.069-0.279 1.392" stroke="#373535" stroke-linecap="round" stroke-width=".2" fill="none"/>
  </g>
  <g transform="matrix(1.25 0 0 -1.25 338.72 535.04)">
   <path stroke-linejoin="round" d="m0 0c-0.051 0.228-0.276 0.279-0.276 0.558" stroke="#373535" stroke-linecap="round" stroke-width=".2" fill="none"/>
  </g>
  <g transform="matrix(1.25 0 0 -1.25 354.02 572.98)">
   <path stroke-linejoin="round" d="m0 0c-0.153-0.402-0.428-0.673-0.826-0.832-0.003-0.002-0.008-0.002-0.011-0.005" stroke="#373535" stroke-linecap="round" stroke-width=".2" fill="none"/>
  </g>
  <g transform="matrix(1.25 0 0 -1.25 355.49 569.99)">
   <path stroke-linejoin="round" d="m0 0c0.01-0.854-0.31-1.592-0.894-1.845" stroke="#373535" stroke-linecap="round" stroke-width=".2" fill="none"/>
  </g>
  <g transform="matrix(1.25 0 0 -1.25 350.91 528.43)">
   <path stroke-linejoin="round" d="m0 0v-0.837" stroke="#373535" stroke-linecap="round" stroke-width=".2" fill="none"/>
  </g>
  <g transform="matrix(1.25 0 0 -1.25 345.68 496.4)">
   <path stroke-linejoin="round" d="m0 0c2.026-7.91 1.834-18.036 4.181-25.619" stroke="#373535" stroke-linecap="round" stroke-width=".2" fill="none"/>
  </g>
  <g transform="matrix(1.25 0 0 -1.25 336.63 443.15)">
   <path stroke-linejoin="round" d="m0 0c1.469-0.069 2.597 0.194 3.623 0.558" stroke="#373535" stroke-linecap="round" stroke-width=".2" fill="none"/>
  </g>
  <g transform="matrix(1.25 0 0 -1.25 326.54 443.49)">
   <path stroke-linejoin="round" d="m0 0c0.261-0.156 0.419-0.772 0.56-0.276" stroke="#373535" stroke-linecap="round" stroke-width=".2" fill="none"/>
  </g>
  <g transform="matrix(1.25 0 0 -1.25 328.27 461.25)">
   <path stroke-linejoin="round" d="m0 0c-3.021 1.809-2.673 10.796-1.389 14.201" stroke="#373535" stroke-linecap="round" stroke-width=".2" fill="none"/>
  </g>
  <g transform="matrix(1.25 0 0 -1.25 341.16 442.45)">
   <path stroke-linejoin="round" d="m0 0c1.998-3.385 1.586-10.328 0.276-14.48" stroke="#373535" stroke-linecap="round" stroke-width=".2" fill="none"/>
  </g>
  <g transform="matrix(1.25 0 0 -1.25 336.63 443.15)">
   <path stroke-linejoin="round" d="m0 0c-1.992-0.693-5.462 0.082-7.514-0.556" stroke="#373535" stroke-linecap="round" stroke-width=".2" fill="none"/>
  </g>
  <g transform="matrix(1.25 0 0 -1.25 328.27 461.25)">
   <path stroke-linejoin="round" d="m0 0c3.702-0.972 6.675 0.845 10.584 0.558" stroke="#373535" stroke-linecap="round" stroke-width=".2" fill="none"/>
  </g>
  <g transform="matrix(1.25 0 0 -1.25 331.41 497.1)">
   <path stroke-linejoin="round" d="m0 0c-0.593 2.95-3.553 5.55-4.451 8.632-1.998 6.859 1.642 13.71 1.944 20.052" stroke="#373535" stroke-linecap="round" stroke-width=".2" fill="none"/>
  </g>
  <g transform="matrix(1.25 0 0 -1.25 344.29 497.79)">
   <path stroke-linejoin="round" d="m0 0v-0.279c-2.911 0.834-6.268-0.209-9.468 0-0.156 0.399-0.434 0.678-0.837 0.834" stroke="#373535" stroke-linecap="round" stroke-width=".2" fill="none"/>
  </g>
  <g transform="matrix(1.25 0 0 -1.25 345.68 496.4)">
   <path stroke-linejoin="round" d="m0 0c-0.932 0.188-1.016-0.469-1.113-1.113" stroke="#373535" stroke-linecap="round" stroke-width=".2" fill="none"/>
  </g>
  <g transform="matrix(1.25 0 0 -1.25 341.5 460.55)">
   <path stroke-linejoin="round" d="m0 0c4.568-6.879 7.621-19.144 3.341-28.683" stroke="#373535" stroke-linecap="round" stroke-width=".2" fill="none"/>
  </g>
  <g transform="matrix(1.25 0 0 -1.25 343.06 349.15)">
   <path stroke-linejoin="round" d="m0 0c4.027 0.002 6.478-3.044 7.442-5.083v-0.003" stroke="#373535" stroke-linecap="round" stroke-width=".2" fill="none"/>
  </g>
  <g transform="matrix(1.25 0 0 -1.25 335.49 347.99)">
   <path stroke-linejoin="round" d="m0 0c1.625 0.896 5.478-0.054 6.025-1.305" stroke="#373535" stroke-linecap="round" stroke-width=".2" fill="none"/>
  </g>
  <g transform="matrix(1.25 0 0 -1.25 329.27 348.06)">
   <path stroke-linejoin="round" d="m0 0c1.479 0.471 3.543 0.663 4.974 0.054h0.002" stroke="#373535" stroke-linecap="round" stroke-width=".2" fill="none"/>
  </g>
  <g transform="matrix(1.25 0 0 -1.25 328.43 349.62)">
   <path stroke-linejoin="round" d="m0 0v0" stroke="#373535" stroke-linecap="round" stroke-width=".2" fill="none"/>
  </g>
 </g>
</svg>
