<?xml version="1.0" encoding="UTF-8" standalone="no"?>
<svg
   xmlns:dc="http://purl.org/dc/elements/1.1/"
   xmlns:cc="http://creativecommons.org/ns#"
   xmlns:rdf="http://www.w3.org/1999/02/22-rdf-syntax-ns#"
   xmlns:svg="http://www.w3.org/2000/svg"
   xmlns="http://www.w3.org/2000/svg"
   xmlns:xlink="http://www.w3.org/1999/xlink"
   xmlns:sodipodi="http://sodipodi.sourceforge.net/DTD/sodipodi-0.dtd"
   xmlns:inkscape="http://www.inkscape.org/namespaces/inkscape"
   xml:space="preserve"
   enable-background="new 0 0 841.89 595.28"
   viewBox="0 0 171.891 173.11942"
   height="173.11943"
   width="171.89101"
   y="0px"
   x="0px"
   id="Layer_1"
   version="1.1"
   inkscape:version="0.91 r"
   sodipodi:docname="logo1.svg"
   inkscape:export-filename="/home/paul/alberto/web/images/logo/logo1.png"
   inkscape:export-xdpi="90"
   inkscape:export-ydpi="90"><sodipodi:namedview
     pagecolor="#ffffff"
     bordercolor="#666666"
     borderopacity="1"
     objecttolerance="10"
     gridtolerance="10"
     guidetolerance="10"
     inkscape:pageopacity="0"
     inkscape:pageshadow="2"
     inkscape:window-width="1680"
     inkscape:window-height="957"
     id="namedview5005"
     showgrid="false"
     inkscape:zoom="2.7264415"
     inkscape:cx="113.48251"
     inkscape:cy="106.10447"
     inkscape:window-x="0"
     inkscape:window-y="28"
     inkscape:window-maximized="1"
     inkscape:current-layer="Layer_1" /><metadata
     id="metadata301"><rdf:RDF><cc:Work
         rdf:about=""><dc:format>image/svg+xml</dc:format><dc:type
           rdf:resource="http://purl.org/dc/dcmitype/StillImage" /><dc:title /></cc:Work></rdf:RDF></metadata><defs
     id="defs299" /><g
     transform="translate(-315.499,-199.29201)"
     id="g3"><g
       id="g5"><defs
         id="defs7"><rect
           height="595.28003"
           width="841.89001"
           y="-9"
           x="-287"
           id="SVGID_1_" /></defs><clipPath
         id="SVGID_2_"><use
           height="100%"
           width="100%"
           y="0"
           x="0"
           style="overflow:visible"
           id="use11"
           overflow="visible"
           xlink:href="#SVGID_1_" /></clipPath><g
         id="g13"
         clip-path="url(#SVGID_2_)"><defs
           id="defs15"><rect
             height="166.892"
             width="165.26801"
             y="201.757"
             x="318.733"
             id="SVGID_3_" /></defs><clipPath
           id="SVGID_4_"><use
             height="100%"
             width="100%"
             y="0"
             x="0"
             style="overflow:visible"
             id="use19"
             overflow="visible"
             xlink:href="#SVGID_3_" /></clipPath><g
           id="g21"
           clip-path="url(#SVGID_4_)"><defs
             id="defs23"><rect
               height="166.892"
               width="165.26801"
               y="201.757"
               x="318.733"
               id="SVGID_5_" /></defs><clipPath
             id="SVGID_6_"><use
               height="100%"
               width="100%"
               y="0"
               x="0"
               style="overflow:visible"
               id="use27"
               overflow="visible"
               xlink:href="#SVGID_5_" /></clipPath><path
             style="fill:#2d77bc;fill-opacity:1;opacity:0.97"
             id="path29"
             d="m 484.001,236.939 0,131.71 -159.259,0 c -3.314,0 -6.009,-2.721 -6.009,-6.068 l 0,-125.642 c 0,0 43.207,21.362 81.471,21.362 36.37,0 83.797,-21.362 83.797,-21.362"
             clip-path="url(#SVGID_6_)" /><path
             style="fill:#29aae2"
             id="path31"
             d="m 484.001,201.757 0,35.182 c 0,0 -47.427,21.362 -83.797,21.362 -38.264,0 -81.471,-21.362 -81.471,-21.362 l 0,-29.114 c 0,-3.354 2.694,-6.068 6.009,-6.068 l 159.259,0 z"
             clip-path="url(#SVGID_6_)" /></g></g><path
         style="fill:none;stroke:#475ca7;stroke-width:5;stroke-miterlimit:10;stroke-opacity:1"
         id="path33"
         d="m 484.89,362.614 c 0,3.352 -2.717,6.069 -6.068,6.069 l -154.755,0 c -3.352,0 -6.068,-2.718 -6.068,-6.069 l 0,-154.754 c 0,-3.351 2.717,-6.068 6.068,-6.068 l 154.754,0 c 3.352,0 6.068,2.717 6.068,6.068 l 0,154.754 z"
         stroke-miterlimit="10"
         clip-path="url(#SVGID_2_)" /><path
         style="fill:none;stroke:#475ca7;stroke-width:5;stroke-miterlimit:10;stroke-opacity:1"
         id="path35"
         d="m 318.733,236.939 c 0,0 43.632,21.362 82.271,21.362 36.729,0 84.622,-21.362 84.622,-21.362"
         stroke-miterlimit="10"
         clip-path="url(#SVGID_2_)" /><g
         id="g37"
         clip-path="url(#SVGID_2_)"><defs
           id="defs39"><rect
             height="170.56799"
             width="104.926"
             y="220.832"
             x="334.996"
             id="SVGID_7_" /></defs><clipPath
           id="SVGID_8_"><use
             height="100%"
             width="100%"
             y="0"
             x="0"
             style="overflow:visible"
             id="use43"
             overflow="visible"
             xlink:href="#SVGID_7_" /></clipPath><g
           id="g45"
           clip-path="url(#SVGID_8_)"><defs
             id="defs47"><rect
               height="170.56799"
               width="104.926"
               y="220.832"
               x="334.996"
               id="SVGID_9_" /></defs><clipPath
             id="SVGID_10_"><use
               height="100%"
               width="100%"
               y="0"
               x="0"
               style="overflow:visible"
               id="use51"
               overflow="visible"
               xlink:href="#SVGID_9_" /></clipPath><path
             style="fill:#6fccdd"
             id="path53"
             d="m 435.498,265.426 c 11.954,15.699 -2.728,42.379 -15.503,50.287 l 15.503,-51.064 0,0.777 z"
             clip-path="url(#SVGID_10_)"
             inkscape:connector-curvature="0"
             transform="matrix(1.2208732,0,0,1,-97.166985,0)" /><path
             style="fill:#6fccdd"
             id="path55"
             d="m 435.498,263.873 c -4.286,1.364 -8.378,2.995 -14.728,2.336 l 14.728,-2.336 z"
             clip-path="url(#SVGID_10_)" /><path
             style="fill:#6fccdd"
             id="path57"
             d="m 428.523,237.584 c 5.103,5.723 9.429,15.536 6.975,26.289 l -6.975,-26.289 z"
             clip-path="url(#SVGID_10_)" /><path
             style="fill:#6fccdd"
             id="path59"
             d="m 428.523,237.584 -37.113,-16.24 c 17.055,0.737 29.283,6.309 37.113,16.24"
             clip-path="url(#SVGID_10_)" /><path
             style="fill:#6fccdd"
             id="path61"
             d="m 422.331,316.489 c -0.854,0.163 -1.161,-0.248 -1.599,-0.529 l 1.599,0.529 z"
             clip-path="url(#SVGID_10_)" /><path
             style="fill:#6fccdd"
             id="path63"
             d="m 422.331,316.489 c -0.424,8.012 -4.038,12.834 -6.473,18.83 l 6.473,-18.83 z"
             clip-path="url(#SVGID_10_)" /><path
             style="fill:#6fccdd"
             id="path65"
             d="m 435.498,264.649 -15.503,51.064 -7.347,0 c -0.098,-0.026 -0.215,-0.026 -0.365,0 l -6.931,-4.64 0.641,-3.341 c 2.428,-12.221 5.709,-23.606 7.066,-36.892 l 7.711,-4.632 c 6.35,0.659 10.441,-0.973 14.728,-2.336 l 0,0.777 z"
             clip-path="url(#SVGID_10_)" /><path
             style="fill:#6fccdd"
             id="path67"
             d="m 420.771,266.208 c -3.151,-1.859 -6.205,-4.267 -9.284,-6.916 l 9.284,6.916 z"
             clip-path="url(#SVGID_10_)" /><path
             style="fill:#6fccdd"
             id="path69"
             d="m 411.487,259.292 c 3.079,2.649 6.133,5.057 9.284,6.916 -1.716,0.196 -5.369,2.728 -7.712,4.633 -3.139,-0.627 -6.616,-0.529 -10.146,-0.274 l -18.478,-0.503 0,-30.927 27.052,20.155 z"
             clip-path="url(#SVGID_10_)" /><path
             style="fill:#6fccdd"
             id="path71"
             d="m 420.771,266.208 -7.712,4.633 c 2.343,-1.904 5.997,-4.437 7.712,-4.633"
             clip-path="url(#SVGID_10_)" /><path
             style="fill:#6fccdd"
             id="path73"
             d="m 419.995,315.713 c 0.313,0.013 0.542,0.117 0.737,0.247 l -0.737,-0.247 z"
             clip-path="url(#SVGID_10_)" /><path
             style="fill:#6fccdd"
             id="path75"
             d="m 412.648,315.713 7.347,0 c -1.794,0.737 -4.907,2.57 -6.936,0.776 -0.026,-0.359 -0.084,-0.698 -0.411,-0.776"
             clip-path="url(#SVGID_10_)" /><path
             style="fill:#6fccdd"
             id="path77"
             d="m 415.858,335.319 -1.239,3.602 c 0.353,-1.266 0.77,-2.453 1.239,-3.602"
             clip-path="url(#SVGID_10_)" /><path
             style="fill:#6fccdd"
             id="path79"
             d="m 414.619,338.921 -0.104,3.211 c 0.006,-1.116 0.039,-2.187 0.104,-3.211"
             clip-path="url(#SVGID_10_)" /><path
             style="fill:#6fccdd"
             id="path81"
             d="m 403.012,340.48 11.607,-1.56 c -4.711,0.582 -6.969,2.768 -11.607,1.56"
             clip-path="url(#SVGID_10_)" /><path
             style="fill:#6fccdd"
             id="path83"
             d="m 414.515,342.132 c -0.046,9.493 1.735,21.767 -0.933,29.505 l 0.933,-29.505 z"
             clip-path="url(#SVGID_10_)" /><path
             style="fill:#6fccdd"
             id="path85"
             d="m 413.06,270.841 -10.146,-0.274 c 3.529,-0.255 7.007,-0.352 10.146,0.274"
             clip-path="url(#SVGID_10_)" /><path
             style="fill:#6fccdd"
             id="path87"
             d="m 413.06,270.841 c -1.357,13.285 -4.639,24.67 -7.066,36.891 l 7.066,-36.891 z"
             clip-path="url(#SVGID_10_)" /><path
             style="fill:#6fccdd"
             id="path89"
             d="m 412.648,315.713 -0.365,0 c 0.151,-0.026 0.268,-0.026 0.365,0"
             clip-path="url(#SVGID_10_)" /><path
             style="fill:#6fccdd"
             id="path91"
             d="m 412.283,315.713 c -2.336,-1.521 -5.762,-1.951 -6.93,-4.64 l 6.93,4.64 z"
             clip-path="url(#SVGID_10_)" /><path
             style="fill:#6fccdd"
             id="path93"
             d="m 411.487,259.292 -27.052,-20.155 c 10.629,4.495 18.916,13.155 27.052,20.155"
             clip-path="url(#SVGID_10_)" /><path
             style="fill:#6fccdd"
             id="path95"
             d="m 405.993,307.732 -0.64,3.341 c 0.202,-1.122 0.418,-2.238 0.64,-3.341"
             clip-path="url(#SVGID_10_)" /><path
             transform="matrix(1.0450373,0,0,0.66323305,-18.67334,113.38704)"
             style="fill:#6fccdd"
             id="path97"
             d="m 403.012,340.48 c 4.639,1.207 6.896,-0.979 11.607,-1.56 -0.065,1.024 -0.098,2.095 -0.104,3.211 l -0.933,29.505 -0.46866,17.00524 -47.81067,0.0695 -0.21334,-0.0763 0.0267,-47.37148 4.639,-0.783 z"
             clip-path="url(#SVGID_10_)" /><path
             style="fill:#6fccdd"
             id="path99"
             d="m 403.012,311.073 c -7.047,-0.424 -12.456,-2.492 -17.018,-5.409 l 17.018,5.409 z"
             clip-path="url(#SVGID_10_)" /><path
             style="fill:#6fccdd"
             id="path101"
             d="m 369.754,340.48 c 11.373,-0.587 24.227,-1.207 33.258,0 l -33.258,0 z"
             clip-path="url(#SVGID_10_)" /><path
             style="fill:#6fccdd"
             id="path103"
             d="m 384.436,270.065 18.478,0.502 c -6.545,0.477 -13.292,1.501 -18.478,-0.502"
             clip-path="url(#SVGID_10_)" /><path
             style="fill:#6fccdd"
             id="path105"
             d="m 389.851,221.344 1.56,0 37.113,16.24 6.975,26.289 -14.727,2.336 -9.284,-6.916 c -8.137,-7.002 -16.423,-15.66 -27.052,-20.156 l -1.515,-1.553 0,-6.192 c 0.444,-0.058 0.51,-2.46 0.477,-4.978 l 6.453,-5.07 z"
             clip-path="url(#SVGID_10_)" /><path
             style="fill:#6fccdd"
             id="path107"
             d="m 389.851,221.344 c -0.776,0.496 -1.729,0.293 -2.682,0 l 2.682,0 z"
             clip-path="url(#SVGID_10_)" /><path
             style="fill:#6fccdd"
             id="path109"
             d="m 386.105,221.004 c 1.239,0.085 2.486,0.196 3.745,0.339 l -2.682,0 c -0.357,-0.11 -0.717,-0.235 -1.063,-0.339"
             clip-path="url(#SVGID_10_)" /><path
             style="fill:#6fccdd"
             id="path111"
             d="m 389.851,221.344 -6.453,5.07 c -0.006,-0.431 -0.02,-0.862 -0.026,-1.285 l 0.268,-3.785 3.53,0 c 0.951,0.293 1.904,0.496 2.681,0"
             clip-path="url(#SVGID_10_)" /><path
             style="fill:#6fccdd"
             id="path113"
             d="m 387.169,221.344 -3.53,0 c 0.176,-0.215 0.379,-0.359 0.601,-0.444 l 0.013,0 c 0.614,0.027 1.232,0.066 1.854,0.105 0.344,0.104 0.704,0.228 1.062,0.339"
             clip-path="url(#SVGID_10_)" /><path
             style="fill:#6fccdd"
             id="path115"
             d="m 385.994,305.664 c -5.684,3.621 -13.904,4.672 -21.655,6.192 l 21.655,-6.192 z"
             clip-path="url(#SVGID_10_)" /><path
             style="fill:#6fccdd"
             id="path117"
             d="m 384.436,274.736 c 1.089,7.947 1.05,16.984 1.559,25.513 l -1.559,-25.513 z"
             clip-path="url(#SVGID_10_)" /><path
             style="fill:#6fccdd"
             id="path119"
             d="m 384.436,274.736 c 0.032,-0.633 -0.15,-1.024 -0.354,-1.403 l -0.424,-1.709 0.215,-0.431 c 0.235,-0.326 0.562,-0.567 0.562,-1.128 5.187,2.003 11.934,0.978 18.478,0.502 l 10.146,0.274 -7.066,36.891 c -0.222,1.103 -0.438,2.219 -0.64,3.341 l -2.342,0 -17.018,-5.409 0,-5.415 c -0.508,-8.528 -0.469,-17.565 -1.557,-25.513"
             clip-path="url(#SVGID_10_)" /><path
             style="fill:#6fccdd"
             id="path121"
             d="m 384.436,274.736 -0.354,-1.403 c 0.203,0.379 0.386,0.771 0.354,1.403"
             clip-path="url(#SVGID_10_)" /><path
             style="fill:#6fccdd"
             id="path123"
             d="m 384.436,270.065 c 0,0.561 -0.327,0.802 -0.562,1.128 l 0.562,-1.128 z"
             clip-path="url(#SVGID_10_)" /><path
             style="fill:#6fccdd"
             id="path125"
             d="m 383.658,271.624 0.425,1.709 c -0.241,-0.462 -0.509,-0.893 -0.425,-1.709"
             clip-path="url(#SVGID_10_)" /><path
             style="fill:#6fccdd"
             id="path127"
             d="m 383.658,271.624 c 0.046,-0.169 0.124,-0.307 0.216,-0.431 l -0.216,0.431 z"
             clip-path="url(#SVGID_10_)" /><path
             style="fill:#6fccdd"
             id="path129"
             d="m 372.527,270.815 11.131,0.809 c -3.843,-0.137 -7.51,-0.45 -11.131,-0.809"
             clip-path="url(#SVGID_10_)" /><path
             style="fill:#6fccdd"
             id="path131"
             d="m 383.639,221.344 -0.268,3.785 c -0.052,-1.965 -0.13,-3.759 -0.098,-4.261 0.32,0.006 0.64,0.019 0.966,0.032 -0.221,0.085 -0.424,0.229 -0.6,0.444"
             clip-path="url(#SVGID_10_)" /><path
             style="fill:#6fccdd"
             id="path133"
             d="m 384.436,239.137 c -0.659,-0.346 -1.357,-0.659 -1.515,-1.553 l 1.515,1.553 z"
             clip-path="url(#SVGID_10_)" /><path
             style="fill:#6fccdd"
             id="path135"
             d="m 383.397,226.414 c 0.033,2.519 -0.032,4.92 -0.477,4.979 l 0.347,-4.881 0.13,-0.098 z"
             clip-path="url(#SVGID_10_)" /><path
             style="fill:#6fccdd"
             id="path137"
             d="m 383.397,226.414 -0.13,0.098 0.104,-1.383 c 0.007,0.424 0.021,0.853 0.026,1.285"
             clip-path="url(#SVGID_10_)" /><path
             style="fill:#6fccdd"
             id="path139"
             d="m 382.823,237.656 0.098,-0.072 c 0.157,0.894 0.855,1.207 1.515,1.553 l 0,30.928 -0.562,1.129 c -0.092,0.124 -0.17,0.261 -0.216,0.43 l -11.131,-0.809 c -6.701,-0.652 -13.271,-1.442 -20.573,-1.494 l -6.192,-4.672 33.806,-24.618 c 1.096,-0.783 2.179,-1.572 3.255,-2.375"
             clip-path="url(#SVGID_10_)" /><path
             style="fill:#6fccdd"
             id="path141"
             d="m 379.567,240.031 3.256,-2.375 c -1.076,0.803 -2.159,1.592 -3.256,2.375"
             clip-path="url(#SVGID_10_)" /><path
             style="fill:#6fccdd"
             id="path143"
             d="m 379.567,240.031 -33.805,24.618 c 10.277,-9.174 22.453,-16.481 33.805,-24.618"
             clip-path="url(#SVGID_10_)" /><path
             style="fill:#6fccdd"
             id="path145"
             d="m 372.527,270.815 -20.573,-1.494 c 7.302,0.052 13.872,0.842 20.573,1.494"
             clip-path="url(#SVGID_10_)" /><path
             style="fill:#6fccdd"
             id="path147"
             d="m 365.115,341.264 c 0.9,-0.9 2.732,-0.9 4.639,-0.783 l -4.639,0.783 z"
             clip-path="url(#SVGID_10_)" /><path
             transform="matrix(1,0,0,0.59552514,0,138.03271)"
             style="fill:#6fccdd"
             id="path149"
             d="m 365.115,341.264 0,48.506 c -5.377,-5.918 -1.09,-38.622 0,-48.506"
             clip-path="url(#SVGID_10_)" /><path
             style="fill:#6fccdd"
             id="path151"
             d="m 365.115,341.264 c -0.822,-1.735 -1.494,-3.628 -2.103,-5.592 l 2.103,5.592 z"
             clip-path="url(#SVGID_10_)" /><path
             style="fill:#6fccdd"
             id="path153"
             d="m 364.339,311.856 c -0.157,-1.168 0.273,-2.845 -0.776,-3.08 0.47,-2.329 -0.503,-3.197 -1.116,-4.424 l -0.443,-1.767 -5.416,-17.801 c -0.209,-1.044 -0.665,-1.84 -1.135,-2.629 l -1.201,-2.786 -2.297,-10.049 20.573,1.494 c 3.621,0.359 7.289,0.673 11.131,0.81 -0.084,0.815 0.184,1.246 0.425,1.709 l 0.353,1.403 1.559,25.513 0,5.415 -21.657,6.192 z"
             clip-path="url(#SVGID_10_)" /><path
             style="fill:#6fccdd"
             id="path155"
             d="m 364.339,311.856 -0.861,0.47 c 0.267,-0.176 0.554,-0.333 0.861,-0.47"
             clip-path="url(#SVGID_10_)" /><path
             style="fill:#6fccdd"
             id="path157"
             d="m 363.562,308.776 c 1.05,0.235 0.619,1.912 0.776,3.08 l -0.776,-3.08 z"
             clip-path="url(#SVGID_10_)" /><path
             style="fill:#6fccdd"
             id="path159"
             d="m 363.562,308.776 -1.116,-4.424 c 0.614,1.227 1.586,2.095 1.116,4.424"
             clip-path="url(#SVGID_10_)" /><path
             style="fill:#6fccdd"
             id="path161"
             d="m 363.014,335.672 -7.203,-19.183 c 3.895,4.887 5.14,12.443 7.203,19.183"
             clip-path="url(#SVGID_10_)" /><path
             style="fill:#6fccdd"
             id="path163"
             d="m 362.003,302.585 0.443,1.768 c -0.248,-0.49 -0.43,-1.044 -0.443,-1.768"
             clip-path="url(#SVGID_10_)" /><path
             style="fill:#6fccdd"
             id="path165"
             d="m 356.587,284.785 5.416,17.8 c -2.649,-5.064 -3.7,-11.804 -5.416,-17.8"
             clip-path="url(#SVGID_10_)" /><path
             style="fill:#6fccdd"
             id="path167"
             d="m 363.478,312.326 c -2.382,1.54 -3.465,4.411 -7.667,4.163 l 7.667,-4.163 z"
             clip-path="url(#SVGID_10_)" /><path
             style="fill:#6fccdd"
             id="path169"
             d="m 355.452,282.155 c 0.47,0.79 0.926,1.585 1.135,2.629 l -1.135,-2.629 z"
             clip-path="url(#SVGID_10_)" /><path
             style="fill:#6fccdd"
             id="path171"
             d="m 385.994,305.664 c 4.562,2.917 9.971,4.985 17.018,5.409 l 2.342,0 c 1.168,2.688 4.594,3.119 6.93,4.64 l 0.365,0 c 0.325,0.078 0.385,0.417 0.41,0.776 2.03,1.794 5.143,-0.039 6.937,-0.776 l 0.737,0.247 c 0.438,0.281 0.744,0.692 1.599,0.529 l -6.473,18.83 c -0.47,1.148 -0.887,2.336 -1.239,3.602 l -11.607,1.56 c -9.031,-1.207 -21.885,-0.587 -33.258,0 -1.906,-0.117 -3.739,-0.117 -4.639,0.783 l -2.102,-5.592 c -2.062,-6.74 -3.308,-14.296 -7.203,-19.183 4.202,0.248 5.285,-2.623 7.666,-4.163 l 0.862,-0.47 c 7.751,-1.52 15.972,-2.571 21.655,-6.192"
             clip-path="url(#SVGID_10_)" /><path
             style="fill:#6fccdd"
             id="path173"
             d="m 354.251,279.369 1.201,2.786 c -0.483,-0.835 -0.979,-1.664 -1.201,-2.786"
             clip-path="url(#SVGID_10_)" /><path
             style="fill:#6fccdd"
             id="path175"
             d="m 351.954,269.321 2.297,10.048 c -1.324,-2.799 -2.218,-5.996 -2.297,-10.048"
             clip-path="url(#SVGID_10_)" /><path
             style="fill:#6fccdd"
             id="path177"
             d="m 351.954,269.321 c -2.806,-0.815 -4.789,-2.408 -6.191,-4.672 l 6.191,4.672 z"
             clip-path="url(#SVGID_10_)" /><path
             style="fill:#6fccdd"
             id="path179"
             d="m 337.273,264.649 c -0.039,-0.737 -0.979,-0.581 -1.561,-0.776 l 47.555,-37.361 -0.348,4.88 0,6.192 -0.097,0.072 -3.256,2.375 c -11.353,8.137 -23.528,15.444 -33.805,24.618 l -8.488,0 z"
             clip-path="url(#SVGID_10_)" /><path
             style="fill:#6fccdd"
             id="path181"
             d="m 335.714,263.873 c -0.287,-29.851 20.325,-43.847 47.56,-43.005 -0.032,0.503 0.046,2.297 0.098,4.261 l -0.104,1.383 -47.554,37.361 z"
             clip-path="url(#SVGID_10_)"
             inkscape:connector-curvature="0"
             transform="matrix(1.02109,0,0,1.02109,-7.080143,-4.657349)" /><path
             style="fill:#6fccdd"
             id="path183"
             d="m 335.714,263.873 c 0.581,0.196 1.521,0.039 1.56,0.776 l -1.56,-0.776 z"
             clip-path="url(#SVGID_10_)" /><path
             style="fill:#6fccdd"
             id="path185"
             d="m 354.251,279.369 c 0.222,1.122 0.718,1.951 1.201,2.786 l 1.135,2.63 c 1.716,5.996 2.767,12.736 5.416,17.8 0.013,0.724 0.195,1.278 0.443,1.768 l 1.116,4.424 0.776,3.08 c -0.307,0.137 -0.594,0.294 -0.861,0.47 l -7.667,4.163 -20.097,-52.617 1.56,0.777 8.489,0 c 1.402,2.264 3.386,3.856 6.191,4.672 0.08,4.051 0.974,7.248 2.298,10.047"
             clip-path="url(#SVGID_10_)" /><path
             style="fill:#6fccdd"
             id="path187"
             d="m 335.714,263.873 20.097,52.617 c -16.749,-7.087 -23.098,-30.655 -20.097,-52.617"
             clip-path="url(#SVGID_10_)"
             inkscape:connector-curvature="0"
             transform="matrix(1.0996787,0,0,1.0996787,-33.391972,-28.924919)" /></g></g><line
         style="fill:none;stroke:#ffffff;stroke-width:7;stroke-linecap:round;stroke-linejoin:round"
         id="line189"
         y2="263.87299"
         x2="435.49799"
         y1="264.64899"
         x1="435.49799"
         clip-path="url(#SVGID_2_)" /><path
         style="fill:none;stroke:#ffffff;stroke-width:7;stroke-linecap:round;stroke-linejoin:round"
         id="path191"
         d="m 383.658,271.624 c -3.843,-0.137 -7.51,-0.45 -11.131,-0.809 -6.701,-0.652 -13.271,-1.442 -20.573,-1.494"
         clip-path="url(#SVGID_2_)" /><path
         transform="matrix(0.94051727,0,0,0.63746893,20.64618,121.1916)"
         style="fill:none;stroke:#ffffff;stroke-width:7;stroke-linecap:round;stroke-linejoin:round"
         id="path193"
         d="m 363.9188,390.5253 c 0.21744,-9.15908 0.1062,-39.3763 1.1962,-49.2613"
         clip-path="url(#SVGID_2_)"
         inkscape:connector-curvature="0"
         sodipodi:nodetypes="cc" /><path
         transform="matrix(0.87352959,0,0,0.87352959,52.371385,42.414538)"
         style="fill:none;stroke:#ffffff;stroke-width:7;stroke-linecap:round;stroke-linejoin:round"
         id="path195"
         d="m 414.619,338.921 c -0.065,1.024 -0.098,2.095 -0.104,3.211 -0.71403,12.47345 -0.748,19.48145 -0.37316,32.09231"
         clip-path="url(#SVGID_2_)" /><polyline
         transform="matrix(0.61376516,0,0,0.61376516,159.81915,130.77223)"
         style="fill:none;stroke:#ffffff;stroke-width:7;stroke-linecap:round;stroke-linejoin:round"
         id="polyline197"
         points="    413.06,388.138 413.582,371.637 414.515,342.132   "
         clip-path="url(#SVGID_2_)" /><path
         style="fill:none;stroke:#ffffff;stroke-width:7;stroke-linecap:round;stroke-linejoin:round"
         id="path199"
         d="m 405.354,311.073 c 1.168,2.688 4.594,3.119 6.93,4.64"
         clip-path="url(#SVGID_2_)" /><path
         style="fill:none;stroke:#ffffff;stroke-width:7;stroke-linecap:round;stroke-linejoin:round"
         id="path201"
         d="m 356.587,284.785 c 1.716,5.997 2.767,12.737 5.416,17.8"
         clip-path="url(#SVGID_2_)" /><path
         style="fill:none;stroke:#ffffff;stroke-width:7;stroke-linecap:round;stroke-linejoin:round"
         id="path203"
         d="m 362.003,302.585 c 0.013,0.724 0.195,1.278 0.443,1.768 0.613,1.227 1.586,2.095 1.116,4.424"
         clip-path="url(#SVGID_2_)" /><path
         style="fill:none;stroke:#ffffff;stroke-width:7;stroke-linecap:round;stroke-linejoin:round"
         id="path205"
         d="m 354.251,279.369 c 0.222,1.122 0.718,1.951 1.201,2.786 0.47,0.79 0.926,1.586 1.135,2.63"
         clip-path="url(#SVGID_2_)" /><path
         style="fill:none;stroke:#ffffff;stroke-width:7;stroke-linecap:round;stroke-linejoin:round"
         id="path207"
         d="m 351.954,269.321 c 0.079,4.052 0.973,7.249 2.297,10.048"
         clip-path="url(#SVGID_2_)" /><path
         style="fill:none;stroke:#ffffff;stroke-width:7;stroke-linecap:round;stroke-linejoin:round"
         id="path209"
         d="m 345.763,264.649 c 1.402,2.264 3.386,3.856 6.191,4.672"
         clip-path="url(#SVGID_2_)" /><path
         style="fill:none;stroke:#ffffff;stroke-width:7;stroke-linecap:round;stroke-linejoin:round"
         id="path211"
         d="m 383.658,271.624 c 0.046,-0.169 0.124,-0.307 0.216,-0.431 0.234,-0.326 0.562,-0.567 0.562,-1.128"
         clip-path="url(#SVGID_2_)" /><path
         style="fill:none;stroke:#ffffff;stroke-width:7;stroke-linecap:round;stroke-linejoin:round"
         id="path213"
         d="m 384.436,274.736 c 0.032,-0.633 -0.15,-1.024 -0.354,-1.403 -0.24,-0.463 -0.508,-0.893 -0.424,-1.709"
         clip-path="url(#SVGID_2_)" /><path
         style="fill:none;stroke:#ffffff;stroke-width:7;stroke-linecap:round;stroke-linejoin:round"
         id="path215"
         d="m 385.994,300.249 c -0.509,-8.528 -0.47,-17.565 -1.559,-25.513"
         clip-path="url(#SVGID_2_)" /><line
         style="fill:none;stroke:#ffffff;stroke-width:7;stroke-linecap:round;stroke-linejoin:round"
         id="line217"
         y2="300.24899"
         x2="385.99399"
         y1="305.664"
         x1="385.99399"
         clip-path="url(#SVGID_2_)" /><line
         style="fill:none;stroke:#ffffff;stroke-width:7;stroke-linecap:round;stroke-linejoin:round"
         id="line219"
         y2="311.073"
         x2="403.01199"
         y1="311.073"
         x1="405.354"
         clip-path="url(#SVGID_2_)" /><path
         style="fill:none;stroke:#ffffff;stroke-width:7;stroke-linecap:round;stroke-linejoin:round"
         id="path221"
         d="m 413.06,270.841 c -1.357,13.285 -4.639,24.67 -7.066,36.891 -0.222,1.103 -0.438,2.219 -0.64,3.341"
         clip-path="url(#SVGID_2_)" /><path
         style="fill:none;stroke:#ffffff;stroke-width:7;stroke-linecap:round;stroke-linejoin:round"
         id="path223"
         d="m 385.994,305.664 c 4.562,2.917 9.971,4.985 17.018,5.409"
         clip-path="url(#SVGID_2_)" /><path
         style="fill:none;stroke:#ffffff;stroke-width:7;stroke-linecap:round;stroke-linejoin:round"
         id="path225"
         d="m 364.339,311.856 c 7.751,-1.521 15.973,-2.571 21.655,-6.192"
         clip-path="url(#SVGID_2_)" /><path
         style="fill:none;stroke:#ffffff;stroke-width:7;stroke-linecap:round;stroke-linejoin:round"
         id="path227"
         d="m 365.115,341.264 c -0.822,-1.735 -1.494,-3.628 -2.103,-5.592 -2.061,-6.74 -3.307,-14.296 -7.202,-19.183"
         clip-path="url(#SVGID_2_)"
         inkscape:connector-curvature="0"
         transform="matrix(0.97777122,0,0,0.97687567,7.8291443,7.2383396)" /><path
         style="fill:none;stroke:#ffffff;stroke-width:7;stroke-linecap:round;stroke-linejoin:round"
         id="path231"
         d="m 403.012,340.48 c -9.031,-1.207 -21.885,-0.587 -33.258,0"
         clip-path="url(#SVGID_2_)"
         inkscape:connector-curvature="0"
         transform="matrix(1.093572,0,0,0.92683573,-37.736362,24.885456)" /><path
         style="fill:none;stroke:#ffffff;stroke-width:7;stroke-linecap:round;stroke-linejoin:round"
         id="path233"
         d="m 414.619,338.921 c -4.711,0.581 -6.969,2.767 -11.607,1.56"
         clip-path="url(#SVGID_2_)" /><path
         style="fill:none;stroke:#ffffff;stroke-width:7;stroke-linecap:round;stroke-linejoin:round"
         id="path235"
         d="m 422.331,316.489 c -0.424,8.012 -4.038,12.834 -6.473,18.83 -0.47,1.149 -0.887,2.336 -1.239,3.602"
         clip-path="url(#SVGID_2_)" /><path
         style="fill:none;stroke:#ffffff;stroke-width:7;stroke-linecap:round;stroke-linejoin:round"
         id="path237"
         d="m 412.283,315.713 c 0.15,-0.026 0.268,-0.026 0.365,0 0.326,0.078 0.385,0.417 0.411,0.776 2.029,1.794 5.142,-0.039 6.936,-0.776"
         clip-path="url(#SVGID_2_)" /><path
         style="fill:none;stroke:#ffffff;stroke-width:7;stroke-linecap:round;stroke-linejoin:round"
         id="path239"
         d="m 419.995,315.713 c 12.776,-7.908 27.457,-34.588 15.503,-50.287 l 0,-0.777"
         clip-path="url(#SVGID_2_)" /><path
         style="fill:none;stroke:#ffffff;stroke-width:7;stroke-linecap:round;stroke-linejoin:round"
         id="path241"
         d="m 422.331,316.489 c -0.854,0.163 -1.161,-0.248 -1.599,-0.529 -0.195,-0.13 -0.424,-0.234 -0.737,-0.247"
         clip-path="url(#SVGID_2_)" /><path
         style="fill:none;stroke:#ffffff;stroke-width:7;stroke-linecap:round;stroke-linejoin:round"
         id="path243"
         d="m 363.562,308.776 c 1.05,0.235 0.619,1.912 0.776,3.08"
         clip-path="url(#SVGID_2_)" /><path
         style="fill:none;stroke:#ffffff;stroke-width:7;stroke-linecap:round;stroke-linejoin:round"
         id="path245"
         d="m 355.811,316.489 c -16.749,-7.086 -23.098,-30.654 -20.097,-52.617"
         clip-path="url(#SVGID_2_)" /><path
         style="fill:none;stroke:#ffffff;stroke-width:7;stroke-linecap:round;stroke-linejoin:round"
         id="path247"
         d="m 364.339,311.856 c -0.307,0.137 -0.594,0.294 -0.861,0.47 -2.382,1.54 -3.465,4.411 -7.667,4.163"
         clip-path="url(#SVGID_2_)" /><line
         style="fill:none;stroke:#ffffff;stroke-width:7;stroke-linecap:round;stroke-linejoin:round"
         id="line249"
         y2="239.13699"
         x2="384.436"
         y1="270.065"
         x1="384.436"
         clip-path="url(#SVGID_2_)" /><path
         style="fill:none;stroke:#ffffff;stroke-width:7;stroke-linecap:round;stroke-linejoin:round"
         id="path251"
         d="m 413.06,270.841 c -3.139,-0.626 -6.616,-0.529 -10.146,-0.274 -6.544,0.476 -13.292,1.501 -18.478,-0.502"
         clip-path="url(#SVGID_2_)" /><path
         style="fill:none;stroke:#ffffff;stroke-width:7;stroke-linecap:round;stroke-linejoin:round"
         id="path253"
         d="m 420.771,266.208 c -1.716,0.196 -5.369,2.728 -7.712,4.633"
         clip-path="url(#SVGID_2_)" /><path
         style="fill:none;stroke:#ffffff;stroke-width:7;stroke-linecap:round;stroke-linejoin:round"
         id="path255"
         d="m 420.771,266.208 c -3.151,-1.859 -6.205,-4.267 -9.284,-6.916 -8.137,-7.001 -16.423,-15.66 -27.052,-20.155"
         clip-path="url(#SVGID_2_)" /><path
         style="fill:none;stroke:#ffffff;stroke-width:7;stroke-linecap:round;stroke-linejoin:round"
         id="path257"
         d="m 435.498,263.873 c -4.286,1.364 -8.378,2.995 -14.728,2.336"
         clip-path="url(#SVGID_2_)" /><path
         style="fill:none;stroke:#ffffff;stroke-width:7;stroke-linecap:round;stroke-linejoin:round"
         id="path259"
         d="m 428.523,237.584 c 5.103,5.723 9.429,15.536 6.975,26.289"
         clip-path="url(#SVGID_2_)" /><path
         style="fill:none;stroke:#ffffff;stroke-width:7;stroke-linecap:round;stroke-linejoin:round"
         id="path261"
         d="m 391.41,221.344 c 17.056,0.737 29.283,6.31 37.113,16.24"
         clip-path="url(#SVGID_2_)" /><line
         style="fill:none;stroke:#ffffff;stroke-width:7;stroke-linecap:round;stroke-linejoin:round"
         id="line263"
         y2="221.34399"
         x2="391.41"
         y1="221.34399"
         x1="389.85101"
         clip-path="url(#SVGID_2_)" /><path
         style="fill:none;stroke:#ffffff;stroke-width:7;stroke-linecap:round;stroke-linejoin:round"
         id="path265"
         d="m 382.921,231.392 c 0.444,-0.059 0.51,-2.46 0.477,-4.979 -0.006,-0.43 -0.02,-0.861 -0.026,-1.285 -0.053,-1.964 -0.13,-3.758 -0.098,-4.26 0,-0.033 0,-0.059 0.007,-0.079"
         clip-path="url(#SVGID_2_)" /><path
         style="fill:none;stroke:#ffffff;stroke-width:7;stroke-linecap:round;stroke-linejoin:round"
         id="path267"
         d="m 384.436,239.137 c -0.659,-0.346 -1.357,-0.659 -1.515,-1.553"
         clip-path="url(#SVGID_2_)" /><path
         style="fill:none;stroke:#ffffff;stroke-width:7;stroke-linecap:round;stroke-linejoin:round"
         id="path269"
         d="m 384.252,220.9 c 0.614,0.026 1.233,0.065 1.854,0.104 1.239,0.085 2.486,0.196 3.745,0.34"
         clip-path="url(#SVGID_2_)" /><path
         style="fill:none;stroke:#ffffff;stroke-width:7;stroke-linecap:round;stroke-linejoin:round"
         id="path271"
         d="m 335.714,263.873 c -0.287,-29.851 20.325,-43.847 47.56,-43.005 0.32,0.006 0.64,0.02 0.966,0.032"
         clip-path="url(#SVGID_2_)" /><path
         style="fill:none;stroke:#ffffff;stroke-width:7;stroke-linecap:round;stroke-linejoin:round"
         id="path273"
         d="m 337.273,264.649 c -0.039,-0.737 -0.979,-0.581 -1.561,-0.776"
         clip-path="url(#SVGID_2_)" /><line
         style="fill:none;stroke:#ffffff;stroke-width:7;stroke-linecap:round;stroke-linejoin:round"
         id="line275"
         y2="264.64899"
         x2="337.27301"
         y1="264.64899"
         x1="345.763"
         clip-path="url(#SVGID_2_)" /><path
         style="fill:none;stroke:#ffffff;stroke-width:7;stroke-linecap:round;stroke-linejoin:round"
         id="path277"
         d="m 382.823,237.656 c -1.076,0.803 -2.159,1.592 -3.256,2.375 -11.353,8.137 -23.528,15.444 -33.806,24.618"
         clip-path="url(#SVGID_2_)" /><line
         style="fill:none;stroke:#ffffff;stroke-width:7;stroke-linecap:round;stroke-linejoin:round"
         id="line279"
         y2="237.584"
         x2="382.92099"
         y1="237.65601"
         x1="382.823"
         clip-path="url(#SVGID_2_)" /><line
         style="fill:none;stroke:#ffffff;stroke-width:7;stroke-linecap:round;stroke-linejoin:round"
         id="line281"
         y2="237.584"
         x2="382.92099"
         y1="231.392"
         x1="382.92099"
         clip-path="url(#SVGID_2_)" /></g><text
       style="font-style:normal;font-variant:normal;font-weight:bold;font-stretch:normal;font-size:31.25px;line-height:125%;font-family:Verdana-Bold;-inkscape-font-specification:'Verdana-Bold, Bold';text-align:start;writing-mode:lr-tb;text-anchor:start;fill:#ffffff"
       id="text285"
       font-size="30.747"
       transform="matrix(0,-1.0230836,0.97743723,0,0,0)"
       x="-352.93265"
       y="489.80005"
       sodipodi:linespacing="125%">AlBERTO</text>
</g><g
     transform="translate(-315.499,-199.29201)"
     id="g287"><defs
       id="defs289"><rect
         y="0"
         x="0"
         height="595.28003"
         width="841.89001"
         id="SVGID_11_" /></defs><clipPath
       id="SVGID_12_"><use
         height="100%"
         width="100%"
         y="0"
         x="0"
         style="overflow:visible"
         id="use293"
         overflow="visible"
         xlink:href="#SVGID_11_" /></clipPath></g></svg>